<svg width="191" height="75" viewBox="0 0 191 75" fill="none" xmlns="http://www.w3.org/2000/svg">
<path d="M12.4114 28.0823C12.4114 29.3965 12.1399 30.4893 11.5971 31.3606C10.94 32.4034 9.99008 32.9248 8.7473 32.9248C8.26161 32.9248 7.64737 32.782 6.90456 32.4963C6.0189 32.1535 5.57607 31.7821 5.57607 31.3821C5.57607 30.925 5.81891 30.6964 6.30459 30.6964C6.37602 30.6964 6.48315 30.7035 6.626 30.7178C6.78313 30.7321 6.89741 30.7393 6.96884 30.7393C7.89735 30.7393 8.54017 30.4821 8.89729 29.9679C9.1687 29.5679 9.30441 28.9251 9.30441 28.0394C9.30441 27.3538 8.91872 26.7181 8.14734 26.1324C7.41881 25.5896 6.69742 25.3182 5.98318 25.3182C5.72606 25.3182 5.59749 25.4182 5.59749 25.6181C5.59749 25.7039 5.64035 25.8753 5.72606 26.1324C5.82605 26.3895 5.8689 26.5681 5.85462 26.6681C5.54035 29.7822 4.94039 32.882 4.05473 35.9675C3.99759 36.1818 3.82617 36.4032 3.54048 36.6318C3.25478 36.8603 2.99765 36.9746 2.7691 36.9746C1.78344 36.9746 1.29062 36.2461 1.29062 34.789C1.29062 33.6891 1.4906 32.0463 1.89058 29.8607C2.29055 27.6609 2.49054 26.0467 2.49054 25.0182C2.49054 24.9753 2.26198 24.7182 1.80487 24.2468C1.36204 23.7611 1.14062 23.3397 1.14062 22.9826C1.14062 22.4969 1.52632 22.0898 2.2977 21.7612C2.92623 21.4898 3.51905 21.3541 4.07616 21.3541C6.23317 21.3541 8.11162 21.9184 9.71152 23.0469C11.5114 24.3182 12.4114 25.9967 12.4114 28.0823Z" fill="url(#paint0_linear)"/>
<path d="M24.1552 34.789C24.1552 35.5461 23.2338 36.0961 21.3911 36.4389C20.2054 36.6675 18.9269 36.7817 17.5556 36.7817C16.1842 36.7817 15.2271 36.6389 14.6843 36.3532C13.9272 35.9389 13.5487 35.1104 13.5487 33.8676C13.5487 32.7534 13.7558 31.2607 14.1701 29.3893C14.6558 27.1895 14.9343 25.7039 15.0057 24.9325C14.4629 24.6039 14.1915 24.1825 14.1915 23.6683C14.1915 22.6112 14.6343 21.9184 15.52 21.5898C16.0342 21.3898 16.9199 21.2898 18.177 21.2898C18.9198 21.2898 19.5769 21.2684 20.1483 21.2256C20.7339 21.1684 21.0268 21.1399 21.0268 21.1399C21.5696 21.1399 22.0553 21.3327 22.4838 21.7184C22.9267 22.0898 23.1481 22.5398 23.1481 23.0683C23.1481 23.754 22.8124 24.2325 22.141 24.5039C21.4696 24.7611 20.1911 24.8896 18.3055 24.8896C18.1912 24.8896 18.0841 25.2182 17.9841 25.8753C17.8556 26.7466 17.7484 27.2895 17.6627 27.5037C17.6056 27.6894 17.7627 27.8037 18.1341 27.8466C18.277 27.8609 18.5269 27.868 18.8841 27.868C19.4697 27.8252 20.3483 27.7752 21.5196 27.718C22.091 27.718 22.4624 27.7537 22.6338 27.8252C22.9481 27.968 23.1052 28.2823 23.1052 28.768C23.1052 29.4393 22.6553 30.0107 21.7553 30.4821C20.9839 30.8821 20.2126 31.0821 19.4412 31.0821C18.2412 31.0821 17.5341 31.0964 17.3199 31.125C17.0627 31.1678 16.9342 31.6963 16.9342 32.7106C16.9342 33.2391 17.1985 33.5819 17.727 33.7391C18.227 33.7819 18.7198 33.8319 19.2055 33.8891C19.4197 33.9176 19.8626 33.9034 20.534 33.8462C21.3196 33.7748 21.8839 33.7391 22.2267 33.7391C23.5123 33.7391 24.1552 34.0891 24.1552 34.789Z" fill="url(#paint1_linear)"/>
<path d="M36.1502 32.732C36.1502 34.1033 35.5146 35.2033 34.2432 36.0318C33.1147 36.7603 31.7719 37.1246 30.2149 37.1246C29.1435 37.1246 28.0793 36.9032 27.0222 36.4603C25.8509 35.9604 25.2652 35.389 25.2652 34.7462C25.2652 34.1033 25.5009 33.7676 25.9723 33.7391C26.3723 33.7248 26.9508 33.8676 27.7079 34.1676C28.465 34.4533 29.1007 34.5962 29.6149 34.5962C30.5006 34.5962 31.1648 34.3747 31.6077 33.9319C32.0648 33.4748 32.2933 32.8248 32.2933 31.982C32.2933 31.6821 31.8505 31.3749 30.9648 31.0607C30.4792 30.8178 30.0006 30.5607 29.5292 30.2893C29.0007 29.9179 28.7364 29.4893 28.7364 29.0037C28.7364 28.8751 29.3578 28.4751 30.6006 27.8037C31.8434 27.1181 32.4648 26.5252 32.4648 26.0253C32.4933 25.5539 32.2148 25.1539 31.6291 24.8253C31.0577 24.4968 30.5077 24.3325 29.9792 24.3325C29.6078 24.3325 29.1078 24.5254 28.4793 24.911C27.8508 25.2825 27.4008 25.4682 27.1294 25.4682C26.858 25.4682 26.6008 25.3967 26.358 25.2539C26.0294 25.0825 25.8652 24.8539 25.8652 24.5682C25.8652 23.6683 26.6151 22.8397 28.115 22.0827C29.4578 21.3827 30.6649 21.0327 31.7362 21.0327C32.7933 21.0327 33.7004 21.3898 34.4575 22.1041C35.2289 22.8183 35.6146 23.654 35.6146 24.6111C35.6146 25.3539 35.336 26.1324 34.7789 26.9466C34.2218 27.7609 33.9432 28.268 33.9432 28.468C33.9432 28.5822 34.1432 28.8465 34.5432 29.2608C35.0003 29.8036 35.3431 30.275 35.5717 30.675C35.9574 31.3321 36.1502 32.0178 36.1502 32.732Z" fill="url(#paint2_linear)"/>
<path d="M50.3937 23.4968C50.3937 24.3968 50.2437 25.6539 49.9437 27.268C49.6437 28.8822 49.4937 29.975 49.4937 30.5464C49.4937 31.0035 49.558 31.6606 49.6866 32.5177C49.8151 33.3748 49.8794 34.0319 49.8794 34.489C49.8794 36.0175 49.5652 36.7817 48.9366 36.7817C48.4366 36.7817 47.9938 36.5318 47.6081 36.0318C47.3939 35.7318 47.1582 35.2676 46.901 34.639C46.701 34.139 46.5582 33.8891 46.4725 33.8891C46.3725 33.8891 46.0225 34.1462 45.4225 34.6604C44.6797 35.3033 44.0298 35.7818 43.4727 36.0961C42.587 36.6103 41.7371 36.8675 40.9228 36.8675C39.5372 36.8675 38.5587 36.3818 37.9873 35.4104C37.573 34.6962 37.3588 33.6534 37.3445 32.282C37.3302 30.9821 37.5016 29.4679 37.8587 27.7394C38.0301 26.9109 38.3801 25.511 38.9087 23.5397C39.2515 22.2541 40.0586 21.597 41.3299 21.5684C42.087 21.5541 42.4656 22.2255 42.4656 23.5826C42.4656 24.6825 42.3513 25.4324 42.1227 25.8324C41.8371 26.2181 41.5442 26.6109 41.2442 27.0109C41.0014 27.4823 40.78 28.2251 40.58 29.2394C40.3943 30.1679 40.3014 30.9678 40.3014 31.6392C40.3014 32.682 40.8585 33.2034 41.9728 33.2034C42.487 33.2034 43.1798 32.8534 44.0512 32.1535C44.8654 31.4821 45.4797 30.8178 45.8939 30.1607C46.1654 29.7322 46.4153 28.718 46.6439 27.1181C46.9296 25.2325 47.1796 23.9682 47.3939 23.3254C47.7938 22.0826 48.3795 21.4613 49.1509 21.4613C49.6794 21.4613 50.0365 21.6898 50.2223 22.1469C50.3365 22.4183 50.3937 22.8683 50.3937 23.4968Z" fill="url(#paint3_linear)"/>
<path d="M65.2633 27.5252C65.2633 30.1393 63.9777 32.3749 61.4064 34.2319C59.0637 35.9175 56.5425 36.7603 53.8426 36.7603C52.9427 36.7603 52.4927 36.2318 52.4927 35.1747C52.4927 34.9319 52.7427 34.7033 53.2427 34.489C53.7569 34.2748 54.014 34.0962 54.014 33.9533C54.014 33.7962 53.864 33.6105 53.5641 33.3962C53.5069 33.3248 53.4784 33.1534 53.4784 32.882C53.4784 32.3677 53.6212 31.075 53.9069 29.0037C54.1926 26.9324 54.3354 25.5967 54.3354 24.9968C54.3354 24.4682 54.064 24.0754 53.5212 23.8183C52.9927 23.5611 52.7284 23.254 52.7284 22.8969C52.7284 22.1541 53.2641 21.6755 54.3354 21.4613C54.8068 21.3613 55.6425 21.3113 56.8424 21.3113C59.1994 21.3113 61.1207 21.7612 62.6064 22.6612C64.3777 23.7468 65.2633 25.3682 65.2633 27.5252ZM61.8993 27.8252C61.885 26.6538 61.385 25.7753 60.3994 25.1896C59.5708 24.6896 58.528 24.4396 57.271 24.4396C57.1567 24.4396 57.0996 24.4754 57.0996 24.5468C57.0996 24.6039 57.1496 24.7182 57.2495 24.8896C57.3495 25.061 57.3995 25.1753 57.3995 25.2325C57.3995 26.2181 57.2853 27.4466 57.0567 28.9179C56.8282 30.1607 56.6067 31.4106 56.3925 32.6677C56.3639 32.782 56.271 32.9034 56.1139 33.032C55.9711 33.1605 55.8996 33.2748 55.8996 33.3748C55.8996 33.432 55.9139 33.4891 55.9425 33.5462C57.3281 33.5462 58.6423 33.0177 59.8851 31.9606C61.2422 30.8035 61.9136 29.4251 61.8993 27.8252Z" fill="url(#paint4_linear)"/>
<path d="M77.1374 34.789C77.1374 35.5461 76.216 36.0961 74.3733 36.4389C73.1876 36.6675 71.9091 36.7817 70.5378 36.7817C69.1665 36.7817 68.2094 36.6389 67.6665 36.3532C66.9094 35.9389 66.5309 35.1104 66.5309 33.8676C66.5309 32.7534 66.738 31.2607 67.1523 29.3893C67.638 27.1895 67.9165 25.7039 67.988 24.9325C67.4451 24.6039 67.1737 24.1825 67.1737 23.6683C67.1737 22.6112 67.6165 21.9184 68.5022 21.5898C69.0165 21.3898 69.9021 21.2898 71.1592 21.2898C71.902 21.2898 72.5591 21.2684 73.1305 21.2256C73.7162 21.1684 74.009 21.1399 74.009 21.1399C74.5518 21.1399 75.0375 21.3327 75.4661 21.7184C75.9089 22.0898 76.1303 22.5398 76.1303 23.0683C76.1303 23.754 75.7946 24.2325 75.1232 24.5039C74.4518 24.7611 73.1733 24.8896 71.2877 24.8896C71.1735 24.8896 71.0663 25.2182 70.9663 25.8753C70.8378 26.7466 70.7306 27.2895 70.6449 27.5037C70.5878 27.6894 70.7449 27.8037 71.1163 27.8466C71.2592 27.8609 71.5092 27.868 71.8663 27.868C72.452 27.8252 73.3305 27.7752 74.5018 27.718C75.0732 27.718 75.4446 27.7537 75.616 27.8252C75.9303 27.968 76.0874 28.2823 76.0874 28.768C76.0874 29.4393 75.6375 30.0107 74.7375 30.4821C73.9661 30.8821 73.1948 31.0821 72.4234 31.0821C71.2235 31.0821 70.5164 31.0964 70.3021 31.125C70.045 31.1678 69.9164 31.6963 69.9164 32.7106C69.9164 33.2391 70.1807 33.5819 70.7092 33.7391C71.2092 33.7819 71.702 33.8319 72.1877 33.8891C72.402 33.9176 72.8448 33.9034 73.5162 33.8462C74.3018 33.7748 74.8661 33.7391 75.2089 33.7391C76.4946 33.7391 77.1374 34.0891 77.1374 34.789Z" fill="url(#paint5_linear)"/>
<path d="M92.4108 23.904C92.4108 24.8039 92.2751 26.3895 92.0037 28.6608C91.718 30.975 91.3966 33.1177 91.0395 35.089C90.8538 36.1175 90.3038 36.646 89.3896 36.6746C88.8039 36.6889 88.4325 36.3818 88.2754 35.7532C88.2039 35.5104 88.1682 34.9604 88.1682 34.1033C88.1682 33.8462 88.1968 33.3962 88.2539 32.7534C88.3254 32.0963 88.3611 31.6535 88.3611 31.4249C88.3611 31.1107 88.3182 30.9535 88.2325 30.9535C88.2611 30.9535 87.9968 30.9464 87.4397 30.9321C86.8969 30.9035 86.4041 30.8892 85.9612 30.8892C83.7042 30.8892 82.5329 31.1107 82.4472 31.5535C82.2186 32.5534 81.8972 34.0105 81.4829 35.9247C81.4258 36.1532 81.2758 36.3818 81.033 36.6103C80.7473 36.8532 80.4544 36.9746 80.1544 36.9746C79.3402 36.9603 78.9331 36.4246 78.9331 35.3675C78.9331 35.1247 78.9474 34.5605 78.9759 33.6748C79.0045 32.7891 79.0188 32.2606 79.0188 32.0892C79.0188 31.9892 78.9259 31.6678 78.7402 31.125C78.5688 30.5821 78.4831 30.0964 78.4831 29.6679C78.4831 28.8822 78.8188 28.318 79.4902 27.9751C79.6473 27.0038 79.8045 26.0253 79.9616 25.0396C80.1616 23.8968 80.3759 22.9469 80.6044 22.1898C80.8044 21.547 81.4615 21.2113 82.5757 21.1827C83.0471 21.1684 83.3542 21.2898 83.4971 21.547C83.5971 21.7184 83.6399 22.0541 83.6257 22.554C83.6257 23.0826 83.5042 23.8754 83.2614 24.9325C83.0186 25.9753 82.89 26.7681 82.8757 27.3109C82.8757 27.5109 83.9542 27.6109 86.1112 27.6109C87.8968 27.6109 88.7896 27.5395 88.7896 27.3966C88.7896 26.3252 88.9468 25.1396 89.261 23.8397C89.6753 22.0684 90.2253 21.1898 90.9109 21.2041C91.9109 21.2041 92.4108 22.1041 92.4108 23.904Z" fill="url(#paint6_linear)"/>
<path d="M108.384 33.5034C108.398 33.6462 108.406 33.8034 108.406 33.9748C108.406 34.7033 108.263 35.5818 107.977 36.6103C107.691 37.6388 107.363 38.4674 106.991 39.0959C106.877 39.2959 106.72 39.3959 106.52 39.3959C106.363 39.3959 106.234 39.3316 106.134 39.203C105.963 39.0745 105.791 38.6459 105.62 37.9174C105.52 37.5174 105.449 37.1317 105.406 36.7603C105.034 36.6746 104.699 36.4318 104.399 36.0318C104.184 35.7318 103.949 35.2676 103.692 34.639C103.492 34.139 103.349 33.8891 103.263 33.8891C103.163 33.8891 102.813 34.1462 102.213 34.6604C101.47 35.3033 100.82 35.7818 100.263 36.0961C99.3776 36.6103 98.5276 36.8675 97.7134 36.8675C96.3278 36.8675 95.3493 36.3818 94.7779 35.4104C94.3636 34.6962 94.1493 33.6534 94.1351 32.282C94.1208 30.9821 94.2922 29.4679 94.6493 27.7394C94.8207 26.9109 95.1707 25.511 95.6992 23.5397C96.0421 22.2541 96.8492 21.597 98.1205 21.5684C98.8776 21.5541 99.2562 22.2255 99.2562 23.5826C99.2562 24.6825 99.1419 25.4324 98.9133 25.8324C98.6276 26.2181 98.3348 26.6109 98.0348 27.0109C97.792 27.4823 97.5705 28.2251 97.3706 29.2394C97.1849 30.1679 97.092 30.9678 97.092 31.6392C97.092 32.682 97.6491 33.2034 98.7633 33.2034C99.2776 33.2034 99.9704 32.8534 100.842 32.1535C101.656 31.4821 102.27 30.8178 102.685 30.1607C102.956 29.7322 103.206 28.718 103.434 27.1181C103.72 25.2325 103.97 23.9682 104.184 23.3254C104.584 22.0826 105.17 21.4613 105.941 21.4613C106.47 21.4613 106.827 21.6898 107.013 22.1469C107.127 22.4183 107.184 22.8683 107.184 23.4968C107.184 24.3968 107.034 25.6539 106.734 27.268C106.434 28.8822 106.284 29.975 106.284 30.5464C106.284 31.0035 106.349 31.6606 106.477 32.5177C106.52 32.8748 106.563 33.1963 106.606 33.4819C107.006 33.2962 107.406 33.2034 107.806 33.2034C108.134 33.2034 108.327 33.3034 108.384 33.5034Z" fill="url(#paint7_linear)"/>
<path d="M122.857 23.4968C122.857 24.3968 122.707 25.6539 122.407 27.268C122.107 28.8822 121.957 29.975 121.957 30.5464C121.957 31.0035 122.021 31.6606 122.15 32.5177C122.279 33.3748 122.343 34.0319 122.343 34.489C122.343 36.0175 122.029 36.7817 121.4 36.7817C120.9 36.7817 120.457 36.5318 120.072 36.0318C119.857 35.7318 119.622 35.2676 119.364 34.639C119.164 34.139 119.022 33.8891 118.936 33.8891C118.836 33.8891 118.486 34.1462 117.886 34.6604C117.143 35.3033 116.493 35.7818 115.936 36.0961C115.05 36.6103 114.201 36.8675 113.386 36.8675C112.001 36.8675 111.022 36.3818 110.451 35.4104C110.036 34.6962 109.822 33.6534 109.808 32.282C109.794 30.9821 109.965 29.4679 110.322 27.7394C110.494 26.9109 110.844 25.511 111.372 23.5397C111.715 22.2541 112.522 21.597 113.793 21.5684C114.55 21.5541 114.929 22.2255 114.929 23.5826C114.929 24.6825 114.815 25.4324 114.586 25.8324C114.3 26.2181 114.008 26.6109 113.708 27.0109C113.465 27.4823 113.243 28.2251 113.043 29.2394C112.858 30.1679 112.765 30.9678 112.765 31.6392C112.765 32.682 113.322 33.2034 114.436 33.2034C114.95 33.2034 115.643 32.8534 116.515 32.1535C117.329 31.4821 117.943 30.8178 118.357 30.1607C118.629 29.7322 118.879 28.718 119.107 27.1181C119.393 25.2325 119.643 23.9682 119.857 23.3254C120.257 22.0826 120.843 21.4613 121.614 21.4613C122.143 21.4613 122.5 21.6898 122.686 22.1469C122.8 22.4183 122.857 22.8683 122.857 23.4968Z" fill="url(#paint8_linear)"/>
<path d="M124.742 35.7104C124.899 35.1247 125.37 34.389 126.156 33.5034C126.542 33.0605 127.235 32.3392 128.235 31.3392C128.977 30.625 129.37 30.1822 129.413 30.0107C129.427 29.9679 129.292 29.6965 129.006 29.1965C128.634 28.6108 128.377 28.0537 128.235 27.5252C128.02 26.7109 128.027 25.8896 128.256 25.061C128.642 23.6754 129.592 22.6683 131.106 22.0398C132.22 21.5684 133.563 21.3327 135.134 21.3327C136.505 21.3327 137.527 21.4113 138.198 21.5684C139.398 21.8541 139.884 22.4112 139.655 23.2397C139.47 23.8968 138.934 24.6539 138.048 25.511C137.677 29.4965 137.205 32.532 136.634 34.6176C136.434 35.3461 136.27 35.8175 136.141 36.0318C135.855 36.6032 135.47 36.8889 134.984 36.8889C134.327 36.9032 133.991 36.2746 133.977 35.0033C133.92 32.332 134.291 28.9608 135.091 24.8896C134.834 24.7182 134.491 24.6325 134.063 24.6325C133.463 24.6468 132.913 24.7682 132.413 24.9968C131.799 25.2825 131.413 25.7039 131.256 26.261C131.099 26.8609 131.27 27.3895 131.77 27.8466C131.884 27.9751 132.377 28.2894 133.248 28.7894C133.791 29.1179 134.02 29.4251 133.934 29.7108C133.82 30.125 133.184 30.925 132.027 32.1106C130.884 33.282 129.72 34.3176 128.534 35.2176C127.163 36.2603 126.17 36.7817 125.556 36.7817C124.813 36.796 124.542 36.4389 124.742 35.7104Z" fill="url(#paint9_linear)"/>
<path d="M0.904297 65.2828C0.904297 65.1747 0.969165 65.0485 1.0989 64.9044C1.23584 64.7602 1.3836 64.6377 1.54216 64.5368C1.54937 63.8016 1.55297 63.2034 1.55297 62.7421C1.55297 62.3673 1.58901 62.025 1.66109 61.715C1.73316 61.4051 1.7692 61.1132 1.7692 60.8393C1.77641 60.5655 1.89533 60.3708 2.12597 60.2555C2.36382 60.1402 2.51878 60.0825 2.59086 60.0825C2.77825 60.0825 2.87916 60.1835 2.89357 60.3853C2.89357 60.5799 2.85393 61.4267 2.77465 62.9259C2.77465 63.3656 2.76744 63.7404 2.75302 64.0503C3.16385 63.9494 3.71883 63.8485 4.41796 63.7476C5.1243 63.6395 5.82343 63.5818 6.51535 63.5746C6.58742 62.58 6.67391 61.8808 6.77482 61.4772C6.87572 61.0736 6.92618 60.7745 6.92618 60.5799C6.92618 60.5222 6.92257 60.4826 6.91537 60.4609C6.90816 60.4321 6.90455 60.3997 6.90455 60.3636C6.90455 60.2844 6.93699 60.2087 7.00186 60.1366C7.06672 60.0573 7.13519 60.0177 7.20727 60.0177C7.32259 60.0177 7.43791 60.1402 7.55323 60.3853C7.66855 60.6231 7.72621 61.1493 7.72621 61.9637C7.72621 62.1079 7.7118 62.3277 7.68297 62.6232C7.65414 62.9115 7.63972 63.2466 7.63972 63.6286C7.68297 63.6359 7.75504 63.6467 7.85595 63.6611C7.95685 63.6755 8.0073 63.7512 8.0073 63.8881C8.0073 63.9169 7.99289 63.989 7.96406 64.1043C7.94244 64.2125 7.88838 64.2809 7.80189 64.3098C7.72261 64.3314 7.66495 64.3458 7.62891 64.353C7.62891 65.8377 7.66134 66.7711 7.72621 67.1531C7.79108 67.5279 7.82351 67.7333 7.82351 67.7694C7.82351 68 7.72261 68.155 7.5208 68.2342C7.32619 68.3063 7.18925 68.3424 7.10997 68.3424C6.93699 68.3424 6.78203 68.0829 6.64508 67.5639C6.51535 67.045 6.45048 66.2342 6.45048 65.1314C6.45048 64.9512 6.45408 64.7674 6.46129 64.58C5.87028 64.6882 5.2252 64.8035 4.52607 64.926C3.82694 65.0485 3.26476 65.1566 2.83952 65.2503C2.85393 65.8918 2.98367 66.8576 3.22872 68.1478C3.23593 68.1766 3.23953 68.2018 3.23953 68.2234C3.23953 68.4036 3.12782 68.5478 2.90438 68.6559C2.80348 68.7063 2.71338 68.7316 2.6341 68.7316C2.51157 68.7316 2.41067 68.6703 2.33139 68.5478C1.89893 67.7766 1.66109 66.7387 1.61784 65.4341C1.43045 65.4774 1.27909 65.5026 1.16377 65.5098C0.990787 65.4882 0.904297 65.4125 0.904297 65.2828Z" fill="url(#paint10_linear)"/>
<path d="M9.84522 65.8558C9.84522 64.9765 10.047 63.8737 10.4507 62.5475C10.8615 61.2213 11.6111 60.5582 12.6994 60.5582C14.04 60.6015 15.0022 61.1096 15.586 62.0826C16.1698 63.0556 16.4761 63.9674 16.505 64.8179C16.505 65.5963 16.123 66.3891 15.359 67.1964C14.6166 68.0901 13.7012 68.537 12.6129 68.537C11.7192 68.4937 11.0345 68.2342 10.5588 67.7586C10.0831 67.2756 9.84522 66.6414 9.84522 65.8558ZM11.2183 65.4666C11.2183 66.1152 11.3372 66.5873 11.575 66.8828C11.8129 67.1783 12.1192 67.3261 12.494 67.3261C13.0345 67.3261 13.6075 67.0342 14.213 66.4504C14.8256 65.8666 15.1319 65.2648 15.1319 64.6449C15.1319 63.9242 14.8436 63.2683 14.267 62.6773C13.6976 62.079 13.2219 61.7799 12.8399 61.7799C12.357 61.7799 11.9642 62.2412 11.6615 63.1638C11.366 64.0791 11.2183 64.8467 11.2183 65.4666Z" fill="url(#paint11_linear)"/>
<path d="M17.7699 61.4231C17.8852 60.479 18.6744 59.8915 20.1376 59.6609C20.4835 59.6032 20.8079 59.5744 21.1106 59.5744C22.1196 59.5744 22.8224 59.8195 23.2188 60.3096C23.6152 60.7925 23.8134 61.3655 23.8134 62.0286C23.8134 62.425 23.7485 62.7818 23.6188 63.0989C23.9864 63.2647 24.3071 63.5638 24.581 63.9962C24.8621 64.4215 25.0026 64.9188 25.0026 65.4882C25.0026 66.4252 24.6386 67.2072 23.9107 67.8342C23.1827 68.4541 21.8169 68.8577 19.8132 69.0451C19.042 69.0451 18.4402 68.6235 18.0077 67.7802C18.0294 67.5207 18.1122 67.3549 18.2564 67.2829C18.4078 67.2108 18.5159 67.1747 18.5807 67.1747C18.7033 67.1747 18.797 67.1928 18.8618 67.2288C18.9339 67.2648 19.0204 67.3405 19.1213 67.4558C19.0925 66.872 19.06 66.1297 19.024 65.2287C19.0096 64.8179 19.0024 64.4287 19.0024 64.0611C19.0024 62.9367 19.0708 62.0646 19.2078 61.4448C19.2582 61.2069 19.4528 61.0556 19.7916 60.9907C19.9574 60.9907 20.0403 61.106 20.0403 61.3367C20.033 61.5096 20.0294 61.715 20.0294 61.9529C20.0294 62.4142 20.0403 63.016 20.0619 63.7584C20.6024 63.2539 21.2944 62.9764 22.1376 62.9259H22.3755C22.5124 62.6736 22.5881 62.3745 22.6025 62.0286C22.6025 61.4592 22.4223 61.0952 22.062 60.9366C21.7016 60.7709 21.2079 60.688 20.5808 60.688C19.8889 60.688 19.2618 60.897 18.6997 61.315C18.4834 61.4736 18.2456 61.5637 17.9861 61.5853C17.842 61.5853 17.7699 61.5313 17.7699 61.4231ZM20.0186 67.8991C21.2439 67.7117 22.1737 67.4378 22.8079 67.0774C23.4494 66.7099 23.7701 66.1981 23.7701 65.5422C23.7701 65.3404 23.6945 65.099 23.5431 64.8179C23.399 64.5296 23.1575 64.2881 22.8188 64.0935C22.3214 64.4107 21.7701 64.5692 21.1646 64.5692C20.8547 64.5692 20.4943 64.5945 20.0835 64.6449C20.0979 65.0774 20.1159 65.6251 20.1376 66.2882C20.1376 66.836 20.0979 67.373 20.0186 67.8991Z" fill="url(#paint12_linear)"/>
<path d="M26.6027 65.8558C26.6027 64.9765 26.8045 63.8737 27.2081 62.5475C27.619 61.2213 28.3685 60.5582 29.4569 60.5582C30.7975 60.6015 31.7597 61.1096 32.3435 62.0826C32.9273 63.0556 33.2336 63.9674 33.2624 64.8179C33.2624 65.5963 32.8804 66.3891 32.1164 67.1964C31.3741 68.0901 30.4587 68.537 29.3704 68.537C28.4767 68.4937 27.7919 68.2342 27.3162 67.7586C26.8405 67.2756 26.6027 66.6414 26.6027 65.8558ZM27.9757 65.4666C27.9757 66.1152 28.0947 66.5873 28.3325 66.8828C28.5703 67.1783 28.8767 67.3261 29.2515 67.3261C29.792 67.3261 30.365 67.0342 30.9705 66.4504C31.5831 65.8666 31.8894 65.2648 31.8894 64.6449C31.8894 63.9242 31.6011 63.2683 31.0245 62.6773C30.4551 62.079 29.9794 61.7799 29.5974 61.7799C29.1145 61.7799 28.7217 62.2412 28.419 63.1638C28.1235 64.0791 27.9757 64.8467 27.9757 65.4666Z" fill="url(#paint13_linear)"/>
<path d="M34.4193 65.6179C34.4193 64.6161 34.6463 63.7187 35.1004 62.9259C35.5544 62.1331 36.0878 61.6033 36.7004 61.3367C37.3131 61.07 37.9509 60.9366 38.614 60.9366C39.2195 60.9366 39.6988 61.0916 40.0519 61.4015C40.4051 61.7114 40.5817 61.9709 40.5817 62.1799C40.5817 62.6412 40.3618 62.8719 39.9222 62.8719C39.569 62.3097 39.1041 62.0286 38.5275 62.0286C37.5185 62.079 36.8049 62.4754 36.3869 63.2178C35.9689 63.9602 35.7598 64.6954 35.7598 65.4233C35.8031 66.1585 36.0518 66.6846 36.5058 67.0018C36.9671 67.3189 37.4824 67.4775 38.0518 67.4775C38.2969 67.4775 38.6933 67.409 39.2411 67.272C39.7888 67.1351 40.4519 66.818 41.2304 66.3207C41.4898 66.1693 41.6484 66.0936 41.706 66.0936C41.7205 66.0936 41.7277 66.1008 41.7277 66.1152C41.7277 66.2017 41.2952 66.6234 40.4303 67.3802C39.5726 68.1369 38.6212 68.5153 37.5761 68.5153C36.632 68.5153 35.868 68.2451 35.2841 67.7045C34.7076 67.1639 34.4193 66.4684 34.4193 65.6179Z" fill="url(#paint14_linear)"/>
<path d="M41.6952 61.9313C41.6952 61.7078 41.7673 61.434 41.9115 61.1096C42.0628 60.7853 42.1998 60.6231 42.3223 60.6231C43.2376 60.3997 44.6071 60.2699 46.4306 60.2339C48.8091 60.2916 49.9983 60.4033 49.9983 60.5691C49.9983 60.6411 49.7496 60.7637 49.2523 60.9366C47.8613 61.1529 46.8702 61.2934 46.2792 61.3583C46.099 63.3259 46.0089 64.8539 46.0089 65.9423C45.9657 67.1099 45.926 67.8378 45.89 68.1261C45.8612 68.4072 45.7855 68.5478 45.663 68.5478C45.526 68.5478 45.335 68.209 45.09 67.5315C44.8521 66.8468 44.7332 65.5026 44.7332 63.4989C44.7332 62.8863 44.7584 62.2304 44.8089 61.5313L42.0196 62.061C41.8106 62.061 41.7024 62.0178 41.6952 61.9313Z" fill="url(#paint15_linear)"/>
<path d="M49.4145 62.5475C49.4145 62.079 49.7136 61.697 50.3118 61.4015C51.0974 60.9258 51.8831 60.688 52.6687 60.688C53.8723 60.688 54.6976 60.8718 55.1445 61.2394C55.5985 61.6069 55.8472 62.1727 55.8904 62.9367C55.8904 64.1188 55.5337 65.099 54.8201 65.8774C54.1066 66.6558 52.993 67.4775 51.4794 68.3424L51.0254 74.3751C50.8236 74.3751 50.6217 74.0399 50.4199 73.3696C50.2181 72.6993 50.1172 72.1912 50.1172 71.8452C50.2037 68.6451 50.3334 65.5098 50.5064 62.4394L49.5334 63.0881C49.4541 62.9007 49.4145 62.7205 49.4145 62.5475ZM51.4903 66.7855C52.7516 66.1801 53.5948 65.5458 54.0201 64.8828C54.4453 64.2125 54.658 63.4809 54.658 62.6881C54.6219 62.1475 54.1642 61.834 53.2849 61.7475C52.7372 61.7475 52.2326 61.8232 51.7713 61.9745L51.4903 66.7855Z" fill="url(#paint16_linear)"/>
<path d="M57.5229 65.8558C57.5229 64.9765 57.7248 63.8737 58.1284 62.5475C58.5392 61.2213 59.2888 60.5582 60.3771 60.5582C61.7177 60.6015 62.6799 61.1096 63.2637 62.0826C63.8475 63.0556 64.1539 63.9674 64.1827 64.8179C64.1827 65.5963 63.8007 66.3891 63.0367 67.1964C62.2943 68.0901 61.379 68.537 60.2906 68.537C59.3969 68.4937 58.7122 68.2342 58.2365 67.7586C57.7608 67.2756 57.5229 66.6414 57.5229 65.8558ZM58.896 65.4666C58.896 66.1152 59.0149 66.5873 59.2527 66.8828C59.4906 67.1783 59.7969 67.3261 60.1717 67.3261C60.7123 67.3261 61.2853 67.0342 61.8907 66.4504C62.5033 65.8666 62.8097 65.2648 62.8097 64.6449C62.8097 63.9242 62.5214 63.2683 61.9448 62.6773C61.3754 62.079 60.8997 61.7799 60.5177 61.7799C60.0348 61.7799 59.642 62.2412 59.3392 63.1638C59.0437 64.0791 58.896 64.8467 58.896 65.4666Z" fill="url(#paint17_linear)"/>
<path d="M65.5557 64.126C65.5557 63.0016 65.6098 62.1547 65.7179 61.5853C65.826 61.0087 65.9125 60.6519 65.9774 60.515C66.0422 60.3708 66.1467 60.2699 66.2909 60.2123C66.5287 60.2123 66.6801 60.3492 66.745 60.6231C66.745 60.8177 66.7305 61.124 66.7017 61.5421C66.6729 61.9601 66.6585 62.3709 66.6585 62.7746C66.6945 64.5836 66.8026 65.8882 66.9828 66.6882C68.3234 64.4107 69.1883 62.8646 69.5775 62.0502C69.9739 61.2357 70.2839 60.8033 70.5073 60.7528C70.7379 60.6952 70.8821 60.6664 70.9397 60.6664C71.1488 60.6664 71.2605 60.7925 71.2749 61.0448C71.4839 64.2377 71.9812 66.4792 72.7668 67.7694C72.8245 67.8703 72.8533 67.9676 72.8533 68.0613C72.8533 68.2487 72.7524 68.4072 72.5506 68.537C72.356 68.6739 72.1938 68.7424 72.0641 68.7424C71.8983 68.7424 71.7578 68.6559 71.6425 68.4829C70.8424 67.4162 70.3559 65.6612 70.1829 63.2178C69.2676 65.0557 68.5036 66.4071 67.891 67.272C67.2855 68.1297 66.8675 68.5586 66.6368 68.5586C66.4206 68.5586 66.19 68.2595 65.9449 67.6613C65.7071 67.0558 65.5773 65.8774 65.5557 64.126ZM65.9665 56.0499C65.9665 55.5454 66.053 55.1166 66.226 54.7634C66.4062 54.403 66.5936 54.2228 66.7882 54.2228C66.9179 54.2228 66.9828 54.3021 66.9828 54.4607C67.0116 54.6841 67.0261 54.9796 67.0261 55.3472C67.0261 55.7364 67.1666 56.0499 67.4477 56.2878C67.7288 56.5256 68.136 56.6446 68.6694 56.6446C69.4262 56.6446 70.1433 56.3635 70.8208 55.8013C71.4983 55.2319 71.9236 54.6156 72.0965 53.9526C72.147 53.8084 72.2443 53.7363 72.3884 53.7363C72.4317 53.7363 72.4533 53.8048 72.4533 53.9417C72.4533 54.8931 72.1074 55.8121 71.4154 56.6986C70.7235 57.5851 69.819 58.0284 68.7018 58.0284C67.772 58.0284 67.0837 57.8194 66.6368 57.4014C66.19 56.9833 65.9665 56.5328 65.9665 56.0499Z" fill="url(#paint18_linear)"/>
<path d="M73.7615 68.0721C73.8552 66.6522 73.9056 65.1134 73.9128 63.4557C73.9128 62.807 73.8624 61.8196 73.7615 60.4934C73.9633 60.2339 74.4426 60.1042 75.1994 60.1042C75.2715 60.8682 75.3075 62.0466 75.3075 63.6395C76.331 61.4123 77.7797 60.2988 79.6536 60.2988C79.9059 60.2988 80.1149 60.4934 80.2807 60.8826C79.2428 61.1204 78.4031 61.5673 77.7617 62.2232C77.1202 62.8791 76.6913 63.5746 76.4751 64.3098C76.6409 64.9801 77.0373 65.654 77.6643 66.3315C78.2986 67.009 78.8464 67.3477 79.3077 67.3477C79.6392 67.3477 79.8266 67.3045 79.8699 67.218C79.9203 67.1243 80.0969 67.0774 80.3996 67.0774C80.5438 67.0774 80.6158 67.1387 80.6158 67.2612C80.6158 67.427 80.5762 67.6252 80.4969 67.8559C80.4248 68.0793 80.2915 68.2667 80.0969 68.418C79.9023 68.5694 79.6248 68.6451 79.2644 68.6451C78.8031 68.6307 78.2121 68.3856 77.4914 67.9099C76.7706 67.427 76.158 66.681 75.6535 65.672C75.3652 66.3495 75.1958 66.8 75.1453 67.0234V68.2559C75.0516 68.4721 74.6985 68.5802 74.0858 68.5802C73.8984 68.5802 73.7903 68.4108 73.7615 68.0721Z" fill="url(#paint19_linear)"/>
<path d="M81.8807 64.126C81.8807 63.0016 81.9348 62.1547 82.0429 61.5853C82.151 61.0087 82.2375 60.6519 82.3024 60.515C82.3673 60.3708 82.4718 60.2699 82.6159 60.2123C82.8538 60.2123 83.0051 60.3492 83.07 60.6231C83.07 60.8177 83.0556 61.124 83.0267 61.5421C82.9979 61.9601 82.9835 62.3709 82.9835 62.7746C83.0195 64.5836 83.1276 65.8882 83.3078 66.6882C84.6484 64.4107 85.5133 62.8646 85.9025 62.0502C86.299 61.2357 86.6089 60.8033 86.8323 60.7528C87.063 60.6952 87.2071 60.6664 87.2648 60.6664C87.4738 60.6664 87.5855 60.7925 87.5999 61.0448C87.8089 64.2377 88.3062 66.4792 89.0919 67.7694C89.1495 67.8703 89.1784 67.9676 89.1784 68.0613C89.1784 68.2487 89.0775 68.4072 88.8756 68.537C88.681 68.6739 88.5189 68.7424 88.3891 68.7424C88.2234 68.7424 88.0828 68.6559 87.9675 68.4829C87.1675 67.4162 86.681 65.6612 86.508 63.2178C85.5926 65.0557 84.8286 66.4071 84.216 67.272C83.6105 68.1297 83.1925 68.5586 82.9619 68.5586C82.7456 68.5586 82.515 68.2595 82.27 67.6613C82.0321 67.0558 81.9024 65.8774 81.8807 64.126Z" fill="url(#paint20_linear)"/>
<path d="M96.2381 61.4231C96.3534 60.479 97.1427 59.8915 98.6058 59.6609C98.9518 59.6032 99.2761 59.5744 99.5788 59.5744C100.588 59.5744 101.291 59.8195 101.687 60.3096C102.083 60.7925 102.282 61.3655 102.282 62.0286C102.282 62.425 102.217 62.7818 102.087 63.0989C102.455 63.2647 102.775 63.5638 103.049 63.9962C103.33 64.4215 103.471 64.9188 103.471 65.4882C103.471 66.4252 103.107 67.2072 102.379 67.8342C101.651 68.4541 100.285 68.8577 98.2814 69.0451C97.5102 69.0451 96.9084 68.6235 96.476 67.7802C96.4976 67.5207 96.5805 67.3549 96.7246 67.2829C96.876 67.2108 96.9841 67.1747 97.049 67.1747C97.1715 67.1747 97.2652 67.1928 97.3301 67.2288C97.4021 67.2648 97.4886 67.3405 97.5895 67.4558C97.5607 66.872 97.5283 66.1297 97.4922 65.2287C97.4778 64.8179 97.4706 64.4287 97.4706 64.0611C97.4706 62.9367 97.5391 62.0646 97.676 61.4448C97.7265 61.2069 97.9211 61.0556 98.2598 60.9907C98.4256 60.9907 98.5085 61.106 98.5085 61.3367C98.5013 61.5096 98.4977 61.715 98.4977 61.9529C98.4977 62.4142 98.5085 63.016 98.5301 63.7584C99.0707 63.2539 99.7626 62.9764 100.606 62.9259H100.844C100.981 62.6736 101.056 62.3745 101.071 62.0286C101.071 61.4592 100.891 61.0952 100.53 60.9366C100.17 60.7709 99.6761 60.688 99.049 60.688C98.3571 60.688 97.7301 60.897 97.1679 61.315C96.9517 61.4736 96.7138 61.5637 96.4543 61.5853C96.3102 61.5853 96.2381 61.5313 96.2381 61.4231ZM98.4869 67.8991C99.7121 67.7117 100.642 67.4378 101.276 67.0774C101.918 66.7099 102.238 66.1981 102.238 65.5422C102.238 65.3404 102.163 65.099 102.011 64.8179C101.867 64.5296 101.626 64.2881 101.287 64.0935C100.79 64.4107 100.238 64.5692 99.6329 64.5692C99.3229 64.5692 98.9626 64.5945 98.5517 64.6449C98.5661 65.0774 98.5842 65.6251 98.6058 66.2882C98.6058 66.836 98.5661 67.373 98.4869 67.8991Z" fill="url(#paint21_linear)"/>
<path d="M104.93 65.4341C104.959 64.4755 105.359 63.4376 106.13 62.3205C106.902 61.2033 107.99 60.6447 109.395 60.6447C109.936 60.6447 110.354 60.8501 110.65 61.261C110.952 61.6646 111.104 62.2232 111.104 62.9367C111.104 63.7296 111.01 64.2089 110.823 64.3746C110.642 64.5404 110.412 64.6233 110.131 64.6233C109.958 64.6233 109.86 64.0863 109.839 63.0124C109.745 62.1835 109.464 61.7691 108.995 61.7691C108.426 61.7691 107.853 62.1871 107.276 63.0232C106.707 63.8593 106.422 64.6197 106.422 65.3044C106.43 66.3351 106.718 66.8648 107.287 66.8937C107.669 66.8937 108.206 66.5441 108.898 65.845C109.59 65.1458 110.206 64.7963 110.747 64.7963C111.338 64.8251 111.814 65.1783 112.174 65.8558C112.534 66.5261 112.715 67.0054 112.715 67.2937C112.715 67.3441 112.704 67.3982 112.682 67.4558C112.66 67.5135 112.614 67.5423 112.542 67.5423C112.405 67.5423 112.16 67.2973 111.806 66.8072C111.453 66.317 111.089 66.072 110.714 66.072C110.513 66.072 110.041 66.4612 109.298 67.2396C108.563 68.018 107.759 68.4072 106.887 68.4072C106.303 68.4072 105.831 68.1153 105.471 67.5315C105.111 66.9405 104.93 66.2414 104.93 65.4341Z" fill="url(#paint22_linear)"/>
<path d="M114.228 65.9423C114.228 65.4305 114.286 64.7386 114.401 63.8665C114.516 62.9944 114.859 62.097 115.428 61.1745C115.522 61.0159 115.623 60.9366 115.731 60.9366C115.789 60.9366 115.864 60.9547 115.958 60.9907C116.052 61.0267 116.098 61.1024 116.098 61.2177C116.098 61.2682 116.088 61.3258 116.066 61.3907C115.749 62.198 115.579 62.9872 115.558 63.7584C115.536 64.5296 115.525 65.0377 115.525 65.2828C115.525 66.2342 115.605 66.8288 115.763 67.0666C115.922 67.2973 116.156 67.4126 116.466 67.4126C116.978 67.4126 117.403 66.8792 117.742 65.8125C118.088 64.7386 118.308 63.762 118.401 62.8827C118.495 62.0034 118.571 61.488 118.628 61.3367C118.765 60.9979 119.032 60.8285 119.428 60.8285C119.724 60.8501 119.872 60.9907 119.872 61.2502C119.872 61.3294 119.85 61.5817 119.807 62.007C119.771 62.425 119.745 62.9547 119.731 63.5962C119.724 64.2377 119.72 64.6737 119.72 64.9044C119.792 65.9278 119.879 66.5585 119.98 66.7963C120.088 67.027 120.304 67.1423 120.628 67.1423C120.809 67.1423 121.032 66.9477 121.299 66.5585C121.573 66.1693 121.767 65.7837 121.882 65.4017C122.005 65.0197 122.077 64.4611 122.099 63.7259C122.12 62.9836 122.16 62.2052 122.218 61.3907C122.239 61.0736 122.383 60.861 122.65 60.7528C122.917 60.6375 123.111 60.5799 123.234 60.5799C123.501 60.5799 123.634 60.724 123.634 61.0123C123.634 61.0772 123.63 61.2105 123.623 61.4123C123.616 61.6069 123.612 62.1187 123.612 62.9475C123.612 64.0431 123.641 64.9656 123.699 65.7152C123.764 66.4648 123.991 67.0018 124.38 67.3261C124.56 67.4558 124.65 67.6036 124.65 67.7694C124.65 67.9496 124.549 68.1586 124.347 68.3964C124.146 68.6343 123.929 68.7532 123.699 68.7532C123.54 68.7532 123.324 68.5982 123.05 68.2883C122.776 67.9712 122.564 67.5856 122.412 67.1315C121.872 68.0757 121.27 68.5478 120.607 68.5478C120.181 68.5478 119.821 68.4685 119.526 68.3099C119.079 68.0649 118.79 67.5063 118.661 66.6342C118.005 68.0036 117.241 68.6883 116.369 68.6883C115.756 68.6883 115.244 68.4757 114.834 68.0505C114.43 67.618 114.228 66.9153 114.228 65.9423Z" fill="url(#paint23_linear)"/>
<path d="M125.85 65.4233C125.85 63.9818 126.29 62.8538 127.169 62.0394C128.048 61.2249 129.166 60.8177 130.521 60.8177C130.968 60.8177 131.335 60.9222 131.623 61.1312C131.919 61.3331 132.067 61.6322 132.067 62.0286C131.987 62.6773 131.631 63.2611 130.996 63.78C130.362 64.2989 129.558 64.7062 128.585 65.0017C127.994 65.1458 127.612 65.2179 127.439 65.2179C127.339 65.2179 127.288 65.1927 127.288 65.1422C127.288 65.1062 127.313 65.0557 127.364 64.9909C127.587 64.7891 128.218 64.3926 129.256 63.8016C130.294 63.2034 130.82 62.616 130.834 62.0394C130.834 61.6934 130.65 61.5204 130.283 61.5204C129.54 61.5204 128.845 61.8592 128.196 62.5367C127.555 63.207 127.234 64.1332 127.234 65.3152C127.234 65.9639 127.468 66.4972 127.937 66.9153C128.412 67.3333 129.018 67.5423 129.753 67.5423C130.82 67.4775 131.775 67.1711 132.618 66.6234C132.87 66.4288 133.014 66.3315 133.051 66.3315C133.094 66.3315 133.115 66.3711 133.115 66.4504C133.115 66.5153 132.993 66.7099 132.748 67.0342C132.503 67.3585 132.077 67.6937 131.472 68.0396C130.874 68.3784 130.11 68.5478 129.18 68.5478C128.301 68.5478 127.548 68.2919 126.921 67.7802C126.293 67.2684 125.937 66.4828 125.85 65.4233Z" fill="url(#paint24_linear)"/>
<path d="M134.056 64.126C134.056 63.0016 134.11 62.1547 134.218 61.5853C134.326 61.0087 134.413 60.6519 134.478 60.515C134.542 60.3708 134.647 60.2699 134.791 60.2123C135.029 60.2123 135.18 60.3492 135.245 60.6231C135.245 60.8177 135.231 61.124 135.202 61.5421C135.173 61.9601 135.159 62.3709 135.159 62.7746C135.195 64.5836 135.303 65.8882 135.483 66.6882C136.824 64.4107 137.689 62.8646 138.078 62.0502C138.474 61.2357 138.784 60.8033 139.008 60.7528C139.238 60.6952 139.382 60.6664 139.44 60.6664C139.649 60.6664 139.761 60.7925 139.775 61.0448C139.984 64.2377 140.481 66.4792 141.267 67.7694C141.325 67.8703 141.354 67.9676 141.354 68.0613C141.354 68.2487 141.253 68.4072 141.051 68.537C140.856 68.6739 140.694 68.7424 140.564 68.7424C140.399 68.7424 140.258 68.6559 140.143 68.4829C139.343 67.4162 138.856 65.6612 138.683 63.2178C137.768 65.0557 137.004 66.4071 136.391 67.272C135.786 68.1297 135.368 68.5586 135.137 68.5586C134.921 68.5586 134.69 68.2595 134.445 67.6613C134.207 67.0558 134.078 65.8774 134.056 64.126ZM134.467 56.0499C134.467 55.5454 134.553 55.1166 134.726 54.7634C134.906 54.403 135.094 54.2228 135.288 54.2228C135.418 54.2228 135.483 54.3021 135.483 54.4607C135.512 54.6841 135.526 54.9796 135.526 55.3472C135.526 55.7364 135.667 56.0499 135.948 56.2878C136.229 56.5256 136.636 56.6446 137.17 56.6446C137.926 56.6446 138.644 56.3635 139.321 55.8013C139.999 55.2319 140.424 54.6156 140.597 53.9526C140.647 53.8084 140.745 53.7363 140.889 53.7363C140.932 53.7363 140.954 53.8048 140.954 53.9417C140.954 54.8931 140.608 55.8121 139.916 56.6986C139.224 57.5851 138.319 58.0284 137.202 58.0284C136.272 58.0284 135.584 57.8194 135.137 57.4014C134.69 56.9833 134.467 56.5328 134.467 56.0499Z" fill="url(#paint25_linear)"/>
<path d="M148.338 68.0613C148.345 67.9676 148.381 67.8703 148.446 67.7694C148.864 66.4792 149.296 64.3098 149.743 61.261C149.765 61.0087 149.88 60.8826 150.089 60.8826C150.147 60.8826 150.287 60.9114 150.511 60.9691C150.741 61.0195 151.03 61.4159 151.376 62.1583C151.729 62.9007 152.266 64.4071 152.986 66.6774C154.32 64.4071 155.181 62.8286 155.57 61.9421C155.967 61.0556 156.277 60.5871 156.5 60.5366C156.731 60.479 156.875 60.4501 156.933 60.4501C157.142 60.4501 157.253 60.5763 157.268 60.8285C157.477 64.1656 157.974 66.4792 158.76 67.7694C158.817 67.8703 158.846 67.9676 158.846 68.0613C158.846 68.2487 158.745 68.4072 158.543 68.537C158.349 68.6739 158.187 68.7424 158.057 68.7424C157.891 68.7424 157.751 68.6559 157.635 68.4829C156.835 67.4162 156.349 65.6612 156.176 63.2178C155.26 65.0557 154.54 66.4071 154.014 67.272C153.487 68.1297 153.062 68.5586 152.738 68.5586C152.55 68.5586 152.28 68.1297 151.927 67.272C151.581 66.4071 151.177 65.0557 150.716 63.2178C150.349 65.6612 149.952 67.4162 149.527 68.4829C149.404 68.6559 149.26 68.7424 149.094 68.7424C148.965 68.7424 148.806 68.6919 148.619 68.591C148.431 68.4973 148.338 68.3207 148.338 68.0613Z" fill="url(#paint26_linear)"/>
<path d="M159.776 65.4233C159.776 63.9818 160.216 62.8538 161.095 62.0394C161.974 61.2249 163.091 60.8177 164.446 60.8177C164.893 60.8177 165.261 60.9222 165.549 61.1312C165.845 61.3331 165.992 61.6322 165.992 62.0286C165.913 62.6773 165.556 63.2611 164.922 63.78C164.288 64.2989 163.484 64.7062 162.511 65.0017C161.92 65.1458 161.538 65.2179 161.365 65.2179C161.264 65.2179 161.214 65.1927 161.214 65.1422C161.214 65.1062 161.239 65.0557 161.29 64.9909C161.513 64.7891 162.144 64.3926 163.182 63.8016C164.219 63.2034 164.746 62.616 164.76 62.0394C164.76 61.6934 164.576 61.5204 164.209 61.5204C163.466 61.5204 162.771 61.8592 162.122 62.5367C161.481 63.207 161.16 64.1332 161.16 65.3152C161.16 65.9639 161.394 66.4972 161.863 66.9153C162.338 67.3333 162.944 67.5423 163.679 67.5423C164.746 67.4775 165.701 67.1711 166.544 66.6234C166.796 66.4288 166.94 66.3315 166.976 66.3315C167.02 66.3315 167.041 66.3711 167.041 66.4504C167.041 66.5153 166.919 66.7099 166.674 67.0342C166.429 67.3585 166.003 67.6937 165.398 68.0396C164.8 68.3784 164.036 68.5478 163.106 68.5478C162.227 68.5478 161.473 68.2919 160.846 67.7802C160.219 67.2684 159.862 66.4828 159.776 65.4233Z" fill="url(#paint27_linear)"/>
<path d="M167.549 63.0232C167.549 62.0286 167.83 61.1817 168.393 60.4826C168.479 60.3672 168.584 60.3096 168.706 60.3096C168.771 60.3096 168.857 60.3348 168.966 60.3853C169.081 60.4357 169.139 60.5222 169.139 60.6447C169.139 60.7024 169.124 60.7637 169.095 60.8285C168.764 61.5781 168.598 62.216 168.598 62.7421C168.598 63.3259 168.753 63.7476 169.063 64.007C169.373 64.2593 169.726 64.3854 170.122 64.3854C170.872 64.3854 171.441 63.9061 171.831 62.9475C172.22 61.9817 172.454 61.4015 172.533 61.2069C172.62 61.0123 172.739 60.8934 172.89 60.8501C173.049 60.7997 173.157 60.7745 173.214 60.7745C173.359 60.7745 173.431 60.8465 173.431 60.9907C173.459 61.3078 173.474 61.6177 173.474 61.9205C173.474 62.1943 173.391 62.6052 173.225 63.1529C173.196 63.6359 173.168 64.0863 173.139 64.5044C173.11 64.9152 173.095 65.2215 173.095 65.4233C173.095 66.2089 173.11 66.8468 173.139 67.3369C173.168 67.827 173.182 68.1081 173.182 68.1802C173.182 68.4036 173.088 68.5838 172.901 68.7208C172.713 68.8577 172.562 68.9262 172.447 68.9262C172.295 68.9262 172.169 68.8325 172.068 68.6451C171.917 67.7369 171.841 66.7495 171.841 65.6828C171.863 65.4161 171.885 65.153 171.906 64.8936C171.243 65.4774 170.566 65.7693 169.874 65.7693C169.412 65.7693 168.908 65.5675 168.36 65.1638C167.82 64.753 167.549 64.0395 167.549 63.0232Z" fill="url(#paint28_linear)"/>
<path d="M174.35 61.9313C174.35 61.7078 174.422 61.434 174.566 61.1096C174.717 60.7853 174.854 60.6231 174.977 60.6231C175.892 60.3997 177.261 60.2699 179.085 60.2339C181.463 60.2916 182.653 60.4033 182.653 60.5691C182.653 60.6411 182.404 60.7637 181.907 60.9366C180.516 61.1529 179.525 61.2934 178.934 61.3583C178.753 63.3259 178.663 64.8539 178.663 65.9423C178.62 67.1099 178.58 67.8378 178.544 68.1261C178.516 68.4072 178.44 68.5478 178.317 68.5478C178.18 68.5478 177.989 68.209 177.744 67.5315C177.506 66.8468 177.388 65.5026 177.388 63.4989C177.388 62.8863 177.413 62.2304 177.463 61.5313L174.674 62.061C174.465 62.061 174.357 62.0178 174.35 61.9313Z" fill="url(#paint29_linear)"/>
<path d="M182.328 68.0937C182.328 67.9279 182.343 67.5567 182.372 66.9801C182.4 66.3963 182.534 65.2431 182.772 63.5205C183.017 61.7907 183.179 60.7528 183.258 60.4069C183.337 60.0609 183.6 59.8699 184.047 59.8339C184.191 59.8339 184.267 59.906 184.274 60.0501L184.069 62.7529C184.393 62.5727 184.754 62.4827 185.15 62.4827C185.95 62.4827 186.613 62.6881 187.139 63.0989C187.673 63.5025 187.95 64.1043 187.972 64.9044C187.972 65.6684 187.817 66.3603 187.507 66.9801C187.197 67.6 186.714 68 186.058 68.1802C185.402 68.3604 184.862 68.4505 184.436 68.4505C184.004 68.4505 183.644 68.346 183.355 68.1369C183.269 68.3892 183.045 68.5153 182.685 68.5153C182.454 68.5153 182.336 68.3748 182.328 68.0937ZM183.604 66.7531C184.022 66.9477 184.462 67.045 184.923 67.045C185.175 67.045 185.467 66.9585 185.799 66.7855C186.137 66.6126 186.368 66.3783 186.491 66.0828C186.62 65.7801 186.685 65.517 186.685 65.2936C186.671 64.6737 186.523 64.2629 186.242 64.0611C185.961 63.8521 185.568 63.7476 185.064 63.7476C184.746 63.7476 184.372 63.8124 183.939 63.9422C183.773 65.0593 183.662 65.9963 183.604 66.7531ZM189.345 67.1531C189.41 66.1513 189.478 65.2035 189.55 64.3098C189.622 63.4088 189.698 62.5619 189.777 61.7691L189.853 60.6772C189.875 60.5979 189.907 60.497 189.95 60.3745C190.001 60.2519 190.152 60.1835 190.404 60.169C190.548 60.1835 190.646 60.2988 190.696 60.515L190.783 61.8124C190.776 62.3745 190.757 62.9403 190.729 63.5097C190.707 64.0791 190.675 64.6665 190.631 65.272C190.588 65.8702 190.552 66.436 190.523 66.9693L190.48 68.191C190.437 68.364 190.372 68.4757 190.285 68.5262C190.199 68.5694 190.091 68.591 189.961 68.591C189.781 68.5766 189.637 68.4649 189.529 68.2559C189.428 68.0469 189.366 67.6793 189.345 67.1531Z" fill="url(#paint30_linear)"/>
<path fill-rule="evenodd" clip-rule="evenodd" d="M155.573 4.71399L173.287 0V18.2846H182.857V43.9973H181.429V19.7131H173.287V46.5686H191V47.997H171.858V19.7131H162.43V32.2077L167.858 33.7113V47.997H166.43V34.8024L162.43 33.7117V47.997H161.002V33.3221L157.002 32.2314V47.997H0.583008V46.5686H155.573V31.8419L148.145 29.8163V44.033H146.717V27.8554L155.573 30.3086V4.71399ZM171.858 18.2846V1.87828L157.002 5.81336V30.7042L161.002 31.8121V18.2846H171.858Z" fill="url(#paint31_linear)"/>
<defs>
<linearGradient id="paint0_linear" x1="140.361" y1="41.5386" x2="0.583533" y2="41.5386" gradientUnits="userSpaceOnUse">
<stop stop-color="#C2A22D"/>
<stop offset="0.0405101" stop-color="#F6F97E"/>
<stop offset="0.0825206" stop-color="#BF7718"/>
<stop offset="0.130208" stop-color="#F6F97E"/>
<stop offset="0.166667" stop-color="#BF7718"/>
<stop offset="0.1875" stop-color="#BF7718"/>
<stop offset="0.192708" stop-color="#BF7718"/>
<stop offset="0.239583" stop-color="#F6F97E"/>
<stop offset="0.322917" stop-color="#BF7718"/>
<stop offset="0.604167" stop-color="#F6F97E"/>
<stop offset="1" stop-color="#9E6B15"/>
</linearGradient>
<linearGradient id="paint1_linear" x1="140.361" y1="41.5386" x2="0.583533" y2="41.5386" gradientUnits="userSpaceOnUse">
<stop stop-color="#C2A22D"/>
<stop offset="0.0405101" stop-color="#F6F97E"/>
<stop offset="0.0825206" stop-color="#BF7718"/>
<stop offset="0.130208" stop-color="#F6F97E"/>
<stop offset="0.166667" stop-color="#BF7718"/>
<stop offset="0.1875" stop-color="#BF7718"/>
<stop offset="0.192708" stop-color="#BF7718"/>
<stop offset="0.239583" stop-color="#F6F97E"/>
<stop offset="0.322917" stop-color="#BF7718"/>
<stop offset="0.604167" stop-color="#F6F97E"/>
<stop offset="1" stop-color="#9E6B15"/>
</linearGradient>
<linearGradient id="paint2_linear" x1="140.361" y1="41.5386" x2="0.583533" y2="41.5386" gradientUnits="userSpaceOnUse">
<stop stop-color="#C2A22D"/>
<stop offset="0.0405101" stop-color="#F6F97E"/>
<stop offset="0.0825206" stop-color="#BF7718"/>
<stop offset="0.130208" stop-color="#F6F97E"/>
<stop offset="0.166667" stop-color="#BF7718"/>
<stop offset="0.1875" stop-color="#BF7718"/>
<stop offset="0.192708" stop-color="#BF7718"/>
<stop offset="0.239583" stop-color="#F6F97E"/>
<stop offset="0.322917" stop-color="#BF7718"/>
<stop offset="0.604167" stop-color="#F6F97E"/>
<stop offset="1" stop-color="#9E6B15"/>
</linearGradient>
<linearGradient id="paint3_linear" x1="140.361" y1="41.5386" x2="0.583533" y2="41.5386" gradientUnits="userSpaceOnUse">
<stop stop-color="#C2A22D"/>
<stop offset="0.0405101" stop-color="#F6F97E"/>
<stop offset="0.0825206" stop-color="#BF7718"/>
<stop offset="0.130208" stop-color="#F6F97E"/>
<stop offset="0.166667" stop-color="#BF7718"/>
<stop offset="0.1875" stop-color="#BF7718"/>
<stop offset="0.192708" stop-color="#BF7718"/>
<stop offset="0.239583" stop-color="#F6F97E"/>
<stop offset="0.322917" stop-color="#BF7718"/>
<stop offset="0.604167" stop-color="#F6F97E"/>
<stop offset="1" stop-color="#9E6B15"/>
</linearGradient>
<linearGradient id="paint4_linear" x1="140.361" y1="41.5386" x2="0.583533" y2="41.5386" gradientUnits="userSpaceOnUse">
<stop stop-color="#C2A22D"/>
<stop offset="0.0405101" stop-color="#F6F97E"/>
<stop offset="0.0825206" stop-color="#BF7718"/>
<stop offset="0.130208" stop-color="#F6F97E"/>
<stop offset="0.166667" stop-color="#BF7718"/>
<stop offset="0.1875" stop-color="#BF7718"/>
<stop offset="0.192708" stop-color="#BF7718"/>
<stop offset="0.239583" stop-color="#F6F97E"/>
<stop offset="0.322917" stop-color="#BF7718"/>
<stop offset="0.604167" stop-color="#F6F97E"/>
<stop offset="1" stop-color="#9E6B15"/>
</linearGradient>
<linearGradient id="paint5_linear" x1="140.361" y1="41.5386" x2="0.583533" y2="41.5386" gradientUnits="userSpaceOnUse">
<stop stop-color="#C2A22D"/>
<stop offset="0.0405101" stop-color="#F6F97E"/>
<stop offset="0.0825206" stop-color="#BF7718"/>
<stop offset="0.130208" stop-color="#F6F97E"/>
<stop offset="0.166667" stop-color="#BF7718"/>
<stop offset="0.1875" stop-color="#BF7718"/>
<stop offset="0.192708" stop-color="#BF7718"/>
<stop offset="0.239583" stop-color="#F6F97E"/>
<stop offset="0.322917" stop-color="#BF7718"/>
<stop offset="0.604167" stop-color="#F6F97E"/>
<stop offset="1" stop-color="#9E6B15"/>
</linearGradient>
<linearGradient id="paint6_linear" x1="140.361" y1="41.5386" x2="0.583533" y2="41.5386" gradientUnits="userSpaceOnUse">
<stop stop-color="#C2A22D"/>
<stop offset="0.0405101" stop-color="#F6F97E"/>
<stop offset="0.0825206" stop-color="#BF7718"/>
<stop offset="0.130208" stop-color="#F6F97E"/>
<stop offset="0.166667" stop-color="#BF7718"/>
<stop offset="0.1875" stop-color="#BF7718"/>
<stop offset="0.192708" stop-color="#BF7718"/>
<stop offset="0.239583" stop-color="#F6F97E"/>
<stop offset="0.322917" stop-color="#BF7718"/>
<stop offset="0.604167" stop-color="#F6F97E"/>
<stop offset="1" stop-color="#9E6B15"/>
</linearGradient>
<linearGradient id="paint7_linear" x1="140.361" y1="41.5386" x2="0.583533" y2="41.5386" gradientUnits="userSpaceOnUse">
<stop stop-color="#C2A22D"/>
<stop offset="0.0405101" stop-color="#F6F97E"/>
<stop offset="0.0825206" stop-color="#BF7718"/>
<stop offset="0.130208" stop-color="#F6F97E"/>
<stop offset="0.166667" stop-color="#BF7718"/>
<stop offset="0.1875" stop-color="#BF7718"/>
<stop offset="0.192708" stop-color="#BF7718"/>
<stop offset="0.239583" stop-color="#F6F97E"/>
<stop offset="0.322917" stop-color="#BF7718"/>
<stop offset="0.604167" stop-color="#F6F97E"/>
<stop offset="1" stop-color="#9E6B15"/>
</linearGradient>
<linearGradient id="paint8_linear" x1="140.361" y1="41.5386" x2="0.583533" y2="41.5386" gradientUnits="userSpaceOnUse">
<stop stop-color="#C2A22D"/>
<stop offset="0.0405101" stop-color="#F6F97E"/>
<stop offset="0.0825206" stop-color="#BF7718"/>
<stop offset="0.130208" stop-color="#F6F97E"/>
<stop offset="0.166667" stop-color="#BF7718"/>
<stop offset="0.1875" stop-color="#BF7718"/>
<stop offset="0.192708" stop-color="#BF7718"/>
<stop offset="0.239583" stop-color="#F6F97E"/>
<stop offset="0.322917" stop-color="#BF7718"/>
<stop offset="0.604167" stop-color="#F6F97E"/>
<stop offset="1" stop-color="#9E6B15"/>
</linearGradient>
<linearGradient id="paint9_linear" x1="140.361" y1="41.5386" x2="0.583533" y2="41.5386" gradientUnits="userSpaceOnUse">
<stop stop-color="#C2A22D"/>
<stop offset="0.0405101" stop-color="#F6F97E"/>
<stop offset="0.0825206" stop-color="#BF7718"/>
<stop offset="0.130208" stop-color="#F6F97E"/>
<stop offset="0.166667" stop-color="#BF7718"/>
<stop offset="0.1875" stop-color="#BF7718"/>
<stop offset="0.192708" stop-color="#BF7718"/>
<stop offset="0.239583" stop-color="#F6F97E"/>
<stop offset="0.322917" stop-color="#BF7718"/>
<stop offset="0.604167" stop-color="#F6F97E"/>
<stop offset="1" stop-color="#9E6B15"/>
</linearGradient>
<linearGradient id="paint10_linear" x1="191.714" y1="76.6079" x2="-0.0596445" y2="76.6079" gradientUnits="userSpaceOnUse">
<stop stop-color="#C2A22D"/>
<stop offset="0.0405101" stop-color="#F6F97E"/>
<stop offset="0.0825206" stop-color="#BF7718"/>
<stop offset="0.130208" stop-color="#F6F97E"/>
<stop offset="0.166667" stop-color="#BF7718"/>
<stop offset="0.1875" stop-color="#BF7718"/>
<stop offset="0.192708" stop-color="#BF7718"/>
<stop offset="0.239583" stop-color="#F6F97E"/>
<stop offset="0.322917" stop-color="#BF7718"/>
<stop offset="0.604167" stop-color="#F6F97E"/>
<stop offset="1" stop-color="#9E6B15"/>
</linearGradient>
<linearGradient id="paint11_linear" x1="191.714" y1="76.6079" x2="-0.0596445" y2="76.6079" gradientUnits="userSpaceOnUse">
<stop stop-color="#C2A22D"/>
<stop offset="0.0405101" stop-color="#F6F97E"/>
<stop offset="0.0825206" stop-color="#BF7718"/>
<stop offset="0.130208" stop-color="#F6F97E"/>
<stop offset="0.166667" stop-color="#BF7718"/>
<stop offset="0.1875" stop-color="#BF7718"/>
<stop offset="0.192708" stop-color="#BF7718"/>
<stop offset="0.239583" stop-color="#F6F97E"/>
<stop offset="0.322917" stop-color="#BF7718"/>
<stop offset="0.604167" stop-color="#F6F97E"/>
<stop offset="1" stop-color="#9E6B15"/>
</linearGradient>
<linearGradient id="paint12_linear" x1="191.714" y1="76.6079" x2="-0.0596445" y2="76.6079" gradientUnits="userSpaceOnUse">
<stop stop-color="#C2A22D"/>
<stop offset="0.0405101" stop-color="#F6F97E"/>
<stop offset="0.0825206" stop-color="#BF7718"/>
<stop offset="0.130208" stop-color="#F6F97E"/>
<stop offset="0.166667" stop-color="#BF7718"/>
<stop offset="0.1875" stop-color="#BF7718"/>
<stop offset="0.192708" stop-color="#BF7718"/>
<stop offset="0.239583" stop-color="#F6F97E"/>
<stop offset="0.322917" stop-color="#BF7718"/>
<stop offset="0.604167" stop-color="#F6F97E"/>
<stop offset="1" stop-color="#9E6B15"/>
</linearGradient>
<linearGradient id="paint13_linear" x1="191.714" y1="76.6079" x2="-0.0596445" y2="76.6079" gradientUnits="userSpaceOnUse">
<stop stop-color="#C2A22D"/>
<stop offset="0.0405101" stop-color="#F6F97E"/>
<stop offset="0.0825206" stop-color="#BF7718"/>
<stop offset="0.130208" stop-color="#F6F97E"/>
<stop offset="0.166667" stop-color="#BF7718"/>
<stop offset="0.1875" stop-color="#BF7718"/>
<stop offset="0.192708" stop-color="#BF7718"/>
<stop offset="0.239583" stop-color="#F6F97E"/>
<stop offset="0.322917" stop-color="#BF7718"/>
<stop offset="0.604167" stop-color="#F6F97E"/>
<stop offset="1" stop-color="#9E6B15"/>
</linearGradient>
<linearGradient id="paint14_linear" x1="191.714" y1="76.6079" x2="-0.0596445" y2="76.6079" gradientUnits="userSpaceOnUse">
<stop stop-color="#C2A22D"/>
<stop offset="0.0405101" stop-color="#F6F97E"/>
<stop offset="0.0825206" stop-color="#BF7718"/>
<stop offset="0.130208" stop-color="#F6F97E"/>
<stop offset="0.166667" stop-color="#BF7718"/>
<stop offset="0.1875" stop-color="#BF7718"/>
<stop offset="0.192708" stop-color="#BF7718"/>
<stop offset="0.239583" stop-color="#F6F97E"/>
<stop offset="0.322917" stop-color="#BF7718"/>
<stop offset="0.604167" stop-color="#F6F97E"/>
<stop offset="1" stop-color="#9E6B15"/>
</linearGradient>
<linearGradient id="paint15_linear" x1="191.714" y1="76.6079" x2="-0.0596445" y2="76.6079" gradientUnits="userSpaceOnUse">
<stop stop-color="#C2A22D"/>
<stop offset="0.0405101" stop-color="#F6F97E"/>
<stop offset="0.0825206" stop-color="#BF7718"/>
<stop offset="0.130208" stop-color="#F6F97E"/>
<stop offset="0.166667" stop-color="#BF7718"/>
<stop offset="0.1875" stop-color="#BF7718"/>
<stop offset="0.192708" stop-color="#BF7718"/>
<stop offset="0.239583" stop-color="#F6F97E"/>
<stop offset="0.322917" stop-color="#BF7718"/>
<stop offset="0.604167" stop-color="#F6F97E"/>
<stop offset="1" stop-color="#9E6B15"/>
</linearGradient>
<linearGradient id="paint16_linear" x1="191.714" y1="76.6079" x2="-0.0596445" y2="76.6079" gradientUnits="userSpaceOnUse">
<stop stop-color="#C2A22D"/>
<stop offset="0.0405101" stop-color="#F6F97E"/>
<stop offset="0.0825206" stop-color="#BF7718"/>
<stop offset="0.130208" stop-color="#F6F97E"/>
<stop offset="0.166667" stop-color="#BF7718"/>
<stop offset="0.1875" stop-color="#BF7718"/>
<stop offset="0.192708" stop-color="#BF7718"/>
<stop offset="0.239583" stop-color="#F6F97E"/>
<stop offset="0.322917" stop-color="#BF7718"/>
<stop offset="0.604167" stop-color="#F6F97E"/>
<stop offset="1" stop-color="#9E6B15"/>
</linearGradient>
<linearGradient id="paint17_linear" x1="191.714" y1="76.6079" x2="-0.0596445" y2="76.6079" gradientUnits="userSpaceOnUse">
<stop stop-color="#C2A22D"/>
<stop offset="0.0405101" stop-color="#F6F97E"/>
<stop offset="0.0825206" stop-color="#BF7718"/>
<stop offset="0.130208" stop-color="#F6F97E"/>
<stop offset="0.166667" stop-color="#BF7718"/>
<stop offset="0.1875" stop-color="#BF7718"/>
<stop offset="0.192708" stop-color="#BF7718"/>
<stop offset="0.239583" stop-color="#F6F97E"/>
<stop offset="0.322917" stop-color="#BF7718"/>
<stop offset="0.604167" stop-color="#F6F97E"/>
<stop offset="1" stop-color="#9E6B15"/>
</linearGradient>
<linearGradient id="paint18_linear" x1="191.714" y1="76.6079" x2="-0.0596445" y2="76.6079" gradientUnits="userSpaceOnUse">
<stop stop-color="#C2A22D"/>
<stop offset="0.0405101" stop-color="#F6F97E"/>
<stop offset="0.0825206" stop-color="#BF7718"/>
<stop offset="0.130208" stop-color="#F6F97E"/>
<stop offset="0.166667" stop-color="#BF7718"/>
<stop offset="0.1875" stop-color="#BF7718"/>
<stop offset="0.192708" stop-color="#BF7718"/>
<stop offset="0.239583" stop-color="#F6F97E"/>
<stop offset="0.322917" stop-color="#BF7718"/>
<stop offset="0.604167" stop-color="#F6F97E"/>
<stop offset="1" stop-color="#9E6B15"/>
</linearGradient>
<linearGradient id="paint19_linear" x1="191.714" y1="76.6079" x2="-0.0596445" y2="76.6079" gradientUnits="userSpaceOnUse">
<stop stop-color="#C2A22D"/>
<stop offset="0.0405101" stop-color="#F6F97E"/>
<stop offset="0.0825206" stop-color="#BF7718"/>
<stop offset="0.130208" stop-color="#F6F97E"/>
<stop offset="0.166667" stop-color="#BF7718"/>
<stop offset="0.1875" stop-color="#BF7718"/>
<stop offset="0.192708" stop-color="#BF7718"/>
<stop offset="0.239583" stop-color="#F6F97E"/>
<stop offset="0.322917" stop-color="#BF7718"/>
<stop offset="0.604167" stop-color="#F6F97E"/>
<stop offset="1" stop-color="#9E6B15"/>
</linearGradient>
<linearGradient id="paint20_linear" x1="191.714" y1="76.6079" x2="-0.0596445" y2="76.6079" gradientUnits="userSpaceOnUse">
<stop stop-color="#C2A22D"/>
<stop offset="0.0405101" stop-color="#F6F97E"/>
<stop offset="0.0825206" stop-color="#BF7718"/>
<stop offset="0.130208" stop-color="#F6F97E"/>
<stop offset="0.166667" stop-color="#BF7718"/>
<stop offset="0.1875" stop-color="#BF7718"/>
<stop offset="0.192708" stop-color="#BF7718"/>
<stop offset="0.239583" stop-color="#F6F97E"/>
<stop offset="0.322917" stop-color="#BF7718"/>
<stop offset="0.604167" stop-color="#F6F97E"/>
<stop offset="1" stop-color="#9E6B15"/>
</linearGradient>
<linearGradient id="paint21_linear" x1="191.714" y1="76.6079" x2="-0.0596445" y2="76.6079" gradientUnits="userSpaceOnUse">
<stop stop-color="#C2A22D"/>
<stop offset="0.0405101" stop-color="#F6F97E"/>
<stop offset="0.0825206" stop-color="#BF7718"/>
<stop offset="0.130208" stop-color="#F6F97E"/>
<stop offset="0.166667" stop-color="#BF7718"/>
<stop offset="0.1875" stop-color="#BF7718"/>
<stop offset="0.192708" stop-color="#BF7718"/>
<stop offset="0.239583" stop-color="#F6F97E"/>
<stop offset="0.322917" stop-color="#BF7718"/>
<stop offset="0.604167" stop-color="#F6F97E"/>
<stop offset="1" stop-color="#9E6B15"/>
</linearGradient>
<linearGradient id="paint22_linear" x1="191.714" y1="76.6079" x2="-0.0596445" y2="76.6079" gradientUnits="userSpaceOnUse">
<stop stop-color="#C2A22D"/>
<stop offset="0.0405101" stop-color="#F6F97E"/>
<stop offset="0.0825206" stop-color="#BF7718"/>
<stop offset="0.130208" stop-color="#F6F97E"/>
<stop offset="0.166667" stop-color="#BF7718"/>
<stop offset="0.1875" stop-color="#BF7718"/>
<stop offset="0.192708" stop-color="#BF7718"/>
<stop offset="0.239583" stop-color="#F6F97E"/>
<stop offset="0.322917" stop-color="#BF7718"/>
<stop offset="0.604167" stop-color="#F6F97E"/>
<stop offset="1" stop-color="#9E6B15"/>
</linearGradient>
<linearGradient id="paint23_linear" x1="191.714" y1="76.6079" x2="-0.0596445" y2="76.6079" gradientUnits="userSpaceOnUse">
<stop stop-color="#C2A22D"/>
<stop offset="0.0405101" stop-color="#F6F97E"/>
<stop offset="0.0825206" stop-color="#BF7718"/>
<stop offset="0.130208" stop-color="#F6F97E"/>
<stop offset="0.166667" stop-color="#BF7718"/>
<stop offset="0.1875" stop-color="#BF7718"/>
<stop offset="0.192708" stop-color="#BF7718"/>
<stop offset="0.239583" stop-color="#F6F97E"/>
<stop offset="0.322917" stop-color="#BF7718"/>
<stop offset="0.604167" stop-color="#F6F97E"/>
<stop offset="1" stop-color="#9E6B15"/>
</linearGradient>
<linearGradient id="paint24_linear" x1="191.714" y1="76.6079" x2="-0.0596445" y2="76.6079" gradientUnits="userSpaceOnUse">
<stop stop-color="#C2A22D"/>
<stop offset="0.0405101" stop-color="#F6F97E"/>
<stop offset="0.0825206" stop-color="#BF7718"/>
<stop offset="0.130208" stop-color="#F6F97E"/>
<stop offset="0.166667" stop-color="#BF7718"/>
<stop offset="0.1875" stop-color="#BF7718"/>
<stop offset="0.192708" stop-color="#BF7718"/>
<stop offset="0.239583" stop-color="#F6F97E"/>
<stop offset="0.322917" stop-color="#BF7718"/>
<stop offset="0.604167" stop-color="#F6F97E"/>
<stop offset="1" stop-color="#9E6B15"/>
</linearGradient>
<linearGradient id="paint25_linear" x1="191.714" y1="76.6079" x2="-0.0596445" y2="76.6079" gradientUnits="userSpaceOnUse">
<stop stop-color="#C2A22D"/>
<stop offset="0.0405101" stop-color="#F6F97E"/>
<stop offset="0.0825206" stop-color="#BF7718"/>
<stop offset="0.130208" stop-color="#F6F97E"/>
<stop offset="0.166667" stop-color="#BF7718"/>
<stop offset="0.1875" stop-color="#BF7718"/>
<stop offset="0.192708" stop-color="#BF7718"/>
<stop offset="0.239583" stop-color="#F6F97E"/>
<stop offset="0.322917" stop-color="#BF7718"/>
<stop offset="0.604167" stop-color="#F6F97E"/>
<stop offset="1" stop-color="#9E6B15"/>
</linearGradient>
<linearGradient id="paint26_linear" x1="191.714" y1="76.6079" x2="-0.0596445" y2="76.6079" gradientUnits="userSpaceOnUse">
<stop stop-color="#C2A22D"/>
<stop offset="0.0405101" stop-color="#F6F97E"/>
<stop offset="0.0825206" stop-color="#BF7718"/>
<stop offset="0.130208" stop-color="#F6F97E"/>
<stop offset="0.166667" stop-color="#BF7718"/>
<stop offset="0.1875" stop-color="#BF7718"/>
<stop offset="0.192708" stop-color="#BF7718"/>
<stop offset="0.239583" stop-color="#F6F97E"/>
<stop offset="0.322917" stop-color="#BF7718"/>
<stop offset="0.604167" stop-color="#F6F97E"/>
<stop offset="1" stop-color="#9E6B15"/>
</linearGradient>
<linearGradient id="paint27_linear" x1="191.714" y1="76.6079" x2="-0.0596445" y2="76.6079" gradientUnits="userSpaceOnUse">
<stop stop-color="#C2A22D"/>
<stop offset="0.0405101" stop-color="#F6F97E"/>
<stop offset="0.0825206" stop-color="#BF7718"/>
<stop offset="0.130208" stop-color="#F6F97E"/>
<stop offset="0.166667" stop-color="#BF7718"/>
<stop offset="0.1875" stop-color="#BF7718"/>
<stop offset="0.192708" stop-color="#BF7718"/>
<stop offset="0.239583" stop-color="#F6F97E"/>
<stop offset="0.322917" stop-color="#BF7718"/>
<stop offset="0.604167" stop-color="#F6F97E"/>
<stop offset="1" stop-color="#9E6B15"/>
</linearGradient>
<linearGradient id="paint28_linear" x1="191.714" y1="76.6079" x2="-0.0596445" y2="76.6079" gradientUnits="userSpaceOnUse">
<stop stop-color="#C2A22D"/>
<stop offset="0.0405101" stop-color="#F6F97E"/>
<stop offset="0.0825206" stop-color="#BF7718"/>
<stop offset="0.130208" stop-color="#F6F97E"/>
<stop offset="0.166667" stop-color="#BF7718"/>
<stop offset="0.1875" stop-color="#BF7718"/>
<stop offset="0.192708" stop-color="#BF7718"/>
<stop offset="0.239583" stop-color="#F6F97E"/>
<stop offset="0.322917" stop-color="#BF7718"/>
<stop offset="0.604167" stop-color="#F6F97E"/>
<stop offset="1" stop-color="#9E6B15"/>
</linearGradient>
<linearGradient id="paint29_linear" x1="191.714" y1="76.6079" x2="-0.0596445" y2="76.6079" gradientUnits="userSpaceOnUse">
<stop stop-color="#C2A22D"/>
<stop offset="0.0405101" stop-color="#F6F97E"/>
<stop offset="0.0825206" stop-color="#BF7718"/>
<stop offset="0.130208" stop-color="#F6F97E"/>
<stop offset="0.166667" stop-color="#BF7718"/>
<stop offset="0.1875" stop-color="#BF7718"/>
<stop offset="0.192708" stop-color="#BF7718"/>
<stop offset="0.239583" stop-color="#F6F97E"/>
<stop offset="0.322917" stop-color="#BF7718"/>
<stop offset="0.604167" stop-color="#F6F97E"/>
<stop offset="1" stop-color="#9E6B15"/>
</linearGradient>
<linearGradient id="paint30_linear" x1="191.714" y1="76.6079" x2="-0.0596445" y2="76.6079" gradientUnits="userSpaceOnUse">
<stop stop-color="#C2A22D"/>
<stop offset="0.0405101" stop-color="#F6F97E"/>
<stop offset="0.0825206" stop-color="#BF7718"/>
<stop offset="0.130208" stop-color="#F6F97E"/>
<stop offset="0.166667" stop-color="#BF7718"/>
<stop offset="0.1875" stop-color="#BF7718"/>
<stop offset="0.192708" stop-color="#BF7718"/>
<stop offset="0.239583" stop-color="#F6F97E"/>
<stop offset="0.322917" stop-color="#BF7718"/>
<stop offset="0.604167" stop-color="#F6F97E"/>
<stop offset="1" stop-color="#9E6B15"/>
</linearGradient>
<linearGradient id="paint31_linear" x1="191" y1="47.997" x2="0.583011" y2="47.997" gradientUnits="userSpaceOnUse">
<stop stop-color="#C2A22D"/>
<stop offset="0.0405101" stop-color="#F6F97E"/>
<stop offset="0.0825206" stop-color="#BF7718"/>
<stop offset="0.130208" stop-color="#F6F97E"/>
<stop offset="0.166667" stop-color="#BF7718"/>
<stop offset="0.1875" stop-color="#BF7718"/>
<stop offset="0.192708" stop-color="#BF7718"/>
<stop offset="0.239583" stop-color="#F6F97E"/>
<stop offset="0.322917" stop-color="#BF7718"/>
<stop offset="0.604167" stop-color="#F6F97E"/>
<stop offset="1" stop-color="#9E6B15"/>
</linearGradient>
</defs>
</svg>
