<svg width="2685" height="1073" viewBox="0 0 2685 1073" fill="none" xmlns="http://www.w3.org/2000/svg">
<path d="M132.5 268.579C137.333 268.579 143.167 268.996 150 269.829C157 270.496 164.167 271.746 171.5 273.579C179 275.246 186.417 277.496 193.75 280.329C201.083 282.996 207.667 286.412 213.5 290.579C219.5 294.746 224.25 299.662 227.75 305.329C231.417 310.996 233.25 317.496 233.25 324.829C233.25 334.329 230.167 342.662 224 349.829C218 356.829 210.083 362.829 200.25 367.829C190.417 372.829 179.333 376.996 167 380.329C154.667 383.662 142.25 386.246 129.75 388.079C117.417 389.912 105.583 391.246 94.25 392.079C83.0833 392.746 73.5833 393.079 65.75 393.079C63.5833 398.912 61 405.746 58 413.579C55 421.412 51.9167 428.996 48.75 436.329C45.75 443.496 42.8333 449.579 40 454.579C37.3333 459.579 35.0833 462.079 33.25 462.079C32.0833 462.079 31.1667 460.746 30.5 458.079C29.8333 455.579 29.5 452.162 29.5 447.829C29.5 443.496 29.8333 438.746 30.5 433.579C31.1667 428.412 31.9167 423.329 32.75 418.329C33.75 413.162 34.6667 408.246 35.5 403.579C36.5 398.746 37.3333 394.662 38 391.329C32.1667 390.662 28 389.996 25.5 389.329C23 388.496 21.75 387.662 21.75 386.829C21.75 385.496 23.6667 384.162 27.5 382.829C31.5 381.329 36.5 379.829 42.5 378.329C43.6667 373.996 45.5833 368.829 48.25 362.829C51.0833 356.662 54.25 350.079 57.75 343.079C61.4167 335.912 65.3333 328.746 69.5 321.579C73.6667 314.246 77.75 307.329 81.75 300.829C85.9167 294.162 89.8333 288.246 93.5 283.079C97.1667 277.746 100.333 273.579 103 270.579C104 270.579 104.583 270.496 104.75 270.329C105.083 269.996 106 269.746 107.5 269.579C109 269.246 111.583 268.996 115.25 268.829C118.917 268.662 124.667 268.579 132.5 268.579ZM74.75 373.579C79.25 373.246 85.5833 372.496 93.75 371.329C102.083 370.162 111.083 368.662 120.75 366.829C130.417 364.996 140.25 362.746 150.25 360.079C160.417 357.412 169.583 354.329 177.75 350.829C185.917 347.329 192.583 343.412 197.75 339.079C203.083 334.746 205.75 329.996 205.75 324.829C205.75 320.162 202.667 315.996 196.5 312.329C190.5 308.496 183 305.329 174 302.829C165.167 300.329 155.667 298.496 145.5 297.329C135.5 295.996 126.5 295.329 118.5 295.329C115.667 298.829 112.167 303.746 108 310.079C103.833 316.412 99.5833 323.246 95.25 330.579C91.0833 337.912 87.0833 345.412 83.25 353.079C79.5833 360.579 76.75 367.412 74.75 373.579ZM338.928 428.829C343.428 428.829 348.761 429.246 354.928 430.079C361.094 430.912 367.428 432.079 373.928 433.579C380.594 434.912 387.178 436.579 393.678 438.579C400.178 440.412 405.928 442.412 410.928 444.579C416.094 446.579 420.261 448.746 423.428 451.079C426.594 453.246 428.178 455.329 428.178 457.329C428.178 457.996 427.678 458.329 426.678 458.329C425.844 458.329 422.344 457.746 416.178 456.579C410.178 455.579 402.428 454.662 392.928 453.829C384.428 452.996 375.844 452.496 367.178 452.329C358.511 451.996 349.511 452.162 340.178 452.829C330.844 453.329 321.094 454.329 310.928 455.829C300.761 457.329 289.844 459.412 278.178 462.079C273.511 462.246 269.761 461.079 266.928 458.579C264.094 456.079 261.928 452.912 260.428 449.079C258.928 445.079 257.928 440.746 257.428 436.079C256.928 431.412 256.678 426.996 256.678 422.829C256.678 410.829 258.261 397.996 261.428 384.329C264.594 370.662 269.011 357.162 274.678 343.829C280.344 330.496 287.178 317.912 295.178 306.079C303.178 294.246 311.928 284.079 321.428 275.579L324.428 270.829C327.261 267.996 332.094 265.996 338.928 264.829C345.761 263.662 353.844 263.079 363.178 263.079C370.511 263.079 377.178 263.496 383.178 264.329C389.344 264.996 394.594 265.829 398.928 266.829C403.428 267.662 407.011 268.496 409.678 269.329C412.344 270.162 413.928 270.662 414.428 270.829C417.094 272.662 419.011 274.912 420.178 277.579C421.511 280.079 421.928 282.579 421.428 285.079C420.928 287.412 419.428 289.579 416.928 291.579C414.594 293.579 411.178 294.912 406.678 295.579C405.178 294.912 401.678 294.079 396.178 293.079C390.844 291.912 384.844 290.996 378.178 290.329C371.678 289.496 365.178 289.079 358.678 289.079C352.178 289.079 346.928 289.746 342.928 291.079C332.428 300.246 323.261 310.996 315.428 323.329C307.594 335.662 301.261 348.162 296.428 360.829C301.761 360.329 307.761 359.912 314.428 359.579C321.094 359.246 328.428 359.079 336.428 359.079C343.428 359.079 350.094 359.746 356.428 361.079C362.761 362.412 368.344 364.079 373.178 366.079C378.178 368.079 382.094 370.246 384.928 372.579C387.928 374.912 389.428 377.079 389.428 379.079C389.428 380.912 387.928 382.329 384.928 383.329C382.094 384.162 378.344 384.746 373.678 385.079C369.178 385.246 364.094 385.329 358.428 385.329C352.928 385.162 347.511 385.079 342.178 385.079C329.511 385.079 318.594 385.579 309.428 386.579C300.261 387.579 292.844 388.746 287.178 390.079C286.011 396.412 285.094 402.329 284.428 407.829C283.928 413.162 283.678 418.246 283.678 423.079C283.678 424.912 283.678 426.662 283.678 428.329C283.844 429.996 284.011 431.746 284.178 433.579C288.844 432.412 293.261 431.579 297.428 431.079C301.594 430.412 305.844 429.912 310.178 429.579C314.511 429.246 319.011 429.079 323.678 429.079C328.344 428.912 333.428 428.829 338.928 428.829ZM555.205 271.579C559.038 271.579 563.122 272.246 567.455 273.579C571.955 274.746 576.038 276.496 579.705 278.829C583.538 281.162 586.622 284.079 588.955 287.579C591.455 291.079 592.705 295.162 592.705 299.829C592.705 306.496 589.455 313.996 582.955 322.329C576.455 330.496 566.955 338.662 554.455 346.829C550.455 349.329 548.455 350.746 548.455 351.079C548.455 351.412 549.788 352.746 552.455 355.079C555.455 357.579 558.622 360.496 561.955 363.829C565.455 366.996 568.622 370.579 571.455 374.579C574.288 378.412 576.622 382.662 578.455 387.329C580.288 391.996 581.205 396.996 581.205 402.329C581.205 409.996 579.788 416.829 576.955 422.829C574.122 428.662 570.788 433.746 566.955 438.079C563.122 442.246 559.288 445.579 555.455 448.079C551.788 450.579 548.955 452.329 546.955 453.329C543.788 454.829 540.788 456.162 537.955 457.329C535.122 458.496 532.205 459.412 529.205 460.079C526.205 460.746 522.872 461.246 519.205 461.579C515.538 461.912 511.372 462.079 506.705 462.079C501.205 462.079 495.205 461.329 488.705 459.829C482.205 458.329 476.038 456.579 470.205 454.579C464.372 452.579 459.205 450.579 454.705 448.579C450.205 446.412 447.288 444.746 445.955 443.579C439.788 438.079 436.705 434.246 436.705 432.079C436.705 429.746 439.038 428.829 443.705 429.329C448.538 429.662 454.455 430.912 461.455 433.079C466.122 434.412 471.788 435.662 478.455 436.829C485.288 437.996 492.038 438.579 498.705 438.579C506.705 438.579 513.372 437.912 518.705 436.579C524.205 435.246 528.538 433.662 531.705 431.829C533.038 430.996 534.955 429.746 537.455 428.079C539.955 426.412 542.455 424.329 544.955 421.829C547.455 419.162 549.622 416.162 551.455 412.829C553.455 409.496 554.455 405.746 554.455 401.579C554.455 398.079 553.622 394.912 551.955 392.079C550.288 389.246 548.205 386.579 545.705 384.079C543.205 381.579 540.455 379.246 537.455 377.079C534.622 374.746 531.955 372.496 529.455 370.329C522.288 364.662 518.705 358.579 518.705 352.079C518.705 347.246 520.622 342.579 524.455 338.079C528.455 333.579 534.122 329.079 541.455 324.579C548.955 320.246 554.705 315.829 558.705 311.329C562.705 306.662 564.872 302.996 565.205 300.329C564.372 299.496 562.705 298.829 560.205 298.329C557.705 297.829 555.538 297.579 553.705 297.579C546.038 297.579 539.788 298.579 534.955 300.579C530.288 302.579 526.872 304.496 524.705 306.329C520.372 307.662 516.372 308.329 512.705 308.329C509.372 308.329 506.705 307.829 504.705 306.829C502.705 305.662 501.705 303.662 501.705 300.829C501.705 297.162 504.122 292.329 508.955 286.329C510.622 285.162 512.955 283.746 515.955 282.079C518.955 280.412 522.455 278.829 526.455 277.329C530.455 275.662 534.872 274.329 539.705 273.329C544.538 272.162 549.705 271.579 555.205 271.579ZM793.303 278.329C796.636 278.329 798.636 280.162 799.303 283.829C799.969 287.496 799.719 292.329 798.553 298.329C797.386 304.329 795.636 311.162 793.303 318.829C790.969 326.329 788.386 333.912 785.553 341.579C782.719 349.246 779.886 356.662 777.053 363.829C774.219 370.829 771.886 376.912 770.053 382.079C766.386 392.079 763.719 400.329 762.053 406.829C760.386 413.162 759.553 418.162 759.553 421.829C759.553 424.996 759.719 427.912 760.053 430.579C760.386 433.079 761.303 435.746 762.803 438.579C765.969 444.912 767.803 449.662 768.303 452.829C768.803 456.662 768.469 459.329 767.303 460.829C766.303 462.496 764.803 463.162 762.803 462.829C760.803 462.662 758.469 461.579 755.803 459.579C753.136 457.579 750.386 454.912 747.553 451.579C743.719 446.579 741.053 441.662 739.553 436.829C738.219 431.996 737.553 426.829 737.553 421.329C737.553 418.496 737.969 415.079 738.803 411.079C739.803 406.912 741.053 402.496 742.553 397.829C744.053 393.162 745.719 388.329 747.553 383.329C749.553 378.329 751.553 373.412 753.553 368.579C747.886 377.746 740.969 387.329 732.803 397.329C724.803 407.329 716.219 416.496 707.053 424.829C697.886 433.162 688.469 440.162 678.803 445.829C669.136 451.329 659.969 454.246 651.303 454.579C644.636 454.579 638.886 453.246 634.053 450.579C629.219 447.912 625.219 444.579 622.053 440.579C619.053 436.412 616.803 431.829 615.303 426.829C613.969 421.829 613.303 416.996 613.303 412.329C613.303 407.496 613.719 401.829 614.553 395.329C615.386 388.662 616.553 381.579 618.053 374.079C619.553 366.579 621.303 358.912 623.303 351.079C625.469 343.079 627.803 335.246 630.303 327.579C633.303 323.912 636.053 321.329 638.553 319.829C641.053 318.329 643.219 317.579 645.053 317.579C648.886 317.579 651.636 319.329 653.303 322.829C655.136 326.162 656.053 330.412 656.053 335.579C654.219 339.079 652.219 343.662 650.053 349.329C648.053 354.829 646.136 360.829 644.303 367.329C642.636 373.662 641.136 380.246 639.803 387.079C638.636 393.746 638.053 400.079 638.053 406.079C638.053 412.412 639.303 417.829 641.803 422.329C644.469 426.662 648.969 428.829 655.303 428.829C659.136 428.829 663.803 427.246 669.303 424.079C674.803 420.746 680.553 416.496 686.553 411.329C692.553 405.996 698.469 400.162 704.303 393.829C710.136 387.496 715.303 381.162 719.803 374.829C724.803 367.829 730.053 360.162 735.553 351.829C741.053 343.329 746.219 335.162 751.053 327.329C754.886 321.162 758.886 315.162 763.053 309.329C767.219 303.329 771.219 298.079 775.053 293.579C778.886 288.912 782.386 285.246 785.553 282.579C788.719 279.746 791.303 278.329 793.303 278.329ZM865.541 373.079C859.041 382.579 853.208 392.079 848.041 401.579C842.874 411.079 838.624 419.746 835.291 427.579C839.958 426.746 844.791 426.162 849.791 425.829C854.791 425.329 860.958 425.079 868.291 425.079C875.791 425.079 883.624 425.496 891.791 426.329C899.958 426.996 907.791 428.079 915.291 429.579C916.458 423.746 917.958 416.246 919.791 407.079C921.624 397.912 923.374 388.246 925.041 378.079C926.708 367.746 928.124 357.496 929.291 347.329C930.624 336.996 931.291 327.829 931.291 319.829C931.291 314.829 931.291 310.829 931.291 307.829C931.291 304.829 931.208 303.329 931.041 303.329C927.541 303.329 923.291 305.246 918.291 309.079C913.458 312.912 908.124 318.079 902.291 324.579C896.624 331.079 890.624 338.579 884.291 347.079C877.958 355.412 871.708 364.079 865.541 373.079ZM870.291 451.829C864.958 451.662 859.624 451.829 854.291 452.329C849.124 452.662 844.291 453.162 839.791 453.829C835.291 454.496 831.291 455.162 827.791 455.829C824.291 456.496 821.791 456.996 820.291 457.329C818.291 458.329 816.458 459.912 814.791 462.079C813.291 464.246 811.874 466.579 810.541 469.079C809.374 471.579 808.374 474.162 807.541 476.829C806.708 479.496 806.208 481.912 806.041 484.079C804.374 488.579 802.458 491.829 800.291 493.829C798.291 495.829 796.291 496.829 794.291 496.829C791.458 496.829 789.041 495.579 787.041 493.079C785.041 490.579 783.374 487.079 782.041 482.579C782.541 478.412 783.124 474.079 783.791 469.579C784.458 465.079 785.624 460.662 787.291 456.329C788.791 452.162 790.874 448.246 793.541 444.579C796.208 440.912 799.708 437.829 804.041 435.329C807.708 427.496 811.041 420.412 814.041 414.079C817.208 407.746 820.291 401.579 823.291 395.579C826.458 389.579 829.791 383.579 833.291 377.579C836.958 371.412 841.041 364.662 845.541 357.329C848.208 353.162 851.541 348.329 855.541 342.829C859.708 337.162 864.208 331.412 869.041 325.579C873.874 319.579 878.958 313.746 884.291 308.079C889.624 302.246 894.958 297.079 900.291 292.579C905.791 287.912 911.124 284.246 916.291 281.579C921.458 278.746 926.208 277.329 930.541 277.329C936.708 277.329 941.541 278.579 945.041 281.079C948.708 283.579 951.458 286.746 953.291 290.579C955.124 294.412 956.208 298.662 956.541 303.329C957.041 307.829 957.291 312.246 957.291 316.579C957.291 325.579 956.874 334.746 956.041 344.079C955.374 353.246 954.124 362.746 952.291 372.579C950.624 382.246 948.291 392.412 945.291 403.079C942.458 413.579 938.791 424.662 934.291 436.329C940.291 438.996 944.624 441.912 947.291 445.079C949.958 448.079 951.291 452.412 951.291 458.079C951.291 462.579 950.458 467.329 948.791 472.329C947.124 477.329 944.958 482.246 942.291 487.079C939.624 492.079 936.708 496.829 933.541 501.329C930.374 505.829 927.291 509.746 924.291 513.079C922.124 515.246 920.208 516.912 918.541 518.079C917.041 519.412 915.791 520.079 914.791 520.079C912.291 520.079 911.208 517.912 911.541 513.579C912.041 509.412 913.208 504.496 915.041 498.829C916.874 493.829 918.374 488.996 919.541 484.329C920.874 479.662 922.291 474.912 923.791 470.079C924.291 466.246 923.041 463.162 920.041 460.829C917.041 458.496 912.958 456.662 907.791 455.329C902.791 454.162 896.958 453.329 890.291 452.829C883.624 452.329 876.958 451.996 870.291 451.829ZM1066.96 428.829C1071.46 428.829 1076.79 429.246 1082.96 430.079C1089.12 430.912 1095.46 432.079 1101.96 433.579C1108.62 434.912 1115.21 436.579 1121.71 438.579C1128.21 440.412 1133.96 442.412 1138.96 444.579C1144.12 446.579 1148.29 448.746 1151.46 451.079C1154.62 453.246 1156.21 455.329 1156.21 457.329C1156.21 457.996 1155.71 458.329 1154.71 458.329C1153.87 458.329 1150.37 457.746 1144.21 456.579C1138.21 455.579 1130.46 454.662 1120.96 453.829C1112.46 452.996 1103.87 452.496 1095.21 452.329C1086.54 451.996 1077.54 452.162 1068.21 452.829C1058.87 453.329 1049.12 454.329 1038.96 455.829C1028.79 457.329 1017.87 459.412 1006.21 462.079C1001.54 462.246 997.788 461.079 994.955 458.579C992.122 456.079 989.955 452.912 988.455 449.079C986.955 445.079 985.955 440.746 985.455 436.079C984.955 431.412 984.705 426.996 984.705 422.829C984.705 410.829 986.288 397.996 989.455 384.329C992.622 370.662 997.038 357.162 1002.71 343.829C1008.37 330.496 1015.21 317.912 1023.21 306.079C1031.21 294.246 1039.96 284.079 1049.46 275.579L1052.46 270.829C1055.29 267.996 1060.12 265.996 1066.96 264.829C1073.79 263.662 1081.87 263.079 1091.21 263.079C1098.54 263.079 1105.21 263.496 1111.21 264.329C1117.37 264.996 1122.62 265.829 1126.96 266.829C1131.46 267.662 1135.04 268.496 1137.71 269.329C1140.37 270.162 1141.96 270.662 1142.46 270.829C1145.12 272.662 1147.04 274.912 1148.21 277.579C1149.54 280.079 1149.96 282.579 1149.46 285.079C1148.96 287.412 1147.46 289.579 1144.96 291.579C1142.62 293.579 1139.21 294.912 1134.71 295.579C1133.21 294.912 1129.71 294.079 1124.21 293.079C1118.87 291.912 1112.87 290.996 1106.21 290.329C1099.71 289.496 1093.21 289.079 1086.71 289.079C1080.21 289.079 1074.96 289.746 1070.96 291.079C1060.46 300.246 1051.29 310.996 1043.46 323.329C1035.62 335.662 1029.29 348.162 1024.46 360.829C1029.79 360.329 1035.79 359.912 1042.46 359.579C1049.12 359.246 1056.46 359.079 1064.46 359.079C1071.46 359.079 1078.12 359.746 1084.46 361.079C1090.79 362.412 1096.37 364.079 1101.21 366.079C1106.21 368.079 1110.12 370.246 1112.96 372.579C1115.96 374.912 1117.46 377.079 1117.46 379.079C1117.46 380.912 1115.96 382.329 1112.96 383.329C1110.12 384.162 1106.37 384.746 1101.71 385.079C1097.21 385.246 1092.12 385.329 1086.46 385.329C1080.96 385.162 1075.54 385.079 1070.21 385.079C1057.54 385.079 1046.62 385.579 1037.46 386.579C1028.29 387.579 1020.87 388.746 1015.21 390.079C1014.04 396.412 1013.12 402.329 1012.46 407.829C1011.96 413.162 1011.71 418.246 1011.71 423.079C1011.71 424.912 1011.71 426.662 1011.71 428.329C1011.87 429.996 1012.04 431.746 1012.21 433.579C1016.87 432.412 1021.29 431.579 1025.46 431.079C1029.62 430.412 1033.87 429.912 1038.21 429.579C1042.54 429.246 1047.04 429.079 1051.71 429.079C1056.37 428.912 1061.46 428.829 1066.96 428.829ZM1216.98 388.829C1216.15 391.162 1214.98 394.412 1213.48 398.579C1212.15 402.746 1210.48 407.246 1208.48 412.079C1206.65 416.912 1204.65 421.912 1202.48 427.079C1200.48 432.079 1198.48 436.662 1196.48 440.829C1194.65 444.996 1192.9 448.412 1191.23 451.079C1189.57 453.579 1188.23 454.829 1187.23 454.829C1186.23 454.829 1185.4 454.162 1184.73 452.829C1184.23 451.329 1183.82 449.496 1183.48 447.329C1183.32 445.162 1183.23 442.829 1183.23 440.329C1183.23 437.662 1183.23 435.162 1183.23 432.829C1183.23 428.162 1183.4 423.746 1183.73 419.579C1184.07 415.246 1184.57 410.912 1185.23 406.579C1186.07 402.079 1187.07 397.329 1188.23 392.329C1189.4 387.329 1190.73 381.662 1192.23 375.329C1193.73 369.162 1195.82 362.329 1198.48 354.829C1201.32 347.329 1204.4 339.579 1207.73 331.579C1211.07 323.579 1214.48 315.829 1217.98 308.329C1221.48 300.662 1224.73 293.662 1227.73 287.329C1230.9 280.996 1233.57 275.746 1235.73 271.579C1237.9 267.412 1239.4 264.746 1240.23 263.579C1244.73 262.579 1249.23 262.912 1253.73 264.579C1258.23 266.246 1261.65 270.329 1263.98 276.829C1261.32 282.496 1257.98 288.996 1253.98 296.329C1250.15 303.662 1246.32 311.162 1242.48 318.829C1238.65 326.329 1235.15 333.662 1231.98 340.829C1228.82 347.996 1226.57 354.329 1225.23 359.829C1229.07 359.829 1233.48 359.829 1238.48 359.829C1243.65 359.829 1248.9 359.912 1254.23 360.079C1259.73 360.079 1265.15 360.246 1270.48 360.579C1275.98 360.746 1281.07 360.996 1285.73 361.329C1287.07 354.829 1288.73 347.496 1290.73 339.329C1292.73 331.162 1295.07 322.746 1297.73 314.079C1300.4 305.412 1303.23 296.746 1306.23 288.079C1309.4 279.412 1312.73 271.246 1316.23 263.579C1320.9 262.246 1325.48 262.246 1329.98 263.579C1334.65 264.912 1338.57 268.246 1341.73 273.579C1339.9 278.746 1337.57 285.162 1334.73 292.829C1331.9 300.496 1329.07 308.579 1326.23 317.079C1323.4 325.579 1320.82 333.996 1318.48 342.329C1316.15 350.662 1314.48 357.996 1313.48 364.329C1313.65 364.329 1314.73 364.579 1316.73 365.079C1318.73 365.579 1321.15 366.329 1323.98 367.329C1326.98 368.329 1330.15 369.496 1333.48 370.829C1336.98 371.996 1340.15 373.329 1342.98 374.829C1345.82 376.162 1348.15 377.579 1349.98 379.079C1351.98 380.412 1352.98 381.746 1352.98 383.079C1352.98 383.579 1352.73 384.162 1352.23 384.829C1351.9 385.496 1350.82 386.162 1348.98 386.829C1347.32 387.329 1344.73 387.746 1341.23 388.079C1337.9 388.412 1333.15 388.579 1326.98 388.579H1315.73C1313.9 388.579 1311.98 388.496 1309.98 388.329C1309.48 390.996 1308.73 394.662 1307.73 399.329C1306.73 403.829 1305.57 408.746 1304.23 414.079C1302.9 419.246 1301.4 424.496 1299.73 429.829C1298.23 435.162 1296.65 439.996 1294.98 444.329C1293.48 448.662 1291.98 452.162 1290.48 454.829C1288.98 457.662 1287.57 459.079 1286.23 459.079C1284.4 459.079 1282.9 457.412 1281.73 454.079C1280.73 450.746 1280.07 446.246 1279.73 440.579C1279.73 432.746 1279.82 425.412 1279.98 418.579C1280.15 412.746 1280.4 406.912 1280.73 401.079C1281.07 395.079 1281.48 390.579 1281.98 387.579C1277.48 387.412 1272.23 387.329 1266.23 387.329C1260.23 387.162 1254.15 387.162 1247.98 387.329C1241.82 387.329 1235.9 387.496 1230.23 387.829C1224.73 387.996 1220.32 388.329 1216.98 388.829ZM1549.83 279.079C1553.16 279.079 1555.25 280.996 1556.08 284.829C1557.08 288.662 1557.25 293.662 1556.58 299.829C1555.91 305.996 1554.66 312.912 1552.83 320.579C1551 328.246 1548.91 335.996 1546.58 343.829C1544.25 351.496 1541.83 358.829 1539.33 365.829C1537 372.662 1535 378.412 1533.33 383.079C1531.83 386.912 1530.25 391.079 1528.58 395.579C1527.08 400.079 1525.66 404.329 1524.33 408.329C1523.16 412.162 1522.16 415.579 1521.33 418.579C1520.66 421.412 1520.33 423.162 1520.33 423.829C1520.33 427.662 1521.08 430.829 1522.58 433.329C1524.25 435.662 1526 437.996 1527.83 440.329C1532.83 446.662 1535 452.746 1534.33 458.579C1533.66 464.579 1529.33 469.912 1521.33 474.579C1513.5 478.912 1505.66 483.246 1497.83 487.579C1490 492.079 1483.5 496.412 1478.33 500.579C1474 503.912 1470.16 506.829 1466.83 509.329C1463.66 511.829 1460.75 514.162 1458.08 516.329C1455.41 518.662 1452.91 520.912 1450.58 523.079C1448.41 525.246 1446.16 527.662 1443.83 530.329C1441.5 533.162 1439.91 534.079 1439.08 533.079C1438.25 532.079 1438.41 529.829 1439.58 526.329C1440.91 522.829 1443.25 518.246 1446.58 512.579C1450.08 507.079 1455 501.079 1461.33 494.579C1463.33 492.579 1466.08 489.829 1469.58 486.329C1473.08 482.996 1476.91 479.412 1481.08 475.579C1485.25 471.912 1489.5 468.329 1493.83 464.829C1498.16 461.329 1502.08 458.412 1505.58 456.079C1506.41 455.412 1507 454.662 1507.33 453.829C1507.83 452.996 1507 451.412 1504.83 449.079C1501.33 444.912 1499.25 440.746 1498.58 436.579C1497.91 432.246 1497.75 427.662 1498.08 422.829C1498.41 418.829 1499.58 413.746 1501.58 407.579C1503.58 401.246 1505.91 394.496 1508.58 387.329C1511.41 380.162 1514.41 372.912 1517.58 365.579C1520.75 358.246 1523.58 351.412 1526.08 345.079C1521.75 351.912 1517 359.162 1511.83 366.829C1506.83 374.496 1501.33 382.162 1495.33 389.829C1489.5 397.496 1483.33 404.996 1476.83 412.329C1470.33 419.496 1463.5 425.996 1456.33 431.829C1449.33 437.662 1441.91 442.579 1434.08 446.579C1426.41 450.412 1418.5 452.912 1410.33 454.079C1403.83 454.079 1398.16 452.579 1393.33 449.579C1388.5 446.579 1384.5 442.829 1381.33 438.329C1378.16 433.829 1375.83 428.996 1374.33 423.829C1372.83 418.496 1372.08 413.496 1372.08 408.829C1372.08 403.996 1372.5 398.496 1373.33 392.329C1374.33 385.996 1375.58 379.329 1377.08 372.329C1378.75 365.329 1380.58 358.079 1382.58 350.579C1384.75 342.912 1387.08 335.329 1389.58 327.829C1392.58 324.162 1395.25 321.579 1397.58 320.079C1400.08 318.579 1402.25 317.829 1404.08 317.829C1407.75 317.829 1410.41 319.579 1412.08 323.079C1413.75 326.412 1414.58 330.579 1414.58 335.579C1412.75 339.246 1410.75 343.912 1408.58 349.579C1406.58 355.079 1404.66 361.079 1402.83 367.579C1401 374.079 1399.41 380.746 1398.08 387.579C1396.91 394.246 1396.33 400.496 1396.33 406.329C1396.33 413.162 1397.66 418.829 1400.33 423.329C1403.16 427.829 1407.91 430.079 1414.58 430.079C1418.58 430.079 1423.33 428.412 1428.83 425.079C1434.33 421.746 1440 417.496 1445.83 412.329C1451.83 406.996 1457.75 401.079 1463.58 394.579C1469.41 388.079 1474.66 381.579 1479.33 375.079C1484.66 367.912 1489.91 360.246 1495.08 352.079C1500.25 343.746 1505.41 335.496 1510.58 327.329C1514.41 321.162 1518.25 315.162 1522.08 309.329C1526.08 303.496 1529.75 298.329 1533.08 293.829C1536.58 289.329 1539.75 285.746 1542.58 283.079C1545.58 280.412 1548 279.079 1549.83 279.079ZM1740.57 278.329C1743.9 278.329 1745.9 280.162 1746.57 283.829C1747.24 287.496 1746.99 292.329 1745.82 298.329C1744.65 304.329 1742.9 311.162 1740.57 318.829C1738.24 326.329 1735.65 333.912 1732.82 341.579C1729.99 349.246 1727.15 356.662 1724.32 363.829C1721.49 370.829 1719.15 376.912 1717.32 382.079C1713.65 392.079 1710.99 400.329 1709.32 406.829C1707.65 413.162 1706.82 418.162 1706.82 421.829C1706.82 424.996 1706.99 427.912 1707.32 430.579C1707.65 433.079 1708.57 435.746 1710.07 438.579C1713.24 444.912 1715.07 449.662 1715.57 452.829C1716.07 456.662 1715.74 459.329 1714.57 460.829C1713.57 462.496 1712.07 463.162 1710.07 462.829C1708.07 462.662 1705.74 461.579 1703.07 459.579C1700.4 457.579 1697.65 454.912 1694.82 451.579C1690.99 446.579 1688.32 441.662 1686.82 436.829C1685.49 431.996 1684.82 426.829 1684.82 421.329C1684.82 418.496 1685.24 415.079 1686.07 411.079C1687.07 406.912 1688.32 402.496 1689.82 397.829C1691.32 393.162 1692.99 388.329 1694.82 383.329C1696.82 378.329 1698.82 373.412 1700.82 368.579C1695.15 377.746 1688.24 387.329 1680.07 397.329C1672.07 407.329 1663.49 416.496 1654.32 424.829C1645.15 433.162 1635.74 440.162 1626.07 445.829C1616.4 451.329 1607.24 454.246 1598.57 454.579C1591.9 454.579 1586.15 453.246 1581.32 450.579C1576.49 447.912 1572.49 444.579 1569.32 440.579C1566.32 436.412 1564.07 431.829 1562.57 426.829C1561.24 421.829 1560.57 416.996 1560.57 412.329C1560.57 407.496 1560.99 401.829 1561.82 395.329C1562.65 388.662 1563.82 381.579 1565.32 374.079C1566.82 366.579 1568.57 358.912 1570.57 351.079C1572.74 343.079 1575.07 335.246 1577.57 327.579C1580.57 323.912 1583.32 321.329 1585.82 319.829C1588.32 318.329 1590.49 317.579 1592.32 317.579C1596.15 317.579 1598.9 319.329 1600.57 322.829C1602.4 326.162 1603.32 330.412 1603.32 335.579C1601.49 339.079 1599.49 343.662 1597.32 349.329C1595.32 354.829 1593.4 360.829 1591.57 367.329C1589.9 373.662 1588.4 380.246 1587.07 387.079C1585.9 393.746 1585.32 400.079 1585.32 406.079C1585.32 412.412 1586.57 417.829 1589.07 422.329C1591.74 426.662 1596.24 428.829 1602.57 428.829C1606.4 428.829 1611.07 427.246 1616.57 424.079C1622.07 420.746 1627.82 416.496 1633.82 411.329C1639.82 405.996 1645.74 400.162 1651.57 393.829C1657.4 387.496 1662.57 381.162 1667.07 374.829C1672.07 367.829 1677.32 360.162 1682.82 351.829C1688.32 343.329 1693.49 335.162 1698.32 327.329C1702.15 321.162 1706.15 315.162 1710.32 309.329C1714.49 303.329 1718.49 298.079 1722.32 293.579C1726.15 288.912 1729.65 285.246 1732.82 282.579C1735.99 279.746 1738.57 278.329 1740.57 278.329ZM1811.56 354.329C1818.72 356.662 1827.14 358.996 1836.81 361.329C1846.64 363.496 1855.89 365.412 1864.56 367.079C1867.89 353.246 1871.31 340.662 1874.81 329.329C1878.31 317.829 1881.64 308.996 1884.81 302.829C1878.14 304.329 1870.47 306.246 1861.81 308.579C1853.14 310.912 1844.64 313.579 1836.31 316.579C1828.14 319.412 1820.64 322.579 1813.81 326.079C1806.97 329.579 1802.06 333.162 1799.06 336.829C1797.72 338.829 1797.06 340.662 1797.06 342.329C1797.22 343.996 1797.89 345.579 1799.06 347.079C1800.39 348.412 1802.06 349.746 1804.06 351.079C1806.22 352.246 1808.72 353.329 1811.56 354.329ZM1751.06 427.829C1764.39 418.329 1777.39 409.912 1790.06 402.579C1802.89 395.079 1815.81 388.996 1828.81 384.329C1822.97 383.496 1817.14 382.412 1811.31 381.079C1805.47 379.579 1800.14 377.912 1795.31 376.079C1789.64 374.079 1784.72 371.579 1780.56 368.579C1776.56 365.579 1773.64 362.162 1771.81 358.329C1769.97 354.329 1769.39 349.996 1770.06 345.329C1770.89 340.496 1773.31 335.246 1777.31 329.579C1781.31 323.912 1786.64 318.829 1793.31 314.329C1799.97 309.662 1807.22 305.579 1815.06 302.079C1823.06 298.412 1831.22 295.246 1839.56 292.579C1847.89 289.746 1855.81 287.329 1863.31 285.329C1870.81 283.162 1877.56 281.496 1883.56 280.329C1889.56 278.996 1894.06 277.912 1897.06 277.079C1897.89 275.579 1898.89 273.912 1900.06 272.079C1901.39 270.079 1902.47 268.412 1903.31 267.079C1907.47 264.746 1911.31 264.079 1914.81 265.079C1918.31 266.079 1920.81 268.496 1922.31 272.329L1940.06 269.829C1945.22 271.329 1948.56 273.246 1950.06 275.579C1951.56 277.746 1951.64 279.996 1950.31 282.329C1949.14 284.662 1946.89 286.829 1943.56 288.829C1940.39 290.829 1936.72 292.329 1932.56 293.329L1920.56 295.579C1918.06 299.912 1915.14 305.579 1911.81 312.579C1908.47 319.412 1905.14 326.912 1901.81 335.079C1898.64 343.079 1895.64 351.246 1892.81 359.579C1890.14 367.912 1888.22 375.579 1887.06 382.579L1873.31 447.079C1871.81 457.412 1869.89 464.412 1867.56 468.079C1865.22 471.912 1863.14 472.329 1861.31 469.329C1860.14 467.496 1858.89 464.246 1857.56 459.579C1856.22 454.912 1855.56 449.579 1855.56 443.579C1855.56 437.746 1855.72 431.162 1856.06 423.829C1856.39 416.329 1857.22 408.329 1858.56 399.829C1857.22 400.162 1855.97 400.496 1854.81 400.829C1853.81 400.996 1852.64 401.246 1851.31 401.579C1840.81 404.579 1830.72 408.162 1821.06 412.329C1811.39 416.329 1802.56 420.412 1794.56 424.579C1786.56 428.579 1779.56 432.412 1773.56 436.079C1767.56 439.579 1762.97 442.412 1759.81 444.579C1758.64 445.412 1756.72 446.662 1754.06 448.329C1751.56 449.996 1748.81 451.746 1745.81 453.579C1742.81 455.412 1739.81 457.079 1736.81 458.579C1733.97 460.079 1731.56 460.996 1729.56 461.329C1727.39 461.829 1725.97 461.579 1725.31 460.579C1724.47 459.579 1724.81 457.412 1726.31 454.079C1726.81 453.079 1727.81 451.579 1729.31 449.579C1730.81 447.412 1732.64 445.162 1734.81 442.829C1736.97 440.329 1739.39 437.829 1742.06 435.329C1744.89 432.662 1747.89 430.162 1751.06 427.829Z" fill="url(#paint0_linear)"/>
<path d="M13.4961 914.018C13.4961 912.504 14.4043 910.738 16.2207 908.72C18.138 906.701 20.2067 904.986 22.4268 903.573C22.5277 893.28 22.5781 884.905 22.5781 878.446C22.5781 873.199 23.0827 868.406 24.0918 864.066C25.1009 859.727 25.6055 855.64 25.6055 851.806C25.7064 847.971 27.3714 845.246 30.6006 843.632C33.9307 842.017 36.1003 841.21 37.1094 841.21C39.7331 841.21 41.1458 842.623 41.3477 845.448C41.3477 848.173 40.7926 860.03 39.6826 881.02C39.6826 887.175 39.5817 892.423 39.3799 896.762C45.1318 895.349 52.902 893.936 62.6904 892.523C72.5798 891.01 82.3682 890.202 92.0557 890.102C93.0648 876.176 94.2757 866.387 95.6885 860.736C97.1012 855.085 97.8076 850.897 97.8076 848.173C97.8076 847.366 97.7572 846.811 97.6562 846.508C97.5553 846.104 97.5049 845.65 97.5049 845.146C97.5049 844.035 97.959 842.976 98.8672 841.967C99.7754 840.857 100.734 840.302 101.743 840.302C103.358 840.302 104.972 842.017 106.587 845.448C108.201 848.778 109.009 856.145 109.009 867.548C109.009 869.566 108.807 872.644 108.403 876.781C108 880.818 107.798 885.51 107.798 890.858C108.403 890.959 109.412 891.111 110.825 891.312C112.238 891.514 112.944 892.574 112.944 894.491C112.944 894.895 112.743 895.904 112.339 897.519C112.036 899.032 111.279 899.991 110.068 900.395C108.958 900.697 108.151 900.899 107.646 901C107.646 921.788 108.101 934.856 109.009 940.204C109.917 945.451 110.371 948.327 110.371 948.832C110.371 952.061 108.958 954.231 106.133 955.341C103.408 956.35 101.491 956.854 100.381 956.854C97.959 956.854 95.7894 953.222 93.8721 945.956C92.0557 938.69 91.1475 927.338 91.1475 911.898C91.1475 909.376 91.1979 906.802 91.2988 904.179C83.0241 905.692 73.9925 907.307 64.2041 909.022C54.4157 910.738 46.5446 912.252 40.5908 913.563C40.7926 922.545 42.609 936.067 46.04 954.13C46.141 954.534 46.1914 954.887 46.1914 955.189C46.1914 957.712 44.6273 959.73 41.499 961.244C40.0863 961.951 38.8249 962.304 37.7148 962.304C35.9993 962.304 34.5866 961.446 33.4766 959.73C27.4219 948.933 24.0918 934.402 23.4863 916.137C20.8626 916.742 18.7435 917.095 17.1289 917.196C14.707 916.894 13.4961 915.834 13.4961 914.018ZM138.677 922.04C138.677 909.729 141.502 894.289 147.153 875.722C152.905 857.154 163.4 847.87 178.638 847.87C197.407 848.476 210.879 855.59 219.053 869.213C227.227 882.836 231.515 895.601 231.919 907.509C231.919 918.407 226.571 929.507 215.874 940.81C205.48 953.323 192.664 959.579 177.427 959.579C164.914 958.974 155.327 955.341 148.667 948.681C142.007 941.92 138.677 933.039 138.677 922.04ZM157.9 916.591C157.9 925.673 159.565 932.283 162.896 936.42C166.226 940.557 170.514 942.626 175.762 942.626C183.33 942.626 191.353 938.539 199.829 930.365C208.407 922.191 212.695 913.765 212.695 905.087C212.695 894.996 208.659 885.813 200.586 877.538C192.614 869.162 185.954 864.975 180.605 864.975C173.844 864.975 168.345 871.433 164.106 884.35C159.969 897.165 157.9 907.912 157.9 916.591ZM249.629 859.979C251.243 846.76 262.293 838.536 282.778 835.307C287.622 834.499 292.163 834.096 296.401 834.096C310.529 834.096 320.368 837.527 325.918 844.389C331.468 851.15 334.243 859.172 334.243 868.456C334.243 874.006 333.335 879.001 331.519 883.441C336.665 885.762 341.156 889.95 344.99 896.005C348.926 901.959 350.894 908.922 350.894 916.894C350.894 930.012 345.798 940.961 335.605 949.74C325.413 958.419 306.291 964.07 278.237 966.693C267.44 966.693 259.014 960.79 252.959 948.983C253.262 945.351 254.422 943.03 256.44 942.021C258.56 941.011 260.073 940.507 260.981 940.507C262.697 940.507 264.009 940.759 264.917 941.264C265.926 941.768 267.137 942.828 268.55 944.442C268.146 936.269 267.692 925.875 267.188 913.261C266.986 907.509 266.885 902.06 266.885 896.913C266.885 881.171 267.843 868.961 269.761 860.282C270.467 856.952 273.192 854.833 277.935 853.925C280.256 853.925 281.416 855.539 281.416 858.769C281.315 861.19 281.265 864.066 281.265 867.396C281.265 873.855 281.416 882.281 281.719 892.675C289.287 885.611 298.975 881.726 310.781 881.02H314.111C316.029 877.488 317.088 873.3 317.29 868.456C317.29 860.484 314.767 855.388 309.722 853.168C304.676 850.847 297.764 849.687 288.984 849.687C279.297 849.687 270.518 852.613 262.646 858.466C259.619 860.686 256.289 861.947 252.656 862.25C250.638 862.25 249.629 861.493 249.629 859.979ZM281.113 950.648C298.268 948.025 311.286 944.19 320.166 939.145C329.147 933.998 333.638 926.833 333.638 917.65C333.638 914.825 332.578 911.444 330.459 907.509C328.441 903.472 325.06 900.092 320.317 897.367C313.354 901.807 305.635 904.027 297.158 904.027C292.819 904.027 287.773 904.381 282.021 905.087C282.223 911.142 282.476 918.811 282.778 928.095C282.778 935.764 282.223 943.282 281.113 950.648ZM373.296 922.04C373.296 909.729 376.121 894.289 381.772 875.722C387.524 857.154 398.019 847.87 413.257 847.87C432.026 848.476 445.498 855.59 453.672 869.213C461.846 882.836 466.134 895.601 466.538 907.509C466.538 918.407 461.19 929.507 450.493 940.81C440.099 953.323 427.284 959.579 412.046 959.579C399.533 958.974 389.946 955.341 383.286 948.681C376.626 941.92 373.296 933.039 373.296 922.04ZM392.52 916.591C392.52 925.673 394.185 932.283 397.515 936.42C400.845 940.557 405.133 942.626 410.381 942.626C417.949 942.626 425.972 938.539 434.448 930.365C443.026 922.191 447.314 913.765 447.314 905.087C447.314 894.996 443.278 885.813 435.205 877.538C427.233 869.162 420.573 864.975 415.225 864.975C408.464 864.975 402.964 871.433 398.726 884.35C394.588 897.165 392.52 907.912 392.52 916.591ZM482.734 918.71C482.734 904.683 485.913 892.12 492.271 881.02C498.628 869.919 506.095 862.502 514.673 858.769C523.25 855.035 532.181 853.168 541.465 853.168C549.941 853.168 556.652 855.338 561.597 859.677C566.541 864.016 569.014 867.649 569.014 870.575C569.014 877.034 565.936 880.263 559.78 880.263C554.836 872.392 548.327 868.456 540.254 868.456C526.126 869.162 516.136 874.713 510.283 885.106C504.43 895.5 501.504 905.793 501.504 915.985C502.109 926.278 505.591 933.645 511.948 938.085C518.407 942.525 525.622 944.745 533.594 944.745C537.025 944.745 542.575 943.786 550.244 941.869C557.913 939.952 567.197 935.512 578.096 928.549C581.729 926.43 583.949 925.37 584.756 925.37C584.958 925.37 585.059 925.471 585.059 925.673C585.059 926.884 579.004 932.787 566.895 943.383C554.886 953.979 541.566 959.276 526.934 959.276C513.714 959.276 503.018 955.492 494.844 947.924C486.771 940.355 482.734 930.618 482.734 918.71ZM584.604 867.094C584.604 863.965 585.614 860.131 587.632 855.59C589.751 851.049 591.668 848.778 593.384 848.778C606.2 845.65 625.373 843.834 650.903 843.329C684.204 844.136 700.854 845.701 700.854 848.021C700.854 849.031 697.373 850.746 690.41 853.168C670.934 856.195 657.059 858.163 648.784 859.071C646.261 886.62 645 908.013 645 923.251C644.395 939.599 643.84 949.791 643.335 953.827C642.931 957.763 641.872 959.73 640.156 959.73C638.239 959.73 635.565 954.988 632.134 945.502C628.804 935.915 627.139 917.095 627.139 889.042C627.139 880.465 627.492 871.282 628.198 861.493L589.146 868.91C586.219 868.91 584.705 868.305 584.604 867.094ZM692.681 875.722C692.681 869.162 696.868 863.814 705.244 859.677C716.243 853.017 727.243 849.687 738.242 849.687C755.094 849.687 766.649 852.26 772.905 857.406C779.263 862.553 782.744 870.474 783.35 881.171C783.35 897.72 778.354 911.444 768.364 922.343C758.374 933.241 742.783 944.745 721.592 956.854L715.234 1041.32C712.409 1041.32 709.583 1036.62 706.758 1027.24C703.932 1017.86 702.52 1010.74 702.52 1005.9C703.73 961.093 705.547 917.196 707.969 874.208L694.346 883.29C693.236 880.666 692.681 878.144 692.681 875.722ZM721.743 935.058C739.403 926.581 751.209 917.701 757.163 908.417C763.117 899.032 766.094 888.79 766.094 877.689C765.589 870.121 759.181 865.731 746.87 864.521C739.201 864.521 732.137 865.58 725.679 867.699L721.743 935.058ZM806.206 922.04C806.206 909.729 809.032 894.289 814.683 875.722C820.435 857.154 830.929 847.87 846.167 847.87C864.937 848.476 878.408 855.59 886.582 869.213C894.756 882.836 899.045 895.601 899.448 907.509C899.448 918.407 894.1 929.507 883.403 940.81C873.009 953.323 860.194 959.579 844.956 959.579C832.443 958.974 822.856 955.341 816.196 948.681C809.536 941.92 806.206 933.039 806.206 922.04ZM825.43 916.591C825.43 925.673 827.095 932.283 830.425 936.42C833.755 940.557 838.044 942.626 843.291 942.626C850.859 942.626 858.882 938.539 867.358 930.365C875.936 922.191 880.225 913.765 880.225 905.087C880.225 894.996 876.188 885.813 868.115 877.538C860.143 869.162 853.483 864.975 848.135 864.975C841.374 864.975 835.874 871.433 831.636 884.35C827.498 897.165 825.43 907.912 825.43 916.591ZM918.672 897.821C918.672 882.079 919.429 870.222 920.942 862.25C922.456 854.177 923.667 849.182 924.575 847.265C925.483 845.246 926.947 843.834 928.965 843.026C932.295 843.026 934.414 844.944 935.322 848.778C935.322 851.503 935.12 855.792 934.717 861.645C934.313 867.497 934.111 873.249 934.111 878.9C934.616 904.229 936.13 922.494 938.652 933.695C957.422 901.807 969.531 880.162 974.98 868.759C980.531 857.356 984.87 851.301 987.998 850.595C991.227 849.787 993.245 849.384 994.053 849.384C996.979 849.384 998.543 851.15 998.745 854.682C1001.67 899.385 1008.63 930.769 1019.63 948.832C1020.44 950.245 1020.84 951.607 1020.84 952.919C1020.84 955.543 1019.43 957.763 1016.61 959.579C1013.88 961.496 1011.61 962.455 1009.79 962.455C1007.47 962.455 1005.51 961.244 1003.89 958.822C992.69 943.887 985.879 919.315 983.457 885.106C970.641 910.839 959.945 929.76 951.367 941.869C942.891 953.878 937.038 959.882 933.809 959.882C930.781 959.882 927.552 955.694 924.121 947.318C920.791 938.842 918.975 922.343 918.672 897.821ZM924.424 784.75C924.424 777.686 925.635 771.682 928.057 766.737C930.579 761.692 933.203 759.169 935.928 759.169C937.744 759.169 938.652 760.279 938.652 762.499C939.056 765.627 939.258 769.765 939.258 774.911C939.258 780.36 941.226 784.75 945.161 788.08C949.097 791.41 954.798 793.075 962.266 793.075C972.861 793.075 982.902 789.14 992.388 781.269C1001.87 773.297 1007.83 764.669 1010.25 755.385C1010.96 753.367 1012.32 752.357 1014.34 752.357C1014.94 752.357 1015.24 753.316 1015.24 755.233C1015.24 768.554 1010.4 781.42 1000.71 793.832C991.025 806.244 978.361 812.45 962.72 812.45C949.702 812.45 940.065 809.524 933.809 803.671C927.552 797.818 924.424 791.511 924.424 784.75ZM1033.56 953.07C1034.87 933.191 1035.58 911.646 1035.68 888.437C1035.68 879.354 1034.97 865.53 1033.56 846.962C1036.39 843.329 1043.1 841.513 1053.69 841.513C1054.7 852.209 1055.21 868.708 1055.21 891.01C1069.53 859.828 1089.82 844.237 1116.05 844.237C1119.59 844.237 1122.51 846.962 1124.83 852.411C1110.3 855.741 1098.55 861.998 1089.57 871.181C1080.58 880.364 1074.58 890.102 1071.55 900.395C1073.87 909.779 1079.42 919.215 1088.2 928.7C1097.08 938.186 1104.75 942.929 1111.21 942.929C1115.85 942.929 1118.48 942.323 1119.08 941.112C1119.79 939.8 1122.26 939.145 1126.5 939.145C1128.52 939.145 1129.53 940.002 1129.53 941.718C1129.53 944.039 1128.97 946.814 1127.86 950.043C1126.85 953.171 1124.99 955.795 1122.26 957.914C1119.54 960.033 1115.65 961.093 1110.61 961.093C1104.15 960.891 1095.87 957.46 1085.78 950.8C1075.69 944.039 1067.11 933.594 1060.05 919.467C1056.01 928.952 1053.64 935.259 1052.93 938.388V955.644C1051.62 958.671 1046.68 960.185 1038.1 960.185C1035.48 960.185 1033.96 957.813 1033.56 953.07ZM1147.24 897.821C1147.24 882.079 1147.99 870.222 1149.51 862.25C1151.02 854.177 1152.23 849.182 1153.14 847.265C1154.05 845.246 1155.51 843.834 1157.53 843.026C1160.86 843.026 1162.98 844.944 1163.89 848.778C1163.89 851.503 1163.68 855.792 1163.28 861.645C1162.88 867.497 1162.68 873.249 1162.68 878.9C1163.18 904.229 1164.69 922.494 1167.22 933.695C1185.99 901.807 1198.1 880.162 1203.54 868.759C1209.1 857.356 1213.43 851.301 1216.56 850.595C1219.79 849.787 1221.81 849.384 1222.62 849.384C1225.54 849.384 1227.11 851.15 1227.31 854.682C1230.24 899.385 1237.2 930.769 1248.2 948.832C1249.01 950.245 1249.41 951.607 1249.41 952.919C1249.41 955.543 1248 957.763 1245.17 959.579C1242.45 961.496 1240.18 962.455 1238.36 962.455C1236.04 962.455 1234.07 961.244 1232.46 958.822C1221.25 943.887 1214.44 919.315 1212.02 885.106C1199.21 910.839 1188.51 929.76 1179.93 941.869C1171.46 953.878 1165.6 959.882 1162.37 959.882C1159.35 959.882 1156.12 955.694 1152.69 947.318C1149.36 938.842 1147.54 922.343 1147.24 897.821ZM1348.25 859.979C1349.87 846.76 1360.92 838.536 1381.4 835.307C1386.25 834.499 1390.79 834.096 1395.02 834.096C1409.15 834.096 1418.99 837.527 1424.54 844.389C1430.09 851.15 1432.87 859.172 1432.87 868.456C1432.87 874.006 1431.96 879.001 1430.14 883.441C1435.29 885.762 1439.78 889.95 1443.61 896.005C1447.55 901.959 1449.52 908.922 1449.52 916.894C1449.52 930.012 1444.42 940.961 1434.23 949.74C1424.04 958.419 1404.91 964.07 1376.86 966.693C1366.06 966.693 1357.64 960.79 1351.58 948.983C1351.88 945.351 1353.05 943.03 1355.06 942.021C1357.18 941.011 1358.7 940.507 1359.6 940.507C1361.32 940.507 1362.63 940.759 1363.54 941.264C1364.55 941.768 1365.76 942.828 1367.17 944.442C1366.77 936.269 1366.32 925.875 1365.81 913.261C1365.61 907.509 1365.51 902.06 1365.51 896.913C1365.51 881.171 1366.47 868.961 1368.38 860.282C1369.09 856.952 1371.81 854.833 1376.56 853.925C1378.88 853.925 1380.04 855.539 1380.04 858.769C1379.94 861.19 1379.89 864.066 1379.89 867.396C1379.89 873.855 1380.04 882.281 1380.34 892.675C1387.91 885.611 1397.6 881.726 1409.4 881.02H1412.73C1414.65 877.488 1415.71 873.3 1415.91 868.456C1415.91 860.484 1413.39 855.388 1408.34 853.168C1403.3 850.847 1396.39 849.687 1387.61 849.687C1377.92 849.687 1369.14 852.613 1361.27 858.466C1358.24 860.686 1354.91 861.947 1351.28 862.25C1349.26 862.25 1348.25 861.493 1348.25 859.979ZM1379.74 950.648C1396.89 948.025 1409.91 944.19 1418.79 939.145C1427.77 933.998 1432.26 926.833 1432.26 917.65C1432.26 914.825 1431.2 911.444 1429.08 907.509C1427.06 903.472 1423.68 900.092 1418.94 897.367C1411.98 901.807 1404.26 904.027 1395.78 904.027C1391.44 904.027 1386.4 904.381 1380.64 905.087C1380.85 911.142 1381.1 918.811 1381.4 928.095C1381.4 935.764 1380.85 943.282 1379.74 950.648ZM1469.95 916.137C1470.35 902.715 1475.96 888.184 1486.75 872.543C1497.55 856.902 1512.79 849.081 1532.47 849.081C1540.03 849.081 1545.89 851.957 1550.02 857.709C1554.26 863.36 1556.38 871.181 1556.38 881.171C1556.38 892.271 1555.07 898.982 1552.45 901.303C1549.92 903.624 1546.69 904.784 1542.76 904.784C1540.34 904.784 1538.97 897.266 1538.67 882.23C1537.36 870.626 1533.42 864.823 1526.87 864.823C1518.89 864.823 1510.87 870.676 1502.8 882.382C1494.83 894.088 1490.84 904.734 1490.84 914.32C1490.94 928.751 1494.98 936.168 1502.95 936.571C1508.3 936.571 1515.82 931.677 1525.5 921.889C1535.19 912.1 1543.82 907.206 1551.39 907.206C1559.66 907.61 1566.32 912.554 1571.37 922.04C1576.41 931.425 1578.94 938.135 1578.94 942.172C1578.94 942.878 1578.78 943.635 1578.48 944.442C1578.18 945.25 1577.52 945.653 1576.51 945.653C1574.6 945.653 1571.17 942.222 1566.22 935.36C1561.28 928.498 1556.18 925.067 1550.93 925.067C1548.11 925.067 1541.5 930.517 1531.1 941.415C1520.81 952.313 1509.56 957.763 1497.35 957.763C1489.17 957.763 1482.57 953.676 1477.52 945.502C1472.47 937.227 1469.95 927.439 1469.95 916.137ZM1600.13 923.251C1600.13 916.086 1600.93 906.399 1602.55 894.188C1604.16 881.978 1608.96 869.415 1616.93 856.498C1618.24 854.278 1619.65 853.168 1621.17 853.168C1621.97 853.168 1623.03 853.42 1624.35 853.925C1625.66 854.429 1626.31 855.489 1626.31 857.104C1626.31 857.81 1626.16 858.617 1625.86 859.525C1621.42 870.827 1619.05 881.877 1618.75 892.675C1618.44 903.472 1618.29 910.587 1618.29 914.018C1618.29 927.338 1619.4 935.663 1621.62 938.993C1623.84 942.222 1627.12 943.837 1631.46 943.837C1638.62 943.837 1644.58 936.369 1649.32 921.435C1654.17 906.399 1657.24 892.725 1658.55 880.414C1659.87 868.103 1660.93 860.888 1661.73 858.769C1663.65 854.026 1667.38 851.654 1672.93 851.654C1677.07 851.957 1679.14 853.925 1679.14 857.558C1679.14 858.668 1678.84 862.2 1678.23 868.153C1677.73 874.006 1677.37 881.423 1677.17 890.404C1677.07 899.385 1677.02 905.491 1677.02 908.72C1678.03 923.049 1679.24 931.879 1680.65 935.209C1682.17 938.438 1685.2 940.053 1689.74 940.053C1692.26 940.053 1695.39 937.328 1699.12 931.879C1702.96 926.43 1705.68 921.031 1707.29 915.683C1709.01 910.334 1710.02 902.514 1710.32 892.221C1710.62 881.827 1711.18 870.928 1711.99 859.525C1712.29 855.085 1714.31 852.108 1718.04 850.595C1721.78 848.98 1724.5 848.173 1726.22 848.173C1729.95 848.173 1731.82 850.191 1731.82 854.228C1731.82 855.136 1731.77 857.003 1731.67 859.828C1731.56 862.553 1731.51 869.717 1731.51 881.322C1731.51 896.661 1731.92 909.577 1732.72 920.072C1733.63 930.567 1736.81 938.085 1742.26 942.626C1744.78 944.442 1746.04 946.511 1746.04 948.832C1746.04 951.355 1744.63 954.281 1741.81 957.611C1738.98 960.941 1735.95 962.606 1732.72 962.606C1730.5 962.606 1727.48 960.437 1723.64 956.098C1719.81 951.658 1716.83 946.259 1714.71 939.901C1707.14 953.121 1698.72 959.73 1689.43 959.73C1683.48 959.73 1678.43 958.62 1674.3 956.4C1668.04 952.969 1664 945.149 1662.19 932.938C1653 952.112 1642.31 961.698 1630.1 961.698C1621.52 961.698 1614.36 958.721 1608.6 952.768C1602.95 946.713 1600.13 936.874 1600.13 923.251ZM1762.85 915.985C1762.85 895.803 1769 880.01 1781.31 868.607C1793.62 857.204 1809.27 851.503 1828.24 851.503C1834.49 851.503 1839.64 852.966 1843.68 855.893C1847.81 858.718 1849.88 862.906 1849.88 868.456C1848.77 877.538 1843.78 885.712 1834.9 892.978C1826.02 900.243 1814.77 905.945 1801.14 910.082C1792.87 912.1 1787.52 913.109 1785.1 913.109C1783.68 913.109 1782.98 912.756 1782.98 912.05C1782.98 911.545 1783.33 910.839 1784.04 909.931C1787.17 907.105 1796 901.555 1810.53 893.28C1825.06 884.905 1832.43 876.68 1832.63 868.607C1832.63 863.764 1830.05 861.342 1824.91 861.342C1814.51 861.342 1804.78 866.085 1795.69 875.57C1786.71 884.955 1782.22 897.922 1782.22 914.472C1782.22 923.554 1785.5 931.021 1792.06 936.874C1798.72 942.727 1807.2 945.653 1817.49 945.653C1832.43 944.745 1845.8 940.456 1857.6 932.787C1861.13 930.062 1863.15 928.7 1863.66 928.7C1864.26 928.7 1864.57 929.255 1864.57 930.365C1864.57 931.273 1862.85 933.998 1859.42 938.539C1855.99 943.08 1850.03 947.772 1841.56 952.616C1833.18 957.359 1822.49 959.73 1809.47 959.73C1797.16 959.73 1786.61 956.148 1777.83 948.983C1769.05 941.819 1764.06 930.819 1762.85 915.985ZM1877.73 897.821C1877.73 882.079 1878.49 870.222 1880 862.25C1881.52 854.177 1882.73 849.182 1883.64 847.265C1884.55 845.246 1886.01 843.834 1888.03 843.026C1891.36 843.026 1893.48 844.944 1894.38 848.778C1894.38 851.503 1894.18 855.792 1893.78 861.645C1893.38 867.497 1893.17 873.249 1893.17 878.9C1893.68 904.229 1895.19 922.494 1897.71 933.695C1916.48 901.807 1928.59 880.162 1934.04 868.759C1939.59 857.356 1943.93 851.301 1947.06 850.595C1950.29 849.787 1952.31 849.384 1953.12 849.384C1956.04 849.384 1957.61 851.15 1957.81 854.682C1960.73 899.385 1967.7 930.769 1978.7 948.832C1979.5 950.245 1979.91 951.607 1979.91 952.919C1979.91 955.543 1978.49 957.763 1975.67 959.579C1972.94 961.496 1970.67 962.455 1968.86 962.455C1966.54 962.455 1964.57 961.244 1962.95 958.822C1951.75 943.887 1944.94 919.315 1942.52 885.106C1929.7 910.839 1919.01 929.76 1910.43 941.869C1901.95 953.878 1896.1 959.882 1892.87 959.882C1889.84 959.882 1886.61 955.694 1883.18 947.318C1879.85 938.842 1878.04 922.343 1877.73 897.821ZM1883.49 784.75C1883.49 777.686 1884.7 771.682 1887.12 766.737C1889.64 761.692 1892.27 759.169 1894.99 759.169C1896.81 759.169 1897.71 760.279 1897.71 762.499C1898.12 765.627 1898.32 769.765 1898.32 774.911C1898.32 780.36 1900.29 784.75 1904.22 788.08C1908.16 791.41 1913.86 793.075 1921.33 793.075C1931.92 793.075 1941.96 789.14 1951.45 781.269C1960.94 773.297 1966.89 764.669 1969.31 755.385C1970.02 753.367 1971.38 752.357 1973.4 752.357C1974 752.357 1974.31 753.316 1974.31 755.233C1974.31 768.554 1969.46 781.42 1959.78 793.832C1950.09 806.244 1937.42 812.45 1921.78 812.45C1908.76 812.45 1899.13 809.524 1892.87 803.671C1886.61 797.818 1883.49 791.511 1883.49 784.75ZM2077.69 952.919C2077.79 951.607 2078.3 950.245 2079.2 948.832C2085.06 930.769 2091.11 900.395 2097.37 857.709C2097.67 854.177 2099.29 852.411 2102.21 852.411C2103.02 852.411 2104.99 852.815 2108.12 853.622C2111.34 854.328 2115.38 859.879 2120.22 870.272C2125.17 880.666 2132.69 901.757 2142.78 933.544C2161.45 901.757 2173.51 879.657 2178.96 867.245C2184.51 854.833 2188.84 848.274 2191.97 847.567C2195.2 846.76 2197.22 846.356 2198.03 846.356C2200.95 846.356 2202.52 848.122 2202.72 851.654C2205.65 898.376 2212.61 930.769 2223.61 948.832C2224.42 950.245 2224.82 951.607 2224.82 952.919C2224.82 955.543 2223.41 957.763 2220.58 959.579C2217.86 961.496 2215.59 962.455 2213.77 962.455C2211.45 962.455 2209.48 961.244 2207.87 958.822C2196.67 943.887 2189.85 919.315 2187.43 885.106C2174.62 910.839 2164.52 929.76 2157.16 941.869C2149.79 953.878 2143.84 959.882 2139.3 959.882C2136.67 959.882 2132.89 953.878 2127.94 941.869C2123.1 929.76 2117.45 910.839 2110.99 885.106C2105.84 919.315 2100.29 943.887 2094.34 958.822C2092.63 961.244 2090.61 962.455 2088.29 962.455C2086.47 962.455 2084.25 961.749 2081.63 960.336C2079 959.024 2077.69 956.552 2077.69 952.919ZM2237.84 915.985C2237.84 895.803 2243.99 880.01 2256.3 868.607C2268.61 857.204 2284.26 851.503 2303.23 851.503C2309.48 851.503 2314.63 852.966 2318.67 855.893C2322.8 858.718 2324.87 862.906 2324.87 868.456C2323.76 877.538 2318.77 885.712 2309.89 892.978C2301.01 900.243 2289.76 905.945 2276.13 910.082C2267.86 912.1 2262.51 913.109 2260.09 913.109C2258.68 913.109 2257.97 912.756 2257.97 912.05C2257.97 911.545 2258.32 910.839 2259.03 909.931C2262.16 907.105 2270.99 901.555 2285.52 893.28C2300.05 884.905 2307.42 876.68 2307.62 868.607C2307.62 863.764 2305.04 861.342 2299.9 861.342C2289.5 861.342 2279.77 866.085 2270.68 875.57C2261.7 884.955 2257.21 897.922 2257.21 914.472C2257.21 923.554 2260.49 931.021 2267.05 936.874C2273.71 942.727 2282.19 945.653 2292.48 945.653C2307.42 944.745 2320.79 940.456 2332.59 932.787C2336.12 930.062 2338.14 928.7 2338.65 928.7C2339.25 928.7 2339.56 929.255 2339.56 930.365C2339.56 931.273 2337.84 933.998 2334.41 938.539C2330.98 943.08 2325.02 947.772 2316.55 952.616C2308.17 957.359 2297.48 959.73 2284.46 959.73C2272.15 959.73 2261.6 956.148 2252.82 948.983C2244.04 941.819 2239.05 930.819 2237.84 915.985ZM2346.67 882.382C2346.67 868.456 2350.61 856.599 2358.48 846.811C2359.69 845.196 2361.15 844.389 2362.87 844.389C2363.77 844.389 2364.99 844.742 2366.5 845.448C2368.11 846.155 2368.92 847.366 2368.92 849.081C2368.92 849.888 2368.72 850.746 2368.32 851.654C2363.67 862.149 2361.35 871.08 2361.35 878.446C2361.35 886.62 2363.52 892.523 2367.86 896.156C2372.2 899.688 2377.15 901.454 2382.7 901.454C2393.19 901.454 2401.16 894.743 2406.61 881.322C2412.06 867.8 2415.34 859.677 2416.45 856.952C2417.66 854.228 2419.33 852.562 2421.45 851.957C2423.67 851.251 2425.18 850.897 2425.99 850.897C2428 850.897 2429.01 851.907 2429.01 853.925C2429.42 858.365 2429.62 862.704 2429.62 866.942C2429.62 870.777 2428.46 876.529 2426.14 884.198C2425.73 890.959 2425.33 897.266 2424.93 903.119C2424.52 908.871 2424.32 913.16 2424.32 915.985C2424.32 926.985 2424.52 935.915 2424.93 942.777C2425.33 949.639 2425.53 953.575 2425.53 954.584C2425.53 957.712 2424.22 960.235 2421.6 962.152C2418.97 964.07 2416.85 965.028 2415.24 965.028C2413.12 965.028 2411.35 963.716 2409.94 961.093C2407.82 948.378 2406.76 934.553 2406.76 919.618C2407.07 915.884 2407.37 912.201 2407.67 908.568C2398.39 916.742 2388.9 920.829 2379.21 920.829C2372.76 920.829 2365.69 918.004 2358.02 912.353C2350.45 906.601 2346.67 896.61 2346.67 882.382ZM2441.88 867.094C2441.88 863.965 2442.89 860.131 2444.91 855.59C2447.03 851.049 2448.94 848.778 2450.66 848.778C2463.47 845.65 2482.65 843.834 2508.18 843.329C2541.48 844.136 2558.13 845.701 2558.13 848.021C2558.13 849.031 2554.65 850.746 2547.69 853.168C2528.21 856.195 2514.33 858.163 2506.06 859.071C2503.54 886.62 2502.28 908.013 2502.28 923.251C2501.67 939.599 2501.11 949.791 2500.61 953.827C2500.21 957.763 2499.15 959.73 2497.43 959.73C2495.51 959.73 2492.84 954.988 2489.41 945.502C2486.08 935.915 2484.41 917.095 2484.41 889.042C2484.41 880.465 2484.77 871.282 2485.47 861.493L2446.42 868.91C2443.49 868.91 2441.98 868.305 2441.88 867.094ZM2553.59 953.373C2553.59 951.052 2553.79 945.855 2554.19 937.782C2554.6 929.608 2556.46 913.463 2559.79 889.345C2563.23 865.126 2565.5 850.595 2566.61 845.751C2567.72 840.907 2571.4 838.233 2577.66 837.729C2579.67 837.729 2580.73 838.738 2580.83 840.756L2577.96 878.598C2582.5 876.075 2587.55 874.813 2593.1 874.813C2604.3 874.813 2613.58 877.689 2620.95 883.441C2628.41 889.092 2632.3 897.519 2632.6 908.72C2632.6 919.416 2630.43 929.104 2626.09 937.782C2621.75 946.461 2614.99 952.061 2605.81 954.584C2596.63 957.107 2589.06 958.368 2583.11 958.368C2577.05 958.368 2572.01 956.905 2567.97 953.979C2566.76 957.51 2563.63 959.276 2558.58 959.276C2555.35 959.276 2553.69 957.309 2553.59 953.373ZM2571.45 934.604C2577.3 937.328 2583.46 938.69 2589.92 938.69C2593.45 938.69 2597.54 937.479 2602.18 935.058C2606.92 932.636 2610.15 929.356 2611.87 925.219C2613.68 920.98 2614.59 917.297 2614.59 914.169C2614.39 905.491 2612.32 899.739 2608.38 896.913C2604.45 893.987 2598.95 892.523 2591.88 892.523C2587.44 892.523 2582.2 893.432 2576.14 895.248C2573.82 910.889 2572.26 924.008 2571.45 934.604ZM2651.83 940.204C2652.73 926.177 2653.69 912.908 2654.7 900.395C2655.71 887.781 2656.77 875.924 2657.88 864.823L2658.94 849.535C2659.24 848.425 2659.7 847.012 2660.3 845.297C2661.01 843.581 2663.13 842.623 2666.66 842.421C2668.68 842.623 2670.04 844.237 2670.75 847.265L2671.96 865.429C2671.86 873.3 2671.6 881.221 2671.2 889.193C2670.9 897.165 2670.44 905.39 2669.84 913.866C2669.23 922.242 2668.73 930.163 2668.33 937.631L2667.72 954.735C2667.11 957.157 2666.21 958.721 2665 959.428C2663.78 960.033 2662.27 960.336 2660.45 960.336C2657.93 960.134 2655.91 958.57 2654.4 955.644C2652.99 952.717 2652.13 947.571 2651.83 940.204Z" fill="url(#paint1_linear)"/>
<path fill-rule="evenodd" clip-rule="evenodd" d="M2179 66L2427 0V256H2561V616H2541V276H2427V652H2675V672H2407V276H2275V450.936L2351 471.987V672H2331V487.263L2275 471.992V672H2255V466.539L2199 451.268V672H9V652H2179V445.814L2075 417.454V616.5H2055V390L2179 424.346V66ZM2407 256V26.2976L2199 81.3921V429.886L2255 445.397V256H2407Z" fill="url(#paint2_linear)"/>
<defs>
<linearGradient id="paint0_linear" x1="1940" y1="540.579" x2="9.00003" y2="540.579" gradientUnits="userSpaceOnUse">
<stop stop-color="#C2A22D"/>
<stop offset="0.0405101" stop-color="#F6F97E"/>
<stop offset="0.0825206" stop-color="#BF7718"/>
<stop offset="0.130208" stop-color="#F6F97E"/>
<stop offset="0.166667" stop-color="#BF7718"/>
<stop offset="0.1875" stop-color="#BF7718"/>
<stop offset="0.192708" stop-color="#BF7718"/>
<stop offset="0.239583" stop-color="#F6F97E"/>
<stop offset="0.322917" stop-color="#BF7718"/>
<stop offset="0.604167" stop-color="#F6F97E"/>
<stop offset="1" stop-color="#9E6B15"/>
</linearGradient>
<linearGradient id="paint1_linear" x1="2685" y1="1072.58" x2="4.00096e-05" y2="1072.58" gradientUnits="userSpaceOnUse">
<stop stop-color="#C2A22D"/>
<stop offset="0.0405101" stop-color="#F6F97E"/>
<stop offset="0.0825206" stop-color="#BF7718"/>
<stop offset="0.130208" stop-color="#F6F97E"/>
<stop offset="0.166667" stop-color="#BF7718"/>
<stop offset="0.1875" stop-color="#BF7718"/>
<stop offset="0.192708" stop-color="#BF7718"/>
<stop offset="0.239583" stop-color="#F6F97E"/>
<stop offset="0.322917" stop-color="#BF7718"/>
<stop offset="0.604167" stop-color="#F6F97E"/>
<stop offset="1" stop-color="#9E6B15"/>
</linearGradient>
<linearGradient id="paint2_linear" x1="2675" y1="672" x2="9.00004" y2="672" gradientUnits="userSpaceOnUse">
<stop stop-color="#C2A22D"/>
<stop offset="0.0405101" stop-color="#F6F97E"/>
<stop offset="0.0825206" stop-color="#BF7718"/>
<stop offset="0.130208" stop-color="#F6F97E"/>
<stop offset="0.166667" stop-color="#BF7718"/>
<stop offset="0.1875" stop-color="#BF7718"/>
<stop offset="0.192708" stop-color="#BF7718"/>
<stop offset="0.239583" stop-color="#F6F97E"/>
<stop offset="0.322917" stop-color="#BF7718"/>
<stop offset="0.604167" stop-color="#F6F97E"/>
<stop offset="1" stop-color="#9E6B15"/>
</linearGradient>
</defs>
</svg>
