<svg width="191" height="77" viewBox="0 0 191 77" fill="none" xmlns="http://www.w3.org/2000/svg">
<path d="M2.08862 65.8864C2.08862 65.0071 2.29043 63.9043 2.69405 62.5782C3.10488 61.252 3.85446 60.5889 4.9428 60.5889C6.2834 60.6321 7.2456 61.1403 7.82941 62.1133C8.41322 63.0863 8.71954 63.998 8.74837 64.8485C8.74837 65.6269 8.36637 66.4198 7.60237 67.227C6.86 68.1207 5.94464 68.5676 4.85631 68.5676C3.96258 68.5244 3.27786 68.2649 2.80217 67.7892C2.32647 67.3063 2.08862 66.672 2.08862 65.8864ZM3.46165 65.4972C3.46165 66.1459 3.58058 66.618 3.81843 66.9135C4.05628 67.209 4.36259 67.3567 4.73739 67.3567C5.27795 67.3567 5.85095 67.0648 6.45638 66.481C7.06902 65.8972 7.37534 65.2954 7.37534 64.6755C7.37534 63.9548 7.08704 63.2989 6.51043 62.7079C5.94104 62.1097 5.46534 61.8106 5.08335 61.8106C4.60044 61.8106 4.20763 62.2718 3.90492 63.1944C3.60941 64.1098 3.46165 64.8774 3.46165 65.4972Z" fill="url(#paint0_linear)"/>
<path d="M10.0349 61.1727C10.0709 60.942 10.2403 60.8267 10.543 60.8267C11.2278 60.8267 11.5701 61.5619 11.5701 63.0322C12.4206 61.9223 13.2819 61.3529 14.154 61.324C14.7018 61.324 15.0261 61.3961 15.127 61.5403C15.2351 61.6844 15.2892 61.7997 15.2892 61.8862C15.2892 62.0736 14.9468 62.2646 14.2621 62.4592C13.5774 62.6538 12.9684 63.1259 12.435 63.8755C11.9017 64.6251 11.6206 65.4756 11.5917 66.427C11.5629 67.3784 11.4584 67.9297 11.2782 68.0811C11.098 68.2325 10.889 68.3081 10.6512 68.3081C10.3845 68.3081 10.2511 67.9838 10.2511 67.3351C10.2511 66.8666 10.2764 66.4198 10.3268 65.9945C10.3773 65.5693 10.4025 65.1512 10.4025 64.7404C10.4025 63.5872 10.3412 62.7511 10.2187 62.2322C10.0962 61.706 10.0349 61.3529 10.0349 61.1727Z" fill="url(#paint1_linear)"/>
<path d="M16.4028 67.1513C16.4028 66.8558 16.4676 66.5495 16.5974 66.2324C16.8712 65.4972 18.4136 64.0917 21.2246 62.016C20.7705 61.9727 20.3164 61.9511 19.8624 61.9511C18.9686 61.9511 18.0821 62.0376 17.2028 62.2106C16.864 62.1313 16.6694 61.7637 16.619 61.1078C18.0677 60.942 19.2533 60.8592 20.1759 60.8592C21.2354 60.8592 21.9093 60.9637 22.1976 61.1727C22.4859 61.3745 22.63 61.5547 22.63 61.7133C22.63 62.2971 21.8228 63.198 20.2083 64.4161C18.5938 65.6269 17.7361 66.5567 17.6352 67.2054C17.6352 67.7315 17.9055 68.1243 18.4461 68.3838C18.9939 68.6361 19.5849 68.7622 20.2191 68.7622C21.1705 68.7622 22.3922 68.5244 23.8842 68.0487C22.4354 69.0793 21.1237 69.5947 19.9488 69.5947C18.7956 69.5875 17.9163 69.3604 17.3109 68.9136C16.7055 68.4739 16.4028 67.8865 16.4028 67.1513Z" fill="url(#paint2_linear)"/>
<path d="M24.3598 65.2594C24.3598 64.553 24.5112 63.6485 24.8139 62.5457C25.1166 61.443 25.4266 60.8916 25.7437 60.8916C26.2194 60.8916 26.4572 61.0249 26.4572 61.2916C26.4572 61.6592 26.3275 62.1601 26.068 62.7944C25.8158 63.4286 25.6752 64.2683 25.6464 65.3134C25.7113 66.7333 26.1545 67.4432 26.9762 67.4432C27.7041 67.4432 28.342 66.6792 28.8898 65.1512C29.4375 63.6232 29.9313 62.8304 30.3709 62.7728C30.9331 62.7728 31.2142 63.2268 31.2142 64.135C31.2142 64.4809 31.1818 64.8449 31.1169 65.2269C31.0592 65.6089 31.0304 65.9369 31.0304 66.2107C31.0304 66.4486 31.0556 66.809 31.1061 67.2919C31.1565 67.7676 31.1818 68.0631 31.1818 68.1784C31.1818 68.4379 31.0232 68.5676 30.7061 68.5676C30.5763 68.5676 30.4178 68.3442 30.2304 67.8973C30.043 67.4432 29.9493 66.9315 29.9493 66.3621C29.9493 65.872 29.9817 65.4287 30.0466 65.0323C29.7367 66.2504 29.3114 67.1585 28.7708 67.7568C28.2303 68.3478 27.6213 68.6433 26.9437 68.6433C26.2302 68.6433 25.6212 68.4018 25.1166 67.9189C24.6121 67.436 24.3598 66.5495 24.3598 65.2594Z" fill="url(#paint3_linear)"/>
<path d="M32.4251 64.5458C32.4251 62.9674 33.1963 61.9583 34.7387 61.5187C34.1909 62.1745 33.917 63.1115 33.917 64.3296C33.917 64.935 34.0287 65.4071 34.2522 65.7459C34.4756 66.0846 34.7531 66.254 35.0846 66.254C35.5315 66.2396 36 65.7314 36.4901 64.7296C36.9802 63.7278 37.4667 63.0394 37.9496 62.6646C38.4325 62.2899 38.8938 62.1025 39.3335 62.1025C39.7443 62.1313 40.0002 62.4664 40.1011 63.1079C40.202 63.7494 40.2524 64.3764 40.2524 64.9891C40.2524 65.9621 40.011 67.1693 39.5281 68.6108C39.0452 70.0596 38.8037 71.9011 38.8037 74.1354C38.8397 75.3174 38.9983 76.2508 39.2794 76.9355C37.9821 75.7967 37.3334 74.4165 37.3334 72.7948C37.3766 71.3317 37.6613 69.7857 38.1875 68.1568C38.7136 66.5279 38.9767 65.1512 38.9767 64.0269C38.9767 63.7025 38.9479 63.4503 38.8902 63.2701C38.155 65.0575 37.5028 66.1711 36.9334 66.6108C36.364 67.0504 35.9171 67.2775 35.5928 67.2919C35.2684 67.3063 35.0918 67.3135 35.063 67.3135C34.2558 67.3135 33.6215 67.0504 33.1602 66.5243C32.6989 65.9981 32.4575 65.3458 32.4359 64.5674C32.4287 64.5602 32.4251 64.553 32.4251 64.5458Z" fill="url(#paint4_linear)"/>
<path d="M41.7552 62.9133C41.9138 62.2863 42.1444 61.9727 42.4471 61.9727C42.757 61.9655 43.0273 61.9619 43.258 61.9619C43.4526 61.9619 43.5499 62.2322 43.5499 62.7728C43.4922 64.3512 43.4129 65.6377 43.312 66.6324C43.2183 67.627 43.0742 68.1243 42.8796 68.1243V68.1135C42.685 68.1135 42.4759 68.0487 42.2525 67.9189C42.1084 67.8468 42.0363 67.1766 42.0363 65.908C42.0363 65.2449 42.0651 64.0809 42.1228 62.416L41.7552 62.9133ZM42.1012 59.4105C42.1012 59.2663 42.1876 59.1005 42.3606 58.9131C42.5336 58.7257 42.7318 58.632 42.9552 58.632C43.1282 58.632 43.3192 58.7077 43.5282 58.8591C43.7445 59.0032 43.8526 59.169 43.8526 59.3564C43.8526 59.515 43.7661 59.6915 43.5931 59.8861C43.4201 60.0807 43.2219 60.1781 42.9985 60.1781C42.8255 60.1781 42.6309 60.0988 42.4147 59.9402C42.2057 59.7816 42.1012 59.6051 42.1012 59.4105Z" fill="url(#paint5_linear)"/>
<path d="M45.7446 67.8216C45.6292 67.6342 45.5716 66.9495 45.5716 65.7675C45.5716 64.3836 45.6004 63.4214 45.6581 62.8809C45.7157 62.3331 45.7734 61.825 45.831 61.3565C45.8887 60.888 46.1302 60.6537 46.5554 60.6537C46.9086 60.6537 47.1428 60.8267 47.2581 61.1727C47.1356 62.3475 47.0491 63.2917 46.9987 64.0052C46.9554 64.7188 46.9338 65.2846 46.9338 65.7026C47.0347 65.7026 47.2653 65.2521 47.6257 64.3512C48.3176 63.1403 49.0528 62.5349 49.8312 62.5349C50.5087 62.5349 51.0132 62.78 51.3448 63.2701C51.6763 63.7602 51.8709 64.5566 51.9286 65.6594C51.9286 66.3008 51.889 66.9279 51.8097 67.5405C51.7304 68.1532 51.5862 68.4883 51.3772 68.546C51.0889 68.546 50.9268 68.3802 50.8907 68.0487C50.8907 67.782 50.8835 67.4288 50.8691 66.9892C50.8619 66.5495 50.8222 65.9333 50.7502 65.1404C50.6781 64.3404 50.361 63.9043 49.7988 63.8323C49.3303 63.8323 48.7897 64.5458 48.1771 65.9729C47.5644 67.3928 46.9014 68.1027 46.1878 68.1027C46.0076 68.1027 45.8599 68.009 45.7446 67.8216Z" fill="url(#paint6_linear)"/>
<path d="M53.6368 66.8054C53.6368 65.2413 53.9936 64.0016 54.7071 63.0863C55.4206 62.1637 56.2171 61.7024 57.0964 61.7024C57.918 61.7024 58.5811 61.9151 59.0857 62.3403C59.5902 62.7655 59.8425 63.2809 59.8425 63.8863C59.8425 64.3332 59.7668 64.8269 59.6154 65.3675C59.4713 65.908 59.237 66.3189 58.9127 66.5999C58.5883 66.8738 58.2784 67.0108 57.9829 67.0108C57.9469 67.0108 57.9289 66.9928 57.9289 66.9567C57.9289 66.9135 57.9505 66.8522 57.9937 66.7729C58.2316 66.2756 58.3865 65.8215 58.4586 65.4107C58.5379 64.9999 58.5775 64.6827 58.5775 64.4593C58.5775 63.8827 58.4983 63.3782 58.3397 62.9457C58.1883 62.5133 57.9253 62.2971 57.5505 62.2971C56.7937 62.2971 56.2027 62.7367 55.7774 63.616C55.3594 64.4881 55.1504 65.335 55.1504 66.1567C55.1504 66.7982 55.5071 67.1189 56.2207 67.1189C56.3576 67.1189 56.4874 67.1117 56.6099 67.0973C56.7396 67.0829 56.8513 67.0756 56.945 67.0756C58.1703 67.0756 59.0857 67.9045 59.6911 69.5622C59.9506 70.5425 60.0803 71.5299 60.0803 72.5245C60.0803 73.6057 59.8605 74.6219 59.4208 75.5733C58.9812 76.5247 58.4658 77.0004 57.8748 77.0004C57.3126 77.0004 56.736 76.777 56.145 76.3301C55.5612 75.8832 55.2693 75.321 55.2693 74.6435C55.2693 73.6417 55.5684 72.7948 56.1666 72.1029C56.7648 71.4182 57.2153 71.0758 57.518 71.0758C57.5396 71.0758 57.5505 71.0902 57.5505 71.1191C57.5505 71.2344 57.4387 71.5155 57.2153 71.9623C56.9991 72.4092 56.8225 72.8345 56.6856 73.2381C56.5486 73.6417 56.4801 74.0561 56.4801 74.4814C56.4801 74.9354 56.6063 75.3319 56.8585 75.6706C57.1108 76.0166 57.4099 76.1896 57.7559 76.1896C57.9937 76.1896 58.1991 75.8832 58.3721 75.2706C58.5451 74.6652 58.6316 74.0165 58.6316 73.3246C58.6316 72.229 58.5163 71.0542 58.2856 69.8001C58.0694 68.4379 57.4928 67.7568 56.5558 67.7568C56.2819 67.7568 55.9504 67.7856 55.5612 67.8432C55.172 67.9009 54.8404 67.9297 54.5666 67.9297C53.9467 67.9297 53.6368 67.5549 53.6368 66.8054Z" fill="url(#paint7_linear)"/>
<path d="M61.6263 62.9133C61.7849 62.2863 62.0155 61.9727 62.3182 61.9727C62.6282 61.9655 62.8984 61.9619 63.1291 61.9619C63.3237 61.9619 63.421 62.2322 63.421 62.7728C63.3633 64.3512 63.284 65.6377 63.1831 66.6324C63.0894 67.627 62.9453 68.1243 62.7507 68.1243V68.1135C62.5561 68.1135 62.3471 68.0487 62.1236 67.9189C61.9795 67.8468 61.9074 67.1766 61.9074 65.908C61.9074 65.2449 61.9362 64.0809 61.9939 62.416L61.6263 62.9133ZM61.9723 59.4105C61.9723 59.2663 62.0588 59.1005 62.2317 58.9131C62.4047 58.7257 62.6029 58.632 62.8264 58.632C62.9993 58.632 63.1903 58.7077 63.3994 58.8591C63.6156 59.0032 63.7237 59.169 63.7237 59.3564C63.7237 59.515 63.6372 59.6915 63.4642 59.8861C63.2912 60.0807 63.093 60.1781 62.8696 60.1781C62.6966 60.1781 62.502 60.0988 62.2858 59.9402C62.0768 59.7816 61.9723 59.6051 61.9723 59.4105Z" fill="url(#paint8_linear)"/>
<path d="M65.4859 67.1513C65.4859 66.8558 65.5508 66.5495 65.6805 66.2324C65.9544 65.4972 67.4968 64.0917 70.3078 62.016C69.8537 61.9727 69.3996 61.9511 68.9455 61.9511C68.0518 61.9511 67.1653 62.0376 66.286 62.2106C65.9472 62.1313 65.7526 61.7637 65.7022 61.1078C67.1509 60.942 68.3365 60.8592 69.2591 60.8592C70.3186 60.8592 70.9925 60.9637 71.2808 61.1727C71.5691 61.3745 71.7132 61.5547 71.7132 61.7133C71.7132 62.2971 70.906 63.198 69.2915 64.4161C67.677 65.6269 66.8193 66.5567 66.7184 67.2054C66.7184 67.7315 66.9887 68.1243 67.5293 68.3838C68.077 68.6361 68.6681 68.7622 69.3023 68.7622C70.2537 68.7622 71.4754 68.5244 72.9673 68.0487C71.5186 69.0793 70.2069 69.5947 69.032 69.5947C67.8788 69.5875 66.9995 69.3604 66.3941 68.9136C65.7887 68.4739 65.4859 67.8865 65.4859 67.1513Z" fill="url(#paint9_linear)"/>
<path d="M73.1187 65.0756C73.1187 64.2179 73.3061 63.389 73.6809 62.589C74.0557 61.7889 74.4593 61.27 74.8917 61.0321C75.3314 60.7943 75.7494 60.6754 76.1459 60.6754C76.881 60.6754 77.5621 60.87 78.1892 61.2592C78.2396 59.587 78.5135 57.1509 79.0108 53.9508C79.1117 53.4967 79.3568 53.2624 79.746 53.248C80.128 53.2624 80.319 53.3886 80.319 53.6264C79.7857 57.6626 79.519 60.4123 79.519 61.8754C79.555 65.1044 79.7748 67.1729 80.1785 68.0811C80.1785 68.2757 80.1172 68.3802 79.9947 68.3946C79.8577 68.3946 79.6235 68.1207 79.2919 67.573C78.9604 67.0252 78.755 66.1819 78.6757 65.0431C78.2432 66.4846 77.6702 67.4216 76.9567 67.8541C76.5891 68.1063 76.1999 68.2325 75.7891 68.2325C74.9026 68.2325 74.2359 67.9586 73.789 67.4108C73.3421 66.8558 73.1187 66.0774 73.1187 65.0756ZM74.4593 65.5188C74.6323 66.6864 74.9854 67.2847 75.5188 67.3135C75.9873 67.3135 76.3801 67.0396 76.6972 66.4918C77.0216 65.9297 77.3135 65.3026 77.5729 64.6107C77.8324 63.9188 77.9946 63.0683 78.0594 62.0592C77.7063 61.7421 77.2414 61.5835 76.6648 61.5835C76.2756 61.5835 75.908 61.7313 75.562 62.0268C75.2161 62.3223 74.9458 62.8592 74.7512 63.6377C74.5566 64.4089 74.4593 65.0359 74.4593 65.5188Z" fill="url(#paint10_linear)"/>
<path d="M81.7569 65.4648C81.7857 64.5062 82.1858 63.4683 82.957 62.3511C83.7282 61.234 84.8165 60.6754 86.222 60.6754C86.7625 60.6754 87.1806 60.8808 87.4761 61.2916C87.7788 61.6952 87.9301 62.2538 87.9301 62.9674C87.9301 63.7602 87.8364 64.2395 87.6491 64.4053C87.4689 64.571 87.2382 64.6539 86.9571 64.6539C86.7841 64.6539 86.6869 64.117 86.6652 63.043C86.5715 62.2142 86.2904 61.7997 85.8219 61.7997C85.2526 61.7997 84.6796 62.2178 84.103 63.0539C83.5336 63.8899 83.2489 64.6503 83.2489 65.335C83.2561 66.3657 83.5444 66.8955 84.1138 66.9243C84.4958 66.9243 85.0327 66.5747 85.7246 65.8756C86.4166 65.1765 87.0328 64.8269 87.5734 64.8269C88.1644 64.8557 88.6401 65.2089 89.0005 65.8864C89.3608 66.5567 89.541 67.036 89.541 67.3243C89.541 67.3748 89.5302 67.4288 89.5086 67.4865C89.487 67.5441 89.4401 67.573 89.368 67.573C89.2311 67.573 88.986 67.3279 88.6329 66.8378C88.2797 66.3477 87.9157 66.1026 87.5409 66.1026C87.3391 66.1026 86.867 66.4918 86.1247 67.2702C85.3895 68.0487 84.5859 68.4379 83.7137 68.4379C83.1299 68.4379 82.6578 68.146 82.2975 67.5622C81.9371 66.9711 81.7569 66.272 81.7569 65.4648Z" fill="url(#paint11_linear)"/>
<path d="M91.0654 66.8054C91.0654 65.2413 91.4222 64.0016 92.1357 63.0863C92.8493 62.1637 93.6457 61.7024 94.525 61.7024C95.3467 61.7024 96.0098 61.9151 96.5143 62.3403C97.0188 62.7655 97.2711 63.2809 97.2711 63.8863C97.2711 64.3332 97.1954 64.8269 97.0441 65.3675C96.8999 65.908 96.6657 66.3189 96.3413 66.5999C96.017 66.8738 95.7071 67.0108 95.4115 67.0108C95.3755 67.0108 95.3575 66.9928 95.3575 66.9567C95.3575 66.9135 95.3791 66.8522 95.4224 66.7729C95.6602 66.2756 95.8152 65.8215 95.8872 65.4107C95.9665 64.9999 96.0062 64.6827 96.0062 64.4593C96.0062 63.8827 95.9269 63.3782 95.7683 62.9457C95.617 62.5133 95.3539 62.2971 94.9791 62.2971C94.2223 62.2971 93.6313 62.7367 93.206 63.616C92.788 64.4881 92.579 65.335 92.579 66.1567C92.579 66.7982 92.9358 67.1189 93.6493 67.1189C93.7863 67.1189 93.916 67.1117 94.0385 67.0973C94.1683 67.0829 94.28 67.0756 94.3737 67.0756C95.5989 67.0756 96.5143 67.9045 97.1197 69.5622C97.3792 70.5425 97.5089 71.5299 97.5089 72.5245C97.5089 73.6057 97.2891 74.6219 96.8494 75.5733C96.4098 76.5247 95.8944 77.0004 95.3034 77.0004C94.7412 77.0004 94.1646 76.777 93.5736 76.3301C92.9898 75.8832 92.6979 75.321 92.6979 74.6435C92.6979 73.6417 92.997 72.7948 93.5953 72.1029C94.1935 71.4182 94.6439 71.0758 94.9467 71.0758C94.9683 71.0758 94.9791 71.0902 94.9791 71.1191C94.9791 71.2344 94.8674 71.5155 94.6439 71.9623C94.4277 72.4092 94.2511 72.8345 94.1142 73.2381C93.9772 73.6417 93.9088 74.0561 93.9088 74.4814C93.9088 74.9354 94.0349 75.3319 94.2872 75.6706C94.5394 76.0166 94.8385 76.1896 95.1845 76.1896C95.4224 76.1896 95.6278 75.8832 95.8008 75.2706C95.9737 74.6652 96.0602 74.0165 96.0602 73.3246C96.0602 72.229 95.9449 71.0542 95.7143 69.8001C95.498 68.4379 94.9214 67.7568 93.9845 67.7568C93.7106 67.7568 93.379 67.7856 92.9898 67.8432C92.6006 67.9009 92.2691 67.9297 91.9952 67.9297C91.3753 67.9297 91.0654 67.5549 91.0654 66.8054Z" fill="url(#paint12_linear)"/>
<path d="M99.0549 62.9133C99.2135 62.2863 99.4442 61.9727 99.7469 61.9727C100.057 61.9655 100.327 61.9619 100.558 61.9619C100.752 61.9619 100.85 62.2322 100.85 62.7728C100.792 64.3512 100.713 65.6377 100.612 66.6324C100.518 67.627 100.374 68.1243 100.179 68.1243V68.1135C99.9847 68.1135 99.7757 68.0487 99.5523 67.9189C99.4081 67.8468 99.336 67.1766 99.336 65.908C99.336 65.2449 99.3649 64.0809 99.4225 62.416L99.0549 62.9133ZM99.4009 59.4105C99.4009 59.2663 99.4874 59.1005 99.6604 58.9131C99.8334 58.7257 100.032 58.632 100.255 58.632C100.428 58.632 100.619 58.7077 100.828 58.8591C101.044 59.0032 101.152 59.169 101.152 59.3564C101.152 59.515 101.066 59.6915 100.893 59.8861C100.72 60.0807 100.522 60.1781 100.298 60.1781C100.125 60.1781 99.9307 60.0988 99.7144 59.9402C99.5054 59.7816 99.4009 59.6051 99.4009 59.4105Z" fill="url(#paint13_linear)"/>
<path d="M108.688 64.5458C108.688 62.9674 109.459 61.9583 111.001 61.5187C110.454 62.1745 110.18 63.1115 110.18 64.3296C110.18 64.935 110.291 65.4071 110.515 65.7459C110.738 66.0846 111.016 66.254 111.347 66.254C111.794 66.2396 112.263 65.7314 112.753 64.7296C113.243 63.7278 113.729 63.0394 114.212 62.6646C114.695 62.2899 115.157 62.1025 115.596 62.1025C116.007 62.1313 116.263 62.4664 116.364 63.1079C116.465 63.7494 116.515 64.3764 116.515 64.9891C116.515 65.9621 116.274 67.1693 115.791 68.6108C115.308 70.0596 115.066 71.9011 115.066 74.1354C115.102 75.3174 115.261 76.2508 115.542 76.9355C114.245 75.7967 113.596 74.4165 113.596 72.7948C113.639 71.3317 113.924 69.7857 114.45 68.1568C114.976 66.5279 115.239 65.1512 115.239 64.0269C115.239 63.7025 115.211 63.4503 115.153 63.2701C114.418 65.0575 113.765 66.1711 113.196 66.6108C112.627 67.0504 112.18 67.2775 111.855 67.2919C111.531 67.3063 111.355 67.3135 111.326 67.3135C110.519 67.3135 109.884 67.0504 109.423 66.5243C108.962 65.9981 108.72 65.3458 108.699 64.5674C108.691 64.5602 108.688 64.553 108.688 64.5458Z" fill="url(#paint14_linear)"/>
<path d="M117.802 65.4648C117.831 64.5062 118.231 63.4683 119.002 62.3511C119.773 61.234 120.861 60.6754 122.267 60.6754C122.807 60.6754 123.225 60.8808 123.521 61.2916C123.824 61.6952 123.975 62.2538 123.975 62.9674C123.975 63.7602 123.881 64.2395 123.694 64.4053C123.514 64.571 123.283 64.6539 123.002 64.6539C122.829 64.6539 122.732 64.117 122.71 63.043C122.616 62.2142 122.335 61.7997 121.867 61.7997C121.297 61.7997 120.724 62.2178 120.148 63.0539C119.578 63.8899 119.294 64.6503 119.294 65.335C119.301 66.3657 119.589 66.8955 120.159 66.9243C120.541 66.9243 121.078 66.5747 121.769 65.8756C122.461 65.1765 123.078 64.8269 123.618 64.8269C124.209 64.8557 124.685 65.2089 125.045 65.8864C125.406 66.5567 125.586 67.036 125.586 67.3243C125.586 67.3748 125.575 67.4288 125.553 67.4865C125.532 67.5441 125.485 67.573 125.413 67.573C125.276 67.573 125.031 67.3279 124.678 66.8378C124.325 66.3477 123.961 66.1026 123.586 66.1026C123.384 66.1026 122.912 66.4918 122.169 67.2702C121.434 68.0487 120.631 68.4379 119.759 68.4379C119.175 68.4379 118.703 68.146 118.342 67.5622C117.982 66.9711 117.802 66.272 117.802 65.4648Z" fill="url(#paint15_linear)"/>
<path d="M127.153 67.8216C127.038 67.6342 126.98 66.9495 126.98 65.7675C126.98 64.3836 127.009 63.4214 127.067 62.8809C127.125 62.3331 127.182 61.825 127.24 61.3565C127.298 60.888 127.539 60.6537 127.964 60.6537C128.317 60.6537 128.552 60.8267 128.667 61.1727C128.545 62.3475 128.458 63.2917 128.408 64.0052C128.364 64.7188 128.343 65.2846 128.343 65.7026C128.444 65.7026 128.674 65.2521 129.035 64.3512C129.727 63.1403 130.462 62.5349 131.24 62.5349C131.918 62.5349 132.422 62.78 132.754 63.2701C133.085 63.7602 133.28 64.5566 133.337 65.6594C133.337 66.3008 133.298 66.9279 133.219 67.5405C133.139 68.1532 132.995 68.4883 132.786 68.546C132.498 68.546 132.336 68.3802 132.3 68.0487C132.3 67.782 132.292 67.4288 132.278 66.9892C132.271 66.5495 132.231 65.9333 132.159 65.1404C132.087 64.3404 131.77 63.9043 131.208 63.8323C130.739 63.8323 130.199 64.5458 129.586 65.9729C128.973 67.3928 128.31 68.1027 127.597 68.1027C127.417 68.1027 127.269 68.009 127.153 67.8216Z" fill="url(#paint16_linear)"/>
<path d="M135.046 66.8054C135.046 65.2413 135.402 64.0016 136.116 63.0863C136.83 62.1637 137.626 61.7024 138.505 61.7024C139.327 61.7024 139.99 61.9151 140.495 62.3403C140.999 62.7655 141.251 63.2809 141.251 63.8863C141.251 64.3332 141.176 64.8269 141.024 65.3675C140.88 65.908 140.646 66.3189 140.322 66.5999C139.997 66.8738 139.687 67.0108 139.392 67.0108C139.356 67.0108 139.338 66.9928 139.338 66.9567C139.338 66.9135 139.359 66.8522 139.403 66.7729C139.64 66.2756 139.795 65.8215 139.868 65.4107C139.947 64.9999 139.986 64.6827 139.986 64.4593C139.986 63.8827 139.907 63.3782 139.749 62.9457C139.597 62.5133 139.334 62.2971 138.959 62.2971C138.203 62.2971 137.612 62.7367 137.186 63.616C136.768 64.4881 136.559 65.335 136.559 66.1567C136.559 66.7982 136.916 67.1189 137.63 67.1189C137.767 67.1189 137.896 67.1117 138.019 67.0973C138.149 67.0829 138.26 67.0756 138.354 67.0756C139.579 67.0756 140.495 67.9045 141.1 69.5622C141.359 70.5425 141.489 71.5299 141.489 72.5245C141.489 73.6057 141.269 74.6219 140.83 75.5733C140.39 76.5247 139.875 77.0004 139.284 77.0004C138.722 77.0004 138.145 76.777 137.554 76.3301C136.97 75.8832 136.678 75.321 136.678 74.6435C136.678 73.6417 136.977 72.7948 137.576 72.1029C138.174 71.4182 138.624 71.0758 138.927 71.0758C138.949 71.0758 138.959 71.0902 138.959 71.1191C138.959 71.2344 138.848 71.5155 138.624 71.9623C138.408 72.4092 138.231 72.8345 138.094 73.2381C137.958 73.6417 137.889 74.0561 137.889 74.4814C137.889 74.9354 138.015 75.3319 138.267 75.6706C138.52 76.0166 138.819 76.1896 139.165 76.1896C139.403 76.1896 139.608 75.8832 139.781 75.2706C139.954 74.6652 140.04 74.0165 140.04 73.3246C140.04 72.229 139.925 71.0542 139.695 69.8001C139.478 68.4379 138.902 67.7568 137.965 67.7568C137.691 67.7568 137.359 67.7856 136.97 67.8432C136.581 67.9009 136.249 67.9297 135.975 67.9297C135.356 67.9297 135.046 67.5549 135.046 66.8054Z" fill="url(#paint17_linear)"/>
<path d="M143.035 62.9133C143.194 62.2863 143.424 61.9727 143.727 61.9727C144.037 61.9655 144.307 61.9619 144.538 61.9619C144.733 61.9619 144.83 62.2322 144.83 62.7728C144.772 64.3512 144.693 65.6377 144.592 66.6324C144.498 67.627 144.354 68.1243 144.16 68.1243V68.1135C143.965 68.1135 143.756 68.0487 143.533 67.9189C143.388 67.8468 143.316 67.1766 143.316 65.908C143.316 65.2449 143.345 64.0809 143.403 62.416L143.035 62.9133ZM143.381 59.4105C143.381 59.2663 143.468 59.1005 143.641 58.9131C143.814 58.7257 144.012 58.632 144.235 58.632C144.408 58.632 144.599 58.7077 144.808 58.8591C145.024 59.0032 145.133 59.169 145.133 59.3564C145.133 59.515 145.046 59.6915 144.873 59.8861C144.7 60.0807 144.502 60.1781 144.279 60.1781C144.106 60.1781 143.911 60.0988 143.695 59.9402C143.486 59.7816 143.381 59.6051 143.381 59.4105Z" fill="url(#paint18_linear)"/>
<path d="M153.036 65.2594C153.036 64.553 153.187 63.6485 153.49 62.5457C153.792 61.443 154.102 60.8916 154.419 60.8916C154.895 60.8916 155.133 61.0249 155.133 61.2916C155.133 61.6592 155.003 62.1601 154.744 62.7944C154.492 63.4286 154.351 64.2683 154.322 65.3134C154.387 66.7333 154.83 67.4432 155.652 67.4432C156.38 67.4432 157.018 66.6792 157.566 65.1512C158.113 63.6232 158.607 62.8304 159.047 62.7728C159.609 62.7728 159.89 63.2268 159.89 64.135C159.89 64.4809 159.858 64.8449 159.793 65.2269C159.735 65.6089 159.706 65.9369 159.706 66.2107C159.706 66.4486 159.731 66.809 159.782 67.2919C159.832 67.7676 159.858 68.0631 159.858 68.1784C159.858 68.4379 159.699 68.5676 159.382 68.5676C159.252 68.5676 159.094 68.3442 158.906 67.8973C158.719 67.4432 158.625 66.9315 158.625 66.3621C158.625 65.872 158.658 65.4287 158.722 65.0323C158.412 66.2504 157.987 67.1585 157.447 67.7568C156.906 68.3478 156.297 68.6433 155.62 68.6433C154.906 68.6433 154.297 68.4018 153.792 67.9189C153.288 67.436 153.036 66.5495 153.036 65.2594Z" fill="url(#paint19_linear)"/>
<path d="M161.101 64.5458C161.101 62.9674 161.872 61.9583 163.414 61.5187C162.867 62.1745 162.593 63.1115 162.593 64.3296C162.593 64.935 162.705 65.4071 162.928 65.7459C163.151 66.0846 163.429 66.254 163.76 66.254C164.207 66.2396 164.676 65.7314 165.166 64.7296C165.656 63.7278 166.143 63.0394 166.625 62.6646C167.108 62.2899 167.57 62.1025 168.009 62.1025C168.42 62.1313 168.676 62.4664 168.777 63.1079C168.878 63.7494 168.928 64.3764 168.928 64.9891C168.928 65.9621 168.687 67.1693 168.204 68.6108C167.721 70.0596 167.48 71.9011 167.48 74.1354C167.516 75.3174 167.674 76.2508 167.955 76.9355C166.658 75.7967 166.009 74.4165 166.009 72.7948C166.052 71.3317 166.337 69.7857 166.863 68.1568C167.389 66.5279 167.652 65.1512 167.652 64.0269C167.652 63.7025 167.624 63.4503 167.566 63.2701C166.831 65.0575 166.179 66.1711 165.609 66.6108C165.04 67.0504 164.593 67.2775 164.269 67.2919C163.944 67.3063 163.768 67.3135 163.739 67.3135C162.932 67.3135 162.297 67.0504 161.836 66.5243C161.375 65.9981 161.133 65.3458 161.112 64.5674C161.104 64.5602 161.101 64.553 161.101 64.5458Z" fill="url(#paint20_linear)"/>
<path d="M170.463 64.6972C170.463 61.6844 170.954 57.9437 171.934 53.4751C172.273 53.0714 172.755 52.8696 173.382 52.8696C172.417 58.0158 171.934 62.0124 171.934 64.8593C171.934 65.4431 172.009 66.0378 172.161 66.6432C172.312 67.2486 172.633 67.5513 173.123 67.5513C173.469 67.5513 173.844 67.4504 174.247 67.2486C174.651 67.0468 174.889 66.9459 174.961 66.9459C175.134 66.9459 175.22 66.9747 175.22 67.0324C175.22 67.2054 174.957 67.5045 174.431 67.9297C173.905 68.355 173.271 68.5676 172.528 68.5676C171.7 68.5676 171.148 68.1424 170.874 67.2919C170.6 66.4414 170.463 65.5765 170.463 64.6972Z" fill="url(#paint21_linear)"/>
<path d="M175.274 65.4648C175.303 64.5062 175.703 63.4683 176.474 62.3511C177.246 61.234 178.334 60.6754 179.739 60.6754C180.28 60.6754 180.698 60.8808 180.994 61.2916C181.296 61.6952 181.448 62.2538 181.448 62.9674C181.448 63.7602 181.354 64.2395 181.167 64.4053C180.986 64.571 180.756 64.6539 180.475 64.6539C180.302 64.6539 180.204 64.117 180.183 63.043C180.089 62.2142 179.808 61.7997 179.339 61.7997C178.77 61.7997 178.197 62.2178 177.62 63.0539C177.051 63.8899 176.766 64.6503 176.766 65.335C176.774 66.3657 177.062 66.8955 177.631 66.9243C178.013 66.9243 178.55 66.5747 179.242 65.8756C179.934 65.1765 180.55 64.8269 181.091 64.8269C181.682 64.8557 182.158 65.2089 182.518 65.8864C182.878 66.5567 183.059 67.036 183.059 67.3243C183.059 67.3748 183.048 67.4288 183.026 67.4865C183.005 67.5441 182.958 67.573 182.886 67.573C182.749 67.573 182.504 67.3279 182.15 66.8378C181.797 66.3477 181.433 66.1026 181.058 66.1026C180.857 66.1026 180.385 66.4918 179.642 67.2702C178.907 68.0487 178.103 68.4379 177.231 68.4379C176.647 68.4379 176.175 68.146 175.815 67.5622C175.455 66.9711 175.274 66.272 175.274 65.4648Z" fill="url(#paint22_linear)"/>
<path d="M184.442 61.1727C184.478 60.942 184.648 60.8267 184.951 60.8267C185.635 60.8267 185.978 61.5619 185.978 63.0322C186.828 61.9223 187.689 61.3529 188.561 61.324C189.109 61.324 189.434 61.3961 189.535 61.5403C189.643 61.6844 189.697 61.7997 189.697 61.8862C189.697 62.0736 189.354 62.2646 188.67 62.4592C187.985 62.6538 187.376 63.1259 186.842 63.8755C186.309 64.6251 186.028 65.4756 185.999 66.427C185.97 67.3784 185.866 67.9297 185.686 68.0811C185.506 68.2325 185.296 68.3081 185.059 68.3081C184.792 68.3081 184.659 67.9838 184.659 67.3351C184.659 66.8666 184.684 66.4198 184.734 65.9945C184.785 65.5693 184.81 65.1512 184.81 64.7404C184.81 63.5872 184.749 62.7511 184.626 62.2322C184.504 61.706 184.442 61.3529 184.442 61.1727Z" fill="url(#paint23_linear)"/>
<path d="M18.1987 34.9979C18.1987 35.5312 17.9737 35.9728 17.5237 36.3228C17.0904 36.6728 16.5988 36.8478 16.0488 36.8478C15.6322 36.8478 15.1572 36.6394 14.6239 36.2228C14.1073 35.7895 13.6906 35.5728 13.374 35.5728C13.0407 35.5728 12.4907 35.7228 11.7241 36.0228C10.9741 36.3228 10.1408 36.4728 9.22423 36.4728C7.25768 36.4728 5.60779 35.6812 4.27453 34.0979C2.94128 32.5147 2.27466 30.4732 2.27466 27.9733C2.27466 25.8568 3.04128 23.7652 4.57452 21.6987C6.30774 19.3655 8.34095 18.1989 10.6741 18.1989C11.9574 18.1989 12.9407 18.6239 13.624 19.4738C14.1073 19.2572 14.5989 19.1488 15.0989 19.1488C16.0988 19.1488 16.8821 19.8321 17.4487 21.1987C17.882 22.2653 18.0987 23.4486 18.0987 24.7485C18.0987 26.2984 17.9654 27.6317 17.6987 28.7483C17.5154 29.4815 17.2737 30.1482 16.9738 30.7481C16.7071 31.2481 16.5738 31.5314 16.5738 31.5981C16.5738 32.0147 16.8404 32.5897 17.3737 33.323C17.907 34.0396 18.182 34.5979 18.1987 34.9979ZM14.8489 26.3734C14.8655 25.0901 14.5572 24.0652 13.9239 23.2986C13.2406 22.4653 12.2574 22.0487 10.9741 22.0487C9.62421 22.0487 8.45761 22.807 7.47434 24.3235C6.59106 25.6734 6.14942 27.0734 6.14942 28.5233C6.14942 29.6232 6.5244 30.5398 7.27435 31.2731C8.0243 31.9897 8.94925 32.3314 10.0492 32.298C10.4325 32.298 10.7991 32.2397 11.1491 32.123C11.0158 31.6231 10.9491 31.0731 10.9491 30.4732C10.9491 29.9565 11.0991 29.3982 11.3991 28.7983C11.7491 28.0816 12.1574 27.715 12.624 27.6983C12.8907 27.6817 13.1907 27.8733 13.524 28.2733C13.8573 28.6733 14.0989 28.8982 14.2489 28.9482C14.6322 28.215 14.8322 27.3567 14.8489 26.3734Z" fill="url(#paint24_linear)"/>
<path d="M35.3775 35.0729C35.3608 35.3229 35.2192 35.5728 34.9525 35.8228C34.6859 36.0561 34.4359 36.1728 34.2026 36.1728C33.4859 36.1728 32.986 35.9478 32.7027 35.4978C32.586 35.3312 32.411 34.8395 32.1777 34.0229C31.9944 33.3563 31.7194 32.873 31.3527 32.573C31.0028 32.273 30.2445 32.1147 29.0779 32.0981C27.6446 32.0481 26.7364 31.9814 26.3531 31.8981C25.4698 31.6647 25.0281 31.1481 25.0281 30.3482C25.0281 29.5815 25.3698 29.0316 26.0531 28.6983C26.5864 28.4483 27.3447 28.3149 28.3279 28.2983C29.0612 28.2983 29.7945 28.2983 30.5278 28.2983C30.8611 28.2983 31.1611 28.29 31.4277 28.2733C31.4611 28.1566 31.4777 28.0066 31.4777 27.8233C31.4777 27.2567 31.3777 26.5651 31.1778 25.7484C30.9944 24.9152 30.7694 24.2652 30.5028 23.7986C30.2861 23.4153 29.9278 23.2236 29.4279 23.2236C28.7612 23.2236 28.2613 23.4736 27.928 23.9735C25.5614 27.5233 23.6532 31.1814 22.2033 34.9479C21.8533 35.8811 21.3367 36.3978 20.6534 36.4978C20.4201 36.5311 20.2201 36.4728 20.0534 36.3228C19.8868 36.1561 19.8035 35.9645 19.8035 35.7478C19.8035 33.8813 20.2368 31.7731 21.1034 29.4232C21.9033 27.2567 22.9199 25.2568 24.1532 23.4236C25.2698 21.757 26.0864 20.6488 26.603 20.0988C27.7696 18.8822 28.9779 18.2739 30.2278 18.2739C31.3277 18.2739 32.3027 19.0489 33.1526 20.5988C33.7193 21.6654 34.0859 22.707 34.2526 23.7236C34.7525 26.7734 35.0109 28.3899 35.0275 28.5733C35.2942 30.4398 35.4275 32.0981 35.4275 33.548C35.4275 34.0646 35.4108 34.5729 35.3775 35.0729Z" fill="url(#paint25_linear)"/>
<path d="M51.2197 34.9229C51.2197 35.7728 50.7864 36.1978 49.9198 36.1978C49.2031 36.1978 48.2032 35.5978 46.9199 34.3979C45.82 33.348 44.7868 32.1397 43.8201 30.7731C42.8535 29.4066 42.3702 28.4816 42.3702 27.9983C42.3702 27.665 42.7369 27.3067 43.4702 26.9234C44.6534 26.3234 45.3367 25.9484 45.52 25.7984C46.2533 25.2651 46.62 24.6485 46.62 23.9486C46.62 23.2986 46.3033 22.807 45.67 22.4736C45.1701 22.207 44.5701 22.0737 43.8701 22.0737C43.3702 22.0737 42.9369 22.1737 42.5702 22.3737C42.2036 27.1234 41.5536 31.0648 40.6203 34.1979C40.187 35.6812 39.5871 36.4228 38.8204 36.4228C38.2538 36.4228 37.8955 36.0895 37.7455 35.4228C37.6789 35.1729 37.6455 34.6229 37.6455 33.7729C37.6455 31.3398 38.0705 27.7983 38.9204 23.1486C38.1538 22.1487 37.7705 21.2654 37.7705 20.4988C37.7705 19.5322 38.5205 18.8739 40.0204 18.5239C40.8537 18.3406 42.0702 18.2406 43.6701 18.2239C45.52 18.2072 47.0199 18.4656 48.1699 18.9989C49.7364 19.7155 50.5197 20.8821 50.5197 22.4986C50.5197 23.4652 50.2614 24.4319 49.7448 25.3985C49.4115 26.0151 48.9365 26.6651 48.3199 27.3483C47.8199 27.9316 47.5699 28.2483 47.5699 28.2983C47.5699 28.4983 47.8866 29.0149 48.5199 29.8482C49.3865 31.0148 49.9698 31.8481 50.2697 32.348C50.903 33.3813 51.2197 34.2396 51.2197 34.9229Z" fill="url(#paint26_linear)"/>
<path d="M67.9997 25.0985C67.9997 28.0483 67.2664 30.6398 65.7998 32.873C64.1166 35.4395 61.8751 36.7228 59.0753 36.7228C57.192 36.7228 55.5421 35.8811 54.1256 34.1979C52.759 32.5814 52.0757 30.8148 52.0757 28.8982C52.0757 26.3984 52.8423 24.0652 54.3755 21.8987C56.0588 19.5322 58.092 18.3489 60.4752 18.3489C61.7084 18.3489 62.7167 18.7489 63.5 19.5488C64.0499 19.3655 64.4749 19.2738 64.7749 19.2738C65.9248 19.2738 66.7914 19.9905 67.3747 21.4237C67.7914 22.4903 67.9997 23.7152 67.9997 25.0985ZM64.6999 26.3234C64.6999 25.1901 64.4249 24.2569 63.875 23.5236C63.2583 22.7403 62.4084 22.3487 61.3251 22.3487C59.7752 22.3487 58.517 23.0319 57.5503 24.3985C56.6837 25.6151 56.2504 27.0234 56.2504 28.6233C56.2504 29.8065 56.6004 30.7398 57.3004 31.4231C58.0003 32.1064 58.9503 32.448 60.1502 32.448C61.5668 32.448 62.7084 31.7564 63.575 30.3732C64.3249 29.1732 64.6999 27.8233 64.6999 26.3234Z" fill="url(#paint27_linear)"/>
<path d="M83.0537 34.9229C83.0537 35.7728 82.6204 36.1978 81.7537 36.1978C81.0371 36.1978 80.0372 35.5978 78.7539 34.3979C77.654 33.348 76.6207 32.1397 75.6541 30.7731C74.6875 29.4066 74.2042 28.4816 74.2042 27.9983C74.2042 27.665 74.5708 27.3067 75.3041 26.9234C76.4874 26.3234 77.1707 25.9484 77.354 25.7984C78.0873 25.2651 78.4539 24.6485 78.4539 23.9486C78.4539 23.2986 78.1373 22.807 77.504 22.4736C77.004 22.207 76.4041 22.0737 75.7041 22.0737C75.2041 22.0737 74.7708 22.1737 74.4042 22.3737C74.0376 27.1234 73.3876 31.0648 72.4543 34.1979C72.021 35.6812 71.421 36.4228 70.6544 36.4228C70.0878 36.4228 69.7295 36.0895 69.5795 35.4228C69.5128 35.1729 69.4795 34.6229 69.4795 33.7729C69.4795 31.3398 69.9045 27.7983 70.7544 23.1486C69.9878 22.1487 69.6045 21.2654 69.6045 20.4988C69.6045 19.5322 70.3544 18.8739 71.8543 18.5239C72.6876 18.3406 73.9042 18.2406 75.5041 18.2239C77.354 18.2072 78.8539 18.4656 80.0039 18.9989C81.5704 19.7155 82.3537 20.8821 82.3537 22.4986C82.3537 23.4652 82.0954 24.4319 81.5788 25.3985C81.2454 26.0151 80.7705 26.6651 80.1538 27.3483C79.6539 27.9316 79.4039 28.2483 79.4039 28.2983C79.4039 28.4983 79.7205 29.0149 80.3538 29.8482C81.2204 31.0148 81.8037 31.8481 82.1037 32.348C82.737 33.3813 83.0537 34.2396 83.0537 34.9229Z" fill="url(#paint28_linear)"/>
<path d="M99.3331 28.6483C99.3331 30.2482 99.1748 31.7814 98.8582 33.248C98.4249 35.1812 97.8332 36.1478 97.0833 36.1478C96.5333 36.1478 96.1333 35.8811 95.8833 35.3478C95.6 34.7146 95.3417 34.3562 95.1084 34.2729C93.9251 35.6062 92.4419 36.2728 90.6587 36.2728C88.6255 36.2728 86.9672 35.5062 85.684 33.9729C84.4674 32.523 83.8757 30.7731 83.9091 28.7233C83.9591 26.0401 85.2507 23.5569 87.7838 21.2737C90.2504 19.0239 92.8335 17.8989 95.5334 17.8989C96.1333 17.8989 96.6583 18.2489 97.1083 18.9489C97.5249 19.5822 97.7332 20.2238 97.7332 20.8737C97.7332 21.2737 97.2999 21.757 96.4333 22.3237C95.6334 22.857 95.0584 23.1236 94.7084 23.1236C94.4418 23.1236 94.0835 23.0236 93.6335 22.8236C93.2002 22.6236 92.8169 22.5236 92.4836 22.5236C91.5169 22.5236 90.5253 23.3986 89.5087 25.1485C88.5588 26.7817 88.0838 28.1733 88.0838 29.3232C88.0838 30.2232 88.3755 30.9981 88.9588 31.6481C89.5421 32.298 90.2754 32.623 91.1586 32.623C92.7085 32.623 93.8335 32.1314 94.5334 31.1481C94.8001 30.7815 95.175 29.8732 95.6584 28.4233C95.975 27.44 96.4333 26.9484 97.0333 26.9484C97.5166 26.9484 98.0165 27.14 98.5332 27.5233C99.0665 27.89 99.3331 28.265 99.3331 28.6483Z" fill="url(#paint29_linear)"/>
<path d="M117.118 25.0985C117.118 28.0483 116.384 30.6398 114.918 32.873C113.235 35.4395 110.993 36.7228 108.193 36.7228C106.31 36.7228 104.66 35.8811 103.244 34.1979C101.877 32.5814 101.194 30.8148 101.194 28.8982C101.194 26.3984 101.96 24.0652 103.494 21.8987C105.177 19.5322 107.21 18.3489 109.593 18.3489C110.826 18.3489 111.835 18.7489 112.618 19.5488C113.168 19.3655 113.593 19.2738 113.893 19.2738C115.043 19.2738 115.91 19.9905 116.493 21.4237C116.909 22.4903 117.118 23.7152 117.118 25.0985ZM113.818 26.3234C113.818 25.1901 113.543 24.2569 112.993 23.5236C112.376 22.7403 111.526 22.3487 110.443 22.3487C108.893 22.3487 107.635 23.0319 106.668 24.3985C105.802 25.6151 105.368 27.0234 105.368 28.6233C105.368 29.8065 105.718 30.7398 106.418 31.4231C107.118 32.1064 108.068 32.448 109.268 32.448C110.685 32.448 111.826 31.7564 112.693 30.3732C113.443 29.1732 113.818 27.8233 113.818 26.3234Z" fill="url(#paint30_linear)"/>
<path d="M134.997 21.1737C134.997 22.2237 134.838 24.0735 134.522 26.7234C134.188 29.4232 133.813 31.9231 133.397 34.2229C133.18 35.4228 132.538 36.0395 131.472 36.0728C130.788 36.0895 130.355 35.7312 130.172 34.9979C130.089 34.7146 130.047 34.0729 130.047 33.073C130.047 32.773 130.08 32.248 130.147 31.4981C130.23 30.7315 130.272 30.2148 130.272 29.9482C130.272 29.5815 130.222 29.3982 130.122 29.3982C130.155 29.3982 129.847 29.3899 129.197 29.3732C128.564 29.3399 127.989 29.3232 127.472 29.3232C124.839 29.3232 123.472 29.5815 123.372 30.0982C123.106 31.2648 122.731 32.9647 122.247 35.1979C122.181 35.4645 122.006 35.7312 121.722 35.9978C121.389 36.2811 121.047 36.4228 120.697 36.4228C119.747 36.4061 119.273 35.7812 119.273 34.5479C119.273 34.2646 119.289 33.6063 119.323 32.573C119.356 31.5398 119.373 30.9231 119.373 30.7231C119.373 30.6065 119.264 30.2315 119.048 29.5982C118.848 28.9649 118.748 28.3983 118.748 27.8983C118.748 26.9817 119.139 26.3234 119.922 25.9234C120.106 24.7902 120.289 23.6486 120.472 22.4986C120.706 21.1654 120.956 20.0571 121.222 19.1738C121.456 18.4239 122.222 18.0323 123.522 17.9989C124.072 17.9823 124.431 18.1239 124.597 18.4239C124.714 18.6239 124.764 19.0155 124.747 19.5988C124.747 20.2154 124.606 21.1404 124.322 22.3737C124.039 23.5902 123.889 24.5152 123.872 25.1485C123.872 25.3818 125.13 25.4985 127.647 25.4985C129.73 25.4985 130.772 25.4151 130.772 25.2485C130.772 23.9985 130.955 22.6153 131.322 21.0987C131.805 19.0322 132.447 18.0073 133.247 18.0239C134.413 18.0239 134.997 19.0739 134.997 21.1737Z" fill="url(#paint31_linear)"/>
<path fill-rule="evenodd" clip-rule="evenodd" d="M155.573 4.74427L173.287 0.0302734V18.3149H182.857V44.0276H181.429V19.7433H173.287V46.5988H191V48.0273H171.858V19.7433H162.43V32.238L167.858 33.7416V48.0273H166.43V34.8326L162.43 33.7419V48.0273H161.002V33.3524L157.002 32.2617V48.0273H0.583008V46.5988H155.573V31.8722L148.145 29.8466V44.0633H146.717V27.8857L155.573 30.3388V4.74427ZM171.858 18.3149V1.90855L157.002 5.84363V30.7345L161.002 31.8424V18.3149H171.858Z" fill="url(#paint32_linear)"/>
<defs>
<linearGradient id="paint0_linear" x1="189.928" y1="76.6385" x2="1.15425" y2="76.6385" gradientUnits="userSpaceOnUse">
<stop stop-color="#C2A22D"/>
<stop offset="0.0405101" stop-color="#F6F97E"/>
<stop offset="0.0825206" stop-color="#BF7718"/>
<stop offset="0.130208" stop-color="#F6F97E"/>
<stop offset="0.166667" stop-color="#BF7718"/>
<stop offset="0.1875" stop-color="#BF7718"/>
<stop offset="0.192708" stop-color="#BF7718"/>
<stop offset="0.239583" stop-color="#F6F97E"/>
<stop offset="0.322917" stop-color="#BF7718"/>
<stop offset="0.604167" stop-color="#F6F97E"/>
<stop offset="1" stop-color="#9E6B15"/>
</linearGradient>
<linearGradient id="paint1_linear" x1="189.928" y1="76.6385" x2="1.15425" y2="76.6385" gradientUnits="userSpaceOnUse">
<stop stop-color="#C2A22D"/>
<stop offset="0.0405101" stop-color="#F6F97E"/>
<stop offset="0.0825206" stop-color="#BF7718"/>
<stop offset="0.130208" stop-color="#F6F97E"/>
<stop offset="0.166667" stop-color="#BF7718"/>
<stop offset="0.1875" stop-color="#BF7718"/>
<stop offset="0.192708" stop-color="#BF7718"/>
<stop offset="0.239583" stop-color="#F6F97E"/>
<stop offset="0.322917" stop-color="#BF7718"/>
<stop offset="0.604167" stop-color="#F6F97E"/>
<stop offset="1" stop-color="#9E6B15"/>
</linearGradient>
<linearGradient id="paint2_linear" x1="189.928" y1="76.6385" x2="1.15425" y2="76.6385" gradientUnits="userSpaceOnUse">
<stop stop-color="#C2A22D"/>
<stop offset="0.0405101" stop-color="#F6F97E"/>
<stop offset="0.0825206" stop-color="#BF7718"/>
<stop offset="0.130208" stop-color="#F6F97E"/>
<stop offset="0.166667" stop-color="#BF7718"/>
<stop offset="0.1875" stop-color="#BF7718"/>
<stop offset="0.192708" stop-color="#BF7718"/>
<stop offset="0.239583" stop-color="#F6F97E"/>
<stop offset="0.322917" stop-color="#BF7718"/>
<stop offset="0.604167" stop-color="#F6F97E"/>
<stop offset="1" stop-color="#9E6B15"/>
</linearGradient>
<linearGradient id="paint3_linear" x1="189.928" y1="76.6385" x2="1.15425" y2="76.6385" gradientUnits="userSpaceOnUse">
<stop stop-color="#C2A22D"/>
<stop offset="0.0405101" stop-color="#F6F97E"/>
<stop offset="0.0825206" stop-color="#BF7718"/>
<stop offset="0.130208" stop-color="#F6F97E"/>
<stop offset="0.166667" stop-color="#BF7718"/>
<stop offset="0.1875" stop-color="#BF7718"/>
<stop offset="0.192708" stop-color="#BF7718"/>
<stop offset="0.239583" stop-color="#F6F97E"/>
<stop offset="0.322917" stop-color="#BF7718"/>
<stop offset="0.604167" stop-color="#F6F97E"/>
<stop offset="1" stop-color="#9E6B15"/>
</linearGradient>
<linearGradient id="paint4_linear" x1="189.928" y1="76.6385" x2="1.15425" y2="76.6385" gradientUnits="userSpaceOnUse">
<stop stop-color="#C2A22D"/>
<stop offset="0.0405101" stop-color="#F6F97E"/>
<stop offset="0.0825206" stop-color="#BF7718"/>
<stop offset="0.130208" stop-color="#F6F97E"/>
<stop offset="0.166667" stop-color="#BF7718"/>
<stop offset="0.1875" stop-color="#BF7718"/>
<stop offset="0.192708" stop-color="#BF7718"/>
<stop offset="0.239583" stop-color="#F6F97E"/>
<stop offset="0.322917" stop-color="#BF7718"/>
<stop offset="0.604167" stop-color="#F6F97E"/>
<stop offset="1" stop-color="#9E6B15"/>
</linearGradient>
<linearGradient id="paint5_linear" x1="189.928" y1="76.6385" x2="1.15425" y2="76.6385" gradientUnits="userSpaceOnUse">
<stop stop-color="#C2A22D"/>
<stop offset="0.0405101" stop-color="#F6F97E"/>
<stop offset="0.0825206" stop-color="#BF7718"/>
<stop offset="0.130208" stop-color="#F6F97E"/>
<stop offset="0.166667" stop-color="#BF7718"/>
<stop offset="0.1875" stop-color="#BF7718"/>
<stop offset="0.192708" stop-color="#BF7718"/>
<stop offset="0.239583" stop-color="#F6F97E"/>
<stop offset="0.322917" stop-color="#BF7718"/>
<stop offset="0.604167" stop-color="#F6F97E"/>
<stop offset="1" stop-color="#9E6B15"/>
</linearGradient>
<linearGradient id="paint6_linear" x1="189.928" y1="76.6385" x2="1.15425" y2="76.6385" gradientUnits="userSpaceOnUse">
<stop stop-color="#C2A22D"/>
<stop offset="0.0405101" stop-color="#F6F97E"/>
<stop offset="0.0825206" stop-color="#BF7718"/>
<stop offset="0.130208" stop-color="#F6F97E"/>
<stop offset="0.166667" stop-color="#BF7718"/>
<stop offset="0.1875" stop-color="#BF7718"/>
<stop offset="0.192708" stop-color="#BF7718"/>
<stop offset="0.239583" stop-color="#F6F97E"/>
<stop offset="0.322917" stop-color="#BF7718"/>
<stop offset="0.604167" stop-color="#F6F97E"/>
<stop offset="1" stop-color="#9E6B15"/>
</linearGradient>
<linearGradient id="paint7_linear" x1="189.928" y1="76.6385" x2="1.15425" y2="76.6385" gradientUnits="userSpaceOnUse">
<stop stop-color="#C2A22D"/>
<stop offset="0.0405101" stop-color="#F6F97E"/>
<stop offset="0.0825206" stop-color="#BF7718"/>
<stop offset="0.130208" stop-color="#F6F97E"/>
<stop offset="0.166667" stop-color="#BF7718"/>
<stop offset="0.1875" stop-color="#BF7718"/>
<stop offset="0.192708" stop-color="#BF7718"/>
<stop offset="0.239583" stop-color="#F6F97E"/>
<stop offset="0.322917" stop-color="#BF7718"/>
<stop offset="0.604167" stop-color="#F6F97E"/>
<stop offset="1" stop-color="#9E6B15"/>
</linearGradient>
<linearGradient id="paint8_linear" x1="189.928" y1="76.6385" x2="1.15425" y2="76.6385" gradientUnits="userSpaceOnUse">
<stop stop-color="#C2A22D"/>
<stop offset="0.0405101" stop-color="#F6F97E"/>
<stop offset="0.0825206" stop-color="#BF7718"/>
<stop offset="0.130208" stop-color="#F6F97E"/>
<stop offset="0.166667" stop-color="#BF7718"/>
<stop offset="0.1875" stop-color="#BF7718"/>
<stop offset="0.192708" stop-color="#BF7718"/>
<stop offset="0.239583" stop-color="#F6F97E"/>
<stop offset="0.322917" stop-color="#BF7718"/>
<stop offset="0.604167" stop-color="#F6F97E"/>
<stop offset="1" stop-color="#9E6B15"/>
</linearGradient>
<linearGradient id="paint9_linear" x1="189.928" y1="76.6385" x2="1.15425" y2="76.6385" gradientUnits="userSpaceOnUse">
<stop stop-color="#C2A22D"/>
<stop offset="0.0405101" stop-color="#F6F97E"/>
<stop offset="0.0825206" stop-color="#BF7718"/>
<stop offset="0.130208" stop-color="#F6F97E"/>
<stop offset="0.166667" stop-color="#BF7718"/>
<stop offset="0.1875" stop-color="#BF7718"/>
<stop offset="0.192708" stop-color="#BF7718"/>
<stop offset="0.239583" stop-color="#F6F97E"/>
<stop offset="0.322917" stop-color="#BF7718"/>
<stop offset="0.604167" stop-color="#F6F97E"/>
<stop offset="1" stop-color="#9E6B15"/>
</linearGradient>
<linearGradient id="paint10_linear" x1="189.928" y1="76.6385" x2="1.15425" y2="76.6385" gradientUnits="userSpaceOnUse">
<stop stop-color="#C2A22D"/>
<stop offset="0.0405101" stop-color="#F6F97E"/>
<stop offset="0.0825206" stop-color="#BF7718"/>
<stop offset="0.130208" stop-color="#F6F97E"/>
<stop offset="0.166667" stop-color="#BF7718"/>
<stop offset="0.1875" stop-color="#BF7718"/>
<stop offset="0.192708" stop-color="#BF7718"/>
<stop offset="0.239583" stop-color="#F6F97E"/>
<stop offset="0.322917" stop-color="#BF7718"/>
<stop offset="0.604167" stop-color="#F6F97E"/>
<stop offset="1" stop-color="#9E6B15"/>
</linearGradient>
<linearGradient id="paint11_linear" x1="189.928" y1="76.6385" x2="1.15425" y2="76.6385" gradientUnits="userSpaceOnUse">
<stop stop-color="#C2A22D"/>
<stop offset="0.0405101" stop-color="#F6F97E"/>
<stop offset="0.0825206" stop-color="#BF7718"/>
<stop offset="0.130208" stop-color="#F6F97E"/>
<stop offset="0.166667" stop-color="#BF7718"/>
<stop offset="0.1875" stop-color="#BF7718"/>
<stop offset="0.192708" stop-color="#BF7718"/>
<stop offset="0.239583" stop-color="#F6F97E"/>
<stop offset="0.322917" stop-color="#BF7718"/>
<stop offset="0.604167" stop-color="#F6F97E"/>
<stop offset="1" stop-color="#9E6B15"/>
</linearGradient>
<linearGradient id="paint12_linear" x1="189.928" y1="76.6385" x2="1.15425" y2="76.6385" gradientUnits="userSpaceOnUse">
<stop stop-color="#C2A22D"/>
<stop offset="0.0405101" stop-color="#F6F97E"/>
<stop offset="0.0825206" stop-color="#BF7718"/>
<stop offset="0.130208" stop-color="#F6F97E"/>
<stop offset="0.166667" stop-color="#BF7718"/>
<stop offset="0.1875" stop-color="#BF7718"/>
<stop offset="0.192708" stop-color="#BF7718"/>
<stop offset="0.239583" stop-color="#F6F97E"/>
<stop offset="0.322917" stop-color="#BF7718"/>
<stop offset="0.604167" stop-color="#F6F97E"/>
<stop offset="1" stop-color="#9E6B15"/>
</linearGradient>
<linearGradient id="paint13_linear" x1="189.928" y1="76.6385" x2="1.15425" y2="76.6385" gradientUnits="userSpaceOnUse">
<stop stop-color="#C2A22D"/>
<stop offset="0.0405101" stop-color="#F6F97E"/>
<stop offset="0.0825206" stop-color="#BF7718"/>
<stop offset="0.130208" stop-color="#F6F97E"/>
<stop offset="0.166667" stop-color="#BF7718"/>
<stop offset="0.1875" stop-color="#BF7718"/>
<stop offset="0.192708" stop-color="#BF7718"/>
<stop offset="0.239583" stop-color="#F6F97E"/>
<stop offset="0.322917" stop-color="#BF7718"/>
<stop offset="0.604167" stop-color="#F6F97E"/>
<stop offset="1" stop-color="#9E6B15"/>
</linearGradient>
<linearGradient id="paint14_linear" x1="189.928" y1="76.6385" x2="1.15425" y2="76.6385" gradientUnits="userSpaceOnUse">
<stop stop-color="#C2A22D"/>
<stop offset="0.0405101" stop-color="#F6F97E"/>
<stop offset="0.0825206" stop-color="#BF7718"/>
<stop offset="0.130208" stop-color="#F6F97E"/>
<stop offset="0.166667" stop-color="#BF7718"/>
<stop offset="0.1875" stop-color="#BF7718"/>
<stop offset="0.192708" stop-color="#BF7718"/>
<stop offset="0.239583" stop-color="#F6F97E"/>
<stop offset="0.322917" stop-color="#BF7718"/>
<stop offset="0.604167" stop-color="#F6F97E"/>
<stop offset="1" stop-color="#9E6B15"/>
</linearGradient>
<linearGradient id="paint15_linear" x1="189.928" y1="76.6385" x2="1.15425" y2="76.6385" gradientUnits="userSpaceOnUse">
<stop stop-color="#C2A22D"/>
<stop offset="0.0405101" stop-color="#F6F97E"/>
<stop offset="0.0825206" stop-color="#BF7718"/>
<stop offset="0.130208" stop-color="#F6F97E"/>
<stop offset="0.166667" stop-color="#BF7718"/>
<stop offset="0.1875" stop-color="#BF7718"/>
<stop offset="0.192708" stop-color="#BF7718"/>
<stop offset="0.239583" stop-color="#F6F97E"/>
<stop offset="0.322917" stop-color="#BF7718"/>
<stop offset="0.604167" stop-color="#F6F97E"/>
<stop offset="1" stop-color="#9E6B15"/>
</linearGradient>
<linearGradient id="paint16_linear" x1="189.928" y1="76.6385" x2="1.15425" y2="76.6385" gradientUnits="userSpaceOnUse">
<stop stop-color="#C2A22D"/>
<stop offset="0.0405101" stop-color="#F6F97E"/>
<stop offset="0.0825206" stop-color="#BF7718"/>
<stop offset="0.130208" stop-color="#F6F97E"/>
<stop offset="0.166667" stop-color="#BF7718"/>
<stop offset="0.1875" stop-color="#BF7718"/>
<stop offset="0.192708" stop-color="#BF7718"/>
<stop offset="0.239583" stop-color="#F6F97E"/>
<stop offset="0.322917" stop-color="#BF7718"/>
<stop offset="0.604167" stop-color="#F6F97E"/>
<stop offset="1" stop-color="#9E6B15"/>
</linearGradient>
<linearGradient id="paint17_linear" x1="189.928" y1="76.6385" x2="1.15425" y2="76.6385" gradientUnits="userSpaceOnUse">
<stop stop-color="#C2A22D"/>
<stop offset="0.0405101" stop-color="#F6F97E"/>
<stop offset="0.0825206" stop-color="#BF7718"/>
<stop offset="0.130208" stop-color="#F6F97E"/>
<stop offset="0.166667" stop-color="#BF7718"/>
<stop offset="0.1875" stop-color="#BF7718"/>
<stop offset="0.192708" stop-color="#BF7718"/>
<stop offset="0.239583" stop-color="#F6F97E"/>
<stop offset="0.322917" stop-color="#BF7718"/>
<stop offset="0.604167" stop-color="#F6F97E"/>
<stop offset="1" stop-color="#9E6B15"/>
</linearGradient>
<linearGradient id="paint18_linear" x1="189.928" y1="76.6385" x2="1.15425" y2="76.6385" gradientUnits="userSpaceOnUse">
<stop stop-color="#C2A22D"/>
<stop offset="0.0405101" stop-color="#F6F97E"/>
<stop offset="0.0825206" stop-color="#BF7718"/>
<stop offset="0.130208" stop-color="#F6F97E"/>
<stop offset="0.166667" stop-color="#BF7718"/>
<stop offset="0.1875" stop-color="#BF7718"/>
<stop offset="0.192708" stop-color="#BF7718"/>
<stop offset="0.239583" stop-color="#F6F97E"/>
<stop offset="0.322917" stop-color="#BF7718"/>
<stop offset="0.604167" stop-color="#F6F97E"/>
<stop offset="1" stop-color="#9E6B15"/>
</linearGradient>
<linearGradient id="paint19_linear" x1="189.928" y1="76.6385" x2="1.15425" y2="76.6385" gradientUnits="userSpaceOnUse">
<stop stop-color="#C2A22D"/>
<stop offset="0.0405101" stop-color="#F6F97E"/>
<stop offset="0.0825206" stop-color="#BF7718"/>
<stop offset="0.130208" stop-color="#F6F97E"/>
<stop offset="0.166667" stop-color="#BF7718"/>
<stop offset="0.1875" stop-color="#BF7718"/>
<stop offset="0.192708" stop-color="#BF7718"/>
<stop offset="0.239583" stop-color="#F6F97E"/>
<stop offset="0.322917" stop-color="#BF7718"/>
<stop offset="0.604167" stop-color="#F6F97E"/>
<stop offset="1" stop-color="#9E6B15"/>
</linearGradient>
<linearGradient id="paint20_linear" x1="189.928" y1="76.6385" x2="1.15425" y2="76.6385" gradientUnits="userSpaceOnUse">
<stop stop-color="#C2A22D"/>
<stop offset="0.0405101" stop-color="#F6F97E"/>
<stop offset="0.0825206" stop-color="#BF7718"/>
<stop offset="0.130208" stop-color="#F6F97E"/>
<stop offset="0.166667" stop-color="#BF7718"/>
<stop offset="0.1875" stop-color="#BF7718"/>
<stop offset="0.192708" stop-color="#BF7718"/>
<stop offset="0.239583" stop-color="#F6F97E"/>
<stop offset="0.322917" stop-color="#BF7718"/>
<stop offset="0.604167" stop-color="#F6F97E"/>
<stop offset="1" stop-color="#9E6B15"/>
</linearGradient>
<linearGradient id="paint21_linear" x1="189.928" y1="76.6385" x2="1.15425" y2="76.6385" gradientUnits="userSpaceOnUse">
<stop stop-color="#C2A22D"/>
<stop offset="0.0405101" stop-color="#F6F97E"/>
<stop offset="0.0825206" stop-color="#BF7718"/>
<stop offset="0.130208" stop-color="#F6F97E"/>
<stop offset="0.166667" stop-color="#BF7718"/>
<stop offset="0.1875" stop-color="#BF7718"/>
<stop offset="0.192708" stop-color="#BF7718"/>
<stop offset="0.239583" stop-color="#F6F97E"/>
<stop offset="0.322917" stop-color="#BF7718"/>
<stop offset="0.604167" stop-color="#F6F97E"/>
<stop offset="1" stop-color="#9E6B15"/>
</linearGradient>
<linearGradient id="paint22_linear" x1="189.928" y1="76.6385" x2="1.15425" y2="76.6385" gradientUnits="userSpaceOnUse">
<stop stop-color="#C2A22D"/>
<stop offset="0.0405101" stop-color="#F6F97E"/>
<stop offset="0.0825206" stop-color="#BF7718"/>
<stop offset="0.130208" stop-color="#F6F97E"/>
<stop offset="0.166667" stop-color="#BF7718"/>
<stop offset="0.1875" stop-color="#BF7718"/>
<stop offset="0.192708" stop-color="#BF7718"/>
<stop offset="0.239583" stop-color="#F6F97E"/>
<stop offset="0.322917" stop-color="#BF7718"/>
<stop offset="0.604167" stop-color="#F6F97E"/>
<stop offset="1" stop-color="#9E6B15"/>
</linearGradient>
<linearGradient id="paint23_linear" x1="189.928" y1="76.6385" x2="1.15425" y2="76.6385" gradientUnits="userSpaceOnUse">
<stop stop-color="#C2A22D"/>
<stop offset="0.0405101" stop-color="#F6F97E"/>
<stop offset="0.0825206" stop-color="#BF7718"/>
<stop offset="0.130208" stop-color="#F6F97E"/>
<stop offset="0.166667" stop-color="#BF7718"/>
<stop offset="0.1875" stop-color="#BF7718"/>
<stop offset="0.192708" stop-color="#BF7718"/>
<stop offset="0.239583" stop-color="#F6F97E"/>
<stop offset="0.322917" stop-color="#BF7718"/>
<stop offset="0.604167" stop-color="#F6F97E"/>
<stop offset="1" stop-color="#9E6B15"/>
</linearGradient>
<linearGradient id="paint24_linear" x1="136.218" y1="41.7831" x2="1.44024" y2="41.7832" gradientUnits="userSpaceOnUse">
<stop stop-color="#C2A22D"/>
<stop offset="0.0405101" stop-color="#F6F97E"/>
<stop offset="0.0825206" stop-color="#BF7718"/>
<stop offset="0.130208" stop-color="#F6F97E"/>
<stop offset="0.166667" stop-color="#BF7718"/>
<stop offset="0.1875" stop-color="#BF7718"/>
<stop offset="0.192708" stop-color="#BF7718"/>
<stop offset="0.239583" stop-color="#F6F97E"/>
<stop offset="0.322917" stop-color="#BF7718"/>
<stop offset="0.604167" stop-color="#F6F97E"/>
<stop offset="1" stop-color="#9E6B15"/>
</linearGradient>
<linearGradient id="paint25_linear" x1="136.218" y1="41.7831" x2="1.44024" y2="41.7832" gradientUnits="userSpaceOnUse">
<stop stop-color="#C2A22D"/>
<stop offset="0.0405101" stop-color="#F6F97E"/>
<stop offset="0.0825206" stop-color="#BF7718"/>
<stop offset="0.130208" stop-color="#F6F97E"/>
<stop offset="0.166667" stop-color="#BF7718"/>
<stop offset="0.1875" stop-color="#BF7718"/>
<stop offset="0.192708" stop-color="#BF7718"/>
<stop offset="0.239583" stop-color="#F6F97E"/>
<stop offset="0.322917" stop-color="#BF7718"/>
<stop offset="0.604167" stop-color="#F6F97E"/>
<stop offset="1" stop-color="#9E6B15"/>
</linearGradient>
<linearGradient id="paint26_linear" x1="136.218" y1="41.7831" x2="1.44024" y2="41.7832" gradientUnits="userSpaceOnUse">
<stop stop-color="#C2A22D"/>
<stop offset="0.0405101" stop-color="#F6F97E"/>
<stop offset="0.0825206" stop-color="#BF7718"/>
<stop offset="0.130208" stop-color="#F6F97E"/>
<stop offset="0.166667" stop-color="#BF7718"/>
<stop offset="0.1875" stop-color="#BF7718"/>
<stop offset="0.192708" stop-color="#BF7718"/>
<stop offset="0.239583" stop-color="#F6F97E"/>
<stop offset="0.322917" stop-color="#BF7718"/>
<stop offset="0.604167" stop-color="#F6F97E"/>
<stop offset="1" stop-color="#9E6B15"/>
</linearGradient>
<linearGradient id="paint27_linear" x1="136.218" y1="41.7831" x2="1.44024" y2="41.7832" gradientUnits="userSpaceOnUse">
<stop stop-color="#C2A22D"/>
<stop offset="0.0405101" stop-color="#F6F97E"/>
<stop offset="0.0825206" stop-color="#BF7718"/>
<stop offset="0.130208" stop-color="#F6F97E"/>
<stop offset="0.166667" stop-color="#BF7718"/>
<stop offset="0.1875" stop-color="#BF7718"/>
<stop offset="0.192708" stop-color="#BF7718"/>
<stop offset="0.239583" stop-color="#F6F97E"/>
<stop offset="0.322917" stop-color="#BF7718"/>
<stop offset="0.604167" stop-color="#F6F97E"/>
<stop offset="1" stop-color="#9E6B15"/>
</linearGradient>
<linearGradient id="paint28_linear" x1="136.218" y1="41.7831" x2="1.44024" y2="41.7832" gradientUnits="userSpaceOnUse">
<stop stop-color="#C2A22D"/>
<stop offset="0.0405101" stop-color="#F6F97E"/>
<stop offset="0.0825206" stop-color="#BF7718"/>
<stop offset="0.130208" stop-color="#F6F97E"/>
<stop offset="0.166667" stop-color="#BF7718"/>
<stop offset="0.1875" stop-color="#BF7718"/>
<stop offset="0.192708" stop-color="#BF7718"/>
<stop offset="0.239583" stop-color="#F6F97E"/>
<stop offset="0.322917" stop-color="#BF7718"/>
<stop offset="0.604167" stop-color="#F6F97E"/>
<stop offset="1" stop-color="#9E6B15"/>
</linearGradient>
<linearGradient id="paint29_linear" x1="136.218" y1="41.7831" x2="1.44024" y2="41.7832" gradientUnits="userSpaceOnUse">
<stop stop-color="#C2A22D"/>
<stop offset="0.0405101" stop-color="#F6F97E"/>
<stop offset="0.0825206" stop-color="#BF7718"/>
<stop offset="0.130208" stop-color="#F6F97E"/>
<stop offset="0.166667" stop-color="#BF7718"/>
<stop offset="0.1875" stop-color="#BF7718"/>
<stop offset="0.192708" stop-color="#BF7718"/>
<stop offset="0.239583" stop-color="#F6F97E"/>
<stop offset="0.322917" stop-color="#BF7718"/>
<stop offset="0.604167" stop-color="#F6F97E"/>
<stop offset="1" stop-color="#9E6B15"/>
</linearGradient>
<linearGradient id="paint30_linear" x1="136.218" y1="41.7831" x2="1.44024" y2="41.7832" gradientUnits="userSpaceOnUse">
<stop stop-color="#C2A22D"/>
<stop offset="0.0405101" stop-color="#F6F97E"/>
<stop offset="0.0825206" stop-color="#BF7718"/>
<stop offset="0.130208" stop-color="#F6F97E"/>
<stop offset="0.166667" stop-color="#BF7718"/>
<stop offset="0.1875" stop-color="#BF7718"/>
<stop offset="0.192708" stop-color="#BF7718"/>
<stop offset="0.239583" stop-color="#F6F97E"/>
<stop offset="0.322917" stop-color="#BF7718"/>
<stop offset="0.604167" stop-color="#F6F97E"/>
<stop offset="1" stop-color="#9E6B15"/>
</linearGradient>
<linearGradient id="paint31_linear" x1="136.218" y1="41.7831" x2="1.44024" y2="41.7832" gradientUnits="userSpaceOnUse">
<stop stop-color="#C2A22D"/>
<stop offset="0.0405101" stop-color="#F6F97E"/>
<stop offset="0.0825206" stop-color="#BF7718"/>
<stop offset="0.130208" stop-color="#F6F97E"/>
<stop offset="0.166667" stop-color="#BF7718"/>
<stop offset="0.1875" stop-color="#BF7718"/>
<stop offset="0.192708" stop-color="#BF7718"/>
<stop offset="0.239583" stop-color="#F6F97E"/>
<stop offset="0.322917" stop-color="#BF7718"/>
<stop offset="0.604167" stop-color="#F6F97E"/>
<stop offset="1" stop-color="#9E6B15"/>
</linearGradient>
<linearGradient id="paint32_linear" x1="191" y1="48.0273" x2="0.583011" y2="48.0273" gradientUnits="userSpaceOnUse">
<stop stop-color="#C2A22D"/>
<stop offset="0.0405101" stop-color="#F6F97E"/>
<stop offset="0.0825206" stop-color="#BF7718"/>
<stop offset="0.130208" stop-color="#F6F97E"/>
<stop offset="0.166667" stop-color="#BF7718"/>
<stop offset="0.1875" stop-color="#BF7718"/>
<stop offset="0.192708" stop-color="#BF7718"/>
<stop offset="0.239583" stop-color="#F6F97E"/>
<stop offset="0.322917" stop-color="#BF7718"/>
<stop offset="0.604167" stop-color="#F6F97E"/>
<stop offset="1" stop-color="#9E6B15"/>
</linearGradient>
</defs>
</svg>
