<svg width="2666" height="1078" viewBox="0 0 2666 1078" fill="none" xmlns="http://www.w3.org/2000/svg">
<path d="M21.082 922.04C21.082 909.729 23.9076 894.289 29.5586 875.722C35.3105 857.154 45.8053 847.87 61.043 847.87C79.8125 848.476 93.2842 855.59 101.458 869.213C109.632 882.836 113.921 895.601 114.324 907.509C114.324 918.407 108.976 929.507 98.2793 940.81C87.8854 953.323 75.0697 959.579 59.832 959.579C47.319 958.974 37.7324 955.341 31.0723 948.681C24.4121 941.92 21.082 933.039 21.082 922.04ZM40.3057 916.591C40.3057 925.673 41.9707 932.283 45.3008 936.42C48.6309 940.557 52.9196 942.626 58.167 942.626C65.7354 942.626 73.7578 938.539 82.2344 930.365C90.8118 922.191 95.1006 913.765 95.1006 905.087C95.1006 894.996 91.0641 885.813 82.9912 877.538C75.0192 869.162 68.359 864.975 63.0107 864.975C56.2497 864.975 50.75 871.433 46.5117 884.35C42.3743 897.165 40.3057 907.912 40.3057 916.591ZM132.337 856.044C132.841 852.815 135.213 851.2 139.451 851.2C149.038 851.2 153.831 861.493 153.831 882.079C165.739 866.539 177.798 858.567 190.008 858.163C197.677 858.163 202.218 859.172 203.631 861.19C205.145 863.209 205.901 864.823 205.901 866.034C205.901 868.658 201.108 871.332 191.521 874.057C181.935 876.781 173.408 883.391 165.94 893.886C158.473 904.381 154.537 916.288 154.134 929.608C153.73 942.929 152.267 950.648 149.744 952.768C147.221 954.887 144.295 955.946 140.965 955.946C137.231 955.946 135.364 951.405 135.364 942.323C135.364 935.764 135.717 929.507 136.424 923.554C137.13 917.6 137.483 911.747 137.483 905.995C137.483 889.849 136.626 878.144 134.91 870.878C133.195 863.511 132.337 858.567 132.337 856.044ZM221.492 939.75C221.492 935.613 222.4 931.324 224.217 926.884C228.051 916.591 249.646 896.913 289.002 867.851C282.645 867.245 276.287 866.942 269.93 866.942C257.417 866.942 245.005 868.153 232.693 870.575C227.951 869.465 225.226 864.319 224.52 855.136C244.803 852.815 261.403 851.654 274.319 851.654C289.153 851.654 298.589 853.118 302.625 856.044C306.661 858.869 308.68 861.392 308.68 863.612C308.68 871.786 297.378 884.4 274.773 901.454C252.169 918.407 240.161 931.425 238.748 940.507C238.748 947.873 242.532 953.373 250.101 957.006C257.77 960.538 266.045 962.304 274.925 962.304C288.245 962.304 305.35 958.974 326.238 952.313C305.955 966.744 287.589 973.959 271.141 973.959C254.995 973.858 242.684 970.679 234.207 964.423C225.73 958.267 221.492 950.043 221.492 939.75ZM332.898 913.261C332.898 903.371 335.018 890.707 339.256 875.268C343.494 859.828 347.833 852.108 352.273 852.108C358.934 852.108 362.264 853.975 362.264 857.709C362.264 862.855 360.447 869.869 356.814 878.749C353.283 887.629 351.315 899.385 350.911 914.018C351.819 933.897 358.025 943.837 369.529 943.837C379.721 943.837 388.652 933.14 396.321 911.747C403.991 890.354 410.903 879.254 417.059 878.446C424.93 878.446 428.865 884.804 428.865 897.519C428.865 902.362 428.411 907.458 427.503 912.807C426.696 918.155 426.292 922.746 426.292 926.581C426.292 929.911 426.645 934.957 427.352 941.718C428.058 948.378 428.411 952.515 428.411 954.13C428.411 957.763 426.191 959.579 421.751 959.579C419.935 959.579 417.715 956.451 415.091 950.194C412.467 943.837 411.155 936.672 411.155 928.7C411.155 921.838 411.609 915.632 412.518 910.082C408.178 927.136 402.225 939.851 394.656 948.227C387.088 956.501 378.561 960.639 369.075 960.639C359.085 960.639 350.558 957.258 343.494 950.497C336.43 943.736 332.898 931.324 332.898 913.261ZM445.818 903.271C445.818 881.171 456.616 867.043 478.211 860.888C470.542 870.071 466.707 883.189 466.707 900.243C466.707 908.72 468.271 915.329 471.399 920.072C474.528 924.815 478.413 927.187 483.055 927.187C489.311 926.985 495.87 919.87 502.732 905.844C509.594 891.817 516.406 882.18 523.167 876.933C529.928 871.685 536.386 869.062 542.542 869.062C548.294 869.465 551.876 874.158 553.289 883.139C554.702 892.12 555.408 900.899 555.408 909.477C555.408 923.1 552.028 940.002 545.267 960.185C538.506 980.468 535.125 1006.25 535.125 1037.53C535.63 1054.08 537.85 1067.15 541.785 1076.74C523.621 1060.79 514.539 1041.47 514.539 1018.76C515.145 998.279 519.131 976.633 526.497 953.827C533.864 931.021 537.547 911.747 537.547 896.005C537.547 891.464 537.143 887.932 536.336 885.409C526.043 910.435 516.91 926.026 508.938 932.182C500.966 938.337 494.71 941.516 490.169 941.718C485.628 941.92 483.156 942.021 482.752 942.021C471.45 942.021 462.57 938.337 456.111 930.971C449.653 923.604 446.272 914.472 445.97 903.573C445.869 903.472 445.818 903.371 445.818 903.271ZM576.448 880.414C578.668 871.635 581.897 867.245 586.136 867.245C590.475 867.144 594.259 867.094 597.488 867.094C600.213 867.094 601.575 870.878 601.575 878.446C600.768 900.546 599.658 918.559 598.245 932.484C596.933 946.41 594.915 953.373 592.19 953.373V953.222C589.466 953.222 586.539 952.313 583.411 950.497C581.393 949.488 580.384 940.103 580.384 922.343C580.384 913.059 580.787 896.762 581.595 873.451L576.448 880.414ZM581.292 831.371C581.292 829.353 582.503 827.032 584.925 824.408C587.347 821.785 590.122 820.473 593.25 820.473C595.672 820.473 598.346 821.532 601.272 823.651C604.3 825.67 605.813 827.991 605.813 830.614C605.813 832.834 604.603 835.307 602.181 838.031C599.759 840.756 596.984 842.118 593.855 842.118C591.434 842.118 588.709 841.008 585.682 838.788C582.755 836.568 581.292 834.096 581.292 831.371ZM632.303 949.135C630.688 946.511 629.881 936.924 629.881 920.375C629.881 901 630.285 887.528 631.092 879.96C631.899 872.291 632.706 865.176 633.514 858.617C634.321 852.058 637.701 848.778 643.655 848.778C648.6 848.778 651.88 851.2 653.494 856.044C651.779 872.493 650.568 885.712 649.861 895.702C649.256 905.692 648.953 913.614 648.953 919.467C650.366 919.467 653.595 913.16 658.641 900.546C668.328 883.593 678.621 875.116 689.52 875.116C699.005 875.116 706.069 878.547 710.711 885.409C715.353 892.271 718.077 903.422 718.885 918.861C718.885 927.842 718.33 936.622 717.22 945.199C716.11 953.777 714.091 958.469 711.165 959.276C707.129 959.276 704.858 956.955 704.354 952.313C704.354 948.58 704.253 943.635 704.051 937.479C703.95 931.324 703.395 922.696 702.386 911.596C701.377 900.395 696.937 894.289 689.065 893.28C682.506 893.28 674.938 903.271 666.36 923.251C657.783 943.131 648.499 953.07 638.509 953.07C635.986 953.07 633.917 951.758 632.303 949.135ZM742.801 934.906C742.801 913.008 747.796 895.652 757.786 882.836C767.776 869.919 778.927 863.461 791.238 863.461C802.742 863.461 812.026 866.438 819.09 872.392C826.154 878.345 829.686 885.561 829.686 894.037C829.686 900.294 828.626 907.206 826.507 914.774C824.489 922.343 821.209 928.095 816.668 932.03C812.127 935.865 807.788 937.782 803.65 937.782C803.146 937.782 802.894 937.53 802.894 937.025C802.894 936.42 803.196 935.562 803.802 934.452C807.132 927.489 809.301 921.132 810.311 915.38C811.421 909.628 811.976 905.188 811.976 902.06C811.976 893.987 810.866 886.923 808.646 880.868C806.526 874.813 802.843 871.786 797.596 871.786C787 871.786 778.725 877.942 772.771 890.253C766.919 902.463 763.992 914.32 763.992 925.824C763.992 934.805 768.987 939.296 778.978 939.296C780.895 939.296 782.711 939.195 784.427 938.993C786.243 938.791 787.807 938.69 789.119 938.69C806.274 938.69 819.09 950.295 827.566 973.505C831.199 987.229 833.016 1001.05 833.016 1014.98C833.016 1030.12 829.938 1044.34 823.782 1057.67C817.627 1070.99 810.411 1077.65 802.137 1077.65C794.266 1077.65 786.193 1074.52 777.918 1068.26C769.744 1062 765.657 1054.13 765.657 1044.65C765.657 1030.62 769.845 1018.76 778.221 1009.08C786.596 999.49 792.903 994.696 797.142 994.696C797.444 994.696 797.596 994.898 797.596 995.302C797.596 996.916 796.032 1000.85 792.903 1007.11C789.876 1013.36 787.404 1019.32 785.486 1024.97C783.569 1030.62 782.61 1036.42 782.61 1042.38C782.61 1048.73 784.376 1054.28 787.908 1059.03C791.44 1063.87 795.628 1066.29 800.472 1066.29C803.802 1066.29 806.678 1062 809.1 1053.43C811.521 1044.95 812.732 1035.87 812.732 1026.18C812.732 1010.84 811.118 994.394 807.889 976.835C804.861 957.763 796.788 948.227 783.67 948.227C779.835 948.227 775.193 948.63 769.744 949.438C764.295 950.245 759.653 950.648 755.818 950.648C747.14 950.648 742.801 945.401 742.801 934.906ZM854.661 880.414C856.881 871.635 860.11 867.245 864.349 867.245C868.688 867.144 872.472 867.094 875.701 867.094C878.426 867.094 879.788 870.878 879.788 878.446C878.981 900.546 877.871 918.559 876.458 932.484C875.146 946.41 873.128 953.373 870.403 953.373V953.222C867.679 953.222 864.752 952.313 861.624 950.497C859.606 949.488 858.597 940.103 858.597 922.343C858.597 913.059 859 896.762 859.808 873.451L854.661 880.414ZM859.505 831.371C859.505 829.353 860.716 827.032 863.138 824.408C865.56 821.785 868.335 820.473 871.463 820.473C873.885 820.473 876.559 821.532 879.485 823.651C882.513 825.67 884.026 827.991 884.026 830.614C884.026 832.834 882.815 835.307 880.394 838.031C877.972 840.756 875.197 842.118 872.068 842.118C869.646 842.118 866.922 841.008 863.895 838.788C860.968 836.568 859.505 834.096 859.505 831.371ZM908.699 939.75C908.699 935.613 909.607 931.324 911.424 926.884C915.258 916.591 936.854 896.913 976.209 867.851C969.852 867.245 963.494 866.942 957.137 866.942C944.624 866.942 932.212 868.153 919.9 870.575C915.158 869.465 912.433 864.319 911.727 855.136C932.01 852.815 948.61 851.654 961.526 851.654C976.36 851.654 985.796 853.118 989.832 856.044C993.868 858.869 995.887 861.392 995.887 863.612C995.887 871.786 984.585 884.4 961.98 901.454C939.376 918.407 927.368 931.425 925.955 940.507C925.955 947.873 929.739 953.373 937.308 957.006C944.977 960.538 953.252 962.304 962.132 962.304C975.452 962.304 992.557 958.974 1013.45 952.313C993.162 966.744 974.796 973.959 958.348 973.959C942.202 973.858 929.891 970.679 921.414 964.423C912.938 958.267 908.699 950.043 908.699 939.75ZM1015.56 910.688C1015.56 898.679 1018.19 887.074 1023.44 875.873C1028.68 864.672 1034.33 857.406 1040.39 854.076C1046.54 850.746 1052.4 849.081 1057.95 849.081C1068.24 849.081 1077.78 851.806 1086.56 857.255C1087.26 833.843 1091.1 799.735 1098.06 754.931C1099.47 748.573 1102.9 745.294 1108.35 745.092C1113.7 745.294 1116.38 747.06 1116.38 750.39C1108.91 806.9 1105.17 845.398 1105.17 865.883C1105.68 911.091 1108.76 940.053 1114.41 952.768C1114.41 955.492 1113.55 956.955 1111.83 957.157C1109.92 957.157 1106.64 953.323 1102 945.653C1097.35 937.984 1094.48 926.177 1093.37 910.233C1087.31 930.416 1079.29 943.534 1069.3 949.589C1064.15 953.121 1058.7 954.887 1052.95 954.887C1040.54 954.887 1031.21 951.052 1024.95 943.383C1018.69 935.613 1015.56 924.714 1015.56 910.688ZM1034.33 916.894C1036.76 933.241 1041.7 941.617 1049.17 942.021C1055.73 942.021 1061.23 938.186 1065.67 930.517C1070.21 922.646 1074.29 913.866 1077.93 904.179C1081.56 894.491 1083.83 882.584 1084.74 868.456C1079.79 864.016 1073.29 861.796 1065.21 861.796C1059.76 861.796 1054.62 863.865 1049.77 868.002C1044.93 872.139 1041.15 879.657 1038.42 890.556C1035.7 901.353 1034.33 910.132 1034.33 916.894ZM1136.51 916.137C1136.91 902.715 1142.51 888.184 1153.31 872.543C1164.11 856.902 1179.34 849.081 1199.02 849.081C1206.59 849.081 1212.44 851.957 1216.58 857.709C1220.82 863.36 1222.94 871.181 1222.94 881.171C1222.94 892.271 1221.63 898.982 1219 901.303C1216.48 903.624 1213.25 904.784 1209.31 904.784C1206.89 904.784 1205.53 897.266 1205.23 882.23C1203.92 870.626 1199.98 864.823 1193.42 864.823C1185.45 864.823 1177.43 870.676 1169.35 882.382C1161.38 894.088 1157.4 904.734 1157.4 914.32C1157.5 928.751 1161.53 936.168 1169.5 936.571C1174.85 936.571 1182.37 931.677 1192.06 921.889C1201.75 912.1 1210.37 907.206 1217.94 907.206C1226.22 907.61 1232.88 912.554 1237.92 922.04C1242.97 931.425 1245.49 938.135 1245.49 942.172C1245.49 942.878 1245.34 943.635 1245.04 944.442C1244.73 945.25 1244.08 945.653 1243.07 945.653C1241.15 945.653 1237.72 942.222 1232.78 935.36C1227.83 928.498 1222.74 925.067 1217.49 925.067C1214.66 925.067 1208.05 930.517 1197.66 941.415C1187.37 952.313 1176.11 957.763 1163.9 957.763C1155.73 957.763 1149.12 953.676 1144.08 945.502C1139.03 937.227 1136.51 927.439 1136.51 916.137ZM1266.83 934.906C1266.83 913.008 1271.83 895.652 1281.82 882.836C1291.81 869.919 1302.96 863.461 1315.27 863.461C1326.78 863.461 1336.06 866.438 1343.12 872.392C1350.19 878.345 1353.72 885.561 1353.72 894.037C1353.72 900.294 1352.66 907.206 1350.54 914.774C1348.52 922.343 1345.24 928.095 1340.7 932.03C1336.16 935.865 1331.82 937.782 1327.68 937.782C1327.18 937.782 1326.93 937.53 1326.93 937.025C1326.93 936.42 1327.23 935.562 1327.83 934.452C1331.17 927.489 1333.33 921.132 1334.34 915.38C1335.45 909.628 1336.01 905.188 1336.01 902.06C1336.01 893.987 1334.9 886.923 1332.68 880.868C1330.56 874.813 1326.88 871.786 1321.63 871.786C1311.03 871.786 1302.76 877.942 1296.8 890.253C1290.95 902.463 1288.03 914.32 1288.03 925.824C1288.03 934.805 1293.02 939.296 1303.01 939.296C1304.93 939.296 1306.74 939.195 1308.46 938.993C1310.28 938.791 1311.84 938.69 1313.15 938.69C1330.31 938.69 1343.12 950.295 1351.6 973.505C1355.23 987.229 1357.05 1001.05 1357.05 1014.98C1357.05 1030.12 1353.97 1044.34 1347.82 1057.67C1341.66 1070.99 1334.44 1077.65 1326.17 1077.65C1318.3 1077.65 1310.23 1074.52 1301.95 1068.26C1293.78 1062 1289.69 1054.13 1289.69 1044.65C1289.69 1030.62 1293.88 1018.76 1302.25 1009.08C1310.63 999.49 1316.94 994.696 1321.17 994.696C1321.48 994.696 1321.63 994.898 1321.63 995.302C1321.63 996.916 1320.06 1000.85 1316.94 1007.11C1313.91 1013.36 1311.44 1019.32 1309.52 1024.97C1307.6 1030.62 1306.64 1036.42 1306.64 1042.38C1306.64 1048.73 1308.41 1054.28 1311.94 1059.03C1315.47 1063.87 1319.66 1066.29 1324.5 1066.29C1327.83 1066.29 1330.71 1062 1333.13 1053.43C1335.55 1044.95 1336.77 1035.87 1336.77 1026.18C1336.77 1010.84 1335.15 994.394 1331.92 976.835C1328.89 957.763 1320.82 948.227 1307.7 948.227C1303.87 948.227 1299.23 948.63 1293.78 949.438C1288.33 950.245 1283.69 950.648 1279.85 950.648C1271.17 950.648 1266.83 945.401 1266.83 934.906ZM1378.69 880.414C1380.91 871.635 1384.14 867.245 1388.38 867.245C1392.72 867.144 1396.51 867.094 1399.73 867.094C1402.46 867.094 1403.82 870.878 1403.82 878.446C1403.01 900.546 1401.9 918.559 1400.49 932.484C1399.18 946.41 1397.16 953.373 1394.44 953.373V953.222C1391.71 953.222 1388.79 952.313 1385.66 950.497C1383.64 949.488 1382.63 940.103 1382.63 922.343C1382.63 913.059 1383.03 896.762 1383.84 873.451L1378.69 880.414ZM1383.54 831.371C1383.54 829.353 1384.75 827.032 1387.17 824.408C1389.59 821.785 1392.37 820.473 1395.5 820.473C1397.92 820.473 1400.59 821.532 1403.52 823.651C1406.55 825.67 1408.06 827.991 1408.06 830.614C1408.06 832.834 1406.85 835.307 1404.43 838.031C1402 840.756 1399.23 842.118 1396.1 842.118C1393.68 842.118 1390.96 841.008 1387.93 838.788C1385 836.568 1383.54 834.096 1383.54 831.371ZM1513.56 903.271C1513.56 881.171 1524.36 867.043 1545.96 860.888C1538.29 870.071 1534.45 883.189 1534.45 900.243C1534.45 908.72 1536.02 915.329 1539.14 920.072C1542.27 924.815 1546.16 927.187 1550.8 927.187C1557.06 926.985 1563.61 919.87 1570.48 905.844C1577.34 891.817 1584.15 882.18 1590.91 876.933C1597.67 871.685 1604.13 869.062 1610.29 869.062C1616.04 869.465 1619.62 874.158 1621.03 883.139C1622.45 892.12 1623.15 900.899 1623.15 909.477C1623.15 923.1 1619.77 940.002 1613.01 960.185C1606.25 980.468 1602.87 1006.25 1602.87 1037.53C1603.37 1054.08 1605.59 1067.15 1609.53 1076.74C1591.37 1060.79 1582.28 1041.47 1582.28 1018.76C1582.89 998.279 1586.87 976.633 1594.24 953.827C1601.61 931.021 1605.29 911.747 1605.29 896.005C1605.29 891.464 1604.89 887.932 1604.08 885.409C1593.79 910.435 1584.65 926.026 1576.68 932.182C1568.71 938.337 1562.45 941.516 1557.91 941.718C1553.37 941.92 1550.9 942.021 1550.5 942.021C1539.19 942.021 1530.31 938.337 1523.86 930.971C1517.4 923.604 1514.02 914.472 1513.71 903.573C1513.61 903.472 1513.56 903.371 1513.56 903.271ZM1641.17 916.137C1641.57 902.715 1647.17 888.184 1657.97 872.543C1668.76 856.902 1684 849.081 1703.68 849.081C1711.25 849.081 1717.1 851.957 1721.24 857.709C1725.48 863.36 1727.6 871.181 1727.6 881.171C1727.6 892.271 1726.28 898.982 1723.66 901.303C1721.14 903.624 1717.91 904.784 1713.97 904.784C1711.55 904.784 1710.19 897.266 1709.89 882.23C1708.57 870.626 1704.64 864.823 1698.08 864.823C1690.11 864.823 1682.08 870.676 1674.01 882.382C1666.04 894.088 1662.05 904.734 1662.05 914.32C1662.15 928.751 1666.19 936.168 1674.16 936.571C1679.51 936.571 1687.03 931.677 1696.72 921.889C1706.4 912.1 1715.03 907.206 1722.6 907.206C1730.88 907.61 1737.54 912.554 1742.58 922.04C1747.63 931.425 1750.15 938.135 1750.15 942.172C1750.15 942.878 1750 943.635 1749.7 944.442C1749.39 945.25 1748.74 945.653 1747.73 945.653C1745.81 945.653 1742.38 942.222 1737.43 935.36C1732.49 928.498 1727.39 925.067 1722.15 925.067C1719.32 925.067 1712.71 930.517 1702.32 941.415C1692.02 952.313 1680.77 957.763 1668.56 957.763C1660.39 957.763 1653.78 953.676 1648.73 945.502C1643.69 937.227 1641.17 927.439 1641.17 916.137ZM1772.1 949.135C1770.48 946.511 1769.68 936.924 1769.68 920.375C1769.68 901 1770.08 887.528 1770.89 879.96C1771.69 872.291 1772.5 865.176 1773.31 858.617C1774.12 852.058 1777.5 848.778 1783.45 848.778C1788.39 848.778 1791.67 851.2 1793.29 856.044C1791.57 872.493 1790.36 885.712 1789.66 895.702C1789.05 905.692 1788.75 913.614 1788.75 919.467C1790.16 919.467 1793.39 913.16 1798.44 900.546C1808.12 883.593 1818.42 875.116 1829.31 875.116C1838.8 875.116 1845.86 878.547 1850.51 885.409C1855.15 892.271 1857.87 903.422 1858.68 918.861C1858.68 927.842 1858.12 936.622 1857.01 945.199C1855.9 953.777 1853.89 958.469 1850.96 959.276C1846.92 959.276 1844.65 956.955 1844.15 952.313C1844.15 948.58 1844.05 943.635 1843.85 937.479C1843.74 931.324 1843.19 922.696 1842.18 911.596C1841.17 900.395 1836.73 894.289 1828.86 893.28C1822.3 893.28 1814.73 903.271 1806.16 923.251C1797.58 943.131 1788.29 953.07 1778.3 953.07C1775.78 953.07 1773.71 951.758 1772.1 949.135ZM1882.6 934.906C1882.6 913.008 1887.59 895.652 1897.58 882.836C1907.57 869.919 1918.72 863.461 1931.03 863.461C1942.54 863.461 1951.82 866.438 1958.88 872.392C1965.95 878.345 1969.48 885.561 1969.48 894.037C1969.48 900.294 1968.42 907.206 1966.3 914.774C1964.28 922.343 1961 928.095 1956.46 932.03C1951.92 935.865 1947.58 937.782 1943.45 937.782C1942.94 937.782 1942.69 937.53 1942.69 937.025C1942.69 936.42 1942.99 935.562 1943.6 934.452C1946.93 927.489 1949.1 921.132 1950.11 915.38C1951.22 909.628 1951.77 905.188 1951.77 902.06C1951.77 893.987 1950.66 886.923 1948.44 880.868C1946.32 874.813 1942.64 871.786 1937.39 871.786C1926.79 871.786 1918.52 877.942 1912.57 890.253C1906.71 902.463 1903.79 914.32 1903.79 925.824C1903.79 934.805 1908.78 939.296 1918.77 939.296C1920.69 939.296 1922.51 939.195 1924.22 938.993C1926.04 938.791 1927.6 938.69 1928.91 938.69C1946.07 938.69 1958.88 950.295 1967.36 973.505C1970.99 987.229 1972.81 1001.05 1972.81 1014.98C1972.81 1030.12 1969.73 1044.34 1963.58 1057.67C1957.42 1070.99 1950.21 1077.65 1941.93 1077.65C1934.06 1077.65 1925.99 1074.52 1917.71 1068.26C1909.54 1062 1905.45 1054.13 1905.45 1044.65C1905.45 1030.62 1909.64 1018.76 1918.02 1009.08C1926.39 999.49 1932.7 994.696 1936.94 994.696C1937.24 994.696 1937.39 994.898 1937.39 995.302C1937.39 996.916 1935.83 1000.85 1932.7 1007.11C1929.67 1013.36 1927.2 1019.32 1925.28 1024.97C1923.36 1030.62 1922.41 1036.42 1922.41 1042.38C1922.41 1048.73 1924.17 1054.28 1927.7 1059.03C1931.24 1063.87 1935.42 1066.29 1940.27 1066.29C1943.6 1066.29 1946.47 1062 1948.89 1053.43C1951.32 1044.95 1952.53 1035.87 1952.53 1026.18C1952.53 1010.84 1950.91 994.394 1947.68 976.835C1944.66 957.763 1936.58 948.227 1923.46 948.227C1919.63 948.227 1914.99 948.63 1909.54 949.438C1904.09 950.245 1899.45 950.648 1895.61 950.648C1886.93 950.648 1882.6 945.401 1882.6 934.906ZM1994.46 880.414C1996.68 871.635 1999.91 867.245 2004.14 867.245C2008.48 867.144 2012.27 867.094 2015.5 867.094C2018.22 867.094 2019.58 870.878 2019.58 878.446C2018.78 900.546 2017.67 918.559 2016.25 932.484C2014.94 946.41 2012.92 953.373 2010.2 953.373V953.222C2007.47 953.222 2004.55 952.313 2001.42 950.497C1999.4 949.488 1998.39 940.103 1998.39 922.343C1998.39 913.059 1998.8 896.762 1999.6 873.451L1994.46 880.414ZM1999.3 831.371C1999.3 829.353 2000.51 827.032 2002.93 824.408C2005.35 821.785 2008.13 820.473 2011.26 820.473C2013.68 820.473 2016.35 821.532 2019.28 823.651C2022.31 825.67 2023.82 827.991 2023.82 830.614C2023.82 832.834 2022.61 835.307 2020.19 838.031C2017.77 840.756 2014.99 842.118 2011.86 842.118C2009.44 842.118 2006.72 841.008 2003.69 838.788C2000.76 836.568 1999.3 834.096 1999.3 831.371ZM2134.47 913.261C2134.47 903.371 2136.59 890.707 2140.83 875.268C2145.07 859.828 2149.41 852.108 2153.85 852.108C2160.51 852.108 2163.84 853.975 2163.84 857.709C2163.84 862.855 2162.02 869.869 2158.39 878.749C2154.85 887.629 2152.89 899.385 2152.48 914.018C2153.39 933.897 2159.6 943.837 2171.1 943.837C2181.29 943.837 2190.22 933.14 2197.89 911.747C2205.56 890.354 2212.48 879.254 2218.63 878.446C2226.5 878.446 2230.44 884.804 2230.44 897.519C2230.44 902.362 2229.98 907.458 2229.08 912.807C2228.27 918.155 2227.86 922.746 2227.86 926.581C2227.86 929.911 2228.22 934.957 2228.92 941.718C2229.63 948.378 2229.98 952.515 2229.98 954.13C2229.98 957.763 2227.76 959.579 2223.32 959.579C2221.51 959.579 2219.29 956.451 2216.66 950.194C2214.04 943.837 2212.73 936.672 2212.73 928.7C2212.73 921.838 2213.18 915.632 2214.09 910.082C2209.75 927.136 2203.8 939.851 2196.23 948.227C2188.66 956.501 2180.13 960.639 2170.65 960.639C2160.66 960.639 2152.13 957.258 2145.07 950.497C2138 943.736 2134.47 931.324 2134.47 913.261ZM2247.39 903.271C2247.39 881.171 2258.19 867.043 2279.78 860.888C2272.11 870.071 2268.28 883.189 2268.28 900.243C2268.28 908.72 2269.84 915.329 2272.97 920.072C2276.1 924.815 2279.99 927.187 2284.63 927.187C2290.88 926.985 2297.44 919.87 2304.3 905.844C2311.17 891.817 2317.98 882.18 2324.74 876.933C2331.5 871.685 2337.96 869.062 2344.11 869.062C2349.87 869.465 2353.45 874.158 2354.86 883.139C2356.27 892.12 2356.98 900.899 2356.98 909.477C2356.98 923.1 2353.6 940.002 2346.84 960.185C2340.08 980.468 2336.7 1006.25 2336.7 1037.53C2337.2 1054.08 2339.42 1067.15 2343.36 1076.74C2325.19 1060.79 2316.11 1041.47 2316.11 1018.76C2316.72 998.279 2320.7 976.633 2328.07 953.827C2335.44 931.021 2339.12 911.747 2339.12 896.005C2339.12 891.464 2338.72 887.932 2337.91 885.409C2327.62 910.435 2318.48 926.026 2310.51 932.182C2302.54 938.337 2296.28 941.516 2291.74 941.718C2287.2 941.92 2284.73 942.021 2284.32 942.021C2273.02 942.021 2264.14 938.337 2257.68 930.971C2251.23 923.604 2247.84 914.472 2247.54 903.573C2247.44 903.472 2247.39 903.371 2247.39 903.271ZM2378.47 905.39C2378.47 863.209 2385.34 810.836 2399.06 748.271C2403.8 742.619 2410.56 739.794 2419.34 739.794C2405.82 811.845 2399.06 867.8 2399.06 907.66C2399.06 915.834 2400.12 924.159 2402.24 932.636C2404.36 941.112 2408.85 945.351 2415.71 945.351C2420.55 945.351 2425.8 943.938 2431.45 941.112C2437.1 938.287 2440.43 936.874 2441.44 936.874C2443.87 936.874 2445.08 937.278 2445.08 938.085C2445.08 940.507 2441.39 944.695 2434.03 950.648C2426.66 956.602 2417.78 959.579 2407.39 959.579C2395.78 959.579 2388.06 953.625 2384.23 941.718C2380.39 929.81 2378.47 917.701 2378.47 905.39ZM2445.83 916.137C2446.24 902.715 2451.84 888.184 2462.63 872.543C2473.43 856.902 2488.67 849.081 2508.35 849.081C2515.92 849.081 2521.77 851.957 2525.91 857.709C2530.14 863.36 2532.26 871.181 2532.26 881.171C2532.26 892.271 2530.95 898.982 2528.33 901.303C2525.81 903.624 2522.58 904.784 2518.64 904.784C2516.22 904.784 2514.86 897.266 2514.55 882.23C2513.24 870.626 2509.31 864.823 2502.75 864.823C2494.78 864.823 2486.75 870.676 2478.68 882.382C2470.71 894.088 2466.72 904.734 2466.72 914.32C2466.82 928.751 2470.86 936.168 2478.83 936.571C2484.18 936.571 2491.7 931.677 2501.38 921.889C2511.07 912.1 2519.7 907.206 2527.27 907.206C2535.54 907.61 2542.2 912.554 2547.25 922.04C2552.29 931.425 2554.82 938.135 2554.82 942.172C2554.82 942.878 2554.67 943.635 2554.36 944.442C2554.06 945.25 2553.4 945.653 2552.4 945.653C2550.48 945.653 2547.05 942.222 2542.1 935.36C2537.16 928.498 2532.06 925.067 2526.81 925.067C2523.99 925.067 2517.38 930.517 2506.99 941.415C2496.69 952.313 2485.44 957.763 2473.23 957.763C2465.06 957.763 2458.45 953.676 2453.4 945.502C2448.36 937.227 2445.83 927.439 2445.83 916.137ZM2574.19 856.044C2574.7 852.815 2577.07 851.2 2581.31 851.2C2590.89 851.2 2595.69 861.493 2595.69 882.079C2607.59 866.539 2619.65 858.567 2631.86 858.163C2639.53 858.163 2644.07 859.172 2645.49 861.19C2647 863.209 2647.76 864.823 2647.76 866.034C2647.76 868.658 2642.96 871.332 2633.38 874.057C2623.79 876.781 2615.26 883.391 2607.8 893.886C2600.33 904.381 2596.39 916.288 2595.99 929.608C2595.59 942.929 2594.12 950.648 2591.6 952.768C2589.08 954.887 2586.15 955.946 2582.82 955.946C2579.09 955.946 2577.22 951.405 2577.22 942.323C2577.22 935.764 2577.57 929.507 2578.28 923.554C2578.99 917.6 2579.34 911.747 2579.34 905.995C2579.34 889.849 2578.48 878.144 2576.77 870.878C2575.05 863.511 2574.19 858.567 2574.19 856.044Z" fill="url(#paint0_linear)"/>
<path d="M188.032 247.379C202.432 247.379 213.432 251.779 221.032 260.579C228.632 269.179 232.432 281.379 232.432 297.179C232.432 306.379 231.332 316.379 229.132 327.179C227.132 337.979 223.532 349.279 218.332 361.079C213.132 372.879 206.032 384.979 197.032 397.379C188.032 409.779 176.632 422.179 162.832 434.579C167.232 438.779 172.632 442.779 179.032 446.579C185.432 450.179 191.632 453.679 197.632 457.079C203.632 460.479 208.732 463.779 212.932 466.979C217.332 469.979 219.532 473.179 219.532 476.579C219.532 478.779 218.032 480.379 215.032 481.379C212.232 482.579 208.632 483.179 204.232 483.179C202.632 483.179 200.032 482.879 196.432 482.279C192.832 481.679 188.632 480.679 183.832 479.279C176.832 477.079 169.032 474.079 160.432 470.279C152.032 466.479 144.132 461.379 136.732 454.979C132.132 458.179 127.132 461.379 121.732 464.579C116.332 467.579 110.632 470.379 104.632 472.979C98.632 475.379 92.232 477.379 85.432 478.979C78.632 480.379 71.532 481.079 64.132 481.079C57.132 481.079 51.032 479.779 45.832 477.179C40.832 474.379 36.632 470.879 33.232 466.679C29.832 462.279 27.332 457.379 25.732 451.979C24.132 446.579 23.332 441.279 23.332 436.079C23.332 426.479 24.532 416.479 26.932 406.079C29.532 395.479 32.932 384.779 37.132 373.979C41.332 363.179 46.032 352.579 51.232 342.179C56.632 331.779 62.032 322.079 67.432 313.079C73.032 304.079 78.432 295.979 83.632 288.779C88.832 281.379 93.532 275.379 97.732 270.779C99.932 269.379 102.332 268.279 104.932 267.479C107.732 266.479 110.432 266.079 113.032 266.279C115.832 266.479 118.332 267.479 120.532 269.279C122.732 271.079 124.432 274.079 125.632 278.279C129.232 274.479 133.232 270.779 137.632 267.179C142.232 263.379 147.132 260.079 152.332 257.279C157.532 254.279 163.132 251.879 169.132 250.079C175.132 248.279 181.432 247.379 188.032 247.379ZM182.032 271.079C175.032 271.079 167.932 272.279 160.732 274.679C153.732 277.079 147.232 279.879 141.232 283.079C135.232 286.079 130.032 289.079 125.632 292.079C121.232 295.079 118.132 297.279 116.332 298.679C109.932 306.679 103.232 316.279 96.232 327.479C89.232 338.679 82.732 350.479 76.732 362.879C70.932 375.279 66.032 387.879 62.032 400.679C58.232 413.279 56.332 424.979 56.332 435.779C56.332 440.379 57.032 443.679 58.432 445.679C59.832 447.679 61.532 448.679 63.532 448.679C66.732 448.679 70.632 448.279 75.232 447.479C79.832 446.479 84.532 445.179 89.332 443.579C94.332 441.779 99.132 439.779 103.732 437.579C108.532 435.379 112.732 433.079 116.332 430.679C113.932 426.079 112.132 421.479 110.932 416.879C109.732 412.279 108.832 408.079 108.232 404.279C107.432 399.879 107.032 395.679 107.032 391.679C111.432 389.079 116.832 387.879 123.232 388.079C128.232 388.479 133.532 389.879 139.132 392.279C139.332 395.479 139.532 398.279 139.732 400.679C139.932 402.879 140.832 405.479 142.432 408.479C153.632 397.879 163.132 386.879 170.932 375.479C178.732 364.079 185.032 353.279 189.832 343.079C194.632 332.879 198.032 323.679 200.032 315.479C202.232 307.079 203.332 300.679 203.332 296.279C203.332 286.279 201.532 279.579 197.932 276.179C194.532 272.779 189.232 271.079 182.032 271.079ZM411.202 417.779C405.202 417.779 397.802 417.779 389.002 417.779C380.202 417.779 371.102 417.979 361.702 418.379C352.502 418.779 343.502 419.379 334.702 420.179C325.902 420.979 318.502 422.079 312.502 423.479C311.502 425.079 309.902 427.679 307.702 431.279C305.702 434.879 303.302 438.879 300.502 443.279C297.902 447.679 295.102 452.279 292.102 457.079C289.102 461.679 286.202 465.879 283.402 469.679C280.802 473.479 278.302 476.679 275.902 479.279C273.502 481.679 271.702 482.879 270.502 482.879C268.902 482.879 268.002 480.879 267.802 476.879C267.602 472.879 267.902 468.179 268.702 462.779C269.502 457.179 270.602 451.479 272.002 445.679C273.602 439.679 275.302 434.779 277.102 430.979L267.802 432.779C263.402 429.979 260.202 426.179 258.202 421.379C256.202 416.379 256.902 409.679 260.302 401.279C262.902 400.479 265.902 399.679 269.302 398.879C272.102 398.079 275.402 397.279 279.202 396.479C283.202 395.679 287.502 394.779 292.102 393.779C295.702 384.579 300.802 374.579 307.402 363.779C314.002 352.779 321.402 341.879 329.602 331.079C337.802 320.079 346.502 309.579 355.702 299.579C365.102 289.379 374.302 280.379 383.302 272.579C392.502 264.779 401.202 258.579 409.402 253.979C417.802 249.179 425.202 246.779 431.602 246.779C433.402 246.779 434.902 247.279 436.102 248.279C437.302 249.279 438.302 250.379 439.102 251.579C439.902 252.979 440.502 254.479 440.902 256.079C441.502 257.079 442.102 260.479 442.702 266.279C443.502 272.079 444.302 279.279 445.102 287.879C445.902 296.279 446.602 305.579 447.202 315.779C447.802 325.779 448.202 335.679 448.402 345.479C448.602 355.079 448.502 364.079 448.102 372.479C447.902 380.679 447.302 387.079 446.302 391.679C449.502 392.279 452.702 393.179 455.902 394.379C459.102 395.579 462.002 396.879 464.602 398.279C467.202 399.679 469.302 401.179 470.902 402.779C472.502 404.179 473.302 405.379 473.302 406.379C473.302 407.979 472.302 409.379 470.302 410.579C468.302 411.779 465.802 412.879 462.802 413.879C460.002 414.679 456.902 415.379 453.502 415.979C450.102 416.379 447.002 416.679 444.202 416.879C444.002 419.079 443.402 422.279 442.402 426.479C441.402 430.679 440.102 435.279 438.502 440.279C437.102 445.079 435.402 450.079 433.402 455.279C431.602 460.279 429.602 464.879 427.402 469.079C425.402 473.279 423.202 476.679 420.802 479.279C418.602 481.879 416.502 483.179 414.502 483.179C412.702 483.179 411.402 481.879 410.602 479.279C409.802 476.679 409.302 473.379 409.102 469.379C408.902 465.379 408.902 460.879 409.102 455.879C409.502 450.879 409.802 445.979 410.002 441.179C410.402 436.379 410.702 431.879 410.902 427.679C411.302 423.479 411.402 420.179 411.202 417.779ZM414.802 387.779C415.602 381.179 416.102 373.679 416.302 365.279C416.702 356.879 416.802 348.379 416.602 339.779C416.402 330.979 416.002 322.379 415.402 313.979C414.802 305.579 414.002 298.079 413.002 291.479C406.002 296.279 398.602 302.579 390.802 310.379C383.002 318.179 375.402 326.579 368.002 335.579C360.602 344.579 353.602 353.679 347.002 362.879C340.602 372.079 335.302 380.479 331.102 388.079C349.502 386.679 365.402 386.179 378.802 386.579C392.402 386.979 404.402 387.379 414.802 387.779ZM715.216 469.079C720.016 471.679 723.416 473.979 725.416 475.979C727.616 477.779 728.716 479.279 728.716 480.479C728.716 482.679 726.816 484.079 723.016 484.679C719.216 485.479 714.716 485.879 709.516 485.879C701.916 485.879 693.416 484.879 684.016 482.879C674.616 481.079 664.916 478.579 654.916 475.379C644.916 471.979 634.816 468.079 624.616 463.679C614.416 459.079 604.716 454.179 595.516 448.979C586.316 443.579 577.916 438.079 570.316 432.479C562.716 426.679 556.416 420.879 551.416 415.079C549.816 417.879 548.016 421.179 546.016 424.979C544.216 428.779 542.216 432.879 540.016 437.279C538.016 441.679 535.916 446.279 533.716 451.079C531.716 455.679 529.716 460.179 527.716 464.579C524.916 470.779 522.616 475.179 520.816 477.779C519.016 480.179 517.316 481.379 515.716 481.379C514.516 481.379 513.416 480.079 512.416 477.479C511.616 474.879 511.216 471.979 511.216 468.779C511.216 453.779 513.416 438.079 517.816 421.679C522.216 405.279 527.816 389.079 534.616 373.079C541.616 356.879 549.216 341.379 557.416 326.579C565.616 311.779 573.616 298.579 581.416 286.979L563.116 283.079C560.716 280.479 559.016 277.679 558.016 274.679C557.016 271.679 556.716 268.779 557.116 265.979C557.716 262.979 559.016 260.279 561.016 257.879C563.216 255.279 566.216 253.179 570.016 251.579C571.816 251.779 573.716 252.079 575.716 252.479C577.716 252.679 579.916 252.979 582.316 253.379C584.916 253.779 587.916 254.279 591.316 254.879C594.716 255.479 598.816 256.179 603.616 256.979C607.016 254.379 610.616 253.579 614.416 254.579C618.416 255.579 621.616 258.279 624.016 262.679C635.416 265.479 647.016 268.979 658.816 273.179C670.816 277.179 683.416 282.979 696.616 290.579C699.816 292.179 703.116 294.479 706.516 297.479C710.116 300.279 713.316 303.579 716.116 307.379C718.916 311.179 721.216 315.279 723.016 319.679C725.016 324.079 726.016 328.679 726.016 333.479C726.016 342.479 723.716 350.279 719.116 356.879C714.516 363.479 708.316 369.179 700.516 373.979C692.916 378.579 684.116 382.379 674.116 385.379C664.116 388.379 653.616 390.679 642.616 392.279C631.616 393.879 620.516 394.979 609.316 395.579C598.116 396.179 587.516 396.479 577.516 396.479C582.116 401.679 588.016 406.779 595.216 411.779C602.416 416.579 610.216 421.279 618.616 425.879C627.216 430.279 636.016 434.579 645.016 438.779C654.216 442.979 663.116 446.979 671.716 450.779C680.516 454.379 688.616 457.779 696.016 460.979C703.616 463.979 710.016 466.679 715.216 469.079ZM566.416 381.779C570.016 380.979 575.716 379.679 583.516 377.879C591.316 376.079 599.916 373.979 609.316 371.579C618.716 368.979 628.416 366.279 638.416 363.479C648.616 360.479 657.816 357.379 666.016 354.179C674.216 350.979 680.916 347.679 686.116 344.279C691.516 340.879 694.216 337.579 694.216 334.379C694.216 331.579 692.816 328.779 690.016 325.979C687.416 323.179 683.916 320.479 679.516 317.879C675.116 315.079 670.116 312.479 664.516 310.079C658.916 307.479 653.216 305.179 647.416 303.179C641.616 301.179 636.016 299.379 630.616 297.779C625.216 296.179 620.516 294.979 616.516 294.179C612.716 299.779 608.416 306.179 603.616 313.379C598.816 320.579 594.016 328.079 589.216 335.879C584.616 343.479 580.216 351.279 576.016 359.279C572.016 367.079 568.816 374.579 566.416 381.779ZM881.461 250.979C884.061 250.379 886.961 250.079 890.161 250.079C901.761 250.079 911.361 252.779 918.961 258.179C926.561 263.379 932.461 269.879 936.661 277.679C941.061 285.279 944.061 293.479 945.661 302.279C947.461 310.879 948.361 318.579 948.361 325.379C948.361 335.979 946.661 348.379 943.261 362.579C940.061 376.579 933.761 390.779 924.361 405.179C918.561 413.979 911.361 423.079 902.761 432.479C894.161 441.879 884.561 450.479 873.961 458.279C863.361 465.879 852.061 472.179 840.061 477.179C828.061 482.179 815.861 484.679 803.461 484.679C796.261 484.679 789.861 483.279 784.261 480.479C778.861 477.679 774.261 473.979 770.461 469.379C766.661 464.779 763.761 459.679 761.761 454.079C759.961 448.279 759.061 442.379 759.061 436.379C759.061 426.179 760.361 415.779 762.961 405.179C765.561 394.379 768.561 384.479 771.961 375.479C781.361 350.879 790.561 330.679 799.561 314.879C808.561 299.079 816.861 286.279 824.461 276.479C832.061 266.679 838.761 259.479 844.561 254.879C850.561 250.079 855.261 246.479 858.661 244.079C860.661 243.479 862.961 243.179 865.561 243.179C868.161 242.979 870.661 243.179 873.061 243.779C875.461 244.379 877.461 245.279 879.061 246.479C880.661 247.679 881.461 249.179 881.461 250.979ZM801.061 452.579C809.661 452.579 818.461 450.779 827.461 447.179C836.661 443.579 845.561 438.779 854.161 432.779C862.761 426.579 870.861 419.379 878.461 411.179C886.061 402.979 892.761 394.179 898.561 384.779C904.561 375.179 909.261 365.379 912.661 355.379C916.061 345.179 917.761 335.179 917.761 325.379C917.761 322.579 917.561 318.379 917.161 312.779C916.961 307.179 915.861 301.579 913.861 295.979C912.061 290.179 908.961 285.179 904.561 280.979C900.161 276.579 893.861 274.379 885.661 274.379C880.061 274.379 874.361 275.179 868.561 276.779C865.361 279.979 860.961 284.979 855.361 291.779C849.761 298.579 843.761 306.879 837.361 316.679C830.961 326.279 824.561 337.179 818.161 349.379C811.761 361.579 806.261 374.579 801.661 388.379C799.061 396.179 796.761 403.879 794.761 411.479C792.761 418.879 791.761 426.679 791.761 434.879C791.761 441.279 792.361 445.879 793.561 448.679C794.761 451.279 797.261 452.579 801.061 452.579ZM1183.38 469.079C1188.18 471.679 1191.58 473.979 1193.58 475.979C1195.78 477.779 1196.88 479.279 1196.88 480.479C1196.88 482.679 1194.98 484.079 1191.18 484.679C1187.38 485.479 1182.88 485.879 1177.68 485.879C1170.08 485.879 1161.58 484.879 1152.18 482.879C1142.78 481.079 1133.08 478.579 1123.08 475.379C1113.08 471.979 1102.98 468.079 1092.78 463.679C1082.58 459.079 1072.88 454.179 1063.68 448.979C1054.48 443.579 1046.08 438.079 1038.48 432.479C1030.88 426.679 1024.58 420.879 1019.58 415.079C1017.98 417.879 1016.18 421.179 1014.18 424.979C1012.38 428.779 1010.38 432.879 1008.18 437.279C1006.18 441.679 1004.08 446.279 1001.88 451.079C999.88 455.679 997.88 460.179 995.88 464.579C993.08 470.779 990.78 475.179 988.98 477.779C987.18 480.179 985.48 481.379 983.88 481.379C982.68 481.379 981.58 480.079 980.58 477.479C979.78 474.879 979.38 471.979 979.38 468.779C979.38 453.779 981.58 438.079 985.98 421.679C990.38 405.279 995.98 389.079 1002.78 373.079C1009.78 356.879 1017.38 341.379 1025.58 326.579C1033.78 311.779 1041.78 298.579 1049.58 286.979L1031.28 283.079C1028.88 280.479 1027.18 277.679 1026.18 274.679C1025.18 271.679 1024.88 268.779 1025.28 265.979C1025.88 262.979 1027.18 260.279 1029.18 257.879C1031.38 255.279 1034.38 253.179 1038.18 251.579C1039.98 251.779 1041.88 252.079 1043.88 252.479C1045.88 252.679 1048.08 252.979 1050.48 253.379C1053.08 253.779 1056.08 254.279 1059.48 254.879C1062.88 255.479 1066.98 256.179 1071.78 256.979C1075.18 254.379 1078.78 253.579 1082.58 254.579C1086.58 255.579 1089.78 258.279 1092.18 262.679C1103.58 265.479 1115.18 268.979 1126.98 273.179C1138.98 277.179 1151.58 282.979 1164.78 290.579C1167.98 292.179 1171.28 294.479 1174.68 297.479C1178.28 300.279 1181.48 303.579 1184.28 307.379C1187.08 311.179 1189.38 315.279 1191.18 319.679C1193.18 324.079 1194.18 328.679 1194.18 333.479C1194.18 342.479 1191.88 350.279 1187.28 356.879C1182.68 363.479 1176.48 369.179 1168.68 373.979C1161.08 378.579 1152.28 382.379 1142.28 385.379C1132.28 388.379 1121.78 390.679 1110.78 392.279C1099.78 393.879 1088.68 394.979 1077.48 395.579C1066.28 396.179 1055.68 396.479 1045.68 396.479C1050.28 401.679 1056.18 406.779 1063.38 411.779C1070.58 416.579 1078.38 421.279 1086.78 425.879C1095.38 430.279 1104.18 434.579 1113.18 438.779C1122.38 442.979 1131.28 446.979 1139.88 450.779C1148.68 454.379 1156.78 457.779 1164.18 460.979C1171.78 463.979 1178.18 466.679 1183.38 469.079ZM1034.58 381.779C1038.18 380.979 1043.88 379.679 1051.68 377.879C1059.48 376.079 1068.08 373.979 1077.48 371.579C1086.88 368.979 1096.58 366.279 1106.58 363.479C1116.78 360.479 1125.98 357.379 1134.18 354.179C1142.38 350.979 1149.08 347.679 1154.28 344.279C1159.68 340.879 1162.38 337.579 1162.38 334.379C1162.38 331.579 1160.98 328.779 1158.18 325.979C1155.58 323.179 1152.08 320.479 1147.68 317.879C1143.28 315.079 1138.28 312.479 1132.68 310.079C1127.08 307.479 1121.38 305.179 1115.58 303.179C1109.78 301.179 1104.18 299.379 1098.78 297.779C1093.38 296.179 1088.68 294.979 1084.68 294.179C1080.88 299.779 1076.58 306.179 1071.78 313.379C1066.98 320.579 1062.18 328.079 1057.38 335.879C1052.78 343.479 1048.38 351.279 1044.18 359.279C1040.18 367.079 1036.98 374.579 1034.58 381.779ZM1361.33 473.279C1353.93 477.279 1347.33 479.579 1341.53 480.179C1335.73 480.979 1330.03 481.379 1324.43 481.379C1312.63 481.379 1300.93 479.479 1289.33 475.679C1277.73 471.879 1267.33 466.279 1258.13 458.879C1248.93 451.479 1241.43 442.479 1235.63 431.879C1229.83 421.079 1226.93 408.879 1226.93 395.279C1226.93 382.479 1229.43 370.279 1234.43 358.679C1239.43 346.879 1246.23 335.779 1254.83 325.379C1263.63 314.979 1273.93 305.379 1285.72 296.579C1297.53 287.779 1310.03 279.979 1323.23 273.179C1336.63 266.379 1350.53 260.579 1364.93 255.779C1379.33 250.779 1393.53 247.079 1407.53 244.679C1411.73 245.479 1414.83 247.179 1416.83 249.779C1418.83 252.179 1419.93 254.979 1420.13 258.179C1420.33 261.179 1419.63 264.379 1418.03 267.779C1416.63 270.979 1414.43 273.779 1411.43 276.179C1409.23 276.579 1403.93 278.079 1395.53 280.679C1387.13 283.079 1377.23 286.479 1365.83 290.879C1354.63 295.279 1342.73 300.779 1330.13 307.379C1317.73 313.979 1306.23 321.679 1295.63 330.479C1285.23 339.279 1276.53 349.179 1269.53 360.179C1262.73 370.979 1259.33 382.979 1259.33 396.179C1259.33 404.379 1261.83 412.479 1266.83 420.479C1272.03 428.279 1278.63 435.379 1286.63 441.779C1294.83 447.979 1303.83 452.979 1313.63 456.779C1323.63 460.579 1333.43 462.479 1343.03 462.479C1345.23 462.479 1347.83 462.279 1350.83 461.879C1353.83 461.479 1356.73 461.079 1359.53 460.679C1362.73 460.079 1365.83 459.379 1368.83 458.579C1372.83 452.179 1376.93 444.779 1381.13 436.379C1385.53 427.779 1389.53 419.279 1393.13 410.879C1396.73 402.479 1399.63 394.579 1401.83 387.179C1404.23 379.779 1405.43 373.979 1405.43 369.779C1405.43 368.379 1405.23 367.279 1404.83 366.479C1404.43 365.479 1403.43 364.979 1401.83 364.979C1399.43 364.979 1395.13 365.879 1388.93 367.679C1382.73 369.279 1376.23 371.279 1369.43 373.679C1362.63 376.079 1356.23 378.479 1350.23 380.879C1344.43 383.079 1340.63 384.779 1338.83 385.979C1337.83 385.379 1336.33 384.379 1334.33 382.979C1332.53 381.579 1330.73 379.779 1328.93 377.579C1327.33 375.379 1326.03 372.779 1325.03 369.779C1324.23 366.579 1324.33 362.979 1325.33 358.979C1327.73 356.579 1332.23 353.879 1338.83 350.879C1345.43 347.879 1352.63 345.079 1360.43 342.479C1368.23 339.679 1375.83 337.379 1383.23 335.579C1390.83 333.779 1396.73 332.879 1400.93 332.879C1405.93 332.879 1410.63 333.879 1415.03 335.879C1419.63 337.679 1423.63 340.279 1427.03 343.679C1430.43 346.879 1433.13 350.679 1435.13 355.079C1437.13 359.479 1438.13 364.079 1438.13 368.879C1438.13 378.079 1436.63 387.279 1433.63 396.479C1430.63 405.679 1427.13 414.279 1423.13 422.279C1419.13 430.279 1415.03 437.279 1410.83 443.279C1406.83 449.279 1403.73 453.579 1401.53 456.179C1398.13 460.179 1394.53 464.079 1390.73 467.879C1386.93 471.479 1383.13 474.779 1379.33 477.779C1375.53 480.579 1372.03 482.879 1368.83 484.679C1365.63 486.479 1363.13 487.379 1361.33 487.379C1358.73 487.379 1357.43 486.379 1357.43 484.379C1357.43 483.179 1358.73 479.479 1361.33 473.279ZM1591.03 250.979C1593.63 250.379 1596.53 250.079 1599.73 250.079C1611.33 250.079 1620.93 252.779 1628.53 258.179C1636.13 263.379 1642.03 269.879 1646.23 277.679C1650.63 285.279 1653.63 293.479 1655.23 302.279C1657.03 310.879 1657.93 318.579 1657.93 325.379C1657.93 335.979 1656.23 348.379 1652.83 362.579C1649.63 376.579 1643.33 390.779 1633.93 405.179C1628.13 413.979 1620.93 423.079 1612.33 432.479C1603.73 441.879 1594.13 450.479 1583.53 458.279C1572.93 465.879 1561.63 472.179 1549.63 477.179C1537.63 482.179 1525.43 484.679 1513.03 484.679C1505.83 484.679 1499.43 483.279 1493.83 480.479C1488.43 477.679 1483.83 473.979 1480.03 469.379C1476.23 464.779 1473.33 459.679 1471.33 454.079C1469.53 448.279 1468.63 442.379 1468.63 436.379C1468.63 426.179 1469.93 415.779 1472.53 405.179C1475.13 394.379 1478.13 384.479 1481.53 375.479C1490.93 350.879 1500.13 330.679 1509.13 314.879C1518.13 299.079 1526.43 286.279 1534.03 276.479C1541.63 266.679 1548.33 259.479 1554.13 254.879C1560.13 250.079 1564.83 246.479 1568.23 244.079C1570.23 243.479 1572.53 243.179 1575.13 243.179C1577.73 242.979 1580.23 243.179 1582.63 243.779C1585.03 244.379 1587.03 245.279 1588.63 246.479C1590.23 247.679 1591.03 249.179 1591.03 250.979ZM1510.63 452.579C1519.23 452.579 1528.03 450.779 1537.03 447.179C1546.23 443.579 1555.13 438.779 1563.73 432.779C1572.33 426.579 1580.43 419.379 1588.03 411.179C1595.63 402.979 1602.33 394.179 1608.13 384.779C1614.13 375.179 1618.83 365.379 1622.23 355.379C1625.63 345.179 1627.33 335.179 1627.33 325.379C1627.33 322.579 1627.13 318.379 1626.73 312.779C1626.53 307.179 1625.43 301.579 1623.43 295.979C1621.63 290.179 1618.53 285.179 1614.13 280.979C1609.73 276.579 1603.43 274.379 1595.23 274.379C1589.63 274.379 1583.93 275.179 1578.13 276.779C1574.93 279.979 1570.53 284.979 1564.93 291.779C1559.33 298.579 1553.33 306.879 1546.93 316.679C1540.53 326.279 1534.13 337.179 1527.73 349.379C1521.33 361.579 1515.83 374.579 1511.23 388.379C1508.63 396.179 1506.33 403.879 1504.33 411.479C1502.33 418.879 1501.33 426.679 1501.33 434.879C1501.33 441.279 1501.93 445.879 1503.13 448.679C1504.33 451.279 1506.83 452.579 1510.63 452.579ZM1731.25 400.679C1730.25 403.479 1728.85 407.379 1727.05 412.379C1725.45 417.379 1723.45 422.779 1721.05 428.579C1718.85 434.379 1716.45 440.379 1713.85 446.579C1711.45 452.579 1709.05 458.079 1706.65 463.079C1704.45 468.079 1702.35 472.179 1700.35 475.379C1698.35 478.379 1696.75 479.879 1695.55 479.879C1694.35 479.879 1693.35 479.079 1692.55 477.479C1691.95 475.679 1691.45 473.479 1691.05 470.879C1690.85 468.279 1690.75 465.479 1690.75 462.479C1690.75 459.279 1690.75 456.279 1690.75 453.479C1690.75 447.879 1690.95 442.579 1691.35 437.579C1691.75 432.379 1692.35 427.179 1693.15 421.979C1694.15 416.579 1695.35 410.879 1696.75 404.879C1698.15 398.879 1699.75 392.079 1701.55 384.479C1703.35 377.079 1705.85 368.879 1709.05 359.879C1712.45 350.879 1716.15 341.579 1720.15 331.979C1724.15 322.379 1728.25 313.079 1732.45 304.079C1736.65 294.879 1740.55 286.479 1744.15 278.879C1747.95 271.279 1751.15 264.979 1753.75 259.979C1756.35 254.979 1758.15 251.779 1759.15 250.379C1764.55 249.179 1769.95 249.579 1775.35 251.579C1780.75 253.579 1784.85 258.479 1787.65 266.279C1784.45 273.079 1780.45 280.879 1775.65 289.679C1771.05 298.479 1766.45 307.479 1761.85 316.679C1757.25 325.679 1753.05 334.479 1749.25 343.079C1745.45 351.679 1742.75 359.279 1741.15 365.879C1745.75 365.879 1751.05 365.879 1757.05 365.879C1763.25 365.879 1769.55 365.979 1775.95 366.179C1782.55 366.179 1789.05 366.379 1795.45 366.779C1802.05 366.979 1808.15 367.279 1813.75 367.679C1815.35 359.879 1817.35 351.079 1819.75 341.279C1822.15 331.479 1824.95 321.379 1828.15 310.979C1831.35 300.579 1834.75 290.179 1838.35 279.779C1842.15 269.379 1846.15 259.579 1850.35 250.379C1855.95 248.779 1861.45 248.779 1866.85 250.379C1872.45 251.979 1877.15 255.979 1880.95 262.379C1878.75 268.579 1875.95 276.279 1872.55 285.479C1869.15 294.679 1865.75 304.379 1862.35 314.579C1858.95 324.779 1855.85 334.879 1853.05 344.879C1850.25 354.879 1848.25 363.679 1847.05 371.279C1847.25 371.279 1848.55 371.579 1850.95 372.179C1853.35 372.779 1856.25 373.679 1859.65 374.879C1863.25 376.079 1867.05 377.479 1871.05 379.079C1875.25 380.479 1879.05 382.079 1882.45 383.879C1885.85 385.479 1888.65 387.179 1890.85 388.979C1893.25 390.579 1894.45 392.179 1894.45 393.779C1894.45 394.379 1894.15 395.079 1893.55 395.879C1893.15 396.679 1891.85 397.479 1889.65 398.279C1887.65 398.879 1884.55 399.379 1880.35 399.779C1876.35 400.179 1870.65 400.379 1863.25 400.379H1849.75C1847.55 400.379 1845.25 400.279 1842.85 400.079C1842.25 403.279 1841.35 407.679 1840.15 413.279C1838.95 418.679 1837.55 424.579 1835.95 430.979C1834.35 437.179 1832.55 443.479 1830.55 449.879C1828.75 456.279 1826.85 462.079 1824.85 467.279C1823.05 472.479 1821.25 476.679 1819.45 479.879C1817.65 483.279 1815.95 484.979 1814.35 484.979C1812.15 484.979 1810.35 482.979 1808.95 478.979C1807.75 474.979 1806.95 469.579 1806.55 462.779C1806.55 453.379 1806.65 444.579 1806.85 436.379C1807.05 429.379 1807.35 422.379 1807.75 415.379C1808.15 408.179 1808.65 402.779 1809.25 399.179C1803.85 398.979 1797.55 398.879 1790.35 398.879C1783.15 398.679 1775.85 398.679 1768.45 398.879C1761.05 398.879 1753.95 399.079 1747.15 399.479C1740.55 399.679 1735.25 400.079 1731.25 400.679Z" fill="url(#paint1_linear)"/>
<path fill-rule="evenodd" clip-rule="evenodd" d="M2170 66L2418 0V256H2552V616H2532V276H2418V652H2666V672H2398V276H2266V450.936L2342 471.987V672H2322V487.263L2266 471.992V672H2246V466.539L2190 451.268V672H0V652H2170V445.814L2066 417.454V616.5H2046V390L2170 424.346V66ZM2398 256V26.2976L2190 81.3921V429.886L2246 445.397V256H2398Z" fill="url(#paint2_linear)"/>
<defs>
<linearGradient id="paint0_linear" x1="2651" y1="1072.58" x2="8.00004" y2="1072.58" gradientUnits="userSpaceOnUse">
<stop stop-color="#C2A22D"/>
<stop offset="0.0405101" stop-color="#F6F97E"/>
<stop offset="0.0825206" stop-color="#BF7718"/>
<stop offset="0.130208" stop-color="#F6F97E"/>
<stop offset="0.166667" stop-color="#BF7718"/>
<stop offset="0.1875" stop-color="#BF7718"/>
<stop offset="0.192708" stop-color="#BF7718"/>
<stop offset="0.239583" stop-color="#F6F97E"/>
<stop offset="0.322917" stop-color="#BF7718"/>
<stop offset="0.604167" stop-color="#F6F97E"/>
<stop offset="1" stop-color="#9E6B15"/>
</linearGradient>
<linearGradient id="paint1_linear" x1="1903" y1="582.579" x2="8.00003" y2="582.579" gradientUnits="userSpaceOnUse">
<stop stop-color="#C2A22D"/>
<stop offset="0.0405101" stop-color="#F6F97E"/>
<stop offset="0.0825206" stop-color="#BF7718"/>
<stop offset="0.130208" stop-color="#F6F97E"/>
<stop offset="0.166667" stop-color="#BF7718"/>
<stop offset="0.1875" stop-color="#BF7718"/>
<stop offset="0.192708" stop-color="#BF7718"/>
<stop offset="0.239583" stop-color="#F6F97E"/>
<stop offset="0.322917" stop-color="#BF7718"/>
<stop offset="0.604167" stop-color="#F6F97E"/>
<stop offset="1" stop-color="#9E6B15"/>
</linearGradient>
<linearGradient id="paint2_linear" x1="2666" y1="672" x2="3.97265e-05" y2="672" gradientUnits="userSpaceOnUse">
<stop stop-color="#C2A22D"/>
<stop offset="0.0405101" stop-color="#F6F97E"/>
<stop offset="0.0825206" stop-color="#BF7718"/>
<stop offset="0.130208" stop-color="#F6F97E"/>
<stop offset="0.166667" stop-color="#BF7718"/>
<stop offset="0.1875" stop-color="#BF7718"/>
<stop offset="0.192708" stop-color="#BF7718"/>
<stop offset="0.239583" stop-color="#F6F97E"/>
<stop offset="0.322917" stop-color="#BF7718"/>
<stop offset="0.604167" stop-color="#F6F97E"/>
<stop offset="1" stop-color="#9E6B15"/>
</linearGradient>
</defs>
</svg>
