<svg width="12" height="78" viewBox="0 0 12 78" fill="none" xmlns="http://www.w3.org/2000/svg">
<path d="M6 2L6.70711 1.29289L6 0.585786L5.29289 1.29289L6 2ZM5 77C5 77.5523 5.44772 78 6 78C6.55228 78 7 77.5523 7 77H5ZM10.2929 7.70711C10.6834 8.09763 11.3166 8.09763 11.7071 7.70711C12.0976 7.31658 12.0976 6.68342 11.7071 6.29289L10.2929 7.70711ZM0.292893 6.29289C-0.0976311 6.68342 -0.0976311 7.31658 0.292893 7.70711C0.683417 8.09763 1.31658 8.09763 1.70711 7.70711L0.292893 6.29289ZM5 2V77H7V2H5ZM5.29289 2.70711L10.2929 7.70711L11.7071 6.29289L6.70711 1.29289L5.29289 2.70711ZM5.29289 1.29289L0.292893 6.29289L1.70711 7.70711L6.70711 2.70711L5.29289 1.29289Z" fill="#FF9800"/>
</svg>
