<svg width="20" height="10" viewBox="0 0 20 10" fill="none" xmlns="http://www.w3.org/2000/svg">
<path d="M19.7708 5.57085C19.7706 5.57109 19.7704 5.57137 19.7701 5.57161L15.688 9.76516C15.3821 10.0793 14.8875 10.0781 14.5831 9.76242C14.2787 9.44674 14.2799 8.93613 14.5857 8.62194L17.3265 5.80645H0.78125C0.349765 5.80645 0 5.4454 0 5C0 4.5546 0.349765 4.19355 0.78125 4.19355H17.3264L14.5857 1.37806C14.2799 1.06387 14.2787 0.553264 14.5831 0.237577C14.8875 -0.0781889 15.3822 -0.079277 15.688 0.234836L19.7702 4.42839C19.7704 4.42863 19.7706 4.42891 19.7709 4.42915C20.0769 4.74439 20.0759 5.25665 19.7708 5.57085Z" fill="black"/>
</svg>
