<svg width="26" height="16" viewBox="0 0 26 16" fill="none" xmlns="http://www.w3.org/2000/svg">
<path d="M25.8348 7.51173C25.6025 7.20495 20.0682 0 12.9999 0C5.93157 0 0.397009 7.20495 0.164989 7.51144C-0.0549962 7.80248 -0.0549962 8.19723 0.164989 8.48827C0.397009 8.79505 5.93157 16 12.9999 16C20.0682 16 25.6025 8.795 25.8348 8.48851C26.0551 8.19752 26.0551 7.80248 25.8348 7.51173ZM12.9999 14.3448C7.79332 14.3448 3.28388 9.56277 1.94899 7.99944C3.28215 6.43473 7.78215 1.65516 12.9999 1.65516C18.2062 1.65516 22.7153 6.4364 24.0508 8.00056C22.7176 9.56522 18.2176 14.3448 12.9999 14.3448Z" fill="#FF9800"/>
<path d="M13.0001 3.03439C10.1644 3.03439 7.85724 5.26198 7.85724 7.99993C7.85724 10.7379 10.1644 12.9655 13.0001 12.9655C15.8359 12.9655 18.143 10.7379 18.143 7.99993C18.143 5.26198 15.8359 3.03439 13.0001 3.03439ZM13.0001 11.3103C11.1095 11.3103 9.57157 9.82528 9.57157 7.99993C9.57157 6.17458 11.1096 4.6896 13.0001 4.6896C14.8907 4.6896 16.4287 6.17458 16.4287 7.99993C16.4287 9.82528 14.8907 11.3103 13.0001 11.3103Z" fill="#FF9800"/>
</svg>
