<svg width="30" height="38" viewBox="0 0 30 38" fill="none" xmlns="http://www.w3.org/2000/svg">
<path d="M15 0C6.72923 0 0 6.49266 0 14.4727C0 17.6307 1.03385 20.6313 2.99231 23.1488L14.0754 37.5511C14.1031 37.5859 14.1454 37.5993 14.1762 37.6305C14.73 38.2027 15.5292 38.0587 15.9238 37.5511C19.1154 33.4423 24.9654 25.7688 27.2146 22.8742C27.2146 22.8742 27.2154 22.872 27.2162 22.8705L27.23 22.8527C29.0423 20.3961 30 17.4986 30 14.4727C30 6.49266 23.2708 0 15 0ZM15 22.2805C10.5469 22.2805 6.90769 18.7692 6.90769 14.4727C6.90769 10.1761 10.5469 6.66484 15 6.66484C19.4531 6.66484 23.0923 10.1761 23.0923 14.4727C23.0923 18.7692 19.4531 22.2805 15 22.2805Z" fill="#FF0000"/>
</svg>
