<svg width="24" height="23" viewBox="0 0 24 23" fill="none" xmlns="http://www.w3.org/2000/svg">
<path d="M1.89654 16.7585L0.968058 16.3871H0.968058L1.89654 16.7585ZM3.21893 18.049L2.82501 17.1298H2.82501L3.21893 18.049ZM3.11516 13.7119L4.04363 14.0833C4.15694 13.8 4.13474 13.4805 3.98334 13.2157L3.11516 13.7119ZM6.13897 16.7975L6.65276 15.9396C6.37753 15.7748 6.03993 15.752 5.74506 15.8784L6.13897 16.7975ZM22.0151 19.7021L22.9343 19.3082L22.0151 19.7021ZM20.7021 21.0152L20.3081 21.9343L20.7021 21.0152ZM21.068 17.4921L20.2017 16.9925C20.0443 17.2654 20.0247 17.5965 20.1488 17.8861L21.068 17.4921ZM18.4921 20.0681L18.886 19.1489C18.5964 19.0248 18.2653 19.0444 17.9925 19.2018L18.4921 20.0681ZM18.8989 8.18553L17.9107 8.33893L18.8989 8.18553ZM9.18545 17.899L9.33885 16.9108L9.18545 17.899ZM7 7C6.44772 7 6 7.44772 6 8C6 8.55228 6.44772 9 7 9V7ZM10 9C10.5523 9 11 8.55228 11 8C11 7.44772 10.5523 7 10 7V9ZM7 11C6.44772 11 6 11.4477 6 12C6 12.5523 6.44772 13 7 13V11ZM14 13C14.5523 13 15 12.5523 15 12C15 11.4477 14.5523 11 14 11V13ZM17.9999 9.5C17.9999 13.6421 14.6421 17 10.4999 17V19C15.7466 19 19.9999 14.7467 19.9999 9.5H17.9999ZM2.99992 9.5C2.99992 5.35786 6.35778 2 10.4999 2V0C5.25321 0 0.999918 4.25329 0.999918 9.5H2.99992ZM0.968058 16.3871C0.306312 18.0414 1.97511 19.67 3.61285 18.9681L2.82501 17.1298H2.82501L0.968058 16.3871ZM2.18668 13.3405L0.968058 16.3871L2.82501 17.1298L4.04363 14.0833L2.18668 13.3405ZM3.98334 13.2157C3.35777 12.1212 2.99992 10.8539 2.99992 9.5H0.999918C0.999918 11.2111 1.45321 12.8194 2.24697 14.2081L3.98334 13.2157ZM3.61285 18.9681L6.53289 17.7167L5.74506 15.8784L2.82501 17.1298L3.61285 18.9681ZM21.096 20.0961L20.3081 21.9343C21.9676 22.6455 23.6455 20.9677 22.9343 19.3082L21.096 20.0961ZM20.1488 17.8861L21.096 20.0961L22.9343 19.3082L21.9871 17.0982L20.1488 17.8861ZM20.9999 14C20.9999 15.0917 20.7092 16.1126 20.2017 16.9925L21.9342 17.9917C22.6123 16.8161 22.9999 15.4518 22.9999 14H20.9999ZM17.9925 19.2018C17.1125 19.7093 16.0917 20 14.9999 20V22C16.4517 22 17.816 21.6124 18.9917 20.9343L17.9925 19.2018ZM21.096 20.0961L18.886 19.1489L18.0981 20.9872L20.3081 21.9343L21.096 20.0961ZM18.3412 9.01557C19.9468 10.0944 20.9999 11.9244 20.9999 14H22.9999C22.9999 11.2303 21.5916 8.78996 19.4566 7.35548L18.3412 9.01557ZM10.4999 2C14.2467 2 17.3533 4.74838 17.9107 8.33893L19.8871 8.03213C19.1807 3.48216 15.2479 0 10.4999 0V2ZM17.9107 8.33893C17.9694 8.71677 17.9999 9.10448 17.9999 9.5H19.9999C19.9999 9.0014 19.9614 8.51112 19.8871 8.03213L17.9107 8.33893ZM14.9999 20C12.9243 20 11.0943 18.9469 10.0155 17.3413L8.3554 18.4567C9.78988 20.5917 12.2302 22 14.9999 22V20ZM10.4999 17C10.1044 17 9.71669 16.9695 9.33885 16.9108L9.03204 18.8871C9.51103 18.9615 10.0013 19 10.4999 19V17ZM9.33885 16.9108C8.36969 16.7604 7.46204 16.4243 6.65276 15.9396L5.62519 17.6555C6.6508 18.2697 7.80252 18.6963 9.03204 18.8871L9.33885 16.9108ZM7 9H10V7H7V9ZM7 13H14V11H7V13Z" fill="#77C85B"/>
</svg>
