<!-- <svg width="35" height="47" viewBox="0 0 35 47" fill="none" xmlns="http://www.w3.org/2000/svg">
<path fill-rule="evenodd" clip-rule="evenodd" d="M17.5001 2.04175C9.03171 2.04175 2.16675 8.90672 2.16675 17.3751V29.6251C2.16675 38.0934 9.03171 44.9584 17.5001 44.9584C25.9684 44.9584 32.8334 38.0934 32.8334 29.6251V17.3751C32.8334 8.90672 25.9684 2.04175 17.5001 2.04175ZM0.166748 17.3751C0.166748 7.80215 7.92714 0.041748 17.5001 0.041748C27.073 0.041748 34.8334 7.80215 34.8334 17.3751V29.6251C34.8334 39.198 27.073 46.9584 17.5001 46.9584C7.92714 46.9584 0.166748 39.198 0.166748 29.6251V17.3751ZM17.5001 12.2917C18.0524 12.2917 18.5001 12.7395 18.5001 13.2917V19.4167C18.5001 19.969 18.0524 20.4167 17.5001 20.4167C16.9478 20.4167 16.5001 19.969 16.5001 19.4167V13.2917C16.5001 12.7395 16.9478 12.2917 17.5001 12.2917Z" fill="#FF9800"/>
</svg> -->
<svg width="35" height="47" viewBox="0 0 35 47" fill="none" xmlns="http://www.w3.org/2000/svg">
<path id="main-border" d="M17.5 0C7.90001 0 0.200012 7.8 0.200012 17.4V29.7C0.200012 39.2 7.90001 47 17.5 47C27.1 47 34.8 39.2 34.8 29.7V17.4C34.8 7.8 27.1 0 17.5 0ZM32.8 29.6C32.8 38.1 26 45 17.5 45C9.00001 45 2.20001 38.1 2.20001 29.6V17.4C2.20001 8.9 9.00001 2 17.5 2C26 2 32.8 8.9 32.8 17.4V29.6Z" fill="#FF9800"/>

<g style="transform-origin: 50% 50%; transform-box: fill-box;">
    <path d="M0 1V7.1C0 7.7 0.4 8.1 1 8.1C1.6 8.1 2 7.7 2 7.1V1C2 0.4 1.6 0 1 0C0.4 0 0 0.4 0 1Z" fill="#FF9800">
        <animateTransform
            attributeName="transform"
            type="translate"
            from="16.5 12"
            to="16.5 39"
            begin="0s"
            dur="1.5s"
            repeatCount="indefinite"
        />
        <animate attributeName="opacity" dur="1.5s" keyTimes="0;0.8;1" values="1;1;0" repeatCount="indefinite" begin="0s"/>
    </path>
</g>

</svg>