<svg width="28" height="14" viewBox="0 0 28 14" fill="none" xmlns="http://www.w3.org/2000/svg">
<path d="M27.6792 6.22578L27.6782 6.22474L21.9632 0.537246C21.535 0.111176 20.8425 0.112762 20.4163 0.540964C19.9902 0.969112 19.9918 1.66162 20.42 2.08774L24.2571 5.90624H1.09375C0.489672 5.90624 0 6.39591 0 6.99999C0 7.60407 0.489672 8.09374 1.09375 8.09374H24.257L20.42 11.9122C19.9919 12.3384 19.9902 13.0309 20.4164 13.459C20.8426 13.8873 21.5351 13.8887 21.9632 13.4627L27.6783 7.77524L27.6793 7.7742C28.1076 7.34665 28.1063 6.6519 27.6792 6.22578Z" fill="#7E8E9D"/>
</svg>
