<svg width="21" height="21" viewBox="0 0 21 21" fill="none" xmlns="http://www.w3.org/2000/svg">
<path d="M8.60068 17.2152C10.3714 17.2152 12.0072 16.6751 13.3732 15.7637L18.3144 20.7089C18.7024 21.097 19.3433 21.097 19.7478 20.7089L20.7091 19.7468C21.097 19.3587 21.097 18.7173 20.7091 18.3122L15.7511 13.384C16.6615 12.0169 17.2014 10.3797 17.2014 8.60759C17.2014 3.86498 13.3395 0 8.60068 0C3.86188 0 0 3.86498 0 8.60759C0 13.35 3.84501 17.2152 8.60068 17.2152ZM8.60068 3.37553C11.4844 3.37553 13.8285 5.72152 13.8285 8.60759C13.8285 11.4937 11.4844 13.8397 8.60068 13.8397C5.71692 13.8397 3.37282 11.4937 3.37282 8.60759C3.37282 5.72152 5.71692 3.37553 8.60068 3.37553Z" fill="white"/>
</svg>
