<svg width="89" height="114" viewBox="0 0 89 114" fill="none" xmlns="http://www.w3.org/2000/svg">
<path d="M66.1622 67.2483C50.6719 59.392 34.1273 60.7714 29.2829 70.3232C27.3658 74.1032 27.4804 78.6769 29.6201 83.5506L41.6343 111.317C41.665 111.385 41.7361 111.441 41.7748 111.508C42.4647 112.719 44.049 113.306 45.0962 113.073C53.5679 111.187 69.1827 107.558 75.1525 106.23C75.1525 106.23 75.1553 106.228 75.1576 106.227L75.1944 106.219C80.08 105 83.6326 102.442 85.4696 98.8198C90.314 89.2681 81.6524 75.1046 66.1622 67.2483Z" fill="url(#paint0_linear)"/>
<path d="M44.5 0C19.9634 0 0 19.3071 0 43.0371C0 52.428 3.06708 61.3511 8.87718 68.8373L41.757 111.665C41.8391 111.769 41.9646 111.808 42.0559 111.901C43.699 113.603 46.0701 113.175 47.2407 111.665C56.709 99.4468 74.064 76.6281 80.7367 68.0207C80.7367 68.0207 80.739 68.0141 80.7413 68.0097L80.7823 67.9567C86.1588 60.6514 89 52.0352 89 43.0371C89 19.3071 69.0366 0 44.5 0ZM44.5 66.2551C31.2892 66.2551 20.4928 55.8136 20.4928 43.0371C20.4928 30.2606 31.2892 19.8191 44.5 19.8191C57.7108 19.8191 68.5072 30.2606 68.5072 43.0371C68.5072 55.8136 57.7108 66.2551 44.5 66.2551Z" fill="#FF9800"/>
<defs>
<linearGradient id="paint0_linear" x1="66.1622" y1="67.2483" x2="43.0934" y2="112.733" gradientUnits="userSpaceOnUse">
<stop offset="0.34375" stop-opacity="0"/>
<stop offset="1" stop-opacity="0.28"/>
</linearGradient>
</defs>
</svg>
