<svg width="89" height="113" viewBox="0 0 89 113" fill="none" xmlns="http://www.w3.org/2000/svg">
<path d="M44.5 0C19.9634 0 0 19.3071 0 43.0371C0 52.428 3.06708 61.3511 8.87718 68.8373L41.757 111.665C41.8391 111.769 41.9646 111.808 42.0559 111.901C43.699 113.603 46.0701 113.175 47.2407 111.665C56.709 99.4468 74.064 76.6281 80.7367 68.0207C80.7367 68.0207 80.739 68.0141 80.7413 68.0097L80.7823 67.9567C86.1588 60.6514 89 52.0352 89 43.0371C89 19.3071 69.0366 0 44.5 0ZM44.5 66.2551C31.2892 66.2551 20.4928 55.8136 20.4928 43.0371C20.4928 30.2606 31.2892 19.8191 44.5 19.8191C57.7108 19.8191 68.5072 30.2606 68.5072 43.0371C68.5072 55.8136 57.7108 66.2551 44.5 66.2551Z" fill="#FF9800"/>
</svg>
