<svg width="74" height="74" viewBox="0 0 74 74" fill="none" xmlns="http://www.w3.org/2000/svg">
<path d="M71.125 70.8203C71.125 70.9011 71.0929 70.9786 71.0358 71.0358C70.9786 71.0929 70.9011 71.125 70.8203 71.125H46.75V73.5625H70.8203C71.5473 73.5617 72.2443 73.2725 72.7584 72.7584C73.2725 72.2443 73.5617 71.5473 73.5625 70.8203V23.5938H71.125V70.8203Z" fill="black"/>
<path d="M70.8203 0.4375H26.3359C25.6089 0.438347 24.9119 0.727527 24.3979 1.2416C23.8838 1.75568 23.5946 2.45267 23.5938 3.17969V19.9375H26.0312V3.17969C26.0312 3.09888 26.0634 3.02138 26.1205 2.96424C26.1776 2.9071 26.2551 2.875 26.3359 2.875H70.8203C70.9011 2.875 70.9786 2.9071 71.0358 2.96424C71.0929 3.02138 71.125 3.09888 71.125 3.17969V21.1562H73.5625V3.17969C73.5617 2.45267 73.2725 1.75568 72.7584 1.2416C72.2443 0.727527 71.5473 0.438347 70.8203 0.4375Z" fill="black"/>
<path d="M66.6072 30.0444L58.9377 37.714L56.1433 34.9194L54.4197 36.643L58.0759 40.2993C58.1891 40.4124 58.3235 40.5022 58.4713 40.5635C58.6192 40.6247 58.7777 40.6562 58.9377 40.6562C59.0978 40.6562 59.2563 40.6247 59.4041 40.5635C59.552 40.5022 59.6864 40.4124 59.7995 40.2993L68.3308 31.768L66.6072 30.0444Z" fill="#FF9800"/>
<path d="M50.4062 42.7891C50.4071 43.5161 50.6963 44.2131 51.2104 44.7271C51.7244 45.2412 52.4214 45.5304 53.1484 45.5312H63.8125V43.0938H53.1484C53.0676 43.0938 52.9901 43.0616 52.933 43.0045C52.8759 42.9474 52.8438 42.8699 52.8438 42.7891V32.4297C52.8438 32.3489 52.8759 32.2714 52.933 32.2142C52.9901 32.1571 53.0676 32.125 53.1484 32.125H61.375V29.6875H53.1484C52.4214 29.6883 51.7244 29.9775 51.2104 30.4916C50.6963 31.0057 50.4071 31.7027 50.4062 32.4297V42.7891Z" fill="#FF9800"/>
<path d="M66.6072 8.10693L58.9377 15.7765L56.1433 12.9819L54.4197 14.7056L58.0759 18.3618C58.1891 18.475 58.3235 18.5648 58.4713 18.626C58.6192 18.6873 58.7777 18.7188 58.9377 18.7188C59.0978 18.7188 59.2563 18.6873 59.4041 18.626C59.552 18.5648 59.6864 18.475 59.7995 18.3618L68.3308 9.83055L66.6072 8.10693Z" fill="#FF9800"/>
<path d="M50.4062 10.4922V20.8516C50.4071 21.5786 50.6963 22.2756 51.2104 22.7896C51.7244 23.3037 52.4214 23.5929 53.1484 23.5938H63.8125V21.1562H53.1484C53.0676 21.1562 52.9901 21.1241 52.933 21.067C52.8759 21.0099 52.8438 20.9324 52.8438 20.8516V10.4922C52.8438 10.4114 52.8759 10.3339 52.933 10.2767C52.9901 10.2196 53.0676 10.1875 53.1484 10.1875H61.375V7.75H53.1484C52.4214 7.75085 51.7244 8.04003 51.2104 8.5541C50.6963 9.06818 50.4071 9.76517 50.4062 10.4922Z" fill="#FF9800"/>
<path d="M37.0002 15.7765L34.2058 12.9819L32.4822 14.7056L36.1384 18.3618C36.2516 18.475 36.386 18.5648 36.5338 18.626C36.6817 18.6873 36.8402 18.7188 37.0002 18.7188C37.1603 18.7188 37.3188 18.6873 37.4666 18.626C37.6145 18.5648 37.7489 18.475 37.862 18.3618L46.3933 9.83055L44.6697 8.10693L37.0002 15.7765Z" fill="black"/>
<path d="M31.2109 10.1875H39.4375V7.75H31.2109C30.4839 7.75085 29.7869 8.04003 29.2729 8.5541C28.7588 9.06818 28.4696 9.76517 28.4688 10.4922V20.8516C28.4696 21.5786 28.7588 22.2756 29.2729 22.7896C29.7869 23.3037 30.4839 23.5929 31.2109 23.5938H41.875V21.1562H31.2109C31.1301 21.1562 31.0526 21.1241 30.9955 21.067C30.9384 21.0099 30.9062 20.9324 30.9062 20.8516V10.4922C30.9062 10.4114 30.9384 10.3339 30.9955 10.2767C31.0526 10.2196 31.1301 10.1875 31.2109 10.1875Z" fill="black"/>
<path d="M56.1433 56.8569L54.4197 58.5805L58.0759 62.2367C58.1891 62.3499 58.3235 62.4397 58.4713 62.5009C58.6192 62.5622 58.7777 62.5937 58.9377 62.5937C59.0978 62.5937 59.2563 62.5622 59.4041 62.5009C59.552 62.4397 59.6864 62.3499 59.7995 62.2367L68.3308 53.7055L66.6072 51.9819L58.9377 59.6515L56.1433 56.8569Z" fill="#FF9800"/>
<path d="M50.4062 64.7266C50.4071 65.4536 50.6963 66.1506 51.2104 66.6646C51.7244 67.1787 52.4214 67.4679 53.1484 67.4688H63.8125V65.0312H53.1484C53.0676 65.0312 52.9901 64.9991 52.933 64.942C52.8759 64.8849 52.8438 64.8074 52.8438 64.7266V54.3672C52.8438 54.2864 52.8759 54.2089 52.933 54.1517C52.9901 54.0946 53.0676 54.0625 53.1484 54.0625H61.375V51.625H53.1484C52.4214 51.6258 51.7244 51.915 51.2104 52.4291C50.6963 52.9432 50.4071 53.6402 50.4062 54.3672V64.7266Z" fill="#FF9800"/>
<path d="M2.875 35.2962L16.039 28.3271L14.8986 26.173L1.08603 33.4855C0.890251 33.5891 0.726425 33.7442 0.612159 33.9339C0.497893 34.1237 0.43751 34.341 0.4375 34.5625V57.7188H2.875V35.2962Z" fill="black"/>
<path d="M43.664 33.4854L22.9452 22.5167C22.7696 22.4236 22.5738 22.3749 22.375 22.3749C22.1762 22.3749 21.9804 22.4236 21.8048 22.5167L16.9298 25.0975L18.0702 27.2518L22.375 24.9728L41.875 35.2962V71.125H39.4375V37.4977C39.4375 37.2761 39.3771 37.0588 39.2629 36.869C39.1486 36.6792 38.9848 36.5241 38.789 36.4205L28.4688 30.957V30.9062H28.3731L22.9452 28.0327C22.7696 27.9396 22.5738 27.8909 22.375 27.8909C22.1762 27.8909 21.9804 27.9396 21.8048 28.0327L5.96103 36.4205C5.76523 36.5241 5.60139 36.6792 5.48712 36.869C5.37285 37.0588 5.31248 37.2761 5.3125 37.4977V71.125H2.875V60.1562H0.4375V72.3437C0.4375 72.667 0.565904 72.977 0.794464 73.2055C1.02302 73.4341 1.33302 73.5625 1.65625 73.5625H43.0938C43.417 73.5625 43.727 73.4341 43.9555 73.2055C44.1841 72.977 44.3125 72.667 44.3125 72.3437V34.5625C44.3125 34.341 44.2521 34.1236 44.1378 33.9339C44.0236 33.7441 43.8597 33.5891 43.664 33.4854ZM17.5 66.25H7.75V60.1562H17.5V66.25ZM19.9375 60.1562H22.375V71.125H19.9375V60.1562ZM24.8125 60.1562H27.25V71.125H24.8125V60.1562ZM29.6875 60.1562H32.125V71.125H29.6875V60.1562ZM7.75 57.7187V55.2812H37V57.7187H7.75ZM28.4688 43.0937C28.4688 43.3348 28.3973 43.5704 28.2634 43.7708C28.1294 43.9713 27.9391 44.1275 27.7164 44.2197C27.4937 44.312 27.2486 44.3361 27.0122 44.2891C26.7758 44.242 26.5587 44.126 26.3882 43.9555C26.2178 43.7851 26.1017 43.5679 26.0547 43.3315C26.0076 43.0951 26.0318 42.85 26.124 42.6273C26.2163 42.4046 26.3725 42.2143 26.5729 42.0804C26.7733 41.9465 27.009 41.875 27.25 41.875C27.5731 41.8753 27.8829 42.0039 28.1114 42.2323C28.3399 42.4608 28.4684 42.7706 28.4688 43.0937ZM22.375 30.4888L26.0312 32.4245V39.6456C25.2181 39.9331 24.5327 40.4988 24.0963 41.2427C23.6599 41.9867 23.5006 42.8609 23.6464 43.711C23.7923 44.5611 24.2339 45.3322 24.8934 45.8882C25.5528 46.4441 26.3875 46.749 27.25 46.749C28.1125 46.749 28.9472 46.4441 29.6066 45.8882C30.2661 45.3322 30.7077 44.5611 30.8536 43.711C30.9994 42.8609 30.8401 41.9867 30.4037 41.2427C29.9673 40.4988 29.2819 39.9331 28.4688 39.6456V33.7148L37 38.2314V52.8437H19.9375V31.7792L22.375 30.4888ZM17.5 33.0695V52.8437H7.75V38.2314L17.5 33.0695ZM7.75 68.6875H17.5V71.125H7.75V68.6875ZM34.5625 71.125V60.1562H37V71.125H34.5625Z" fill="black"/>
</svg>
