<svg width="74" height="74" viewBox="0 0 74 74" fill="none" xmlns="http://www.w3.org/2000/svg">
<path d="M34.4482 22.9655C31.6296 22.9655 29.3447 25.2504 29.3447 28.0689C29.3447 30.8874 31.6296 33.1723 34.4482 33.1723C37.2667 33.1723 39.5516 30.8874 39.5516 28.0689C39.5516 25.2504 37.2667 22.9655 34.4482 22.9655ZM34.4482 30.6206C33.0388 30.6206 31.8964 29.4782 31.8964 28.0689C31.8964 26.6595 33.0388 25.5172 34.4482 25.5172C35.8575 25.5172 36.9999 26.6595 36.9999 28.0689C36.9999 29.4782 35.8575 30.6206 34.4482 30.6206Z" fill="#FF9800"/>
<path d="M49.7585 38.2758C46.9399 38.2758 44.655 40.5607 44.655 43.3792C44.655 46.1977 46.9399 48.4826 49.7585 48.4826C52.577 48.4826 54.8619 46.1977 54.8619 43.3792C54.8619 40.5607 52.577 38.2758 49.7585 38.2758ZM49.7585 45.9309C48.3491 45.9309 47.2067 44.7885 47.2067 43.3792C47.2067 41.9699 48.3491 40.8275 49.7585 40.8275C51.1678 40.8275 52.3102 41.9699 52.3102 43.3792C52.3102 44.7885 51.1678 45.9309 49.7585 45.9309Z" fill="#FF9800"/>
<path d="M51.4072 24.6152L30.9939 45.0285L32.7982 46.8328L53.2115 26.4195L51.4072 24.6152Z" fill="#FF9800"/>
<path d="M72.2494 21.1153L63.5378 15.3102H63.793V6.37917C63.793 5.67458 63.2217 5.10331 62.5171 5.10331H56.1378C55.4332 5.10331 54.8619 5.67458 54.8619 6.37917V9.52417L42.8115 1.48625C42.3828 1.20014 41.8239 1.20014 41.3953 1.48625L11.9574 21.1153C10.1514 22.3193 9.6632 24.7592 10.8671 26.5652C12.0711 28.3712 14.511 28.8593 16.317 27.6554L20.4137 24.9251V49.7584H17.862C17.862 49.0538 17.2908 48.4825 16.5862 48.4825H6.3793C5.6747 48.4825 5.10344 49.0538 5.10344 49.7584H0V52.3101H5.10344V65.0687H0V67.6204H5.10344C5.10344 68.325 5.6747 68.8963 6.3793 68.8963H16.5862C17.2908 68.8963 17.862 68.325 17.862 67.6204V67.1343L27.3876 71.0895C32.5803 73.2103 38.3857 73.2747 43.6242 71.2694L63.3337 63.7533C64.5012 63.3096 65.4409 62.4141 65.9402 61.2692C66.4558 60.1082 66.4825 58.7885 66.0142 57.6075C65.597 56.5516 64.8066 55.6857 63.793 55.1744V24.9251L67.8897 27.6554C69.6957 28.8593 72.1356 28.3712 73.3396 26.5652C74.5435 24.7592 74.0553 22.3191 72.2494 21.1153ZM15.3103 66.3446H7.65516V51.0343H15.3103V66.3446ZM57.4137 7.65503H61.2412V13.7792L57.4137 11.2274V7.65503ZM63.6003 60.2409C63.375 60.7617 62.949 61.1698 62.4189 61.3725L42.7094 68.8874C38.0782 70.6614 32.9454 70.6063 28.3534 68.733L17.862 64.3708V52.3101H21.0963C25.3268 52.3151 29.4985 53.2999 33.2846 55.1872C34.5348 55.8112 35.9127 56.1366 37.31 56.1377H47.2068C48.2637 56.1446 49.115 57.0069 49.1081 58.0638C49.1024 58.9491 48.4902 59.715 47.6278 59.9155C47.4607 59.9308 47.2974 59.9653 47.1277 59.9653H31.8965V62.517H47.1277C47.1545 62.517 47.18 62.517 47.2068 62.517C47.2323 62.517 47.2566 62.5093 47.2833 62.5093C48.2959 62.4931 49.2959 62.2811 50.228 61.8854L60.8955 57.3574C61.4036 57.1405 61.9784 57.1405 62.4865 57.3574C63.015 57.5805 63.4297 58.0094 63.6348 58.5452C63.8515 59.0921 63.8391 59.7032 63.6003 60.2409ZM47.2068 53.586H37.31C36.3087 53.5845 35.3214 53.3512 34.4252 52.9047C30.8492 51.1232 26.9527 50.0751 22.9655 49.8222V23.2205L42.1034 10.4619L61.2412 23.2205V54.6832C60.7797 54.7221 60.3266 54.8309 59.8978 55.006L51.6251 58.5184C51.6492 58.3638 51.665 58.2079 51.6723 58.0515C51.6723 55.5852 49.673 53.586 47.2068 53.586ZM70.0691 25.766C69.797 25.766 69.5311 25.6856 69.3047 25.5349L42.8115 7.86938C42.3828 7.58326 41.8239 7.58326 41.3953 7.86938L14.902 25.5324C14.2679 25.9545 13.4118 25.7826 12.9897 25.1485C12.839 24.922 12.7586 24.6562 12.7586 24.3841C12.7578 23.9227 12.9882 23.4915 13.3723 23.2358L42.1034 4.08263L70.8344 23.2384C71.2185 23.4942 71.4489 23.9253 71.4481 24.3867C71.4483 25.1483 70.8308 25.7659 70.0691 25.766Z" fill="black"/>
<path d="M12.7585 61.2413H10.2068V63.793H12.7585V61.2413Z" fill="black"/>
</svg>
