<svg width="76" height="76" viewBox="0 0 76 76" fill="none" xmlns="http://www.w3.org/2000/svg">
<path d="M69.6667 73.4667V66.9079C72.0991 65.8822 73.6215 63.4353 73.4667 60.8C73.4667 57.3078 71.1943 54.4667 68.4 54.4667C65.6057 54.4667 63.3333 57.3078 63.3333 60.8C63.1785 63.4353 64.7009 65.8822 67.1333 66.9079V73.4667H60.8V34.2C60.8002 33.7199 60.5289 33.2809 60.0995 33.0663L50.6667 28.3505V21.5333C50.667 20.9676 50.2922 20.4703 49.7483 20.3148L32.9333 15.5103V1.26667C32.9333 0.56715 32.3662 0 31.6667 0H6.33333C5.63382 0 5.06667 0.56715 5.06667 1.26667V73.4667H0V76H76V73.4667H69.6667ZM30.4 73.4667H7.6V70.9333H19V68.4H7.6V63.3333H19V60.8H7.6V55.7333H19V53.2H7.6V48.1333H19V45.6H7.6V40.5333H19V38H7.6V32.9333H19V30.4H7.6V25.3333H19V22.8H7.6V17.7333H19V15.2H7.6V10.1333H19V7.6H7.6V2.53333H30.4V73.4667ZM48.1333 73.4667H32.9333V70.9333H41.8V68.4H32.9333V63.3333H41.8V60.8H32.9333V55.7333H41.8V53.2H32.9333V48.1333H41.8V45.6H32.9333V40.5333H41.8V38H32.9333V32.9333H41.8V30.4H32.9333V25.3333H41.8V22.8H32.9333V18.1463L48.1333 22.4884V73.4667ZM58.2667 73.4667H50.6667V70.9333H54.4667V68.4H50.6667V63.3333H54.4667V60.8H50.6667V55.7333H54.4667V53.2H50.6667V48.1333H54.4667V45.6H50.6667V40.5333H54.4667V38H50.6667V31.1828L58.2667 34.9828V73.4667ZM67.1333 64.0553C66.2826 63.1897 65.8247 62.0128 65.8667 60.8C65.8667 58.7404 67.0269 57 68.4 57C69.7731 57 70.9333 58.7404 70.9333 60.8C70.9743 62.0127 70.5166 63.1892 69.6667 64.0553V62.0667H67.1333V64.0553Z" fill="black"/>
<path fill-rule="evenodd" clip-rule="evenodd" d="M33 70.9331H41.8V68.3998H33V70.9331ZM33 63.3331H41.8V60.7998H33V63.3331ZM33 55.7331H41.8V53.1998H33V55.7331ZM33 48.1331H41.8V45.5998H33V48.1331ZM33 40.5331H41.8V37.9998H33V40.5331ZM33 32.9331H41.8V30.3998H33V32.9331ZM33 25.3331H41.8V22.7998H33V25.3331Z" fill="#FF9800"/>
</svg>
