<svg width="76" height="76" viewBox="0 0 76 76" fill="none" xmlns="http://www.w3.org/2000/svg">
<path d="M67.0938 16.625C62.1739 16.625 58.1875 20.6102 58.1875 25.5312V28.5H47.4536C51.0306 22.3828 52.8438 17.7951 52.8438 14.8438C52.8438 6.65881 46.1849 0 38 0C29.8151 0 23.1562 6.65881 23.1562 14.8438C23.1562 17.7951 24.9694 22.3833 28.5464 28.5C27.3415 28.5 18.8545 28.5 17.8125 28.5V25.5312C17.8125 20.6201 13.8174 16.625 8.90625 16.625C3.98636 16.625 0 20.6102 0 25.5312V33.8438C0 34.6636 0.66449 35.3281 1.48438 35.3281C2.30426 35.3281 2.96875 34.6636 2.96875 33.8438V25.5312C2.96875 22.2517 5.62613 19.5938 8.90625 19.5938C12.18 19.5938 14.8438 22.2575 14.8438 25.5312V60.461C13.2672 59.048 11.185 58.1875 8.90625 58.1875C6.62692 58.1875 4.5459 59.0491 2.96875 60.4628V45.7188C2.96875 44.8989 2.30426 44.2344 1.48438 44.2344C0.66449 44.2344 0 44.8989 0 45.7188V67.0938C0 72.1864 4.3963 76 9.32953 76H67.0938C72.0049 76 76 72.0049 76 67.0938V25.5312C76 20.6201 72.0049 16.625 67.0938 16.625ZM61.1562 25.5312C61.1562 22.2517 63.8136 19.5938 67.0938 19.5938C70.3675 19.5938 73.0312 22.2575 73.0312 25.5312V60.4204C72.0107 59.5118 70.7821 58.8358 69.4421 58.4902C66.4669 57.7207 63.406 58.4449 61.1562 60.4541C61.1562 59.1848 61.1562 27.3131 61.1562 25.5312ZM58.1875 46.3125H39.1875C34.2131 41.5758 24.7125 32.5269 23.6021 31.4688H30.3456C33.5863 36.6455 36.7783 40.9229 36.8113 40.9676C37.092 41.3422 37.5321 41.5625 38 41.5625C38.4679 41.5625 38.908 41.3422 39.1887 40.9676C39.2217 40.9229 42.4143 36.6455 45.6544 31.4688H58.1875V46.3125ZM38 2.96875C44.5481 2.96875 49.875 8.29568 49.875 14.8438C49.875 20.3551 41.181 33.0998 38 37.5529C34.7692 33.0291 26.125 20.3046 26.125 14.8438C26.125 8.29568 31.4519 2.96875 38 2.96875ZM2.96875 67.0938C2.96875 63.82 5.63251 61.1562 8.90625 61.1562C12.18 61.1562 14.8438 63.82 14.8438 67.0938C14.8438 67.9136 15.5082 68.5781 16.3281 68.5781C17.148 68.5781 17.8125 67.9136 17.8125 67.0938V42.354L32.8789 56.7031L15.7344 73.0312H9.32953C6.0007 73.0312 2.96875 70.5432 2.96875 67.0938ZM36.0547 57.7781C36.3492 57.4975 36.5156 57.109 36.5156 56.7031C36.5156 56.2972 36.3492 55.9082 36.0547 55.6281L17.8125 38.2545V31.4688H19.2969C19.3983 31.5656 36.8629 48.1987 37.5703 48.8719C37.8463 49.1346 38.2128 49.2812 38.5938 49.2812H58.1875V55.2188H46.9062C46.5125 55.2188 46.1351 55.3753 45.8568 55.6536L28.4785 73.0312H20.0391L36.0547 57.7781ZM67.0938 73.0312H32.6777L47.5215 58.1875H58.1875V67.0938C58.1875 67.9136 58.852 68.5781 59.6719 68.5781C60.4918 68.5781 61.1562 67.9136 61.1562 67.0938C61.1562 63.2547 64.7512 60.3445 68.6999 61.3644C71.1103 61.9872 73.0312 64.2131 73.0312 67.0938C73.0312 70.3675 70.3675 73.0312 67.0938 73.0312Z" fill="black"/>
<path d="M38 22.2656C42.0925 22.2656 45.4219 18.9362 45.4219 14.8438C45.4219 10.7513 42.0925 7.42188 38 7.42188C33.9075 7.42188 30.5781 10.7513 30.5781 14.8438C30.5781 18.9362 33.9075 22.2656 38 22.2656ZM38 10.3906C40.4556 10.3906 42.4531 12.3882 42.4531 14.8438C42.4531 17.2993 40.4556 19.2969 38 19.2969C35.5444 19.2969 33.5469 17.2993 33.5469 14.8438C33.5469 12.3882 35.5444 10.3906 38 10.3906Z" fill="#FF9800"/>
<path d="M1.48438 41.2656C2.30368 41.2656 2.96875 40.6006 2.96875 39.7812C2.96875 38.9619 2.30368 38.2969 1.48438 38.2969C0.66507 38.2969 0 38.9619 0 39.7812C0 40.6006 0.66507 41.2656 1.48438 41.2656Z" fill="black"/>
</svg>
