<svg width="77" height="77" viewBox="0 0 77 77" fill="none" xmlns="http://www.w3.org/2000/svg">
<path d="M65.45 0H11.55C5.17408 0.00705833 0.00705833 5.17408 0 11.55V39.7833C0.00705833 46.1593 5.17408 51.3263 11.55 51.3333H30.8V56.4667H34.65V74.4333H23.1V77H53.9V74.4333H42.35V56.4667H46.2V51.3333H65.45C71.8259 51.3263 76.9929 46.1593 77 39.7833V11.55C76.9929 5.17408 71.8259 0.00705833 65.45 0ZM39.7833 74.4333H37.2167V56.4667H39.7833V74.4333ZM43.6333 53.9H33.3667V46.2H43.6333V53.9ZM74.4333 39.7833C74.4269 44.742 70.4086 48.7603 65.45 48.7667H46.2V43.6333H30.8V48.7667H11.55C6.59136 48.7603 2.57308 44.742 2.56667 39.7833V11.55C2.57308 6.59136 6.59136 2.57308 11.55 2.56667H65.45C70.4086 2.57308 74.4269 6.59136 74.4333 11.55V39.7833Z" fill="black"/>
<path d="M12.699 28.9429L11.0602 25.6666H11.5505C12.2592 25.6666 12.8338 25.0919 12.8338 24.3832V19.2499C12.8338 18.5412 12.2592 17.9666 11.5505 17.9666H6.41712C5.7084 17.9666 5.13379 18.5412 5.13379 19.2499V29.5166C5.13379 30.2253 5.7084 30.7999 6.41712 30.7999C7.12584 30.7999 7.70046 30.2253 7.70046 29.5166V25.6666H8.19069L10.4019 30.0902C10.7187 30.7245 11.4898 30.982 12.1241 30.6651C12.7584 30.3483 13.0159 29.5772 12.699 28.9429ZM10.2671 23.0999H7.70046V20.5332H10.2671V23.0999Z" fill="#FF9800"/>
<path d="M68.017 17.9666H65.4503C64.7416 17.9666 64.167 18.5412 64.167 19.2499V29.5166C64.167 30.2253 64.7416 30.7999 65.4503 30.7999H68.017C70.1433 30.7999 71.867 29.0762 71.867 26.9499V21.8166C71.867 19.6902 70.1433 17.9666 68.017 17.9666ZM69.3003 26.9499C69.3003 27.6586 68.7257 28.2332 68.017 28.2332H66.7337V20.5332H68.017C68.7257 20.5332 69.3003 21.1078 69.3003 21.8166V26.9499Z" fill="#FF9800"/>
<path d="M46.2 24.3832V19.2499C46.2 18.5412 45.6254 17.9666 44.9167 17.9666H39.7833C39.0746 17.9666 38.5 18.5412 38.5 19.2499V29.5166C38.5 30.2253 39.0746 30.7999 39.7833 30.7999C40.4921 30.7999 41.0667 30.2253 41.0667 29.5166V25.6666H41.5569L43.7617 30.0902C44.0785 30.7245 44.8496 30.982 45.4839 30.6651C46.1182 30.3483 46.3757 29.5772 46.0588 28.9429L44.4264 25.6666H44.9167C45.6254 25.6666 46.2 25.0919 46.2 24.3832ZM43.6333 23.0999H41.0667V20.5332H43.6333V23.0999Z" fill="#FF9800"/>
<path d="M19.2495 28.2332H16.6829V25.6666H17.9662C18.6749 25.6666 19.2495 25.0919 19.2495 24.3832C19.2495 23.6745 18.6749 23.0999 17.9662 23.0999H16.6829V20.5332H19.2495C19.9583 20.5332 20.5329 19.9586 20.5329 19.2499C20.5329 18.5412 19.9583 17.9666 19.2495 17.9666H15.3995C14.6908 17.9666 14.1162 18.5412 14.1162 19.2499V29.5166C14.1162 30.2253 14.6908 30.7999 15.3995 30.7999H19.2495C19.9583 30.7999 20.5329 30.2253 20.5329 29.5166C20.5329 28.8078 19.9583 28.2332 19.2495 28.2332Z" fill="#FF9800"/>
<path d="M35.9331 28.2332H33.3665V25.6666H34.6498C35.3585 25.6666 35.9331 25.0919 35.9331 24.3832C35.9331 23.6745 35.3585 23.0999 34.6498 23.0999H33.3665V20.5332H35.9331C36.6419 20.5332 37.2165 19.9586 37.2165 19.2499C37.2165 18.5412 36.6419 17.9666 35.9331 17.9666H32.0831C31.3744 17.9666 30.7998 18.5412 30.7998 19.2499V29.5166C30.7998 30.2253 31.3744 30.7999 32.0831 30.7999H35.9331C36.6419 30.7999 37.2165 30.2253 37.2165 29.5166C37.2165 28.8078 36.6419 28.2332 35.9331 28.2332Z" fill="#FF9800"/>
<path d="M61.6001 28.2332H59.0335V25.6666H60.3168C61.0255 25.6666 61.6001 25.0919 61.6001 24.3832C61.6001 23.6745 61.0255 23.0999 60.3168 23.0999H59.0335V20.5332H61.6001C62.3089 20.5332 62.8835 19.9586 62.8835 19.2499C62.8835 18.5412 62.3089 17.9666 61.6001 17.9666H57.7501C57.0414 17.9666 56.4668 18.5412 56.4668 19.2499V29.5166C56.4668 30.2253 57.0414 30.7999 57.7501 30.7999H61.6001C62.3089 30.7999 62.8835 30.2253 62.8835 29.5166C62.8835 28.8078 62.3089 28.2332 61.6001 28.2332Z" fill="#FF9800"/>
<path d="M28.2331 23.0999H24.3831V20.5332H28.2331C28.9418 20.5332 29.5164 19.9586 29.5164 19.2499C29.5164 18.5412 28.9418 17.9666 28.2331 17.9666H23.0997C22.391 17.9666 21.8164 18.5412 21.8164 19.2499V24.3832C21.8164 25.0919 22.391 25.6666 23.0997 25.6666H26.9497V28.2332H23.0997C22.391 28.2332 21.8164 28.8078 21.8164 29.5166C21.8164 30.2253 22.391 30.7999 23.0997 30.7999H28.2331C28.9418 30.7999 29.5164 30.2253 29.5164 29.5166V24.3832C29.5164 23.6745 28.9418 23.0999 28.2331 23.0999Z" fill="#FF9800"/>
<path d="M54.2103 18.0052C53.5228 17.8339 52.8266 18.2521 52.6549 18.9394L51.3331 24.2255L50.0113 18.9394C49.8557 18.2479 49.1691 17.8135 48.4775 17.9691C47.786 18.1247 47.3516 18.8113 47.5072 19.5028C47.5115 19.5222 47.5163 19.5415 47.5216 19.5606L50.0883 29.8272C50.2606 30.5148 50.9576 30.9324 51.6451 30.7601C52.1044 30.6451 52.4629 30.2864 52.5779 29.8272L55.1446 19.5606C55.3159 18.873 54.8977 18.1768 54.2103 18.0052Z" fill="#FF9800"/>
</svg>
