<svg width="78" height="78" viewBox="0 0 78 78" fill="none" xmlns="http://www.w3.org/2000/svg">
<path d="M76.375 30.8751H67.0734C66.4728 28.7954 65.641 26.7895 64.5938 24.8951L71.175 18.3155C71.8094 17.681 71.8094 16.6524 71.175 16.0177L61.9824 6.825C61.3479 6.19064 60.3193 6.19064 59.6846 6.825L53.1051 13.4062C51.2105 12.359 49.2048 11.5272 47.1251 10.9266V1.62505C47.125 0.727594 46.3975 0 45.5 0H32.5001C31.6026 0 30.8751 0.727594 30.8751 1.62505V10.9266C28.7954 11.5272 26.7895 12.359 24.8951 13.4062L18.3155 6.825C17.681 6.19064 16.6524 6.19064 16.0177 6.825L6.825 16.0176C6.19064 16.6521 6.19064 17.6807 6.825 18.3154L13.4062 24.8949C12.359 26.7895 11.5272 28.7953 10.9266 30.8749H1.62505C0.727594 30.8751 0 31.6025 0 32.4999V45.4999C0 46.3974 0.727594 47.125 1.62505 47.125H10.9266C11.5272 49.2046 12.359 51.2105 13.4062 53.1049L6.825 59.683C6.19064 60.3175 6.19064 61.3461 6.825 61.9807L16.0176 71.175C16.3223 71.4798 16.7356 71.6511 17.1664 71.6511C17.5974 71.6509 18.0105 71.4797 18.3152 71.175L24.8948 64.5938C26.7893 65.641 28.7951 66.4728 30.8747 67.0734V76.375C30.8747 77.2724 31.6023 78 32.4998 78H45.4997C46.3972 78 47.1248 77.2724 47.1248 76.375V67.0734C49.2044 66.4728 51.2104 65.641 53.1047 64.5938L59.6843 71.175C60.3289 71.7845 61.3374 71.7845 61.9821 71.175L71.1747 61.9807C71.8091 61.3462 71.8091 60.3176 71.1747 59.683L64.5938 53.1051C65.641 51.2105 66.4728 49.2048 67.0734 47.1251H76.375C77.2724 47.1251 78 46.3975 78 45.5V32.5001C78 31.6025 77.2724 30.8751 76.375 30.8751ZM74.75 43.875H65.8239C65.073 43.8752 64.4201 44.3898 64.2444 45.1198C63.612 47.7316 62.5764 50.229 61.1749 52.5217C60.783 53.1623 60.8811 53.9879 61.412 54.5188L67.7269 60.8319L60.8336 67.7269L54.5188 61.412C53.9879 60.881 53.1622 60.783 52.5217 61.1749C50.229 62.5764 47.7317 63.612 45.1198 64.2444C44.3898 64.4201 43.8753 65.073 43.875 65.8239V74.75H34.125V65.8239C34.1248 65.073 33.6102 64.4201 32.8802 64.2444C30.2684 63.612 27.771 62.5764 25.4783 61.1749C24.8377 60.783 24.0121 60.8811 23.4812 61.412L17.1664 67.7269L10.2731 60.8319L16.5879 54.5188C17.119 53.9879 17.217 53.1622 16.8251 52.5217C15.4236 50.229 14.388 47.7316 13.7556 45.1198C13.5799 44.3898 12.927 43.8752 12.1761 43.875H3.24995V34.125H12.1761C12.927 34.1248 13.5799 33.6102 13.7556 32.8802C14.388 30.2684 15.4236 27.771 16.8251 25.4783C17.217 24.8377 17.1189 24.0121 16.5879 23.4812L10.2731 17.1664L17.1664 10.2731L23.4812 16.5879C24.0121 17.119 24.8378 17.217 25.4783 16.8251C27.771 15.4236 30.2684 14.388 32.8802 13.7556C33.6102 13.5799 34.1248 12.927 34.125 12.1761V3.24995H43.875V12.1761C43.8752 12.927 44.3898 13.5799 45.1198 13.7556C47.7316 14.388 50.229 15.4236 52.5217 16.8251C53.1623 17.217 53.9879 17.1189 54.5188 16.5879L60.8336 10.2731L67.7269 17.1664L61.412 23.4812C60.881 24.0121 60.783 24.8378 61.1749 25.4783C62.5764 27.771 63.612 30.2683 64.2444 32.8802C64.4201 33.6102 65.073 34.1247 65.8239 34.125H74.75V43.875Z" fill="black"/>
<path d="M39.0001 21.1251C29.1328 21.1366 21.1367 29.1327 21.1251 39H24.3751C24.3841 30.9266 30.9266 24.384 39.0001 24.375H43.8751V21.1251H39.0001Z" fill="#FF9800"/>
<path d="M53.625 39C53.616 47.0735 47.0735 53.616 39 53.625H34.125V56.875H39C48.8673 56.8634 56.8634 48.8673 56.875 39H53.625Z" fill="#FF9800"/>
<path d="M45.0238 21.6011L38.5238 15.1011L36.226 17.3989L41.577 22.7499L36.226 28.101L38.5238 30.3988L45.0238 23.8988C45.6582 23.2643 45.6582 22.2356 45.0238 21.6011Z" fill="#FF9800"/>
<path d="M41.7739 49.8988L39.4761 47.601L32.976 54.1011C32.3417 54.7356 32.3417 55.7642 32.976 56.3989L39.4761 62.8989L41.7739 60.6011L36.4228 55.25L41.7739 49.8988Z" fill="#FF9800"/>
<path d="M38.9999 32.4999C35.4101 32.4999 32.4999 35.4102 32.4999 39C32.4999 42.5898 35.4101 45.5001 38.9999 45.5001C42.5898 45.5001 45.5 42.5898 45.5 39C45.5 35.4102 42.5898 32.4999 38.9999 32.4999ZM38.9999 42.25C37.205 42.25 35.75 40.7949 35.75 39C35.75 37.2051 37.205 35.75 38.9999 35.75C40.7949 35.75 42.2499 37.2051 42.2499 39C42.2499 40.7949 40.7949 42.25 38.9999 42.25Z" fill="#FF9800"/>
</svg>
