<svg width="19" height="14" viewBox="0 0 19 14" fill="none" xmlns="http://www.w3.org/2000/svg">
<path d="M6.40909 3.61712C5.85681 3.61712 5.40909 4.06483 5.40909 4.61712C5.40909 5.1694 5.85681 5.61712 6.40909 5.61712V3.61712ZM8.72727 5.61712C9.27956 5.61712 9.72727 5.1694 9.72727 4.61712C9.72727 4.06483 9.27956 3.61712 8.72727 3.61712V5.61712ZM6.40909 6.51081C5.85681 6.51081 5.40909 6.95853 5.40909 7.51081C5.40909 8.0631 5.85681 8.51081 6.40909 8.51081V6.51081ZM12.5909 8.51081C13.1432 8.51081 13.5909 8.0631 13.5909 7.51081C13.5909 6.95853 13.1432 6.51081 12.5909 6.51081V8.51081ZM2.31913 12.7867L1.63569 12.0567L1.63569 12.0567L2.31913 12.7867ZM3.80252 11.3979L4.48595 12.1279L3.80252 11.3979ZM6.40909 5.61712H8.72727V3.61712H6.40909V5.61712ZM6.40909 8.51081H12.5909V6.51081H6.40909V8.51081ZM0 2.44685V12.2751H2V2.44685H0ZM3.00256 13.5167L4.48595 12.1279L3.11909 10.6679L1.63569 12.0567L3.00256 13.5167ZM4.48595 12.1279H16.4545V10.1279H4.48595V12.1279ZM19 9.68108V2.44685H17V9.68108H19ZM16.4545 0H2.54545V2H16.4545V0ZM19 2.44685C19 1.03441 17.7972 0 16.4545 0V2C16.8189 2 17 2.26114 17 2.44685H19ZM16.4545 12.1279C17.7972 12.1279 19 11.0935 19 9.68108H17C17 9.86679 16.8189 10.1279 16.4545 10.1279V12.1279ZM0 12.2751C0 13.0802 0.531382 13.6493 1.11547 13.8758C1.69684 14.1013 2.44446 14.0392 3.00256 13.5167L1.63569 12.0567C1.70701 11.9899 1.79506 11.9943 1.83857 12.0111C1.86308 12.0206 1.90096 12.0423 1.93662 12.0897C1.97665 12.1428 2 12.2114 2 12.2751H0ZM2 2.44685C2 2.26114 2.18108 2 2.54545 2V0C1.20277 0 0 1.03441 0 2.44685H2ZM4.48595 12.1279H4.48595V10.1279C3.97831 10.1279 3.48967 10.321 3.11909 10.6679L4.48595 12.1279Z" fill="black"/>
</svg>
