<svg width="24" height="24" viewBox="0 0 24 24" fill="none" xmlns="http://www.w3.org/2000/svg">
<path d="M13 7C13 6.44772 12.5523 6 12 6C11.4477 6 11 6.44772 11 7H13ZM12 12H11C11 12.3038 11.1381 12.5911 11.3753 12.7809L12 12ZM16.3753 16.7809C16.8066 17.1259 17.4359 17.056 17.7809 16.6247C18.1259 16.1934 18.056 15.5641 17.6247 15.2191L16.3753 16.7809ZM22 12C22 17.5228 17.5228 22 12 22V24C18.6274 24 24 18.6274 24 12H22ZM12 22C6.47715 22 2 17.5228 2 12H0C0 18.6274 5.37258 24 12 24V22ZM2 12C2 6.47715 6.47715 2 12 2V0C5.37258 0 0 5.37258 0 12H2ZM12 2C17.5228 2 22 6.47715 22 12H24C24 5.37258 18.6274 0 12 0V2ZM11 7V12H13V7H11ZM11.3753 12.7809L16.3753 16.7809L17.6247 15.2191L12.6247 11.2191L11.3753 12.7809Z" fill="#29B6F6"/>
</svg>
