<svg width="23" height="24" viewBox="0 0 23 24" fill="none" xmlns="http://www.w3.org/2000/svg">
<path d="M15.1941 9.7071C15.5847 9.31657 15.5847 8.68341 15.1941 8.29288C14.8036 7.90236 14.1704 7.90236 13.7799 8.29288L15.1941 9.7071ZM7.77992 14.2929C7.3894 14.6834 7.3894 15.3166 7.77992 15.7071C8.17045 16.0976 8.80361 16.0976 9.19414 15.7071L7.77992 14.2929ZM7.77992 9.29288C7.3894 9.68341 7.3894 10.3166 7.77992 10.7071C8.17045 11.0976 8.80361 11.0976 9.19414 10.7071L7.77992 9.29288ZM10.1941 9.70709C10.5847 9.31657 10.5847 8.6834 10.1941 8.29288C9.80361 7.90236 9.17045 7.90236 8.77992 8.29288L10.1941 9.70709ZM12.7799 14.2929C12.3894 14.6834 12.3894 15.3166 12.7799 15.7071C13.1704 16.0976 13.8036 16.0976 14.1941 15.7071L12.7799 14.2929ZM15.1941 14.7071C15.5847 14.3166 15.5847 13.6834 15.1941 13.2929C14.8036 12.9024 14.1704 12.9024 13.7799 13.2929L15.1941 14.7071ZM7.47138 3.01875L7.70412 2.04621L7.47138 3.01875ZM9.45672 2.37367L10.2167 3.02368L10.2167 3.02368L9.45672 2.37367ZM4.24845 4.62269L5.24531 4.70188V4.70188L4.24845 4.62269ZM6.70765 2.83598L6.47491 3.80852L6.70765 2.83598ZM2.95926 7.09435L3.34262 8.01795H3.34262L2.95926 7.09435ZM4.18627 5.40552L3.18941 5.32634L4.18627 5.40552ZM1.29463 10.2864L0.44161 10.8082L0.44161 10.8082L1.29463 10.2864ZM2.23396 7.3954L1.8506 6.4718H1.8506L2.23396 7.3954ZM1.70446 13.0437L0.851439 12.5219H0.851439L1.70446 13.0437ZM1.70446 10.9562L2.55748 10.4344L2.55748 10.4344L1.70446 10.9562ZM2.23396 16.6046L1.8506 17.5282H1.8506L2.23396 16.6046ZM1.29463 13.7136L2.14765 14.2355L1.29463 13.7136ZM4.18627 18.5945L3.18941 18.6736L4.18627 18.5945ZM2.95926 16.9056L3.34262 15.982H3.34261L2.95926 16.9056ZM6.70765 21.164L6.47491 20.1915H6.47491L6.70765 21.164ZM4.24845 19.3773L5.24531 19.2981L4.24845 19.3773ZM9.45672 21.6263L10.2167 20.9763H10.2167L9.45672 21.6263ZM7.47138 20.9812L7.70412 21.9538H7.70412L7.47138 20.9812ZM13.0069 22.2231L13.7668 22.8731H13.7668L13.0069 22.2231ZM9.96716 22.2231L9.20723 22.8731H9.20723L9.96716 22.2231ZM15.5027 20.9812L15.2699 21.9538L15.5027 20.9812ZM13.5173 21.6263L12.7574 20.9763H12.7574L13.5173 21.6263ZM18.7256 19.3773L19.7225 19.4565L18.7256 19.3773ZM16.2664 21.164L16.4991 20.1915L16.2664 21.164ZM20.0148 16.9056L20.3982 17.8292L20.0148 16.9056ZM18.7878 18.5945L17.7909 18.5153L18.7878 18.5945ZM21.6794 13.7136L20.8264 14.2355L20.8264 14.2355L21.6794 13.7136ZM20.7401 16.6046L20.3567 15.681V15.681L20.7401 16.6046ZM21.2696 10.9562L22.1226 11.4781L22.1226 11.4781L21.2696 10.9562ZM21.2696 13.0437L22.1226 12.5219L22.1226 12.5219L21.2696 13.0437ZM20.7401 7.3954L21.1235 6.4718L20.7401 7.3954ZM21.6794 10.2864L20.8264 9.76448L20.8264 9.76448L21.6794 10.2864ZM18.7878 5.40552L17.7909 5.48471V5.48471L18.7878 5.40552ZM20.0148 7.09435L19.6314 8.01795L20.0148 7.09435ZM16.2664 2.83598L16.0337 1.86344L16.2664 2.83598ZM18.7256 4.62269L19.7225 4.54351V4.54351L18.7256 4.62269ZM13.5173 2.37367L12.7574 3.02368L12.7574 3.02368L13.5173 2.37367ZM15.5027 3.01875L15.7354 3.99129L15.5027 3.01875ZM13.0069 1.7769L13.7668 1.1269L13.7668 1.1269L13.0069 1.7769ZM9.96716 1.7769L9.20723 1.1269L9.20723 1.1269L9.96716 1.7769ZM12.247 2.4269L12.7574 3.02368L14.2773 1.72367L13.7668 1.1269L12.247 2.4269ZM15.7354 3.99129L16.4991 3.80852L16.0337 1.86344L15.2699 2.04621L15.7354 3.99129ZM17.7287 4.70188L17.7909 5.48471L19.7846 5.32634L19.7225 4.54351L17.7287 4.70188ZM19.6314 8.01795L20.3567 8.319L21.1235 6.4718L20.3982 6.17075L19.6314 8.01795ZM20.8264 9.76448L20.4166 10.4344L22.1226 11.4781L22.5324 10.8082L20.8264 9.76448ZM20.4166 13.5656L20.8264 14.2355L22.5324 13.1917L22.1226 12.5219L20.4166 13.5656ZM20.3567 15.681L19.6314 15.982L20.3982 17.8292L21.1235 17.5282L20.3567 15.681ZM17.7909 18.5153L17.7287 19.2981L19.7225 19.4565L19.7846 18.6736L17.7909 18.5153ZM16.4991 20.1915L15.7354 20.0087L15.2699 21.9538L16.0337 22.1365L16.4991 20.1915ZM12.7574 20.9763L12.247 21.5731L13.7668 22.8731L14.2773 22.2763L12.7574 20.9763ZM10.7271 21.5731L10.2167 20.9763L8.69678 22.2763L9.20723 22.8731L10.7271 21.5731ZM7.23864 20.0087L6.47491 20.1915L6.94038 22.1365L7.70412 21.9538L7.23864 20.0087ZM5.24531 19.2981L5.18313 18.5153L3.18941 18.6736L3.25159 19.4565L5.24531 19.2981ZM3.34261 15.982L2.61732 15.681L1.8506 17.5282L2.5759 17.8292L3.34261 15.982ZM2.14765 14.2355L2.55748 13.5656L0.851439 12.5219L0.44161 13.1917L2.14765 14.2355ZM2.55748 10.4344L2.14765 9.76448L0.44161 10.8082L0.851439 11.4781L2.55748 10.4344ZM2.61732 8.319L3.34262 8.01795L2.5759 6.17075L1.8506 6.4718L2.61732 8.319ZM5.18313 5.48471L5.24531 4.70188L3.25159 4.54351L3.18941 5.32634L5.18313 5.48471ZM6.47491 3.80852L7.23864 3.99129L7.70412 2.04621L6.94038 1.86344L6.47491 3.80852ZM10.2167 3.02368L10.7271 2.4269L9.20723 1.1269L8.69679 1.72367L10.2167 3.02368ZM13.7799 8.29288L7.77992 14.2929L9.19414 15.7071L15.1941 9.7071L13.7799 8.29288ZM9.19414 10.7071L10.1941 9.70709L8.77992 8.29288L7.77992 9.29288L9.19414 10.7071ZM14.1941 15.7071L15.1941 14.7071L13.7799 13.2929L12.7799 14.2929L14.1941 15.7071ZM7.23864 3.99129C8.33425 4.25348 9.4844 3.87977 10.2167 3.02368L8.69679 1.72367C8.4527 2.00904 8.06932 2.13361 7.70412 2.04621L7.23864 3.99129ZM5.24531 4.70188C5.29394 4.08972 5.87768 3.6656 6.47491 3.80852L6.94038 1.86344C5.14871 1.43468 3.39747 2.70703 3.25159 4.54351L5.24531 4.70188ZM3.34262 8.01795C4.38309 7.58609 5.09392 6.60771 5.18313 5.48471L3.18941 5.32634C3.15967 5.70067 2.92273 6.0268 2.5759 6.17075L3.34262 8.01795ZM2.14765 9.76448C1.82717 9.24065 2.05014 8.55442 2.61732 8.319L1.8506 6.4718C0.149091 7.17804 -0.519824 9.23675 0.44161 10.8082L2.14765 9.76448ZM2.55748 13.5656C3.1454 12.6047 3.1454 11.3953 2.55748 10.4344L0.851439 11.4781C1.04741 11.7984 1.04741 12.2015 0.851439 12.5219L2.55748 13.5656ZM2.61732 15.681C2.05014 15.4456 1.82717 14.7593 2.14765 14.2355L0.44161 13.1917C-0.519824 14.7632 0.149092 16.8219 1.8506 17.5282L2.61732 15.681ZM5.18313 18.5153C5.09392 17.3923 4.38309 16.4139 3.34262 15.982L2.5759 17.8292C2.92273 17.9732 3.15967 18.2993 3.18941 18.6736L5.18313 18.5153ZM6.47491 20.1915C5.87768 20.3344 5.29394 19.9103 5.24531 19.2981L3.25159 19.4565C3.39747 21.2929 5.14871 22.5653 6.94038 22.1365L6.47491 20.1915ZM10.2167 20.9763C9.4844 20.1202 8.33425 19.7465 7.23864 20.0087L7.70412 21.9538C8.06932 21.8664 8.4527 21.9909 8.69679 22.2763L10.2167 20.9763ZM12.247 21.5731C11.8478 22.0397 11.1263 22.0397 10.7271 21.5731L9.20723 22.8731C10.4047 24.2731 12.5694 24.2731 13.7668 22.8731L12.247 21.5731ZM15.7354 20.0087C14.6398 19.7465 13.4897 20.1202 12.7574 20.9763L14.2773 22.2763C14.5214 21.9909 14.9047 21.8664 15.2699 21.9538L15.7354 20.0087ZM17.7287 19.2981C17.6801 19.9103 17.0964 20.3344 16.4991 20.1915L16.0337 22.1365C17.8253 22.5653 19.5766 21.2929 19.7225 19.4565L17.7287 19.2981ZM19.6314 15.982C18.591 16.4139 17.8801 17.3923 17.7909 18.5153L19.7846 18.6736C19.8144 18.2993 20.0513 17.9732 20.3982 17.8292L19.6314 15.982ZM20.8264 14.2355C21.1469 14.7593 20.9239 15.4456 20.3567 15.681L21.1235 17.5282C22.825 16.8219 23.4939 14.7632 22.5324 13.1917L20.8264 14.2355ZM20.4166 10.4344C19.8287 11.3953 19.8287 12.6047 20.4166 13.5656L22.1226 12.5219C21.9266 12.2015 21.9266 11.7984 22.1226 11.4781L20.4166 10.4344ZM20.3567 8.319C20.9239 8.55442 21.1469 9.24065 20.8264 9.76448L22.5324 10.8082C23.4939 9.23675 22.825 7.17804 21.1235 6.4718L20.3567 8.319ZM17.7909 5.48471C17.8801 6.60772 18.591 7.58609 19.6314 8.01795L20.3982 6.17075C20.0513 6.0268 19.8144 5.70067 19.7846 5.32634L17.7909 5.48471ZM16.4991 3.80852C17.0964 3.6656 17.6801 4.08972 17.7287 4.70188L19.7225 4.54351C19.5766 2.70703 17.8253 1.43468 16.0337 1.86344L16.4991 3.80852ZM12.7574 3.02368C13.4897 3.87977 14.6398 4.25348 15.7354 3.99129L15.2699 2.04621C14.9047 2.13361 14.5214 2.00904 14.2773 1.72367L12.7574 3.02368ZM13.7668 1.1269C12.5694 -0.273094 10.4047 -0.273095 9.20723 1.1269L10.7271 2.4269C11.1263 1.96024 11.8478 1.96024 12.247 2.4269L13.7668 1.1269Z" fill="#F64156"/>
</svg>
