<svg width="22" height="22" viewBox="0 0 22 22" fill="none" xmlns="http://www.w3.org/2000/svg">
<path d="M5.29289 20.7071L6 21.4142L6 21.4142L5.29289 20.7071ZM6.41421 19.5858L5.70711 18.8787L5.70711 18.8787L6.41421 19.5858ZM13.1421 13.8579L13.35 12.8798L12.8189 12.7669L12.435 13.1508L13.1421 13.8579ZM8.36037 9.63963L9.06748 10.3467L9.51114 9.90307L9.30468 9.31057L8.36037 9.63963ZM1.29289 16.7071L2 17.4142H2L1.29289 16.7071ZM16.7071 6.70711C17.0976 6.31658 17.0976 5.68342 16.7071 5.29289C16.3166 4.90237 15.6834 4.90237 15.2929 5.29289L16.7071 6.70711ZM14.2929 6.29289C13.9024 6.68342 13.9024 7.31658 14.2929 7.70711C14.6834 8.09763 15.3166 8.09763 15.7071 7.70711L14.2929 6.29289ZM20 7.5C20 10.5376 17.5376 13 14.5 13V15C18.6421 15 22 11.6421 22 7.5H20ZM9 7.5C9 4.46243 11.4624 2 14.5 2V0C10.3579 0 7 3.35786 7 7.5H9ZM14.5 2C17.5376 2 20 4.46243 20 7.5H22C22 3.35786 18.6421 0 14.5 0V2ZM0 17.4142V20H2V17.4142H0ZM2 22H4.58579V20H2V22ZM10.5858 15H8V17H10.5858V15ZM6 17V18.1716H8V17H6ZM6 21.4142L7.12132 20.2929L5.70711 18.8787L4.58579 20L6 21.4142ZM12.435 13.1508L10.5858 15L12 16.4142L13.8492 14.565L12.435 13.1508ZM14.5 13C14.1046 13 13.72 12.9584 13.35 12.8798L12.9342 14.8361C13.4401 14.9436 13.964 15 14.5 15V13ZM9.30468 9.31057C9.10757 8.74489 9 8.13607 9 7.5H7C7 8.36316 7.14622 9.1943 7.41606 9.96868L9.30468 9.31057ZM2 17.4142L9.06748 10.3467L7.65327 8.93252L0.585786 16L2 17.4142ZM15.2929 5.29289L14.2929 6.29289L15.7071 7.70711L16.7071 6.70711L15.2929 5.29289ZM6 18.1716C6 18.4368 5.89464 18.6911 5.70711 18.8787L7.12132 20.2929C7.68393 19.7303 8 18.9672 8 18.1716H6ZM8 15C6.89543 15 6 15.8954 6 17H8V15ZM10.5858 17C11.1162 17 11.6249 16.7893 12 16.4142L10.5858 15V17ZM4.58579 22C5.11622 22 5.62493 21.7893 6 21.4142L4.58579 20H4.58579V22ZM0 20C0 21.1046 0.89543 22 2 22V20H0ZM2 17.4142L2 17.4142L0.585787 16C0.210715 16.3751 0 16.8838 0 17.4142H2Z" fill="#12E700"/>
</svg>
