<svg width="21" height="18" viewBox="0 0 21 18" fill="none" xmlns="http://www.w3.org/2000/svg">
<path d="M13.4099 5.81103L12.5169 6.26097L12.7509 6.72541L13.2655 6.80054L13.4099 5.81103ZM15.2084 11.2696L14.5134 10.5505L14.1336 10.9176L14.2227 11.4382L15.2084 11.2696ZM10.5 14.6431L10.9579 13.7541L10.5 13.5182L10.0421 13.7541L10.5 14.6431ZM5.79164 11.2696L6.77731 11.4382L6.86641 10.9176L6.48658 10.5505L5.79164 11.2696ZM7.59007 5.81103L7.73453 6.80054L8.24914 6.72541L8.48313 6.26097L7.59007 5.81103ZM2.23326 7.83061L1.53832 8.54968H1.53832L2.23326 7.83061ZM2.66713 6.52973L2.52267 5.54022L2.66713 6.52973ZM6.0987 16.9103L5.64077 16.0213L6.0987 16.9103ZM4.9638 16.107L5.94947 16.2757L4.9638 16.107ZM16.0362 16.107L15.0505 16.2757L16.0362 16.107ZM14.9013 16.9103L14.4434 17.7993L14.9013 16.9103ZM18.3329 6.52973L18.1884 7.51924L18.3329 6.52973ZM18.7667 7.83061L19.4617 8.54968L18.7667 7.83061ZM11.201 1.42666L10.308 1.87659L11.201 1.42666ZM9.79899 1.42666L10.692 1.87659V1.87659L9.79899 1.42666ZM10.308 1.87659L12.5169 6.26097L14.303 5.36109L12.0941 0.976719L10.308 1.87659ZM13.2655 6.80054L18.1884 7.51924L18.4773 5.54022L13.5544 4.82152L13.2655 6.80054ZM18.0718 7.11154L14.5134 10.5505L15.9033 11.9886L19.4617 8.54968L18.0718 7.11154ZM14.2227 11.4382L15.0505 16.2757L17.0219 15.9383L16.194 11.1009L14.2227 11.4382ZM15.3592 16.0213L10.9579 13.7541L10.0421 15.5321L14.4434 17.7993L15.3592 16.0213ZM10.0421 13.7541L5.64077 16.0213L6.55663 17.7993L10.9579 15.5321L10.0421 13.7541ZM5.94947 16.2757L6.77731 11.4382L4.80597 11.1009L3.97813 15.9383L5.94947 16.2757ZM6.48658 10.5505L2.9282 7.11154L1.53832 8.54968L5.0967 11.9886L6.48658 10.5505ZM2.81159 7.51924L7.73453 6.80054L7.44562 4.82152L2.52267 5.54022L2.81159 7.51924ZM8.48313 6.26097L10.692 1.87659L8.90593 0.976719L6.69701 5.36109L8.48313 6.26097ZM2.9282 7.11154C2.95442 7.13688 2.98145 7.17968 2.99356 7.23334C3.00477 7.283 3.00035 7.32846 2.98805 7.36533C2.96209 7.44317 2.88925 7.5079 2.81159 7.51924L2.52267 5.54022C1.09451 5.74872 0.460611 7.50813 1.53832 8.54968L2.9282 7.11154ZM5.64077 16.0213C5.71314 15.984 5.80064 15.999 5.85436 16.037C5.88091 16.0558 5.90938 16.086 5.92947 16.1312C5.95139 16.1806 5.95667 16.2337 5.94947 16.2757L3.97813 15.9383C3.72399 17.4234 5.29487 18.4492 6.55663 17.7993L5.64077 16.0213ZM15.0505 16.2757C15.0433 16.2337 15.0486 16.1806 15.0705 16.1312C15.0906 16.086 15.1191 16.0558 15.1456 16.037C15.1994 15.999 15.2869 15.984 15.3592 16.0213L14.4434 17.7993C15.7051 18.4492 17.276 17.4234 17.0219 15.9383L15.0505 16.2757ZM18.1884 7.51924C18.1108 7.5079 18.0379 7.44317 18.0119 7.36533C17.9996 7.32846 17.9952 7.283 18.0064 7.23334C18.0186 7.17968 18.0456 7.13688 18.0718 7.11154L19.4617 8.54968C20.5394 7.50813 19.9055 5.74872 18.4773 5.54022L18.1884 7.51924ZM12.0941 0.976719C11.438 -0.325573 9.56204 -0.325573 8.90593 0.976719L10.692 1.87659C10.6475 1.96509 10.5572 2 10.5 2C10.4428 2 10.3525 1.96509 10.308 1.87659L12.0941 0.976719Z" fill="white"/>
</svg>
