<svg width="23" height="24" viewBox="0 0 23 24" fill="none" xmlns="http://www.w3.org/2000/svg">
<path d="M7.47138 2.94185L7.70412 1.96931L7.47138 2.94185ZM9.45672 2.29677L10.2167 2.94677L10.2167 2.94677L9.45672 2.29677ZM4.24845 4.54579L5.24531 4.62497V4.62497L4.24845 4.54579ZM6.70765 2.75908L6.47491 3.73162L6.70765 2.75908ZM2.95926 7.01745L3.34262 7.94105H3.34262L2.95926 7.01745ZM4.18627 5.32862L3.18941 5.24943L4.18627 5.32862ZM1.29463 10.2095L0.44161 10.7313L0.44161 10.7313L1.29463 10.2095ZM2.23396 7.3185L1.8506 6.3949H1.8506L2.23396 7.3185ZM1.70446 12.9668L0.851439 12.445H0.851439L1.70446 12.9668ZM1.70446 10.8793L2.55748 10.3575L2.55748 10.3575L1.70446 10.8793ZM2.23396 16.5277L1.8506 17.4513H1.8506L2.23396 16.5277ZM1.29463 13.6367L2.14765 14.1586L1.29463 13.6367ZM4.18627 18.5175L3.18941 18.5967L4.18627 18.5175ZM2.95926 16.8287L3.34262 15.9051H3.34261L2.95926 16.8287ZM6.70765 21.0871L6.47491 20.1145H6.47491L6.70765 21.0871ZM4.24845 19.3004L5.24531 19.2212L4.24845 19.3004ZM9.45672 21.5494L10.2167 20.8994H10.2167L9.45672 21.5494ZM7.47138 20.9043L7.70412 21.8769H7.70412L7.47138 20.9043ZM13.0069 22.1462L13.7668 22.7962H13.7668L13.0069 22.1462ZM9.96716 22.1462L9.20723 22.7962H9.20723L9.96716 22.1462ZM15.5027 20.9043L15.2699 21.8769L15.5027 20.9043ZM13.5173 21.5494L12.7574 20.8994H12.7574L13.5173 21.5494ZM18.7256 19.3004L19.7225 19.3796L18.7256 19.3004ZM16.2664 21.0871L16.4991 20.1145L16.2664 21.0871ZM20.0148 16.8287L20.3982 17.7523L20.0148 16.8287ZM18.7878 18.5175L17.7909 18.4384L18.7878 18.5175ZM21.6794 13.6367L20.8264 14.1586L20.8264 14.1586L21.6794 13.6367ZM20.7401 16.5277L20.3567 15.6041V15.6041L20.7401 16.5277ZM21.2696 10.8793L22.1226 11.4012L22.1226 11.4012L21.2696 10.8793ZM21.2696 12.9668L22.1226 12.445L22.1226 12.445L21.2696 12.9668ZM20.7401 7.3185L21.1235 6.3949L20.7401 7.3185ZM21.6794 10.2095L20.8264 9.68758L20.8264 9.68758L21.6794 10.2095ZM18.7878 5.32862L17.7909 5.4078V5.4078L18.7878 5.32862ZM20.0148 7.01745L19.6314 7.94105L20.0148 7.01745ZM16.2664 2.75908L16.0337 1.78654L16.2664 2.75908ZM18.7256 4.54579L19.7225 4.4666V4.4666L18.7256 4.54579ZM13.5173 2.29677L12.7574 2.94677L12.7574 2.94677L13.5173 2.29677ZM15.5027 2.94185L15.7354 3.91439L15.5027 2.94185ZM13.0069 1.7L13.7668 1.05L13.7668 1.05L13.0069 1.7ZM9.96716 1.7L9.20723 1.05L9.20723 1.05L9.96716 1.7ZM12.247 2.35L12.7574 2.94677L14.2773 1.64677L13.7668 1.05L12.247 2.35ZM15.7354 3.91439L16.4991 3.73162L16.0337 1.78654L15.2699 1.96931L15.7354 3.91439ZM17.7287 4.62497L17.7909 5.4078L19.7846 5.24943L19.7225 4.4666L17.7287 4.62497ZM19.6314 7.94105L20.3567 8.2421L21.1235 6.3949L20.3982 6.09385L19.6314 7.94105ZM20.8264 9.68758L20.4166 10.3575L22.1226 11.4012L22.5324 10.7313L20.8264 9.68758ZM20.4166 13.4887L20.8264 14.1586L22.5324 13.1148L22.1226 12.445L20.4166 13.4887ZM20.3567 15.6041L19.6314 15.9051L20.3982 17.7523L21.1235 17.4513L20.3567 15.6041ZM17.7909 18.4384L17.7287 19.2212L19.7225 19.3796L19.7846 18.5967L17.7909 18.4384ZM16.4991 20.1145L15.7354 19.9318L15.2699 21.8769L16.0337 22.0596L16.4991 20.1145ZM12.7574 20.8994L12.247 21.4962L13.7668 22.7962L14.2773 22.1994L12.7574 20.8994ZM10.7271 21.4962L10.2167 20.8994L8.69678 22.1994L9.20723 22.7962L10.7271 21.4962ZM7.23864 19.9318L6.47491 20.1145L6.94038 22.0596L7.70412 21.8769L7.23864 19.9318ZM5.24531 19.2212L5.18313 18.4384L3.18941 18.5967L3.25159 19.3796L5.24531 19.2212ZM3.34261 15.9051L2.61732 15.6041L1.8506 17.4513L2.5759 17.7523L3.34261 15.9051ZM2.14765 14.1586L2.55748 13.4887L0.851439 12.445L0.44161 13.1148L2.14765 14.1586ZM2.55748 10.3575L2.14765 9.68758L0.44161 10.7313L0.851439 11.4012L2.55748 10.3575ZM2.61732 8.2421L3.34262 7.94105L2.5759 6.09385L1.8506 6.3949L2.61732 8.2421ZM5.18313 5.4078L5.24531 4.62497L3.25159 4.4666L3.18941 5.24943L5.18313 5.4078ZM6.47491 3.73162L7.23864 3.91439L7.70412 1.96931L6.94038 1.78654L6.47491 3.73162ZM10.2167 2.94677L10.7271 2.35L9.20723 1.05L8.69679 1.64677L10.2167 2.94677ZM7.23864 3.91439C8.33425 4.17657 9.4844 3.80287 10.2167 2.94677L8.69679 1.64677C8.4527 1.93213 8.06932 2.0567 7.70412 1.96931L7.23864 3.91439ZM5.24531 4.62497C5.29394 4.01281 5.87768 3.5887 6.47491 3.73162L6.94038 1.78654C5.14871 1.35778 3.39747 2.63013 3.25159 4.4666L5.24531 4.62497ZM3.34262 7.94105C4.38309 7.50918 5.09392 6.53081 5.18313 5.4078L3.18941 5.24943C3.15967 5.62377 2.92273 5.94989 2.5759 6.09385L3.34262 7.94105ZM2.14765 9.68758C1.82717 9.16375 2.05014 8.47751 2.61732 8.2421L1.8506 6.3949C0.149091 7.10114 -0.519824 9.15985 0.44161 10.7313L2.14765 9.68758ZM2.55748 13.4887C3.1454 12.5278 3.1454 11.3184 2.55748 10.3575L0.851439 11.4012C1.04741 11.7215 1.04741 12.1246 0.851439 12.445L2.55748 13.4887ZM2.61732 15.6041C2.05014 15.3687 1.82717 14.6824 2.14765 14.1586L0.44161 13.1148C-0.519824 14.6863 0.149092 16.745 1.8506 17.4513L2.61732 15.6041ZM5.18313 18.4384C5.09392 17.3154 4.38309 16.337 3.34262 15.9051L2.5759 17.7523C2.92273 17.8963 3.15967 18.2224 3.18941 18.5967L5.18313 18.4384ZM6.47491 20.1145C5.87768 20.2575 5.29394 19.8334 5.24531 19.2212L3.25159 19.3796C3.39747 21.216 5.14871 22.4884 6.94038 22.0596L6.47491 20.1145ZM10.2167 20.8994C9.4844 20.0433 8.33425 19.6696 7.23864 19.9318L7.70412 21.8769C8.06932 21.7895 8.4527 21.914 8.69679 22.1994L10.2167 20.8994ZM12.247 21.4962C11.8478 21.9628 11.1263 21.9628 10.7271 21.4962L9.20723 22.7962C10.4047 24.1962 12.5694 24.1962 13.7668 22.7962L12.247 21.4962ZM15.7354 19.9318C14.6398 19.6696 13.4897 20.0433 12.7574 20.8994L14.2773 22.1994C14.5214 21.914 14.9047 21.7895 15.2699 21.8769L15.7354 19.9318ZM17.7287 19.2212C17.6801 19.8334 17.0964 20.2575 16.4991 20.1145L16.0337 22.0596C17.8253 22.4884 19.5766 21.216 19.7225 19.3796L17.7287 19.2212ZM19.6314 15.9051C18.591 16.337 17.8801 17.3154 17.7909 18.4384L19.7846 18.5967C19.8144 18.2224 20.0513 17.8963 20.3982 17.7523L19.6314 15.9051ZM20.8264 14.1586C21.1469 14.6824 20.9239 15.3687 20.3567 15.6041L21.1235 17.4513C22.825 16.745 23.4939 14.6863 22.5324 13.1148L20.8264 14.1586ZM20.4166 10.3575C19.8287 11.3184 19.8287 12.5278 20.4166 13.4887L22.1226 12.445C21.9266 12.1246 21.9266 11.7215 22.1226 11.4012L20.4166 10.3575ZM20.3567 8.2421C20.9239 8.47751 21.1469 9.16375 20.8264 9.68758L22.5324 10.7313C23.4939 9.15985 22.825 7.10114 21.1235 6.3949L20.3567 8.2421ZM17.7909 5.4078C17.8801 6.53081 18.591 7.50918 19.6314 7.94105L20.3982 6.09385C20.0513 5.94989 19.8144 5.62377 19.7846 5.24943L17.7909 5.4078ZM16.4991 3.73162C17.0964 3.5887 17.6801 4.01281 17.7287 4.62497L19.7225 4.4666C19.5766 2.63013 17.8253 1.35778 16.0337 1.78654L16.4991 3.73162ZM12.7574 2.94677C13.4897 3.80287 14.6398 4.17657 15.7354 3.91439L15.2699 1.96931C14.9047 2.0567 14.5214 1.93213 14.2773 1.64677L12.7574 2.94677ZM13.7668 1.05C12.5694 -0.349998 10.4047 -0.349999 9.20723 1.05L10.7271 2.35C11.1263 1.88333 11.8478 1.88333 12.247 2.35L13.7668 1.05Z" fill="#FFE400"/>
<path d="M9.96191 14.2573C9.96191 14.6675 9.62941 15 9.21924 15C8.80907 15 8.47656 14.6675 8.47656 14.2573V11.0315C8.47656 10.6516 8.11175 10.3781 7.74707 10.4846L7.72155 10.4921C7.36963 10.5949 7.01758 10.331 7.01758 9.96435C7.01758 9.72997 7.16616 9.52137 7.38766 9.44476L9.80716 8.60797C9.81942 8.60373 9.83231 8.60156 9.84528 8.60156C9.9097 8.60156 9.96191 8.65378 9.96191 8.71819V14.2573Z" fill="#FFE400"/>
<path d="M16.334 12.3853C16.334 13.2495 16.1392 13.916 15.7495 14.3848C15.3628 14.8535 14.8164 15.0879 14.1104 15.0879C13.3984 15.0879 12.8477 14.8521 12.458 14.3804C12.0684 13.9087 11.8735 13.2437 11.8735 12.3853V11.2163C11.8735 10.3521 12.0669 9.68555 12.4536 9.2168C12.8433 8.74805 13.3926 8.51367 14.1016 8.51367C14.8105 8.51367 15.3599 8.74951 15.7495 9.22119C16.1392 9.69287 16.334 10.3594 16.334 11.2207V12.3853ZM14.853 11.0273C14.853 10.5674 14.793 10.2246 14.6729 9.99902C14.5527 9.77051 14.3623 9.65625 14.1016 9.65625C13.8467 9.65625 13.6606 9.76172 13.5435 9.97266C13.4292 10.1836 13.3677 10.5029 13.3589 10.9307V12.5654C13.3589 13.043 13.4189 13.3931 13.5391 13.6157C13.6592 13.8354 13.8496 13.9453 14.1104 13.9453C14.3623 13.9453 14.5483 13.8384 14.6685 13.6245C14.7886 13.4077 14.8501 13.0693 14.853 12.6094V11.0273Z" fill="#FFE400"/>
</svg>
