<svg width="21" height="23" viewBox="0 0 21 23" fill="none" xmlns="http://www.w3.org/2000/svg">
<path d="M20.2279 3.06341H18.568V1.82505C18.568 0.818707 17.7555 0 16.7569 0H3.02713C2.02849 0 1.21605 0.818707 1.21605 1.82505V3.06341H0.772094C0.34574 3.06341 0 3.41174 0 3.84146C0 4.27118 0.345663 4.61951 0.772094 4.61951H1.21605V5.85788C1.21605 6.86422 2.02849 7.68293 3.02713 7.68293H16.7569C17.7555 7.68293 18.568 6.86422 18.568 5.85788V4.61944H19.4558V9.19024H10.5C10.0736 9.19024 9.72791 9.53857 9.72791 9.96829V12.8664H9.63138C8.67885 12.8664 7.90391 13.6473 7.90391 14.6072V21.2592C7.90391 22.2191 8.67885 23 9.63138 23H11.3685C12.3211 23 13.096 22.2191 13.096 21.2592V14.6072C13.096 13.6473 12.3211 12.8664 11.3685 12.8664H11.272V10.7463H20.2279C20.6543 10.7463 21 10.3979 21 9.96821V3.84146C21 3.41182 20.6543 3.06341 20.2279 3.06341ZM17.0239 5.8578C17.0239 6.00618 16.9041 6.12683 16.7569 6.12683H3.02713C2.87989 6.12683 2.76016 6.00618 2.76016 5.8578V1.82505C2.76016 1.67668 2.87989 1.55602 3.02713 1.55602H16.7569C16.9041 1.55602 17.0239 1.67668 17.0239 1.82505V5.8578ZM11.5519 14.6072V21.2592C11.5519 21.3611 11.4697 21.444 11.3685 21.444H9.63138C9.53025 21.444 9.44803 21.3611 9.44803 21.2592V14.6072C9.44803 14.5053 9.53025 14.4224 9.63138 14.4224H11.3685C11.4697 14.4224 11.5519 14.5053 11.5519 14.6072Z" fill="white"/>
</svg>
