<svg width="23" height="30" viewBox="0 0 23 30" fill="none" xmlns="http://www.w3.org/2000/svg">
<path d="M22 11.3187C22 19.3575 14.7491 26.5057 12.2983 28.6922C11.8383 29.1026 11.1617 29.1026 10.7017 28.6922C8.25086 26.5057 1 19.3575 1 11.3187C1 5.61982 5.70101 1 11.5 1C17.299 1 22 5.61982 22 11.3187Z" stroke="#FF9800" stroke-width="2" stroke-linecap="round"/>
<path d="M15.4375 11.3187C15.4375 13.4557 13.6746 15.1882 11.5 15.1882C9.32538 15.1882 7.5625 13.4557 7.5625 11.3187C7.5625 9.1816 9.32538 7.44916 11.5 7.44916C13.6746 7.44916 15.4375 9.1816 15.4375 11.3187Z" stroke="#FF9800" stroke-width="2" stroke-linecap="round"/>
</svg>
