<svg width="30" height="30" viewBox="0 0 30 30" fill="none" xmlns="http://www.w3.org/2000/svg">
<path d="M1.01253 3.80866C2.33026 17.0997 12.9003 27.6697 26.1913 28.9875C27.7371 29.1407 29 27.8667 29 26.3134V21.3091C29 20.0984 28.2253 19.0236 27.0768 18.6408L22.2113 17.019C21.2006 16.6821 20.0864 16.9451 19.3331 17.6984L18.5543 18.4772C18.085 18.9465 17.3496 19.0264 16.8019 18.6517C14.2779 16.9252 12.8622 15.5125 11.3192 13.1893C10.958 12.6456 11.0444 11.9241 11.5059 11.4626L12.3016 10.6669C13.0549 9.91363 13.3179 8.79937 12.981 7.78871L11.3592 2.92317C10.9764 1.77467 9.90155 1 8.69092 1H3.68664C2.13329 1 0.859271 2.26288 1.01253 3.80866Z" stroke="#FF9800" stroke-width="2" stroke-linecap="round"/>
</svg>
