<svg width="145" height="20" viewBox="0 0 145 20" fill="none" xmlns="http://www.w3.org/2000/svg">
<path d="M137.224 6.26206L136.335 6.719L136.571 7.17872L137.083 7.25197L137.224 6.26206ZM139.23 12.2323L138.542 11.5066L138.153 11.8757L138.245 12.4042L139.23 12.2323ZM133.979 15.9222L134.43 15.0296L133.979 14.8018L133.528 15.0296L133.979 15.9222ZM128.728 12.2323L129.714 12.4042L129.806 11.8757L129.416 11.5066L128.728 12.2323ZM130.734 6.26206L130.876 7.25197L131.387 7.17872L131.624 6.719L130.734 6.26206ZM124.76 8.47098L124.072 9.19675H124.072L124.76 8.47098ZM125.244 7.04814L125.102 6.05824L125.244 7.04814ZM129.071 18.4019L128.62 17.5093L129.071 18.4019ZM127.805 17.5233L128.79 17.6952H128.79L127.805 17.5233ZM140.153 17.5233L139.168 17.6952L140.153 17.5233ZM138.887 18.4019L138.437 19.2944L138.887 18.4019ZM142.714 7.04814L142.573 8.03805L142.714 7.04814ZM143.198 8.47098L143.886 9.19675L143.198 8.47098ZM134.761 1.46665L133.871 1.92359L134.761 1.46665ZM133.197 1.46665L134.087 1.92359V1.92359L133.197 1.46665ZM133.871 1.92359L136.335 6.719L138.114 5.80513L135.65 1.00972L133.871 1.92359ZM137.083 7.25197L142.573 8.03805L142.856 6.05824L137.366 5.27216L137.083 7.25197ZM142.51 7.7452L138.542 11.5066L139.918 12.9581L143.886 9.19675L142.51 7.7452ZM138.245 12.4042L139.168 17.6952L141.138 17.3514L140.215 12.0604L138.245 12.4042ZM139.338 17.5093L134.43 15.0296L133.528 16.8147L138.437 19.2944L139.338 17.5093ZM133.528 15.0296L128.62 17.5093L129.522 19.2944L134.43 16.8147L133.528 15.0296ZM128.79 17.6952L129.714 12.4042L127.743 12.0604L126.82 17.3514L128.79 17.6952ZM129.416 11.5066L125.448 7.7452L124.072 9.19675L128.04 12.9581L129.416 11.5066ZM125.386 8.03805L130.876 7.25197L130.592 5.27216L125.102 6.05824L125.386 8.03805ZM131.624 6.719L134.087 1.92359L132.308 1.00972L129.845 5.80513L131.624 6.719ZM125.448 7.7452C125.462 7.75875 125.484 7.78979 125.495 7.83426C125.504 7.87472 125.5 7.91065 125.491 7.93799C125.481 7.96527 125.465 7.9897 125.443 8.00876C125.417 8.03001 125.394 8.03691 125.386 8.03805L125.102 6.05824C123.624 6.26996 122.911 8.09593 124.072 9.19675L125.448 7.7452ZM128.62 17.5093C128.631 17.5038 128.652 17.4984 128.675 17.5005C128.695 17.5022 128.711 17.5087 128.724 17.518C128.738 17.5273 128.758 17.5463 128.774 17.5812C128.792 17.6207 128.796 17.6637 128.79 17.6952L126.82 17.3514C126.544 18.9347 128.232 19.9458 129.522 19.2944L128.62 17.5093ZM139.168 17.6952C139.163 17.6637 139.167 17.6207 139.184 17.5812C139.2 17.5463 139.221 17.5273 139.234 17.518C139.247 17.5087 139.264 17.5022 139.283 17.5005C139.307 17.4984 139.327 17.5038 139.338 17.5093L138.437 19.2944C139.726 19.9458 141.414 18.9347 141.138 17.3514L139.168 17.6952ZM142.573 8.03805C142.565 8.03691 142.541 8.03001 142.516 8.00876C142.493 7.9897 142.477 7.96527 142.468 7.93799C142.458 7.91065 142.454 7.87472 142.464 7.83426C142.474 7.78979 142.496 7.75875 142.51 7.7452L143.886 9.19675C145.048 8.09593 144.335 6.26996 142.856 6.05824L142.573 8.03805ZM135.65 1.00972C134.959 -0.336574 132.999 -0.336574 132.308 1.00972L134.087 1.92359C134.075 1.94751 134.052 1.97113 134.026 1.98567C134.005 1.99804 133.988 2 133.979 2C133.97 2 133.954 1.99804 133.932 1.98567C133.906 1.97113 133.884 1.94751 133.871 1.92359L135.65 1.00972Z" fill="#FF0000"/>
<path d="M106.599 6.26206L105.71 6.719L105.946 7.17872L106.458 7.25197L106.599 6.26206ZM108.605 12.2323L107.917 11.5066L107.528 11.8757L107.62 12.4042L108.605 12.2323ZM103.354 15.9222L103.805 15.0296L103.354 14.8018L102.903 15.0296L103.354 15.9222ZM98.1034 12.2323L99.0885 12.4042L99.1808 11.8757L98.7914 11.5066L98.1034 12.2323ZM100.109 6.26206L100.251 7.25197L100.762 7.17872L100.999 6.719L100.109 6.26206ZM94.1351 8.47098L93.4472 9.19675H93.4472L94.1351 8.47098ZM94.619 7.04814L94.4772 6.05824L94.619 7.04814ZM98.4459 18.4019L97.9949 17.5093L98.4459 18.4019ZM97.1802 17.5233L98.1653 17.6952H98.1653L97.1802 17.5233ZM109.528 17.5233L108.543 17.6952L109.528 17.5233ZM108.262 18.4019L107.812 19.2944L108.262 18.4019ZM112.089 7.04814L111.948 8.03805L112.089 7.04814ZM112.573 8.47098L113.261 9.19675L112.573 8.47098ZM104.136 1.46665L103.246 1.92359L104.136 1.46665ZM102.572 1.46665L103.462 1.92359V1.92359L102.572 1.46665ZM103.246 1.92359L105.71 6.719L107.489 5.80513L105.025 1.00972L103.246 1.92359ZM106.458 7.25197L111.948 8.03805L112.231 6.05824L106.741 5.27216L106.458 7.25197ZM111.885 7.7452L107.917 11.5066L109.293 12.9581L113.261 9.19675L111.885 7.7452ZM107.62 12.4042L108.543 17.6952L110.513 17.3514L109.59 12.0604L107.62 12.4042ZM108.713 17.5093L103.805 15.0296L102.903 16.8147L107.812 19.2944L108.713 17.5093ZM102.903 15.0296L97.9949 17.5093L98.8968 19.2944L103.805 16.8147L102.903 15.0296ZM98.1653 17.6952L99.0885 12.4042L97.1183 12.0604L96.1951 17.3514L98.1653 17.6952ZM98.7914 11.5066L94.8231 7.7452L93.4472 9.19675L97.4155 12.9581L98.7914 11.5066ZM94.7607 8.03805L100.251 7.25197L99.9673 5.27216L94.4772 6.05824L94.7607 8.03805ZM100.999 6.719L103.462 1.92359L101.683 1.00972L99.2195 5.80513L100.999 6.719ZM94.8231 7.7452C94.8374 7.75875 94.8595 7.78979 94.8697 7.83426C94.879 7.87472 94.875 7.91065 94.8657 7.93799C94.8564 7.96527 94.8401 7.9897 94.8176 8.00876C94.7924 8.03001 94.7687 8.03691 94.7607 8.03805L94.4772 6.05824C92.9986 6.26996 92.2858 8.09593 93.4472 9.19675L94.8231 7.7452ZM97.9949 17.5093C98.0058 17.5038 98.0267 17.4984 98.05 17.5005C98.0698 17.5022 98.0859 17.5087 98.0993 17.518C98.1127 17.5273 98.1331 17.5463 98.1489 17.5812C98.1668 17.6207 98.1708 17.6637 98.1653 17.6952L96.1951 17.3514C95.9188 18.9347 97.6074 19.9458 98.8968 19.2944L97.9949 17.5093ZM108.543 17.6952C108.538 17.6637 108.542 17.6207 108.559 17.5812C108.575 17.5463 108.596 17.5273 108.609 17.518C108.622 17.5087 108.639 17.5022 108.658 17.5005C108.682 17.4984 108.702 17.5038 108.713 17.5093L107.812 19.2944C109.101 19.9458 110.789 18.9347 110.513 17.3514L108.543 17.6952ZM111.948 8.03805C111.94 8.03691 111.916 8.03001 111.891 8.00876C111.868 7.9897 111.852 7.96527 111.843 7.93799C111.833 7.91065 111.829 7.87472 111.839 7.83426C111.849 7.78979 111.871 7.75875 111.885 7.7452L113.261 9.19675C114.423 8.09593 113.71 6.26996 112.231 6.05824L111.948 8.03805ZM105.025 1.00972C104.334 -0.336574 102.374 -0.336574 101.683 1.00972L103.462 1.92359C103.45 1.94751 103.427 1.97113 103.401 1.98567C103.38 1.99804 103.363 2 103.354 2C103.345 2 103.329 1.99804 103.307 1.98567C103.281 1.97113 103.259 1.94751 103.246 1.92359L105.025 1.00972Z" fill="#FF0000"/>
<path d="M75.9743 6.26206L75.0848 6.719L75.321 7.17872L75.8326 7.25197L75.9743 6.26206ZM77.9799 12.2323L77.292 11.5066L76.9026 11.8757L76.9948 12.4042L77.9799 12.2323ZM72.7292 15.9222L73.1801 15.0296L72.7292 14.8018L72.2782 15.0296L72.7292 15.9222ZM67.4784 12.2323L68.4635 12.4042L68.5558 11.8757L68.1664 11.5066L67.4784 12.2323ZM69.484 6.26206L69.6258 7.25197L70.1374 7.17872L70.3735 6.719L69.484 6.26206ZM63.5101 8.47098L62.8222 9.19675H62.8222L63.5101 8.47098ZM63.994 7.04814L63.8522 6.05824L63.994 7.04814ZM67.8209 18.4019L67.3699 17.5093L67.8209 18.4019ZM66.5552 17.5233L67.5403 17.6952H67.5403L66.5552 17.5233ZM78.9031 17.5233L77.918 17.6952L78.9031 17.5233ZM77.6375 18.4019L77.1866 19.2944L77.6375 18.4019ZM81.4644 7.04814L81.3226 8.03805L81.4644 7.04814ZM81.9482 8.47098L82.6361 9.19675L81.9482 8.47098ZM73.5109 1.46665L72.6214 1.92359L73.5109 1.46665ZM71.9474 1.46665L72.8369 1.92359V1.92359L71.9474 1.46665ZM72.6214 1.92359L75.0848 6.719L76.8638 5.80513L74.4004 1.00972L72.6214 1.92359ZM75.8326 7.25197L81.3226 8.03805L81.6061 6.05824L76.116 5.27216L75.8326 7.25197ZM81.2603 7.7452L77.292 11.5066L78.6678 12.9581L82.6361 9.19675L81.2603 7.7452ZM76.9948 12.4042L77.918 17.6952L79.8882 17.3514L78.965 12.0604L76.9948 12.4042ZM78.0884 17.5093L73.1801 15.0296L72.2782 16.8147L77.1866 19.2944L78.0884 17.5093ZM72.2782 15.0296L67.3699 17.5093L68.2718 19.2944L73.1801 16.8147L72.2782 15.0296ZM67.5403 17.6952L68.4635 12.4042L66.4933 12.0604L65.5701 17.3514L67.5403 17.6952ZM68.1664 11.5066L64.1981 7.7452L62.8222 9.19675L66.7905 12.9581L68.1664 11.5066ZM64.1357 8.03805L69.6258 7.25197L69.3423 5.27216L63.8522 6.05824L64.1357 8.03805ZM70.3735 6.719L72.8369 1.92359L71.0579 1.00972L68.5945 5.80513L70.3735 6.719ZM64.1981 7.7452C64.2124 7.75875 64.2345 7.78979 64.2447 7.83426C64.254 7.87472 64.25 7.91065 64.2407 7.93799C64.2314 7.96527 64.2151 7.9897 64.1926 8.00876C64.1674 8.03001 64.1437 8.03691 64.1357 8.03805L63.8522 6.05824C62.3736 6.26996 61.6608 8.09593 62.8222 9.19675L64.1981 7.7452ZM67.3699 17.5093C67.3808 17.5038 67.4017 17.4984 67.425 17.5005C67.4448 17.5022 67.4609 17.5087 67.4743 17.518C67.4877 17.5273 67.5081 17.5463 67.5239 17.5812C67.5418 17.6207 67.5458 17.6637 67.5403 17.6952L65.5701 17.3514C65.2938 18.9347 66.9824 19.9458 68.2718 19.2944L67.3699 17.5093ZM77.918 17.6952C77.9125 17.6637 77.9166 17.6207 77.9344 17.5812C77.9503 17.5463 77.9706 17.5273 77.984 17.518C77.9974 17.5087 78.0135 17.5022 78.0333 17.5005C78.0567 17.4984 78.0775 17.5038 78.0884 17.5093L77.1866 19.2944C78.4759 19.9458 80.1645 18.9347 79.8882 17.3514L77.918 17.6952ZM81.3226 8.03805C81.3147 8.03691 81.2909 8.03001 81.2658 8.00876C81.2432 7.9897 81.2269 7.96527 81.2176 7.93799C81.2083 7.91065 81.2043 7.87472 81.2136 7.83426C81.2239 7.78979 81.246 7.75875 81.2603 7.7452L82.6361 9.19675C83.7975 8.09593 83.0847 6.26996 81.6061 6.05824L81.3226 8.03805ZM74.4004 1.00972C73.7089 -0.336574 71.7495 -0.336574 71.0579 1.00972L72.8369 1.92359C72.8246 1.94751 72.8019 1.97113 72.7764 1.98567C72.7547 1.99804 72.7383 2 72.7292 2C72.72 2 72.7037 1.99804 72.6819 1.98567C72.6564 1.97113 72.6337 1.94751 72.6214 1.92359L74.4004 1.00972Z" fill="#FF0000"/>
<path d="M45.3493 6.26206L44.4598 6.719L44.696 7.17872L45.2076 7.25197L45.3493 6.26206ZM47.3549 12.2323L46.667 11.5066L46.2776 11.8757L46.3698 12.4042L47.3549 12.2323ZM42.1042 15.9222L42.5551 15.0296L42.1042 14.8018L41.6532 15.0296L42.1042 15.9222ZM36.8534 12.2323L37.8385 12.4042L37.9308 11.8757L37.5414 11.5066L36.8534 12.2323ZM38.859 6.26206L39.0008 7.25197L39.5124 7.17872L39.7485 6.719L38.859 6.26206ZM32.8851 8.47098L32.1972 9.19675H32.1972L32.8851 8.47098ZM33.369 7.04814L33.2272 6.05824L33.369 7.04814ZM37.1959 18.4019L36.7449 17.5093L37.1959 18.4019ZM35.9302 17.5233L36.9153 17.6952H36.9153L35.9302 17.5233ZM48.2781 17.5233L47.293 17.6952L48.2781 17.5233ZM47.0125 18.4019L46.5616 19.2944L47.0125 18.4019ZM50.8394 7.04814L50.6976 8.03805L50.8394 7.04814ZM51.3232 8.47098L52.0111 9.19675L51.3232 8.47098ZM42.8859 1.46665L41.9964 1.92359L42.8859 1.46665ZM41.3224 1.46665L42.2119 1.92359V1.92359L41.3224 1.46665ZM41.9964 1.92359L44.4598 6.719L46.2388 5.80513L43.7754 1.00972L41.9964 1.92359ZM45.2076 7.25197L50.6976 8.03805L50.9811 6.05824L45.491 5.27216L45.2076 7.25197ZM50.6353 7.7452L46.667 11.5066L48.0428 12.9581L52.0111 9.19675L50.6353 7.7452ZM46.3698 12.4042L47.293 17.6952L49.2632 17.3514L48.34 12.0604L46.3698 12.4042ZM47.4634 17.5093L42.5551 15.0296L41.6532 16.8147L46.5616 19.2944L47.4634 17.5093ZM41.6532 15.0296L36.7449 17.5093L37.6468 19.2944L42.5551 16.8147L41.6532 15.0296ZM36.9153 17.6952L37.8385 12.4042L35.8683 12.0604L34.9451 17.3514L36.9153 17.6952ZM37.5414 11.5066L33.5731 7.7452L32.1972 9.19675L36.1655 12.9581L37.5414 11.5066ZM33.5107 8.03805L39.0008 7.25197L38.7173 5.27216L33.2272 6.05824L33.5107 8.03805ZM39.7485 6.719L42.2119 1.92359L40.4329 1.00972L37.9695 5.80513L39.7485 6.719ZM33.5731 7.7452C33.5874 7.75875 33.6095 7.78979 33.6197 7.83426C33.629 7.87472 33.625 7.91065 33.6157 7.93799C33.6064 7.96527 33.5901 7.9897 33.5676 8.00876C33.5424 8.03001 33.5187 8.03691 33.5107 8.03805L33.2272 6.05824C31.7486 6.26996 31.0358 8.09593 32.1972 9.19675L33.5731 7.7452ZM36.7449 17.5093C36.7558 17.5038 36.7767 17.4984 36.8 17.5005C36.8198 17.5022 36.8359 17.5087 36.8493 17.518C36.8627 17.5273 36.8831 17.5463 36.8989 17.5812C36.9168 17.6207 36.9208 17.6637 36.9153 17.6952L34.9451 17.3514C34.6688 18.9347 36.3574 19.9458 37.6468 19.2944L36.7449 17.5093ZM47.293 17.6952C47.2875 17.6637 47.2916 17.6207 47.3094 17.5812C47.3253 17.5463 47.3456 17.5273 47.359 17.518C47.3724 17.5087 47.3885 17.5022 47.4083 17.5005C47.4317 17.4984 47.4525 17.5038 47.4634 17.5093L46.5616 19.2944C47.8509 19.9458 49.5395 18.9347 49.2632 17.3514L47.293 17.6952ZM50.6976 8.03805C50.6897 8.03691 50.6659 8.03001 50.6408 8.00876C50.6182 7.9897 50.6019 7.96527 50.5926 7.93799C50.5833 7.91065 50.5793 7.87472 50.5886 7.83426C50.5989 7.78979 50.621 7.75875 50.6353 7.7452L52.0111 9.19675C53.1725 8.09593 52.4597 6.26996 50.9811 6.05824L50.6976 8.03805ZM43.7754 1.00972C43.0839 -0.336574 41.1245 -0.336574 40.4329 1.00972L42.2119 1.92359C42.1996 1.94751 42.1769 1.97113 42.1514 1.98567C42.1297 1.99804 42.1133 2 42.1042 2C42.095 2 42.0787 1.99804 42.0569 1.98567C42.0314 1.97113 42.0087 1.94751 41.9964 1.92359L43.7754 1.00972Z" fill="#FF0000"/>
<path d="M14.7243 6.26206L13.8348 6.719L14.071 7.17872L14.5826 7.25197L14.7243 6.26206ZM16.7299 12.2323L16.042 11.5066L15.6526 11.8757L15.7448 12.4042L16.7299 12.2323ZM11.4792 15.9222L11.9301 15.0296L11.4792 14.8018L11.0282 15.0296L11.4792 15.9222ZM6.22842 12.2323L7.21354 12.4042L7.30577 11.8757L6.91635 11.5066L6.22842 12.2323ZM8.23403 6.26206L8.37577 7.25197L8.88738 7.17872L9.12353 6.719L8.23403 6.26206ZM2.26013 8.47098L1.5722 9.19675H1.5722L2.26013 8.47098ZM2.74398 7.04814L2.60224 6.05824L2.74398 7.04814ZM6.57085 18.4019L6.11993 17.5093L6.57085 18.4019ZM5.30522 17.5233L6.29034 17.6952H6.29034L5.30522 17.5233ZM17.6531 17.5233L16.668 17.6952L17.6531 17.5233ZM16.3875 18.4019L15.9366 19.2944L16.3875 18.4019ZM20.2144 7.04814L20.0726 8.03805L20.2144 7.04814ZM20.6982 8.47098L21.3861 9.19675L20.6982 8.47098ZM12.2609 1.46665L11.3714 1.92359L12.2609 1.46665ZM10.6974 1.46665L11.5869 1.92359V1.92359L10.6974 1.46665ZM11.3714 1.92359L13.8348 6.719L15.6138 5.80513L13.1504 1.00972L11.3714 1.92359ZM14.5826 7.25197L20.0726 8.03805L20.3561 6.05824L14.866 5.27216L14.5826 7.25197ZM20.0103 7.7452L16.042 11.5066L17.4178 12.9581L21.3861 9.19675L20.0103 7.7452ZM15.7448 12.4042L16.668 17.6952L18.6382 17.3514L17.715 12.0604L15.7448 12.4042ZM16.8384 17.5093L11.9301 15.0296L11.0282 16.8147L15.9366 19.2944L16.8384 17.5093ZM11.0282 15.0296L6.11993 17.5093L7.02178 19.2944L11.9301 16.8147L11.0282 15.0296ZM6.29034 17.6952L7.21354 12.4042L5.24331 12.0604L4.32011 17.3514L6.29034 17.6952ZM6.91635 11.5066L2.94806 7.7452L1.5722 9.19675L5.54049 12.9581L6.91635 11.5066ZM2.88572 8.03805L8.37577 7.25197L8.09229 5.27216L2.60224 6.05824L2.88572 8.03805ZM9.12353 6.719L11.5869 1.92359L9.8079 1.00972L7.34453 5.80513L9.12353 6.719ZM2.94806 7.7452C2.96236 7.75875 2.98447 7.78979 2.99471 7.83426C3.00403 7.87472 3.00002 7.91065 2.99072 7.93799C2.98144 7.96527 2.9651 7.9897 2.94257 8.00876C2.91744 8.03001 2.89366 8.03691 2.88572 8.03805L2.60224 6.05824C1.1236 6.26996 0.410811 8.09593 1.5722 9.19675L2.94806 7.7452ZM6.11993 17.5093C6.13084 17.5038 6.15167 17.4984 6.17504 17.5005C6.19481 17.5022 6.21091 17.5087 6.22435 17.518C6.23772 17.5273 6.25805 17.5463 6.27388 17.5812C6.29177 17.6207 6.29583 17.6637 6.29034 17.6952L4.32011 17.3514C4.04384 18.9347 5.73245 19.9458 7.02178 19.2944L6.11993 17.5093ZM16.668 17.6952C16.6625 17.6637 16.6666 17.6207 16.6844 17.5812C16.7003 17.5463 16.7206 17.5273 16.734 17.518C16.7474 17.5087 16.7635 17.5022 16.7833 17.5005C16.8067 17.4984 16.8275 17.5038 16.8384 17.5093L15.9366 19.2944C17.2259 19.9458 18.9145 18.9347 18.6382 17.3514L16.668 17.6952ZM20.0726 8.03805C20.0647 8.03691 20.0409 8.03001 20.0158 8.00876C19.9932 7.9897 19.9769 7.96527 19.9676 7.93799C19.9583 7.91065 19.9543 7.87472 19.9636 7.83426C19.9739 7.78979 19.996 7.75875 20.0103 7.7452L21.3861 9.19675C22.5475 8.09593 21.8347 6.26996 20.3561 6.05824L20.0726 8.03805ZM13.1504 1.00972C12.4589 -0.336574 10.4995 -0.336574 9.8079 1.00972L11.5869 1.92359C11.5746 1.94751 11.5519 1.97113 11.5264 1.98567C11.5047 1.99804 11.4883 2 11.4792 2C11.47 2 11.4537 1.99804 11.4319 1.98567C11.4064 1.97113 11.3837 1.94751 11.3714 1.92359L13.1504 1.00972Z" fill="#FF0000"/>
</svg>
