<svg width="114" height="16" viewBox="0 0 114 16" fill="none" xmlns="http://www.w3.org/2000/svg">
<path d="M107.152 5.09186L106.263 5.54879L106.499 6.00851L107.011 6.08176L107.152 5.09186ZM108.712 9.73442L108.024 9.00865L107.635 9.37775L107.727 9.90631L108.712 9.73442ZM104.629 12.6037L105.08 11.7111L104.629 11.4833L104.178 11.7111L104.629 12.6037ZM100.546 9.73442L101.531 9.90631L101.623 9.37775L101.234 9.00865L100.546 9.73442ZM102.105 5.09186L102.247 6.08176L102.759 6.00851L102.995 5.54879L102.105 5.09186ZM97.4601 6.80954L96.7722 7.53531H96.7722L97.4601 6.80954ZM97.8363 5.70312L97.6946 4.71322L97.8363 5.70312ZM100.812 14.5319L100.361 13.6394L100.812 14.5319ZM99.828 13.8487L100.813 14.0206L99.828 13.8487ZM109.43 13.8487L108.445 14.0206L109.43 13.8487ZM108.446 14.5319L107.995 15.4245L108.446 14.5319ZM111.422 5.70312L111.28 6.69303L111.422 5.70312ZM111.798 6.80954L112.486 7.53531L111.798 6.80954ZM105.237 1.36288L104.347 1.81981V1.81981L105.237 1.36288ZM104.021 1.36288L104.911 1.81981V1.81981L104.021 1.36288ZM104.347 1.81981L106.263 5.54879L108.042 4.63492L106.126 0.905946L104.347 1.81981ZM107.011 6.08176L111.28 6.69303L111.563 4.71322L107.294 4.10195L107.011 6.08176ZM111.11 6.08376L108.024 9.00865L109.4 10.4602L112.486 7.53531L111.11 6.08376ZM107.727 9.90631L108.445 14.0206L110.415 13.6769L109.697 9.56253L107.727 9.90631ZM108.897 13.6394L105.08 11.7111L104.178 13.4962L107.995 15.4245L108.897 13.6394ZM104.178 11.7111L100.361 13.6394L101.263 15.4245L105.08 13.4962L104.178 11.7111ZM100.813 14.0206L101.531 9.90631L99.5608 9.56253L98.8429 13.6769L100.813 14.0206ZM101.234 9.00865L98.148 6.08376L96.7722 7.53531L99.858 10.4602L101.234 9.00865ZM97.9781 6.69303L102.247 6.08176L101.964 4.10195L97.6946 4.71322L97.9781 6.69303ZM102.995 5.54879L104.911 1.81981L103.132 0.905946L101.216 4.63492L102.995 5.54879ZM98.148 6.08376C98.2509 6.18127 98.2816 6.34068 98.2388 6.46667C98.197 6.58938 98.0891 6.67714 97.9781 6.69303L97.6946 4.71322C96.374 4.90231 95.7244 6.54222 96.7722 7.53531L98.148 6.08376ZM100.361 13.6394C100.466 13.5865 100.588 13.605 100.67 13.6619C100.754 13.7208 100.842 13.8571 100.813 14.0206L98.8429 13.6769C98.5931 15.1083 100.116 16.0042 101.263 15.4245L100.361 13.6394ZM108.445 14.0206C108.416 13.8571 108.504 13.7208 108.588 13.6619C108.67 13.605 108.792 13.5865 108.897 13.6394L107.995 15.4245C109.142 16.0042 110.665 15.1083 110.415 13.6769L108.445 14.0206ZM111.28 6.69303C111.169 6.67714 111.061 6.58938 111.019 6.46667C110.976 6.34068 111.007 6.18127 111.11 6.08376L112.486 7.53531C113.533 6.54222 112.884 4.90231 111.563 4.71322L111.28 6.69303ZM106.126 0.905946C105.506 -0.301982 103.752 -0.301982 103.132 0.905946L104.911 1.81981C104.842 1.95266 104.713 2 104.629 2C104.545 2 104.416 1.95266 104.347 1.81981L106.126 0.905946Z" fill="#FF0000"/>
<path d="M83.338 5.09186L82.4485 5.54879L82.6846 6.00851L83.1962 6.08176L83.338 5.09186ZM84.8975 9.73442L84.2096 9.00865L83.8202 9.37775L83.9124 9.90631L84.8975 9.73442ZM80.8145 12.6037L81.2654 11.7111L80.8145 11.4833L80.3636 11.7111L80.8145 12.6037ZM76.7314 9.73442L77.7166 9.90631L77.8088 9.37775L77.4194 9.00865L76.7314 9.73442ZM78.291 5.09186L78.4328 6.08176L78.9444 6.00851L79.1805 5.54879L78.291 5.09186ZM73.6456 6.80954L72.9577 7.53531H72.9577L73.6456 6.80954ZM74.0219 5.70312L73.8802 4.71322L74.0219 5.70312ZM76.9977 14.5319L76.5468 13.6394L76.9977 14.5319ZM76.0135 13.8487L76.9987 14.0206L76.0135 13.8487ZM85.6154 13.8487L84.6303 14.0206L85.6154 13.8487ZM84.6313 14.5319L84.1803 15.4245L84.6313 14.5319ZM87.6071 5.70312L87.4654 6.69303L87.6071 5.70312ZM87.9833 6.80954L88.6713 7.53531L87.9833 6.80954ZM81.4224 1.36288L80.5329 1.81981V1.81981L81.4224 1.36288ZM80.2066 1.36288L81.0961 1.81981V1.81981L80.2066 1.36288ZM80.5329 1.81981L82.4485 5.54879L84.2275 4.63492L82.3119 0.905946L80.5329 1.81981ZM83.1962 6.08176L87.4654 6.69303L87.7488 4.71322L83.4797 4.10195L83.1962 6.08176ZM87.2954 6.08376L84.2096 9.00865L85.5855 10.4602L88.6713 7.53531L87.2954 6.08376ZM83.9124 9.90631L84.6303 14.0206L86.6006 13.6769L85.8827 9.56253L83.9124 9.90631ZM85.0822 13.6394L81.2654 11.7111L80.3636 13.4962L84.1803 15.4245L85.0822 13.6394ZM80.3636 11.7111L76.5468 13.6394L77.4486 15.4245L81.2654 13.4962L80.3636 11.7111ZM76.9987 14.0206L77.7166 9.90631L75.7463 9.56253L75.0284 13.6769L76.9987 14.0206ZM77.4194 9.00865L74.3336 6.08376L72.9577 7.53531L76.0435 10.4602L77.4194 9.00865ZM74.1636 6.69303L78.4328 6.08176L78.1493 4.10195L73.8802 4.71322L74.1636 6.69303ZM79.1805 5.54879L81.0961 1.81981L79.3171 0.905946L77.4015 4.63492L79.1805 5.54879ZM74.3336 6.08376C74.4364 6.18127 74.4671 6.34068 74.4243 6.46667C74.3826 6.58938 74.2746 6.67714 74.1636 6.69303L73.8802 4.71322C72.5595 4.90231 71.91 6.54222 72.9577 7.53531L74.3336 6.08376ZM76.5468 13.6394C76.6516 13.5865 76.7731 13.605 76.8551 13.6619C76.9398 13.7208 77.0272 13.8571 76.9987 14.0206L75.0284 13.6769C74.7787 15.1083 76.3012 16.0042 77.4486 15.4245L76.5468 13.6394ZM84.6303 14.0206C84.6018 13.8571 84.6891 13.7208 84.7739 13.6619C84.8559 13.605 84.9774 13.5865 85.0822 13.6394L84.1803 15.4245C85.3278 16.0042 86.8503 15.1083 86.6006 13.6769L84.6303 14.0206ZM87.4654 6.69303C87.3544 6.67714 87.2464 6.58938 87.2047 6.46667C87.1618 6.34068 87.1925 6.18127 87.2954 6.08376L88.6713 7.53531C89.719 6.54222 89.0695 4.90231 87.7488 4.71322L87.4654 6.69303ZM82.3119 0.905946C81.6914 -0.301982 79.9376 -0.301982 79.3171 0.905946L81.0961 1.81981C81.0278 1.95266 80.8987 2 80.8145 2C80.7303 2 80.6011 1.95266 80.5329 1.81981L82.3119 0.905946Z" fill="#FF0000"/>
<path d="M59.5235 5.09186L58.634 5.54879L58.8702 6.00851L59.3818 6.08176L59.5235 5.09186ZM61.0831 9.73442L60.3952 9.00865L60.0058 9.37775L60.098 9.90631L61.0831 9.73442ZM57 12.6037L57.451 11.7111L57 11.4833L56.5491 11.7111L57 12.6037ZM52.917 9.73442L53.9021 9.90631L53.9943 9.37775L53.6049 9.00865L52.917 9.73442ZM54.4766 5.09186L54.6183 6.08176L55.1299 6.00851L55.3661 5.54879L54.4766 5.09186ZM49.8312 6.80954L49.1433 7.53531H49.1433L49.8312 6.80954ZM50.2074 5.70312L50.0657 4.71322L50.2074 5.70312ZM53.1833 14.5319L52.7323 13.6394L53.1833 14.5319ZM52.1991 13.8487L53.1842 14.0206L52.1991 13.8487ZM61.801 13.8487L60.8159 14.0206L61.801 13.8487ZM60.8168 14.5319L60.3659 15.4245L60.8168 14.5319ZM63.7926 5.70312L63.6509 6.69303L63.7926 5.70312ZM64.1689 6.80954L64.8568 7.53531L64.1689 6.80954ZM57.608 1.36288L56.7185 1.81981V1.81981L57.608 1.36288ZM56.3921 1.36288L57.2816 1.81981V1.81981L56.3921 1.36288ZM56.7185 1.81981L58.634 5.54879L60.413 4.63492L58.4975 0.905946L56.7185 1.81981ZM59.3818 6.08176L63.6509 6.69303L63.9344 4.71322L59.6652 4.10195L59.3818 6.08176ZM63.481 6.08376L60.3952 9.00865L61.771 10.4602L64.8568 7.53531L63.481 6.08376ZM60.098 9.90631L60.8159 14.0206L62.7861 13.6769L62.0682 9.56253L60.098 9.90631ZM61.2677 13.6394L57.451 11.7111L56.5491 13.4962L60.3659 15.4245L61.2677 13.6394ZM56.5491 11.7111L52.7323 13.6394L53.6342 15.4245L57.451 13.4962L56.5491 11.7111ZM53.1842 14.0206L53.9021 9.90631L51.9319 9.56253L51.214 13.6769L53.1842 14.0206ZM53.6049 9.00865L50.5191 6.08376L49.1433 7.53531L52.2291 10.4602L53.6049 9.00865ZM50.3492 6.69303L54.6183 6.08176L54.3348 4.10195L50.0657 4.71322L50.3492 6.69303ZM55.3661 5.54879L57.2816 1.81981L55.5026 0.905946L53.5871 4.63492L55.3661 5.54879ZM50.5191 6.08376C50.622 6.18127 50.6527 6.34068 50.6098 6.46667C50.5681 6.58938 50.4602 6.67714 50.3492 6.69303L50.0657 4.71322C48.7451 4.90231 48.0955 6.54222 49.1433 7.53531L50.5191 6.08376ZM52.7323 13.6394C52.8371 13.5865 52.9586 13.605 53.0406 13.6619C53.1254 13.7208 53.2127 13.8571 53.1842 14.0206L51.214 13.6769C50.9642 15.1083 52.4868 16.0042 53.6342 15.4245L52.7323 13.6394ZM60.8159 14.0206C60.7873 13.8571 60.8747 13.7208 60.9594 13.6619C61.0415 13.605 61.163 13.5865 61.2677 13.6394L60.3659 15.4245C61.5133 16.0042 63.0359 15.1083 62.7861 13.6769L60.8159 14.0206ZM63.6509 6.69303C63.5399 6.67714 63.432 6.58938 63.3902 6.46667C63.3474 6.34068 63.3781 6.18127 63.481 6.08376L64.8568 7.53531C65.9046 6.54222 65.255 4.90231 63.9344 4.71322L63.6509 6.69303ZM58.4975 0.905946C57.877 -0.301982 56.1231 -0.301982 55.5026 0.905946L57.2816 1.81981C57.2134 1.95266 57.0842 2 57 2C56.9159 2 56.7867 1.95266 56.7185 1.81981L58.4975 0.905946Z" fill="#FF0000"/>
<path d="M35.7091 5.09186L34.8196 5.54879L35.0557 6.00851L35.5673 6.08176L35.7091 5.09186ZM37.2686 9.73442L36.5807 9.00865L36.1913 9.37775L36.2835 9.90631L37.2686 9.73442ZM33.1856 12.6037L33.6365 11.7111L33.1856 11.4833L32.7347 11.7111L33.1856 12.6037ZM29.1025 9.73442L30.0877 9.90631L30.1799 9.37775L29.7905 9.00865L29.1025 9.73442ZM30.6621 5.09186L30.8039 6.08176L31.3155 6.00851L31.5516 5.54879L30.6621 5.09186ZM26.0167 6.80954L25.3288 7.53531H25.3288L26.0167 6.80954ZM26.393 5.70312L26.2512 4.71322L26.393 5.70312ZM29.3688 14.5319L28.9179 13.6394L29.3688 14.5319ZM28.3846 13.8487L29.3698 14.0206L28.3846 13.8487ZM37.9865 13.8487L37.0014 14.0206L37.9865 13.8487ZM37.0024 14.5319L36.5514 15.4245L37.0024 14.5319ZM39.9782 5.70312L39.8365 6.69303L39.9782 5.70312ZM40.3544 6.80954L41.0424 7.53531L40.3544 6.80954ZM33.7935 1.36288L32.904 1.81981V1.81981L33.7935 1.36288ZM32.5777 1.36288L33.4672 1.81981V1.81981L32.5777 1.36288ZM32.904 1.81981L34.8196 5.54879L36.5986 4.63492L34.683 0.905946L32.904 1.81981ZM35.5673 6.08176L39.8365 6.69303L40.1199 4.71322L35.8508 4.10195L35.5673 6.08176ZM39.6665 6.08376L36.5807 9.00865L37.9566 10.4602L41.0424 7.53531L39.6665 6.08376ZM36.2835 9.90631L37.0014 14.0206L38.9717 13.6769L38.2538 9.56253L36.2835 9.90631ZM37.4533 13.6394L33.6365 11.7111L32.7347 13.4962L36.5514 15.4245L37.4533 13.6394ZM32.7347 11.7111L28.9179 13.6394L29.8197 15.4245L33.6365 13.4962L32.7347 11.7111ZM29.3698 14.0206L30.0877 9.90631L28.1174 9.56253L27.3995 13.6769L29.3698 14.0206ZM29.7905 9.00865L26.7047 6.08376L25.3288 7.53531L28.4146 10.4602L29.7905 9.00865ZM26.5347 6.69303L30.8039 6.08176L30.5204 4.10195L26.2512 4.71322L26.5347 6.69303ZM31.5516 5.54879L33.4672 1.81981L31.6882 0.905946L29.7726 4.63492L31.5516 5.54879ZM26.7047 6.08376C26.8075 6.18127 26.8382 6.34068 26.7954 6.46667C26.7537 6.58938 26.6457 6.67714 26.5347 6.69303L26.2512 4.71322C24.9306 4.90231 24.2811 6.54222 25.3288 7.53531L26.7047 6.08376ZM28.9179 13.6394C29.0227 13.5865 29.1442 13.605 29.2262 13.6619C29.3109 13.7208 29.3983 13.8571 29.3698 14.0206L27.3995 13.6769C27.1497 15.1083 28.6723 16.0042 29.8197 15.4245L28.9179 13.6394ZM37.0014 14.0206C36.9729 13.8571 37.0602 13.7208 37.145 13.6619C37.227 13.605 37.3485 13.5865 37.4533 13.6394L36.5514 15.4245C37.6989 16.0042 39.2214 15.1083 38.9717 13.6769L37.0014 14.0206ZM39.8365 6.69303C39.7255 6.67714 39.6175 6.58938 39.5758 6.46667C39.5329 6.34068 39.5636 6.18127 39.6665 6.08376L41.0424 7.53531C42.0901 6.54222 41.4406 4.90231 40.1199 4.71322L39.8365 6.69303ZM34.683 0.905946C34.0625 -0.301982 32.3087 -0.301982 31.6882 0.905946L33.4672 1.81981C33.3989 1.95266 33.2698 2 33.1856 2C33.1014 2 32.9722 1.95266 32.904 1.81981L34.683 0.905946Z" fill="#FF0000"/>
<path d="M11.8946 5.09186L11.0051 5.54879L11.2413 6.00851L11.7529 6.08176L11.8946 5.09186ZM13.4542 9.73442L12.7663 9.00865L12.3768 9.37775L12.4691 9.90631L13.4542 9.73442ZM9.37114 12.6037L9.82206 11.7111L9.37114 11.4833L8.92021 11.7111L9.37114 12.6037ZM5.28808 9.73442L6.2732 9.90631L6.36543 9.37775L5.97601 9.00865L5.28808 9.73442ZM6.84767 5.09186L6.98941 6.08176L7.50102 6.00851L7.73717 5.54879L6.84767 5.09186ZM2.20228 6.80954L1.51435 7.53531H1.51435L2.20228 6.80954ZM2.57853 5.70312L2.43679 4.71322L2.57853 5.70312ZM5.55436 14.5319L5.10343 13.6394L5.55436 14.5319ZM4.57019 13.8487L5.5553 14.0206L4.57019 13.8487ZM14.1721 13.8487L13.187 14.0206L14.1721 13.8487ZM13.1879 14.5319L12.737 15.4245L13.1879 14.5319ZM16.1637 5.70312L16.022 6.69303L16.1637 5.70312ZM16.54 6.80954L17.2279 7.53531L16.54 6.80954ZM9.97905 1.36288L9.08955 1.81981V1.81981L9.97905 1.36288ZM8.76322 1.36288L9.65272 1.81981V1.81981L8.76322 1.36288ZM9.08955 1.81981L11.0051 5.54879L12.7841 4.63492L10.8686 0.905946L9.08955 1.81981ZM11.7529 6.08176L16.022 6.69303L16.3055 4.71322L12.0363 4.10195L11.7529 6.08176ZM15.8521 6.08376L12.7663 9.00865L14.1421 10.4602L17.2279 7.53531L15.8521 6.08376ZM12.4691 9.90631L13.187 14.0206L15.1572 13.6769L14.4393 9.56253L12.4691 9.90631ZM13.6388 13.6394L9.82206 11.7111L8.92021 13.4962L12.737 15.4245L13.6388 13.6394ZM8.92021 11.7111L5.10343 13.6394L6.00529 15.4245L9.82206 13.4962L8.92021 11.7111ZM5.5553 14.0206L6.2732 9.90631L4.30297 9.56253L3.58507 13.6769L5.5553 14.0206ZM5.97601 9.00865L2.89021 6.08376L1.51435 7.53531L4.60015 10.4602L5.97601 9.00865ZM2.72027 6.69303L6.98941 6.08176L6.70593 4.10195L2.43679 4.71322L2.72027 6.69303ZM7.73717 5.54879L9.65272 1.81981L7.87372 0.905946L5.95817 4.63492L7.73717 5.54879ZM2.89021 6.08376C2.99308 6.18127 3.02379 6.34068 2.98094 6.46667C2.93922 6.58938 2.83124 6.67714 2.72027 6.69303L2.43679 4.71322C1.11614 4.90231 0.466626 6.54222 1.51435 7.53531L2.89021 6.08376ZM5.10343 13.6394C5.2082 13.5865 5.32972 13.605 5.41173 13.6619C5.49648 13.7208 5.58384 13.8571 5.5553 14.0206L3.58507 13.6769C3.3353 15.1083 4.85785 16.0042 6.00529 15.4245L5.10343 13.6394ZM13.187 14.0206C13.1584 13.8571 13.2458 13.7208 13.3305 13.6619C13.4126 13.605 13.5341 13.5865 13.6388 13.6394L12.737 15.4245C13.8844 16.0042 15.407 15.1083 15.1572 13.6769L13.187 14.0206ZM16.022 6.69303C15.911 6.67714 15.8031 6.58938 15.7613 6.46667C15.7185 6.34068 15.7492 6.18127 15.8521 6.08376L17.2279 7.53531C18.2756 6.54222 17.6261 4.90231 16.3055 4.71322L16.022 6.69303ZM10.8686 0.905946C10.248 -0.301982 8.49423 -0.301982 7.87372 0.905946L9.65272 1.81981C9.58448 1.95266 9.45531 2 9.37114 2C9.28696 2 9.15779 1.95266 9.08955 1.81981L10.8686 0.905946Z" fill="#FF0000"/>
<path d="M56.3921 1.36288C56.6407 0.879041 57.3594 0.879041 57.608 1.36288L59.5235 5.09186L63.7926 5.70312C64.3451 5.78223 64.5663 6.43281 64.1689 6.80954L61.0831 9.73442L61.801 13.8487C61.8936 14.3796 61.313 14.7826 60.8168 14.5319L57 12.6037L53.1833 14.5319C52.6871 14.7826 52.1065 14.3796 52.1991 13.8487L52.917 9.73442L49.8312 6.80954C49.4337 6.43281 49.655 5.78223 50.2074 5.70312L54.4766 5.09186L56.3921 1.36288Z" fill="#F64156"/>
<path d="M59.5235 5.09186L58.634 5.54879L58.8702 6.00851L59.3818 6.08176L59.5235 5.09186ZM61.0831 9.73442L60.3952 9.00865L60.0058 9.37775L60.098 9.90631L61.0831 9.73442ZM57 12.6037L57.451 11.7111L57 11.4833L56.5491 11.7111L57 12.6037ZM52.917 9.73442L53.9021 9.90631L53.9943 9.37775L53.6049 9.00865L52.917 9.73442ZM54.4766 5.09186L54.6183 6.08176L55.1299 6.00851L55.3661 5.54879L54.4766 5.09186ZM49.8312 6.80954L49.1433 7.53531H49.1433L49.8312 6.80954ZM50.2074 5.70312L50.0657 4.71322L50.2074 5.70312ZM53.1833 14.5319L52.7323 13.6394L53.1833 14.5319ZM52.1991 13.8487L53.1842 14.0206L52.1991 13.8487ZM61.801 13.8487L60.8159 14.0206L61.801 13.8487ZM60.8168 14.5319L60.3659 15.4245L60.8168 14.5319ZM63.7926 5.70312L63.6509 6.69303L63.7926 5.70312ZM64.1689 6.80954L64.8568 7.53531L64.1689 6.80954ZM57.608 1.36288L56.7185 1.81981V1.81981L57.608 1.36288ZM56.3921 1.36288L57.2816 1.81981V1.81981L56.3921 1.36288ZM56.7185 1.81981L58.634 5.54879L60.413 4.63492L58.4975 0.905946L56.7185 1.81981ZM59.3818 6.08176L63.6509 6.69303L63.9344 4.71322L59.6652 4.10195L59.3818 6.08176ZM63.481 6.08376L60.3952 9.00865L61.771 10.4602L64.8568 7.53531L63.481 6.08376ZM60.098 9.90631L60.8159 14.0206L62.7861 13.6769L62.0682 9.56253L60.098 9.90631ZM61.2677 13.6394L57.451 11.7111L56.5491 13.4962L60.3659 15.4245L61.2677 13.6394ZM56.5491 11.7111L52.7323 13.6394L53.6342 15.4245L57.451 13.4962L56.5491 11.7111ZM53.1842 14.0206L53.9021 9.90631L51.9319 9.56253L51.214 13.6769L53.1842 14.0206ZM53.6049 9.00865L50.5191 6.08376L49.1433 7.53531L52.2291 10.4602L53.6049 9.00865ZM50.3492 6.69303L54.6183 6.08176L54.3348 4.10195L50.0657 4.71322L50.3492 6.69303ZM55.3661 5.54879L57.2816 1.81981L55.5026 0.905946L53.5871 4.63492L55.3661 5.54879ZM50.5191 6.08376C50.622 6.18127 50.6527 6.34068 50.6098 6.46667C50.5681 6.58938 50.4602 6.67714 50.3492 6.69303L50.0657 4.71322C48.7451 4.90231 48.0955 6.54222 49.1433 7.53531L50.5191 6.08376ZM52.7323 13.6394C52.8371 13.5865 52.9586 13.605 53.0406 13.6619C53.1254 13.7208 53.2127 13.8571 53.1842 14.0206L51.214 13.6769C50.9642 15.1083 52.4868 16.0042 53.6342 15.4245L52.7323 13.6394ZM60.8159 14.0206C60.7873 13.8571 60.8747 13.7208 60.9594 13.6619C61.0415 13.605 61.163 13.5865 61.2677 13.6394L60.3659 15.4245C61.5133 16.0042 63.0359 15.1083 62.7861 13.6769L60.8159 14.0206ZM63.6509 6.69303C63.5399 6.67714 63.432 6.58938 63.3902 6.46667C63.3474 6.34068 63.3781 6.18127 63.481 6.08376L64.8568 7.53531C65.9046 6.54222 65.255 4.90231 63.9344 4.71322L63.6509 6.69303ZM58.4975 0.905946C57.877 -0.301982 56.1231 -0.301982 55.5026 0.905946L57.2816 1.81981C57.2134 1.95266 57.0842 2 57 2C56.9159 2 56.7867 1.95266 56.7185 1.81981L58.4975 0.905946Z" fill="#FF0000"/>
<path d="M32.5777 1.36288C32.8262 0.879041 33.545 0.879041 33.7935 1.36288L35.7091 5.09186L39.9782 5.70312C40.5307 5.78223 40.7519 6.43281 40.3544 6.80954L37.2686 9.73442L37.9865 13.8487C38.0792 14.3796 37.4985 14.7826 37.0024 14.5319L33.1856 12.6037L29.3688 14.5319C28.8726 14.7826 28.292 14.3796 28.3846 13.8487L29.1025 9.73442L26.0167 6.80954C25.6193 6.43281 25.8405 5.78223 26.393 5.70312L30.6621 5.09186L32.5777 1.36288Z" fill="#F64156"/>
<path d="M35.7091 5.09186L34.8196 5.54879L35.0557 6.00851L35.5673 6.08176L35.7091 5.09186ZM37.2686 9.73442L36.5807 9.00865L36.1913 9.37775L36.2835 9.90631L37.2686 9.73442ZM33.1856 12.6037L33.6365 11.7111L33.1856 11.4833L32.7347 11.7111L33.1856 12.6037ZM29.1025 9.73442L30.0877 9.90631L30.1799 9.37775L29.7905 9.00865L29.1025 9.73442ZM30.6621 5.09186L30.8039 6.08176L31.3155 6.00851L31.5516 5.54879L30.6621 5.09186ZM26.0167 6.80954L25.3288 7.53531H25.3288L26.0167 6.80954ZM26.393 5.70312L26.2512 4.71322L26.393 5.70312ZM29.3688 14.5319L28.9179 13.6394L29.3688 14.5319ZM28.3846 13.8487L29.3698 14.0206L28.3846 13.8487ZM37.9865 13.8487L37.0014 14.0206L37.9865 13.8487ZM37.0024 14.5319L36.5514 15.4245L37.0024 14.5319ZM39.9782 5.70312L39.8365 6.69303L39.9782 5.70312ZM40.3544 6.80954L41.0424 7.53531L40.3544 6.80954ZM33.7935 1.36288L32.904 1.81981V1.81981L33.7935 1.36288ZM32.5777 1.36288L33.4672 1.81981V1.81981L32.5777 1.36288ZM32.904 1.81981L34.8196 5.54879L36.5986 4.63492L34.683 0.905946L32.904 1.81981ZM35.5673 6.08176L39.8365 6.69303L40.1199 4.71322L35.8508 4.10195L35.5673 6.08176ZM39.6665 6.08376L36.5807 9.00865L37.9566 10.4602L41.0424 7.53531L39.6665 6.08376ZM36.2835 9.90631L37.0014 14.0206L38.9717 13.6769L38.2538 9.56253L36.2835 9.90631ZM37.4533 13.6394L33.6365 11.7111L32.7347 13.4962L36.5514 15.4245L37.4533 13.6394ZM32.7347 11.7111L28.9179 13.6394L29.8197 15.4245L33.6365 13.4962L32.7347 11.7111ZM29.3698 14.0206L30.0877 9.90631L28.1174 9.56253L27.3995 13.6769L29.3698 14.0206ZM29.7905 9.00865L26.7047 6.08376L25.3288 7.53531L28.4146 10.4602L29.7905 9.00865ZM26.5347 6.69303L30.8039 6.08176L30.5204 4.10195L26.2512 4.71322L26.5347 6.69303ZM31.5516 5.54879L33.4672 1.81981L31.6882 0.905946L29.7726 4.63492L31.5516 5.54879ZM26.7047 6.08376C26.8075 6.18127 26.8382 6.34068 26.7954 6.46667C26.7537 6.58938 26.6457 6.67714 26.5347 6.69303L26.2512 4.71322C24.9306 4.90231 24.2811 6.54222 25.3288 7.53531L26.7047 6.08376ZM28.9179 13.6394C29.0227 13.5865 29.1442 13.605 29.2262 13.6619C29.3109 13.7208 29.3983 13.8571 29.3698 14.0206L27.3995 13.6769C27.1497 15.1083 28.6723 16.0042 29.8197 15.4245L28.9179 13.6394ZM37.0014 14.0206C36.9729 13.8571 37.0602 13.7208 37.145 13.6619C37.227 13.605 37.3485 13.5865 37.4533 13.6394L36.5514 15.4245C37.6989 16.0042 39.2214 15.1083 38.9717 13.6769L37.0014 14.0206ZM39.8365 6.69303C39.7255 6.67714 39.6175 6.58938 39.5758 6.46667C39.5329 6.34068 39.5636 6.18127 39.6665 6.08376L41.0424 7.53531C42.0901 6.54222 41.4406 4.90231 40.1199 4.71322L39.8365 6.69303ZM34.683 0.905946C34.0625 -0.301982 32.3087 -0.301982 31.6882 0.905946L33.4672 1.81981C33.3989 1.95266 33.2698 2 33.1856 2C33.1014 2 32.9722 1.95266 32.904 1.81981L34.683 0.905946Z" fill="#FF0000"/>
<path d="M8.76322 1.36288C9.01177 0.879041 9.73051 0.879041 9.97905 1.36288L11.8946 5.09186L16.1637 5.70312C16.7162 5.78223 16.9374 6.43281 16.54 6.80954L13.4542 9.73442L14.1721 13.8487C14.2647 14.3796 13.6841 14.7826 13.1879 14.5319L9.37114 12.6037L5.55436 14.5319C5.05819 14.7826 4.47757 14.3796 4.57019 13.8487L5.28808 9.73442L2.20228 6.80954C1.80483 6.43281 2.02607 5.78223 2.57853 5.70312L6.84767 5.09186L8.76322 1.36288Z" fill="#F64156"/>
<path d="M11.8946 5.09186L11.0051 5.54879L11.2413 6.00851L11.7529 6.08176L11.8946 5.09186ZM13.4542 9.73442L12.7663 9.00865L12.3768 9.37775L12.4691 9.90631L13.4542 9.73442ZM9.37114 12.6037L9.82206 11.7111L9.37114 11.4833L8.92021 11.7111L9.37114 12.6037ZM5.28808 9.73442L6.2732 9.90631L6.36543 9.37775L5.97601 9.00865L5.28808 9.73442ZM6.84767 5.09186L6.98941 6.08176L7.50102 6.00851L7.73717 5.54879L6.84767 5.09186ZM2.20228 6.80954L1.51435 7.53531H1.51435L2.20228 6.80954ZM2.57853 5.70312L2.43679 4.71322L2.57853 5.70312ZM5.55436 14.5319L5.10343 13.6394L5.55436 14.5319ZM4.57019 13.8487L5.5553 14.0206L4.57019 13.8487ZM14.1721 13.8487L13.187 14.0206L14.1721 13.8487ZM13.1879 14.5319L12.737 15.4245L13.1879 14.5319ZM16.1637 5.70312L16.022 6.69303L16.1637 5.70312ZM16.54 6.80954L17.2279 7.53531L16.54 6.80954ZM9.97905 1.36288L9.08955 1.81981V1.81981L9.97905 1.36288ZM8.76322 1.36288L9.65272 1.81981V1.81981L8.76322 1.36288ZM9.08955 1.81981L11.0051 5.54879L12.7841 4.63492L10.8686 0.905946L9.08955 1.81981ZM11.7529 6.08176L16.022 6.69303L16.3055 4.71322L12.0363 4.10195L11.7529 6.08176ZM15.8521 6.08376L12.7663 9.00865L14.1421 10.4602L17.2279 7.53531L15.8521 6.08376ZM12.4691 9.90631L13.187 14.0206L15.1572 13.6769L14.4393 9.56253L12.4691 9.90631ZM13.6388 13.6394L9.82206 11.7111L8.92021 13.4962L12.737 15.4245L13.6388 13.6394ZM8.92021 11.7111L5.10343 13.6394L6.00529 15.4245L9.82206 13.4962L8.92021 11.7111ZM5.5553 14.0206L6.2732 9.90631L4.30297 9.56253L3.58507 13.6769L5.5553 14.0206ZM5.97601 9.00865L2.89021 6.08376L1.51435 7.53531L4.60015 10.4602L5.97601 9.00865ZM2.72027 6.69303L6.98941 6.08176L6.70593 4.10195L2.43679 4.71322L2.72027 6.69303ZM7.73717 5.54879L9.65272 1.81981L7.87372 0.905946L5.95817 4.63492L7.73717 5.54879ZM2.89021 6.08376C2.99308 6.18127 3.02379 6.34068 2.98094 6.46667C2.93922 6.58938 2.83124 6.67714 2.72027 6.69303L2.43679 4.71322C1.11614 4.90231 0.466626 6.54222 1.51435 7.53531L2.89021 6.08376ZM5.10343 13.6394C5.2082 13.5865 5.32972 13.605 5.41173 13.6619C5.49648 13.7208 5.58384 13.8571 5.5553 14.0206L3.58507 13.6769C3.3353 15.1083 4.85785 16.0042 6.00529 15.4245L5.10343 13.6394ZM13.187 14.0206C13.1584 13.8571 13.2458 13.7208 13.3305 13.6619C13.4126 13.605 13.5341 13.5865 13.6388 13.6394L12.737 15.4245C13.8844 16.0042 15.407 15.1083 15.1572 13.6769L13.187 14.0206ZM16.022 6.69303C15.911 6.67714 15.8031 6.58938 15.7613 6.46667C15.7185 6.34068 15.7492 6.18127 15.8521 6.08376L17.2279 7.53531C18.2756 6.54222 17.6261 4.90231 16.3055 4.71322L16.022 6.69303ZM10.8686 0.905946C10.248 -0.301982 8.49423 -0.301982 7.87372 0.905946L9.65272 1.81981C9.58448 1.95266 9.45531 2 9.37114 2C9.28696 2 9.15779 1.95266 9.08955 1.81981L10.8686 0.905946Z" fill="#FF0000"/>
</svg>
