<svg width="114" height="17" viewBox="0 0 114 17" fill="none" xmlns="http://www.w3.org/2000/svg">
<path d="M107.152 5.9837L106.263 6.44063L106.499 6.90035L107.011 6.97361L107.152 5.9837ZM108.712 10.6263L108.024 9.90049L107.635 10.2696L107.727 10.7982L108.712 10.6263ZM104.629 13.4955L105.08 12.603L104.629 12.3752L104.178 12.603L104.629 13.4955ZM100.546 10.6263L101.531 10.7982L101.623 10.2696L101.234 9.90049L100.546 10.6263ZM102.105 5.9837L102.247 6.97361L102.759 6.90035L102.995 6.44063L102.105 5.9837ZM97.4601 7.70138L96.7722 8.42716H96.7722L97.4601 7.70138ZM97.8363 6.59497L97.6946 5.60506L97.8363 6.59497ZM100.812 15.4238L100.361 14.5312L100.812 15.4238ZM99.828 14.7406L100.813 14.9125L99.828 14.7406ZM109.43 14.7406L108.445 14.9125L109.43 14.7406ZM108.446 15.4238L107.995 16.3163L108.446 15.4238ZM111.422 6.59497L111.28 7.58487L111.422 6.59497ZM111.798 7.70138L112.486 8.42716L111.798 7.70138ZM105.237 2.25472L104.347 2.71165V2.71165L105.237 2.25472ZM104.021 2.25472L104.911 2.71165V2.71165L104.021 2.25472ZM104.347 2.71165L106.263 6.44063L108.042 5.52677L106.126 1.79779L104.347 2.71165ZM107.011 6.97361L111.28 7.58487L111.563 5.60506L107.294 4.9938L107.011 6.97361ZM111.11 6.97561L108.024 9.90049L109.4 11.352L112.486 8.42716L111.11 6.97561ZM107.727 10.7982L108.445 14.9125L110.415 14.5687L109.697 10.4544L107.727 10.7982ZM108.897 14.5312L105.08 12.603L104.178 14.3881L107.995 16.3163L108.897 14.5312ZM104.178 12.603L100.361 14.5312L101.263 16.3163L105.08 14.3881L104.178 12.603ZM100.813 14.9125L101.531 10.7982L99.5608 10.4544L98.8429 14.5687L100.813 14.9125ZM101.234 9.90049L98.148 6.97561L96.7722 8.42716L99.858 11.352L101.234 9.90049ZM97.9781 7.58487L102.247 6.97361L101.964 4.9938L97.6946 5.60506L97.9781 7.58487ZM102.995 6.44063L104.911 2.71165L103.132 1.79779L101.216 5.52677L102.995 6.44063ZM98.148 6.97561C98.2509 7.07311 98.2816 7.23252 98.2388 7.35852C98.197 7.48122 98.0891 7.56898 97.9781 7.58487L97.6946 5.60506C96.374 5.79416 95.7244 7.43407 96.7722 8.42716L98.148 6.97561ZM100.361 14.5312C100.466 14.4783 100.588 14.4968 100.67 14.5538C100.754 14.6126 100.842 14.7489 100.813 14.9125L98.8429 14.5687C98.5931 16.0002 100.116 16.896 101.263 16.3163L100.361 14.5312ZM108.445 14.9125C108.416 14.7489 108.504 14.6126 108.588 14.5538C108.67 14.4968 108.792 14.4783 108.897 14.5312L107.995 16.3163C109.142 16.896 110.665 16.0002 110.415 14.5687L108.445 14.9125ZM111.28 7.58487C111.169 7.56898 111.061 7.48122 111.019 7.35852C110.976 7.23252 111.007 7.07311 111.11 6.97561L112.486 8.42716C113.533 7.43407 112.884 5.79416 111.563 5.60506L111.28 7.58487ZM106.126 1.79779C105.506 0.589864 103.752 0.589864 103.132 1.79779L104.911 2.71165C104.842 2.8445 104.713 2.89185 104.629 2.89185C104.545 2.89185 104.416 2.8445 104.347 2.71165L106.126 1.79779Z" fill="#FF0000"/>
<path d="M83.338 5.9837L82.4485 6.44063L82.6846 6.90035L83.1962 6.97361L83.338 5.9837ZM84.8975 10.6263L84.2096 9.90049L83.8202 10.2696L83.9124 10.7982L84.8975 10.6263ZM80.8145 13.4955L81.2654 12.603L80.8145 12.3752L80.3636 12.603L80.8145 13.4955ZM76.7314 10.6263L77.7166 10.7982L77.8088 10.2696L77.4194 9.90049L76.7314 10.6263ZM78.291 5.9837L78.4328 6.97361L78.9444 6.90035L79.1805 6.44063L78.291 5.9837ZM73.6456 7.70138L72.9577 8.42716H72.9577L73.6456 7.70138ZM74.0219 6.59497L73.8802 5.60506L74.0219 6.59497ZM76.9977 15.4238L76.5468 14.5312L76.9977 15.4238ZM76.0135 14.7406L76.9987 14.9125L76.0135 14.7406ZM85.6154 14.7406L84.6303 14.9125L85.6154 14.7406ZM84.6313 15.4238L84.1803 16.3163L84.6313 15.4238ZM87.6071 6.59497L87.4654 7.58487L87.6071 6.59497ZM87.9833 7.70138L88.6713 8.42716L87.9833 7.70138ZM81.4224 2.25472L80.5329 2.71165V2.71165L81.4224 2.25472ZM80.2066 2.25472L81.0961 2.71165V2.71165L80.2066 2.25472ZM80.5329 2.71165L82.4485 6.44063L84.2275 5.52677L82.3119 1.79779L80.5329 2.71165ZM83.1962 6.97361L87.4654 7.58487L87.7488 5.60506L83.4797 4.9938L83.1962 6.97361ZM87.2954 6.97561L84.2096 9.90049L85.5855 11.352L88.6713 8.42716L87.2954 6.97561ZM83.9124 10.7982L84.6303 14.9125L86.6006 14.5687L85.8827 10.4544L83.9124 10.7982ZM85.0822 14.5312L81.2654 12.603L80.3636 14.3881L84.1803 16.3163L85.0822 14.5312ZM80.3636 12.603L76.5468 14.5312L77.4486 16.3163L81.2654 14.3881L80.3636 12.603ZM76.9987 14.9125L77.7166 10.7982L75.7463 10.4544L75.0284 14.5687L76.9987 14.9125ZM77.4194 9.90049L74.3336 6.97561L72.9577 8.42716L76.0435 11.352L77.4194 9.90049ZM74.1636 7.58487L78.4328 6.97361L78.1493 4.9938L73.8802 5.60506L74.1636 7.58487ZM79.1805 6.44063L81.0961 2.71165L79.3171 1.79779L77.4015 5.52677L79.1805 6.44063ZM74.3336 6.97561C74.4364 7.07311 74.4671 7.23252 74.4243 7.35852C74.3826 7.48122 74.2746 7.56898 74.1636 7.58487L73.8802 5.60506C72.5595 5.79416 71.91 7.43407 72.9577 8.42716L74.3336 6.97561ZM76.5468 14.5312C76.6516 14.4783 76.7731 14.4968 76.8551 14.5538C76.9398 14.6126 77.0272 14.7489 76.9987 14.9125L75.0284 14.5687C74.7787 16.0002 76.3012 16.896 77.4486 16.3163L76.5468 14.5312ZM84.6303 14.9125C84.6018 14.7489 84.6891 14.6126 84.7739 14.5538C84.8559 14.4968 84.9774 14.4783 85.0822 14.5312L84.1803 16.3163C85.3278 16.896 86.8503 16.0002 86.6006 14.5687L84.6303 14.9125ZM87.4654 7.58487C87.3544 7.56898 87.2464 7.48122 87.2047 7.35852C87.1618 7.23252 87.1925 7.07311 87.2954 6.97561L88.6713 8.42716C89.719 7.43407 89.0695 5.79416 87.7488 5.60506L87.4654 7.58487ZM82.3119 1.79779C81.6914 0.589864 79.9376 0.589864 79.3171 1.79779L81.0961 2.71165C81.0278 2.8445 80.8987 2.89185 80.8145 2.89185C80.7303 2.89185 80.6011 2.8445 80.5329 2.71165L82.3119 1.79779Z" fill="#FF0000"/>
<path d="M59.5235 5.9837L58.634 6.44063L58.8702 6.90035L59.3818 6.97361L59.5235 5.9837ZM61.0831 10.6263L60.3952 9.90049L60.0058 10.2696L60.098 10.7982L61.0831 10.6263ZM57 13.4955L57.451 12.603L57 12.3752L56.5491 12.603L57 13.4955ZM52.917 10.6263L53.9021 10.7982L53.9943 10.2696L53.6049 9.90049L52.917 10.6263ZM54.4766 5.9837L54.6183 6.97361L55.1299 6.90035L55.3661 6.44063L54.4766 5.9837ZM49.8312 7.70138L49.1433 8.42716H49.1433L49.8312 7.70138ZM50.2074 6.59497L50.0657 5.60506L50.2074 6.59497ZM53.1833 15.4238L52.7323 14.5312L53.1833 15.4238ZM52.1991 14.7406L53.1842 14.9125L52.1991 14.7406ZM61.801 14.7406L60.8159 14.9125L61.801 14.7406ZM60.8168 15.4238L60.3659 16.3163L60.8168 15.4238ZM63.7926 6.59497L63.6509 7.58487L63.7926 6.59497ZM64.1689 7.70138L64.8568 8.42716L64.1689 7.70138ZM57.608 2.25472L56.7185 2.71165V2.71165L57.608 2.25472ZM56.3921 2.25472L57.2816 2.71165V2.71165L56.3921 2.25472ZM56.7185 2.71165L58.634 6.44063L60.413 5.52677L58.4975 1.79779L56.7185 2.71165ZM59.3818 6.97361L63.6509 7.58487L63.9344 5.60506L59.6652 4.9938L59.3818 6.97361ZM63.481 6.97561L60.3952 9.90049L61.771 11.352L64.8568 8.42716L63.481 6.97561ZM60.098 10.7982L60.8159 14.9125L62.7861 14.5687L62.0682 10.4544L60.098 10.7982ZM61.2677 14.5312L57.451 12.603L56.5491 14.3881L60.3659 16.3163L61.2677 14.5312ZM56.5491 12.603L52.7323 14.5312L53.6342 16.3163L57.451 14.3881L56.5491 12.603ZM53.1842 14.9125L53.9021 10.7982L51.9319 10.4544L51.214 14.5687L53.1842 14.9125ZM53.6049 9.90049L50.5191 6.97561L49.1433 8.42716L52.2291 11.352L53.6049 9.90049ZM50.3492 7.58487L54.6183 6.97361L54.3348 4.9938L50.0657 5.60506L50.3492 7.58487ZM55.3661 6.44063L57.2816 2.71165L55.5026 1.79779L53.5871 5.52677L55.3661 6.44063ZM50.5191 6.97561C50.622 7.07311 50.6527 7.23252 50.6098 7.35852C50.5681 7.48122 50.4602 7.56898 50.3492 7.58487L50.0657 5.60506C48.7451 5.79416 48.0955 7.43407 49.1433 8.42716L50.5191 6.97561ZM52.7323 14.5312C52.8371 14.4783 52.9586 14.4968 53.0406 14.5538C53.1254 14.6126 53.2127 14.7489 53.1842 14.9125L51.214 14.5687C50.9642 16.0002 52.4868 16.896 53.6342 16.3163L52.7323 14.5312ZM60.8159 14.9125C60.7873 14.7489 60.8747 14.6126 60.9594 14.5538C61.0415 14.4968 61.163 14.4783 61.2677 14.5312L60.3659 16.3163C61.5133 16.896 63.0359 16.0002 62.7861 14.5687L60.8159 14.9125ZM63.6509 7.58487C63.5399 7.56898 63.432 7.48122 63.3902 7.35852C63.3474 7.23252 63.3781 7.07311 63.481 6.97561L64.8568 8.42716C65.9046 7.43407 65.255 5.79416 63.9344 5.60506L63.6509 7.58487ZM58.4975 1.79779C57.877 0.589864 56.1231 0.589864 55.5026 1.79779L57.2816 2.71165C57.2134 2.8445 57.0842 2.89185 57 2.89185C56.9159 2.89185 56.7867 2.8445 56.7185 2.71165L58.4975 1.79779Z" fill="#FF0000"/>
<path d="M35.7091 5.9837L34.8196 6.44063L35.0557 6.90035L35.5673 6.97361L35.7091 5.9837ZM37.2686 10.6263L36.5807 9.90049L36.1913 10.2696L36.2835 10.7982L37.2686 10.6263ZM33.1856 13.4955L33.6365 12.603L33.1856 12.3752L32.7347 12.603L33.1856 13.4955ZM29.1025 10.6263L30.0877 10.7982L30.1799 10.2696L29.7905 9.90049L29.1025 10.6263ZM30.6621 5.9837L30.8039 6.97361L31.3155 6.90035L31.5516 6.44063L30.6621 5.9837ZM26.0167 7.70138L25.3288 8.42716H25.3288L26.0167 7.70138ZM26.393 6.59497L26.2512 5.60506L26.393 6.59497ZM29.3688 15.4238L28.9179 14.5312L29.3688 15.4238ZM28.3846 14.7406L29.3698 14.9125L28.3846 14.7406ZM37.9865 14.7406L37.0014 14.9125L37.9865 14.7406ZM37.0024 15.4238L36.5514 16.3163L37.0024 15.4238ZM39.9782 6.59497L39.8365 7.58487L39.9782 6.59497ZM40.3544 7.70138L41.0424 8.42716L40.3544 7.70138ZM33.7935 2.25472L32.904 2.71165V2.71165L33.7935 2.25472ZM32.5777 2.25472L33.4672 2.71165V2.71165L32.5777 2.25472ZM32.904 2.71165L34.8196 6.44063L36.5986 5.52677L34.683 1.79779L32.904 2.71165ZM35.5673 6.97361L39.8365 7.58487L40.1199 5.60506L35.8508 4.9938L35.5673 6.97361ZM39.6665 6.97561L36.5807 9.90049L37.9566 11.352L41.0424 8.42716L39.6665 6.97561ZM36.2835 10.7982L37.0014 14.9125L38.9717 14.5687L38.2538 10.4544L36.2835 10.7982ZM37.4533 14.5312L33.6365 12.603L32.7347 14.3881L36.5514 16.3163L37.4533 14.5312ZM32.7347 12.603L28.9179 14.5312L29.8197 16.3163L33.6365 14.3881L32.7347 12.603ZM29.3698 14.9125L30.0877 10.7982L28.1174 10.4544L27.3995 14.5687L29.3698 14.9125ZM29.7905 9.90049L26.7047 6.97561L25.3288 8.42716L28.4146 11.352L29.7905 9.90049ZM26.5347 7.58487L30.8039 6.97361L30.5204 4.9938L26.2512 5.60506L26.5347 7.58487ZM31.5516 6.44063L33.4672 2.71165L31.6882 1.79779L29.7726 5.52677L31.5516 6.44063ZM26.7047 6.97561C26.8075 7.07311 26.8382 7.23252 26.7954 7.35852C26.7537 7.48122 26.6457 7.56898 26.5347 7.58487L26.2512 5.60506C24.9306 5.79416 24.2811 7.43407 25.3288 8.42716L26.7047 6.97561ZM28.9179 14.5312C29.0227 14.4783 29.1442 14.4968 29.2262 14.5538C29.3109 14.6126 29.3983 14.7489 29.3698 14.9125L27.3995 14.5687C27.1497 16.0002 28.6723 16.896 29.8197 16.3163L28.9179 14.5312ZM37.0014 14.9125C36.9729 14.7489 37.0602 14.6126 37.145 14.5538C37.227 14.4968 37.3485 14.4783 37.4533 14.5312L36.5514 16.3163C37.6989 16.896 39.2214 16.0002 38.9717 14.5687L37.0014 14.9125ZM39.8365 7.58487C39.7255 7.56898 39.6175 7.48122 39.5758 7.35852C39.5329 7.23252 39.5636 7.07311 39.6665 6.97561L41.0424 8.42716C42.0901 7.43407 41.4406 5.79416 40.1199 5.60506L39.8365 7.58487ZM34.683 1.79779C34.0625 0.589864 32.3087 0.589864 31.6882 1.79779L33.4672 2.71165C33.3989 2.8445 33.2698 2.89185 33.1856 2.89185C33.1014 2.89185 32.9722 2.8445 32.904 2.71165L34.683 1.79779Z" fill="#FF0000"/>
<path d="M11.8946 5.9837L11.0051 6.44063L11.2413 6.90035L11.7529 6.97361L11.8946 5.9837ZM13.4542 10.6263L12.7663 9.90049L12.3768 10.2696L12.4691 10.7982L13.4542 10.6263ZM9.37114 13.4955L9.82206 12.603L9.37114 12.3752L8.92021 12.603L9.37114 13.4955ZM5.28808 10.6263L6.2732 10.7982L6.36543 10.2696L5.97601 9.90049L5.28808 10.6263ZM6.84767 5.9837L6.98941 6.97361L7.50102 6.90035L7.73717 6.44063L6.84767 5.9837ZM2.20228 7.70138L1.51435 8.42716H1.51435L2.20228 7.70138ZM2.57853 6.59497L2.43679 5.60506L2.57853 6.59497ZM5.55436 15.4238L5.10343 14.5312L5.55436 15.4238ZM4.57019 14.7406L5.5553 14.9125L4.57019 14.7406ZM14.1721 14.7406L13.187 14.9125L14.1721 14.7406ZM13.1879 15.4238L12.737 16.3163L13.1879 15.4238ZM16.1637 6.59497L16.022 7.58487L16.1637 6.59497ZM16.54 7.70138L17.2279 8.42716L16.54 7.70138ZM9.97905 2.25472L9.08955 2.71165V2.71165L9.97905 2.25472ZM8.76322 2.25472L9.65272 2.71165V2.71165L8.76322 2.25472ZM9.08955 2.71165L11.0051 6.44063L12.7841 5.52677L10.8686 1.79779L9.08955 2.71165ZM11.7529 6.97361L16.022 7.58487L16.3055 5.60506L12.0363 4.9938L11.7529 6.97361ZM15.8521 6.97561L12.7663 9.90049L14.1421 11.352L17.2279 8.42716L15.8521 6.97561ZM12.4691 10.7982L13.187 14.9125L15.1572 14.5687L14.4393 10.4544L12.4691 10.7982ZM13.6388 14.5312L9.82206 12.603L8.92021 14.3881L12.737 16.3163L13.6388 14.5312ZM8.92021 12.603L5.10343 14.5312L6.00529 16.3163L9.82206 14.3881L8.92021 12.603ZM5.5553 14.9125L6.2732 10.7982L4.30297 10.4544L3.58507 14.5687L5.5553 14.9125ZM5.97601 9.90049L2.89021 6.97561L1.51435 8.42716L4.60015 11.352L5.97601 9.90049ZM2.72027 7.58487L6.98941 6.97361L6.70593 4.9938L2.43679 5.60506L2.72027 7.58487ZM7.73717 6.44063L9.65272 2.71165L7.87372 1.79779L5.95817 5.52677L7.73717 6.44063ZM2.89021 6.97561C2.99308 7.07311 3.02379 7.23252 2.98094 7.35852C2.93922 7.48122 2.83124 7.56898 2.72027 7.58487L2.43679 5.60506C1.11614 5.79416 0.466626 7.43407 1.51435 8.42716L2.89021 6.97561ZM5.10343 14.5312C5.2082 14.4783 5.32972 14.4968 5.41173 14.5538C5.49648 14.6126 5.58384 14.7489 5.5553 14.9125L3.58507 14.5687C3.3353 16.0002 4.85785 16.896 6.00529 16.3163L5.10343 14.5312ZM13.187 14.9125C13.1584 14.7489 13.2458 14.6126 13.3305 14.5538C13.4126 14.4968 13.5341 14.4783 13.6388 14.5312L12.737 16.3163C13.8844 16.896 15.407 16.0002 15.1572 14.5687L13.187 14.9125ZM16.022 7.58487C15.911 7.56898 15.8031 7.48122 15.7613 7.35852C15.7185 7.23252 15.7492 7.07311 15.8521 6.97561L17.2279 8.42716C18.2756 7.43407 17.6261 5.79416 16.3055 5.60506L16.022 7.58487ZM10.8686 1.79779C10.248 0.589864 8.49423 0.589864 7.87372 1.79779L9.65272 2.71165C9.58448 2.8445 9.45531 2.89185 9.37114 2.89185C9.28696 2.89185 9.15779 2.8445 9.08955 2.71165L10.8686 1.79779Z" fill="#FF0000"/>
<path d="M80.2066 2.25472C80.4551 1.77089 81.1739 1.77089 81.4224 2.25472L83.338 5.9837L87.6071 6.59497C88.1596 6.67407 88.3808 7.32466 87.9833 7.70138L84.8975 10.6263L85.6154 14.7406C85.7081 15.2714 85.1274 15.6745 84.6313 15.4238L80.8145 13.4955L76.9977 15.4238C76.5015 15.6745 75.9209 15.2714 76.0135 14.7406L76.7314 10.6263L73.6456 7.70138C73.2482 7.32466 73.4694 6.67407 74.0219 6.59497L78.291 5.9837L80.2066 2.25472Z" fill="#F64156"/>
<path d="M56.3921 2.25472C56.6407 1.77089 57.3594 1.77089 57.608 2.25472L59.5235 5.9837L63.7926 6.59497C64.3451 6.67407 64.5663 7.32466 64.1689 7.70138L61.0831 10.6263L61.801 14.7406C61.8936 15.2714 61.313 15.6745 60.8168 15.4238L57 13.4955L53.1833 15.4238C52.6871 15.6745 52.1065 15.2714 52.1991 14.7406L52.917 10.6263L49.8312 7.70138C49.4337 7.32466 49.655 6.67407 50.2074 6.59497L54.4766 5.9837L56.3921 2.25472Z" fill="#F64156"/>
<path d="M32.5777 2.25472C32.8262 1.77089 33.545 1.77089 33.7935 2.25472L35.7091 5.9837L39.9782 6.59497C40.5307 6.67407 40.7519 7.32466 40.3544 7.70138L37.2686 10.6263L37.9865 14.7406C38.0792 15.2714 37.4985 15.6745 37.0024 15.4238L33.1856 13.4955L29.3688 15.4238C28.8726 15.6745 28.292 15.2714 28.3846 14.7406L29.1025 10.6263L26.0167 7.70138C25.6193 7.32466 25.8405 6.67407 26.393 6.59497L30.6621 5.9837L32.5777 2.25472Z" fill="#F64156"/>
<path d="M8.76322 2.25472C9.01177 1.77089 9.73051 1.77089 9.97905 2.25472L11.8946 5.9837L16.1637 6.59497C16.7162 6.67407 16.9374 7.32466 16.54 7.70138L13.4542 10.6263L14.1721 14.7406C14.2647 15.2714 13.6841 15.6745 13.1879 15.4238L9.37114 13.4955L5.55436 15.4238C5.05819 15.6745 4.47757 15.2714 4.57019 14.7406L5.28808 10.6263L2.20228 7.70138C1.80483 7.32466 2.02607 6.67407 2.57853 6.59497L6.84767 5.9837L8.76322 2.25472Z" fill="#F64156"/>
</svg>
