<svg width="18" height="16" viewBox="0 0 18 16" fill="none" xmlns="http://www.w3.org/2000/svg">
<path d="M11.1524 5.09186L10.2629 5.54879L10.4991 6.00851L11.0107 6.08176L11.1524 5.09186ZM12.712 9.73442L12.0241 9.00865L11.6347 9.37775L11.7269 9.90631L12.712 9.73442ZM8.62895 12.6037L9.07988 11.7111L8.62895 11.4833L8.17802 11.7111L8.62895 12.6037ZM4.54589 9.73442L5.53101 9.90631L5.62324 9.37775L5.23382 9.00865L4.54589 9.73442ZM6.10548 5.09186L6.24722 6.08176L6.75883 6.00851L6.99498 5.54879L6.10548 5.09186ZM1.46009 6.80954L0.772164 7.53531H0.772164L1.46009 6.80954ZM1.83634 5.70312L1.6946 4.71322L1.83634 5.70312ZM4.81217 14.5319L4.36125 13.6394L4.81217 14.5319ZM3.828 13.8487L4.81312 14.0206L3.828 13.8487ZM13.4299 13.8487L12.4448 14.0206L13.4299 13.8487ZM12.4457 14.5319L11.9948 15.4245L12.4457 14.5319ZM15.4216 5.70312L15.2798 6.69303L15.4216 5.70312ZM15.7978 6.80954L16.4857 7.53531L15.7978 6.80954ZM9.23686 1.36288L8.34736 1.81981V1.81981L9.23686 1.36288ZM8.02104 1.36288L8.91054 1.81981V1.81981L8.02104 1.36288ZM8.34736 1.81981L10.2629 5.54879L12.0419 4.63492L10.1264 0.905946L8.34736 1.81981ZM11.0107 6.08176L15.2798 6.69303L15.5633 4.71322L11.2942 4.10195L11.0107 6.08176ZM15.1099 6.08376L12.0241 9.00865L13.3999 10.4602L16.4857 7.53531L15.1099 6.08376ZM11.7269 9.90631L12.4448 14.0206L14.415 13.6769L13.6971 9.56253L11.7269 9.90631ZM12.8966 13.6394L9.07988 11.7111L8.17802 13.4962L11.9948 15.4245L12.8966 13.6394ZM8.17802 11.7111L4.36125 13.6394L5.2631 15.4245L9.07988 13.4962L8.17802 11.7111ZM4.81312 14.0206L5.53101 9.90631L3.56078 9.56253L2.84288 13.6769L4.81312 14.0206ZM5.23382 9.00865L2.14802 6.08376L0.772164 7.53531L3.85796 10.4602L5.23382 9.00865ZM1.97808 6.69303L6.24722 6.08176L5.96375 4.10195L1.6946 4.71322L1.97808 6.69303ZM6.99498 5.54879L8.91054 1.81981L7.13153 0.905946L5.21598 4.63492L6.99498 5.54879ZM2.14802 6.08376C2.2509 6.18127 2.2816 6.34068 2.23876 6.46667C2.19703 6.58938 2.08906 6.67714 1.97808 6.69303L1.6946 4.71322C0.373957 4.90231 -0.275561 6.54222 0.772164 7.53531L2.14802 6.08376ZM4.36125 13.6394C4.46601 13.5865 4.58753 13.605 4.66954 13.6619C4.7543 13.7208 4.84165 13.8571 4.81312 14.0206L2.84288 13.6769C2.59311 15.1083 4.11567 16.0042 5.2631 15.4245L4.36125 13.6394ZM12.4448 14.0206C12.4162 13.8571 12.5036 13.7208 12.5884 13.6619C12.6704 13.605 12.7919 13.5865 12.8966 13.6394L11.9948 15.4245C13.1422 16.0042 14.6648 15.1083 14.415 13.6769L12.4448 14.0206ZM15.2798 6.69303C15.1688 6.67714 15.0609 6.58938 15.0191 6.46667C14.9763 6.34068 15.007 6.18127 15.1099 6.08376L16.4857 7.53531C17.5335 6.54222 16.8839 4.90231 15.5633 4.71322L15.2798 6.69303ZM10.1264 0.905946C9.50586 -0.301982 7.75204 -0.301982 7.13153 0.905946L8.91054 1.81981C8.84229 1.95266 8.71313 2 8.62895 2C8.54477 2 8.4156 1.95266 8.34736 1.81981L10.1264 0.905946Z" fill="#FF0000"/>
</svg>
